%TF.GenerationSoftware,KiCad,Pcbnew,6.0.11-2627ca5db0~126~ubuntu22.04.1*%
%TF.CreationDate,2026-06-25T09:29:55-03:00*%
%TF.ProjectId,Adaptador_teclado_ms101,41646170-7461-4646-9f72-5f7465636c61,rev?*%
%TF.SameCoordinates,Original*%
%TF.FileFunction,Copper,L1,Top*%
%TF.FilePolarity,Positive*%
%FSLAX46Y46*%
G04 Gerber Fmt 4.6, Leading zero omitted, Abs format (unit mm)*
G04 Created by KiCad (PCBNEW 6.0.11-2627ca5db0~126~ubuntu22.04.1) date 2026-06-25 09:29:55*
%MOMM*%
%LPD*%
G01*
G04 APERTURE LIST*
%TA.AperFunction,Profile*%
%ADD10C,0.100000*%
%TD*%
%TA.AperFunction,ComponentPad*%
%ADD11C,2.500000*%
%TD*%
%TA.AperFunction,ComponentPad*%
%ADD12O,2.500000X2.500000*%
%TD*%
%TA.AperFunction,ComponentPad*%
%ADD13R,3.000000X2.000000*%
%TD*%
%TA.AperFunction,ComponentPad*%
%ADD14O,3.000000X2.000000*%
%TD*%
%TA.AperFunction,ComponentPad*%
%ADD15O,2.000000X3.000000*%
%TD*%
%TA.AperFunction,ComponentPad*%
%ADD16O,3.000000X1.600000*%
%TD*%
%TA.AperFunction,ComponentPad*%
%ADD17O,1.600000X3.000000*%
%TD*%
%TA.AperFunction,ComponentPad*%
%ADD18O,3.000000X4.000000*%
%TD*%
%TA.AperFunction,ComponentPad*%
%ADD19O,3.500000X3.000000*%
%TD*%
%TA.AperFunction,SMDPad,CuDef*%
%ADD20R,3.480000X1.846667*%
%TD*%
%TA.AperFunction,ComponentPad*%
%ADD21R,2.500000X2.500000*%
%TD*%
%TA.AperFunction,ComponentPad*%
%ADD22R,2.000000X2.500000*%
%TD*%
%TA.AperFunction,ComponentPad*%
%ADD23O,2.000000X2.500000*%
%TD*%
%TA.AperFunction,Conductor*%
%ADD24C,1.000000*%
%TD*%
G04 APERTURE END LIST*
D10*
X161700000Y-63700000D02*
X112500000Y-63700000D01*
X112500000Y-63700000D02*
X112500000Y-120000000D01*
X112500000Y-120000000D02*
X161700000Y-120000000D01*
X161700000Y-120000000D02*
X161700000Y-63700000D01*
D11*
%TO.P,C1,1*%
%TO.N,+5V*%
X158850000Y-71850000D03*
%TO.P,C1,2*%
%TO.N,GND*%
X158850000Y-66850000D03*
%TD*%
%TO.P,R3,1*%
%TO.N,Net-(R3-Pad1)*%
X116200000Y-75150000D03*
D12*
%TO.P,R3,2*%
%TO.N,GND*%
X128900000Y-75150000D03*
%TD*%
D13*
%TO.P,U1,1,VBAT*%
%TO.N,unconnected-(U1-Pad1)*%
X135830000Y-67989200D03*
D14*
%TO.P,U1,2,PC13_LED*%
%TO.N,unconnected-(U1-Pad2)*%
X135830000Y-70529200D03*
%TO.P,U1,3,PC14*%
%TO.N,unconnected-(U1-Pad3)*%
X135830000Y-73069200D03*
%TO.P,U1,4,PC15*%
%TO.N,unconnected-(U1-Pad4)*%
X135830000Y-75609200D03*
%TO.P,U1,5,PA0*%
%TO.N,unconnected-(U1-Pad5)*%
X135830000Y-78149200D03*
%TO.P,U1,6,PA1*%
%TO.N,unconnected-(U1-Pad6)*%
X135830000Y-80689200D03*
%TO.P,U1,7,PA2_TX2*%
%TO.N,unconnected-(U1-Pad7)*%
X135830000Y-83229200D03*
%TO.P,U1,8,PA3_RX2*%
%TO.N,unconnected-(U1-Pad8)*%
X135830000Y-85769200D03*
%TO.P,U1,9,PA4*%
%TO.N,unconnected-(U1-Pad9)*%
X135830000Y-88309200D03*
%TO.P,U1,10,PA5_SCK1*%
%TO.N,unconnected-(U1-Pad10)*%
X135830000Y-90849200D03*
%TO.P,U1,11,PA6_MISO1*%
%TO.N,unconnected-(U1-Pad11)*%
X135830000Y-93389200D03*
%TO.P,U1,12,PA7_MOSI1*%
%TO.N,unconnected-(U1-Pad12)*%
X135830000Y-95929200D03*
%TO.P,U1,13,PB0*%
%TO.N,unconnected-(U1-Pad13)*%
X135830000Y-98469200D03*
%TO.P,U1,14,PB1*%
%TO.N,unconnected-(U1-Pad14)*%
X135830000Y-101009200D03*
%TO.P,U1,15,PB10_SCL2*%
%TO.N,/PS{slash}2_CLK*%
X135830000Y-103549200D03*
%TO.P,U1,16,PB11_SDA2*%
%TO.N,/PS{slash}2_DATA*%
X135830000Y-106089200D03*
%TO.P,U1,17,NRST*%
%TO.N,unconnected-(U1-Pad17)*%
X135830000Y-108629200D03*
%TO.P,U1,18,VCC3V3*%
%TO.N,unconnected-(U1-Pad18)*%
X135830000Y-111169200D03*
%TO.P,U1,19,GND*%
%TO.N,GND*%
X135830000Y-113709200D03*
%TO.P,U1,20,GND*%
X135830000Y-116249200D03*
%TO.P,U1,21,PB12*%
%TO.N,unconnected-(U1-Pad21)*%
X151070000Y-116249200D03*
%TO.P,U1,22,PB13_SCK2*%
%TO.N,unconnected-(U1-Pad22)*%
X151070000Y-113709200D03*
%TO.P,U1,23,PB14_MISO2*%
%TO.N,unconnected-(U1-Pad23)*%
X151070000Y-111169200D03*
%TO.P,U1,24,PB15_MOSI2*%
%TO.N,unconnected-(U1-Pad24)*%
X151070000Y-108629200D03*
%TO.P,U1,25,PA8*%
%TO.N,unconnected-(U1-Pad25)*%
X151070000Y-106089200D03*
%TO.P,U1,26,PA9_TX1*%
%TO.N,unconnected-(U1-Pad26)*%
X151070000Y-103549200D03*
%TO.P,U1,27,PA10_RX1*%
%TO.N,unconnected-(U1-Pad27)*%
X151070000Y-101009200D03*
%TO.P,U1,28,PA11_USB_D-*%
%TO.N,/CNT_STB*%
X151070000Y-98469200D03*
%TO.P,U1,29,PA12_USBD+*%
%TO.N,/F9*%
X151070000Y-95929200D03*
%TO.P,U1,30,PA15*%
%TO.N,/F8*%
X151070000Y-93389200D03*
%TO.P,U1,31,PB3*%
%TO.N,/B5*%
X151070000Y-90849200D03*
%TO.P,U1,32,PB4*%
%TO.N,/B4*%
X151070000Y-88309200D03*
%TO.P,U1,33,PB5*%
%TO.N,unconnected-(U1-Pad33)*%
X151070000Y-85769200D03*
%TO.P,U1,34,PB6_SCL1*%
%TO.N,/B3*%
X151070000Y-83229200D03*
%TO.P,U1,35,PB7_SDA1*%
%TO.N,/B2*%
X151070000Y-80689200D03*
%TO.P,U1,36,PB8*%
%TO.N,/B1*%
X151070000Y-78149200D03*
%TO.P,U1,37,PB9*%
%TO.N,/B0*%
X151070000Y-75609200D03*
%TO.P,U1,38,5V_USB*%
%TO.N,+5V*%
X151070000Y-73069200D03*
%TO.P,U1,39,GND*%
%TO.N,GND*%
X151070000Y-70529200D03*
%TO.P,U1,40,VCC3V3*%
%TO.N,unconnected-(U1-Pad40)*%
X151070000Y-67938400D03*
D15*
%TO.P,U1,41,PA14_SWCLK*%
%TO.N,unconnected-(U1-Pad41)*%
X144730000Y-71799200D03*
%TO.P,U1,42,PA13_SWDIO*%
%TO.N,unconnected-(U1-Pad42)*%
X142190000Y-71799200D03*
%TD*%
D16*
%TO.P,J1,1,Pin_1*%
%TO.N,/PS{slash}2_DATA*%
X123525000Y-111960000D03*
%TO.P,J1,2,Pin_2*%
%TO.N,unconnected-(J1-Pad2)*%
X123525000Y-109360000D03*
%TO.P,J1,3,Pin_3*%
%TO.N,GND*%
X123525000Y-114060000D03*
%TO.P,J1,4,Pin_4*%
%TO.N,+5V*%
X123525000Y-107260000D03*
D17*
%TO.P,J1,5,Pin_5*%
%TO.N,/PS{slash}2_CLK*%
X126325000Y-114060000D03*
%TO.P,J1,6,Pin_6*%
%TO.N,unconnected-(J1-Pad6)*%
X126325000Y-107260000D03*
D18*
%TO.P,J1,7,Pin_7*%
%TO.N,unconnected-(J1-Pad7)*%
X119875000Y-110660000D03*
D19*
X120675000Y-103810000D03*
X120675000Y-117510000D03*
%TD*%
D11*
%TO.P,,1*%
%TO.N,+5V*%
X159000000Y-115250000D03*
%TD*%
%TO.P,R1,1*%
%TO.N,+5V*%
X115800000Y-98900000D03*
D12*
%TO.P,R1,2*%
%TO.N,/PS{slash}2_DATA*%
X128500000Y-98900000D03*
%TD*%
D11*
%TO.P,,1,-*%
%TO.N,/Parlante+*%
X129500000Y-89700000D03*
%TD*%
%TO.P,R2,1*%
%TO.N,+5V*%
X115850000Y-94550000D03*
D12*
%TO.P,R2,2*%
%TO.N,/PS{slash}2_CLK*%
X128550000Y-94550000D03*
%TD*%
D20*
%TO.P,J2,1,1*%
%TO.N,GND*%
X159637500Y-75330000D03*
%TO.P,J2,2,2*%
X159637500Y-78100000D03*
%TO.P,J2,3,3*%
X159637500Y-80870000D03*
%TO.P,J2,4,4*%
X159637500Y-83640000D03*
%TO.P,J2,5,5*%
X159637500Y-86410000D03*
%TO.P,J2,6,6*%
X159637500Y-89180000D03*
%TO.P,J2,7,7*%
X159637500Y-91950000D03*
%TO.P,J2,8,8*%
%TO.N,/Parlante-*%
X159637500Y-94720000D03*
%TO.P,J2,9,9*%
%TO.N,/Parlante+*%
X159637500Y-97490000D03*
%TO.P,J2,10,10*%
%TO.N,unconnected-(J2-Pad10)*%
X159637500Y-100260000D03*
%TO.P,J2,11,11*%
%TO.N,unconnected-(J2-Pad11)*%
X159637500Y-103030000D03*
%TO.P,J2,12,12*%
%TO.N,+5V*%
X159637500Y-105800000D03*
%TO.P,J2,13,13*%
%TO.N,unconnected-(J2-Pad13)*%
X159637500Y-108570000D03*
%TD*%
D21*
%TO.P,BZ1,1,-*%
%TO.N,/Parlante+*%
X122300000Y-88400000D03*
D11*
%TO.P,BZ1,2,+*%
%TO.N,/Parlante-*%
X122300000Y-80800000D03*
%TD*%
D22*
%TO.P,D1,1,K*%
%TO.N,Net-(R3-Pad1)*%
X121325000Y-68750000D03*
D23*
%TO.P,D1,2,A*%
%TO.N,+5V*%
X123865000Y-68750000D03*
%TD*%
D11*
%TO.P,,2,+*%
%TO.N,/Parlante-*%
X128650000Y-69500000D03*
%TD*%
D24*
%TO.N,/Parlante+*%
X157910000Y-97490000D02*
X159637500Y-97490000D01*
X154250000Y-116397627D02*
X154250000Y-101150000D01*
X154250000Y-101150000D02*
X157910000Y-97490000D01*
X134502373Y-118250000D02*
X152397627Y-118250000D01*
X152397627Y-118250000D02*
X154250000Y-116397627D01*
X126250000Y-100221320D02*
X133330000Y-107301320D01*
X133330000Y-117077627D02*
X134502373Y-118250000D01*
X133330000Y-107301320D02*
X133330000Y-117077627D01*
X129500000Y-89700000D02*
X126250000Y-92950000D01*
X126250000Y-92950000D02*
X126250000Y-100221320D01*
%TO.N,/Parlante-*%
X154700000Y-92522500D02*
X156897500Y-94720000D01*
X152438400Y-65938400D02*
X154700000Y-68200000D01*
X156897500Y-94720000D02*
X159637500Y-94720000D01*
X132211600Y-65938400D02*
X152438400Y-65938400D01*
X154700000Y-68200000D02*
X154700000Y-92522500D01*
X128650000Y-69500000D02*
X132211600Y-65938400D01*
%TO.N,+5V*%
X157700000Y-105800000D02*
X159637500Y-105800000D01*
X115850000Y-78681981D02*
X123865000Y-70666981D01*
X156897500Y-106602500D02*
X157700000Y-105800000D01*
X115800000Y-94600000D02*
X115850000Y-94550000D01*
X159000000Y-115250000D02*
X156897500Y-113147500D01*
X115800000Y-98900000D02*
X115800000Y-94600000D01*
X156897500Y-113147500D02*
X156897500Y-106602500D01*
X123865000Y-70666981D02*
X123865000Y-68750000D01*
X115850000Y-94550000D02*
X115850000Y-78681981D01*
%TO.N,GND*%
X159148019Y-75330000D02*
X159637500Y-75330000D01*
X158850000Y-66850000D02*
X156600000Y-69100000D01*
X159637500Y-86410000D02*
X159637500Y-89180000D01*
X159637500Y-83640000D02*
X159637500Y-86410000D01*
X156600000Y-72781981D02*
X159148019Y-75330000D01*
X159637500Y-80870000D02*
X159637500Y-83640000D01*
X159637500Y-75330000D02*
X159637500Y-78100000D01*
X159637500Y-89180000D02*
X159637500Y-91950000D01*
X156600000Y-69100000D02*
X156600000Y-72781981D01*
X159637500Y-78100000D02*
X159637500Y-80870000D01*
%TO.N,/PS{slash}2_DATA*%
X128500000Y-100350000D02*
X134239200Y-106089200D01*
X128500000Y-98900000D02*
X128500000Y-100350000D01*
X134239200Y-106089200D02*
X135830000Y-106089200D01*
%TO.N,/PS{slash}2_CLK*%
X134999200Y-103549200D02*
X135830000Y-103549200D01*
X132500000Y-101050000D02*
X134999200Y-103549200D01*
X128550000Y-94550000D02*
X132500000Y-98500000D01*
X132500000Y-98500000D02*
X132500000Y-101050000D01*
%TO.N,unconnected-(J1-Pad7)*%
X120675000Y-103810000D02*
X120675000Y-109860000D01*
X119875000Y-110660000D02*
X119875000Y-116710000D01*
X120675000Y-109860000D02*
X119875000Y-110660000D01*
X119875000Y-116710000D02*
X120675000Y-117510000D01*
%TD*%
%TA.AperFunction,Conductor*%
%TO.N,GND*%
G36*
X161133621Y-64228502D02*
G01*
X161180114Y-64282158D01*
X161191500Y-64334500D01*
X161191500Y-73772667D01*
X161171498Y-73840788D01*
X161117842Y-73887281D01*
X161065500Y-73898667D01*
X159909615Y-73898667D01*
X159894376Y-73903142D01*
X159893171Y-73904532D01*
X159891500Y-73912215D01*
X159891500Y-92078000D01*
X159871498Y-92146121D01*
X159817842Y-92192614D01*
X159765500Y-92204000D01*
X157407616Y-92204000D01*
X157392377Y-92208475D01*
X157391172Y-92209865D01*
X157389501Y-92217548D01*
X157389501Y-92918002D01*
X157389871Y-92924823D01*
X157395395Y-92975685D01*
X157399021Y-92990937D01*
X157444176Y-93111387D01*
X157452714Y-93126982D01*
X157529215Y-93229057D01*
X157545706Y-93245548D01*
X157579732Y-93307860D01*
X157574667Y-93378675D01*
X157545706Y-93423738D01*
X157541419Y-93428025D01*
X157534239Y-93433406D01*
X157446885Y-93549962D01*
X157435638Y-93579962D01*
X157392999Y-93636725D01*
X157326438Y-93661426D01*
X157257089Y-93646219D01*
X157228562Y-93624827D01*
X155745405Y-92141671D01*
X155711380Y-92079359D01*
X155708500Y-92052576D01*
X155708500Y-91677885D01*
X157389500Y-91677885D01*
X157393975Y-91693124D01*
X157395365Y-91694329D01*
X157403048Y-91696000D01*
X159365385Y-91696000D01*
X159380624Y-91691525D01*
X159381829Y-91690135D01*
X159383500Y-91682452D01*
X159383500Y-89452115D01*
X159379025Y-89436876D01*
X159377635Y-89435671D01*
X159369952Y-89434000D01*
X157407616Y-89434000D01*
X157392377Y-89438475D01*
X157391172Y-89439865D01*
X157389501Y-89447548D01*
X157389501Y-90148002D01*
X157389871Y-90154823D01*
X157395395Y-90205685D01*
X157399021Y-90220937D01*
X157444176Y-90341387D01*
X157452714Y-90356982D01*
X157529215Y-90459057D01*
X157546063Y-90475905D01*
X157580089Y-90538217D01*
X157575024Y-90609032D01*
X157546063Y-90654095D01*
X157529215Y-90670943D01*
X157452714Y-90773018D01*
X157444176Y-90788613D01*
X157399022Y-90909061D01*
X157395395Y-90924316D01*
X157389869Y-90975181D01*
X157389500Y-90981995D01*
X157389500Y-91677885D01*
X155708500Y-91677885D01*
X155708500Y-88907885D01*
X157389500Y-88907885D01*
X157393975Y-88923124D01*
X157395365Y-88924329D01*
X157403048Y-88926000D01*
X159365385Y-88926000D01*
X159380624Y-88921525D01*
X159381829Y-88920135D01*
X159383500Y-88912452D01*
X159383500Y-86682115D01*
X159379025Y-86666876D01*
X159377635Y-86665671D01*
X159369952Y-86664000D01*
X157407616Y-86664000D01*
X157392377Y-86668475D01*
X157391172Y-86669865D01*
X157389501Y-86677548D01*
X157389501Y-87378002D01*
X157389871Y-87384823D01*
X157395395Y-87435685D01*
X157399021Y-87450937D01*
X157444176Y-87571387D01*
X157452714Y-87586982D01*
X157529215Y-87689057D01*
X157546063Y-87705905D01*
X157580089Y-87768217D01*
X157575024Y-87839032D01*
X157546063Y-87884095D01*
X157529215Y-87900943D01*
X157452714Y-88003018D01*
X157444176Y-88018613D01*
X157399022Y-88139061D01*
X157395395Y-88154316D01*
X157389869Y-88205181D01*
X157389500Y-88211995D01*
X157389500Y-88907885D01*
X155708500Y-88907885D01*
X155708500Y-86137885D01*
X157389500Y-86137885D01*
X157393975Y-86153124D01*
X157395365Y-86154329D01*
X157403048Y-86156000D01*
X159365385Y-86156000D01*
X159380624Y-86151525D01*
X159381829Y-86150135D01*
X159383500Y-86142452D01*
X159383500Y-83912115D01*
X159379025Y-83896876D01*
X159377635Y-83895671D01*
X159369952Y-83894000D01*
X157407616Y-83894000D01*
X157392377Y-83898475D01*
X157391172Y-83899865D01*
X157389501Y-83907548D01*
X157389501Y-84608002D01*
X157389871Y-84614823D01*
X157395395Y-84665685D01*
X157399021Y-84680937D01*
X157444176Y-84801387D01*
X157452714Y-84816982D01*
X157529215Y-84919057D01*
X157546063Y-84935905D01*
X157580089Y-84998217D01*
X157575024Y-85069032D01*
X157546063Y-85114095D01*
X157529215Y-85130943D01*
X157452714Y-85233018D01*
X157444176Y-85248613D01*
X157399022Y-85369061D01*
X157395395Y-85384316D01*
X157389869Y-85435181D01*
X157389500Y-85441995D01*
X157389500Y-86137885D01*
X155708500Y-86137885D01*
X155708500Y-83367885D01*
X157389500Y-83367885D01*
X157393975Y-83383124D01*
X157395365Y-83384329D01*
X157403048Y-83386000D01*
X159365385Y-83386000D01*
X159380624Y-83381525D01*
X159381829Y-83380135D01*
X159383500Y-83372452D01*
X159383500Y-81142115D01*
X159379025Y-81126876D01*
X159377635Y-81125671D01*
X159369952Y-81124000D01*
X157407616Y-81124000D01*
X157392377Y-81128475D01*
X157391172Y-81129865D01*
X157389501Y-81137548D01*
X157389501Y-81838002D01*
X157389871Y-81844823D01*
X157395395Y-81895685D01*
X157399021Y-81910937D01*
X157444176Y-82031387D01*
X157452714Y-82046982D01*
X157529215Y-82149057D01*
X157546063Y-82165905D01*
X157580089Y-82228217D01*
X157575024Y-82299032D01*
X157546063Y-82344095D01*
X157529215Y-82360943D01*
X157452714Y-82463018D01*
X157444176Y-82478613D01*
X157399022Y-82599061D01*
X157395395Y-82614316D01*
X157389869Y-82665181D01*
X157389500Y-82671995D01*
X157389500Y-83367885D01*
X155708500Y-83367885D01*
X155708500Y-80597885D01*
X157389500Y-80597885D01*
X157393975Y-80613124D01*
X157395365Y-80614329D01*
X157403048Y-80616000D01*
X159365385Y-80616000D01*
X159380624Y-80611525D01*
X159381829Y-80610135D01*
X159383500Y-80602452D01*
X159383500Y-78372115D01*
X159379025Y-78356876D01*
X159377635Y-78355671D01*
X159369952Y-78354000D01*
X157407616Y-78354000D01*
X157392377Y-78358475D01*
X157391172Y-78359865D01*
X157389501Y-78367548D01*
X157389501Y-79068002D01*
X157389871Y-79074823D01*
X157395395Y-79125685D01*
X157399021Y-79140937D01*
X157444176Y-79261387D01*
X157452714Y-79276982D01*
X157529215Y-79379057D01*
X157546063Y-79395905D01*
X157580089Y-79458217D01*
X157575024Y-79529032D01*
X157546063Y-79574095D01*
X157529215Y-79590943D01*
X157452714Y-79693018D01*
X157444176Y-79708613D01*
X157399022Y-79829061D01*
X157395395Y-79844316D01*
X157389869Y-79895181D01*
X157389500Y-79901995D01*
X157389500Y-80597885D01*
X155708500Y-80597885D01*
X155708500Y-77827885D01*
X157389500Y-77827885D01*
X157393975Y-77843124D01*
X157395365Y-77844329D01*
X157403048Y-77846000D01*
X159365385Y-77846000D01*
X159380624Y-77841525D01*
X159381829Y-77840135D01*
X159383500Y-77832452D01*
X159383500Y-75602115D01*
X159379025Y-75586876D01*
X159377635Y-75585671D01*
X159369952Y-75584000D01*
X157407616Y-75584000D01*
X157392377Y-75588475D01*
X157391172Y-75589865D01*
X157389501Y-75597548D01*
X157389501Y-76298002D01*
X157389871Y-76304823D01*
X157395395Y-76355685D01*
X157399021Y-76370937D01*
X157444176Y-76491387D01*
X157452714Y-76506982D01*
X157529215Y-76609057D01*
X157546063Y-76625905D01*
X157580089Y-76688217D01*
X157575024Y-76759032D01*
X157546063Y-76804095D01*
X157529215Y-76820943D01*
X157452714Y-76923018D01*
X157444176Y-76938613D01*
X157399022Y-77059061D01*
X157395395Y-77074316D01*
X157389869Y-77125181D01*
X157389500Y-77131995D01*
X157389500Y-77827885D01*
X155708500Y-77827885D01*
X155708500Y-75057885D01*
X157389500Y-75057885D01*
X157393975Y-75073124D01*
X157395365Y-75074329D01*
X157403048Y-75076000D01*
X159365385Y-75076000D01*
X159380624Y-75071525D01*
X159381829Y-75070135D01*
X159383500Y-75062452D01*
X159383500Y-73916783D01*
X159379025Y-73901544D01*
X159377635Y-73900339D01*
X159369952Y-73898668D01*
X157852831Y-73898668D01*
X157846010Y-73899038D01*
X157795148Y-73904562D01*
X157779896Y-73908188D01*
X157659446Y-73953343D01*
X157643851Y-73961881D01*
X157541776Y-74038382D01*
X157529215Y-74050943D01*
X157452714Y-74153018D01*
X157444176Y-74168613D01*
X157399022Y-74289061D01*
X157395395Y-74304316D01*
X157389869Y-74355181D01*
X157389500Y-74361995D01*
X157389500Y-75057885D01*
X155708500Y-75057885D01*
X155708500Y-71803839D01*
X157087173Y-71803839D01*
X157087397Y-71808505D01*
X157087397Y-71808511D01*
X157089239Y-71846851D01*
X157099713Y-72064908D01*
X157150704Y-72321256D01*
X157239026Y-72567252D01*
X157241242Y-72571376D01*
X157305753Y-72691437D01*
X157362737Y-72797491D01*
X157365532Y-72801234D01*
X157365534Y-72801237D01*
X157516330Y-73003177D01*
X157516335Y-73003183D01*
X157519122Y-73006915D01*
X157522431Y-73010195D01*
X157522436Y-73010201D01*
X157635233Y-73122017D01*
X157704743Y-73190923D01*
X157708505Y-73193681D01*
X157708508Y-73193684D01*
X157864199Y-73307841D01*
X157915524Y-73345474D01*
X157919667Y-73347654D01*
X157919669Y-73347655D01*
X158142684Y-73464989D01*
X158142689Y-73464991D01*
X158146834Y-73467172D01*
X158393590Y-73553344D01*
X158398183Y-73554216D01*
X158645785Y-73601224D01*
X158645788Y-73601224D01*
X158650374Y-73602095D01*
X158780958Y-73607226D01*
X158906875Y-73612174D01*
X158906881Y-73612174D01*
X158911543Y-73612357D01*
X158990977Y-73603657D01*
X159166707Y-73584412D01*
X159166712Y-73584411D01*
X159171360Y-73583902D01*
X159284116Y-73554216D01*
X159419594Y-73518548D01*
X159419596Y-73518547D01*
X159424117Y-73517357D01*
X159429662Y-73514975D01*
X159610670Y-73437207D01*
X159664262Y-73414182D01*
X159886519Y-73276646D01*
X159890082Y-73273629D01*
X159890087Y-73273626D01*
X160082439Y-73110787D01*
X160082440Y-73110786D01*
X160086005Y-73107768D01*
X160106736Y-73084128D01*
X160255257Y-72914774D01*
X160255261Y-72914769D01*
X160258339Y-72911259D01*
X160262307Y-72905091D01*
X160397205Y-72695367D01*
X160399733Y-72691437D01*
X160507083Y-72453129D01*
X160545567Y-72316676D01*
X160576760Y-72206076D01*
X160576761Y-72206073D01*
X160578030Y-72201572D01*
X160594832Y-72069496D01*
X160610616Y-71945421D01*
X160610616Y-71945417D01*
X160611014Y-71942291D01*
X160612129Y-71899735D01*
X160613348Y-71853160D01*
X160613431Y-71850000D01*
X160600974Y-71682369D01*
X160594407Y-71594000D01*
X160594406Y-71593996D01*
X160594061Y-71589348D01*
X160592738Y-71583497D01*
X160540481Y-71352560D01*
X160536377Y-71334423D01*
X160512065Y-71271905D01*
X160443340Y-71095176D01*
X160443339Y-71095173D01*
X160441647Y-71090823D01*
X160428031Y-71066999D01*
X160385569Y-70992707D01*
X160311951Y-70863902D01*
X160150138Y-70658643D01*
X159959763Y-70479557D01*
X159766330Y-70345367D01*
X159748851Y-70333241D01*
X159748848Y-70333239D01*
X159745009Y-70330576D01*
X159740816Y-70328508D01*
X159514781Y-70217040D01*
X159514778Y-70217039D01*
X159510593Y-70214975D01*
X159503949Y-70212848D01*
X159266123Y-70136720D01*
X159261665Y-70135293D01*
X159003693Y-70093279D01*
X158889942Y-70091790D01*
X158747022Y-70089919D01*
X158747019Y-70089919D01*
X158742345Y-70089858D01*
X158483362Y-70125104D01*
X158232433Y-70198243D01*
X158228180Y-70200203D01*
X158228179Y-70200204D01*
X158191659Y-70217040D01*
X157995072Y-70307668D01*
X157956067Y-70333241D01*
X157780404Y-70448410D01*
X157780399Y-70448414D01*
X157776491Y-70450976D01*
X157581494Y-70625018D01*
X157414363Y-70825970D01*
X157411934Y-70829973D01*
X157311506Y-70995474D01*
X157278771Y-71049419D01*
X157177697Y-71290455D01*
X157113359Y-71543783D01*
X157112891Y-71548434D01*
X157112890Y-71548438D01*
X157109229Y-71584794D01*
X157087173Y-71803839D01*
X155708500Y-71803839D01*
X155708500Y-68261840D01*
X155708647Y-68259133D01*
X157805612Y-68259133D01*
X157814325Y-68270653D01*
X157912018Y-68342284D01*
X157919928Y-68347227D01*
X158142890Y-68464533D01*
X158151453Y-68468256D01*
X158389304Y-68551318D01*
X158398313Y-68553732D01*
X158645842Y-68600727D01*
X158655098Y-68601781D01*
X158906857Y-68611673D01*
X158916171Y-68611347D01*
X159166615Y-68583920D01*
X159175792Y-68582219D01*
X159419431Y-68518074D01*
X159428251Y-68515037D01*
X159659736Y-68415583D01*
X159668008Y-68411276D01*
X159882249Y-68278700D01*
X159889188Y-68273658D01*
X159897518Y-68261019D01*
X159891456Y-68250666D01*
X158862812Y-67222022D01*
X158848868Y-67214408D01*
X158847035Y-67214539D01*
X158840420Y-67218790D01*
X157812270Y-68246940D01*
X157805612Y-68259133D01*
X155708647Y-68259133D01*
X155709237Y-68248232D01*
X155712659Y-68216736D01*
X155712659Y-68216732D01*
X155713324Y-68210611D01*
X155711749Y-68192611D01*
X155708950Y-68160609D01*
X155708621Y-68155784D01*
X155708500Y-68153313D01*
X155708500Y-68150231D01*
X155704309Y-68107489D01*
X155704187Y-68106174D01*
X155701364Y-68073913D01*
X155696087Y-68013587D01*
X155694600Y-68008468D01*
X155694080Y-68003167D01*
X155667218Y-67914194D01*
X155666862Y-67912994D01*
X155662350Y-67897463D01*
X155640909Y-67823663D01*
X155638455Y-67818929D01*
X155636916Y-67813831D01*
X155628947Y-67798844D01*
X155593316Y-67731831D01*
X155592702Y-67730663D01*
X155552726Y-67653541D01*
X155552725Y-67653540D01*
X155549892Y-67648074D01*
X155546569Y-67643911D01*
X155544066Y-67639204D01*
X155503642Y-67589639D01*
X155485263Y-67567105D01*
X155484500Y-67566160D01*
X155453261Y-67527027D01*
X155450770Y-67524536D01*
X155450120Y-67523809D01*
X155446408Y-67519463D01*
X155422955Y-67490708D01*
X155419065Y-67485938D01*
X155414323Y-67482015D01*
X155414321Y-67482013D01*
X155383727Y-67456703D01*
X155374947Y-67448713D01*
X154734757Y-66808523D01*
X157087898Y-66808523D01*
X157099987Y-67060175D01*
X157101124Y-67069435D01*
X157150274Y-67316535D01*
X157152768Y-67325528D01*
X157237900Y-67562639D01*
X157241700Y-67571174D01*
X157360946Y-67793101D01*
X157365957Y-67800968D01*
X157429446Y-67885990D01*
X157440704Y-67894439D01*
X157453123Y-67887667D01*
X158477978Y-66862812D01*
X158484356Y-66851132D01*
X159214408Y-66851132D01*
X159214539Y-66852965D01*
X159218790Y-66859580D01*
X160249913Y-67890703D01*
X160262293Y-67897463D01*
X160270634Y-67891219D01*
X160396765Y-67695127D01*
X160401212Y-67686936D01*
X160504691Y-67457222D01*
X160507882Y-67448455D01*
X160576269Y-67205976D01*
X160578129Y-67196834D01*
X160610116Y-66945396D01*
X160610597Y-66939108D01*
X160612847Y-66853160D01*
X160612696Y-66846851D01*
X160593912Y-66594074D01*
X160592536Y-66584868D01*
X160536929Y-66339126D01*
X160534205Y-66330215D01*
X160442888Y-66095392D01*
X160438877Y-66086983D01*
X160313854Y-65868240D01*
X160308643Y-65860514D01*
X160271391Y-65813261D01*
X160259466Y-65804790D01*
X160247934Y-65811276D01*
X159222022Y-66837188D01*
X159214408Y-66851132D01*
X158484356Y-66851132D01*
X158485592Y-66848868D01*
X158485461Y-66847035D01*
X158481210Y-66840420D01*
X157451321Y-65810531D01*
X157438013Y-65803264D01*
X157427974Y-65810386D01*
X157417761Y-65822666D01*
X157412346Y-65830258D01*
X157281646Y-66045646D01*
X157277408Y-66053963D01*
X157179981Y-66286299D01*
X157177020Y-66295149D01*
X157115006Y-66539331D01*
X157113384Y-66548528D01*
X157088143Y-66799198D01*
X157087898Y-66808523D01*
X154734757Y-66808523D01*
X153365037Y-65438803D01*
X157803216Y-65438803D01*
X157807789Y-65448579D01*
X158837188Y-66477978D01*
X158851132Y-66485592D01*
X158852965Y-66485461D01*
X158859580Y-66481210D01*
X159888419Y-65452371D01*
X159894803Y-65440681D01*
X159885391Y-65428570D01*
X159748593Y-65333670D01*
X159740565Y-65328942D01*
X159514593Y-65217505D01*
X159505960Y-65214017D01*
X159265998Y-65137205D01*
X159256938Y-65135029D01*
X159008260Y-65094529D01*
X158998973Y-65093717D01*
X158747053Y-65090419D01*
X158737742Y-65090989D01*
X158488097Y-65124964D01*
X158478978Y-65126902D01*
X158237098Y-65197404D01*
X158228367Y-65200667D01*
X157999558Y-65306151D01*
X157991406Y-65310670D01*
X157812353Y-65428062D01*
X157803216Y-65438803D01*
X153365037Y-65438803D01*
X153195255Y-65269021D01*
X153186153Y-65258878D01*
X153166297Y-65234182D01*
X153162432Y-65229375D01*
X153123978Y-65197108D01*
X153120331Y-65193928D01*
X153118519Y-65192285D01*
X153116325Y-65190091D01*
X153083051Y-65162758D01*
X153082253Y-65162096D01*
X153010926Y-65102246D01*
X153006256Y-65099678D01*
X153002139Y-65096297D01*
X152920314Y-65052423D01*
X152919155Y-65051794D01*
X152843019Y-65009938D01*
X152843011Y-65009935D01*
X152837613Y-65006967D01*
X152832531Y-65005355D01*
X152827837Y-65002838D01*
X152738869Y-64975638D01*
X152737841Y-64975318D01*
X152649094Y-64947165D01*
X152643798Y-64946571D01*
X152638702Y-64945013D01*
X152546143Y-64935610D01*
X152545007Y-64935489D01*
X152511392Y-64931719D01*
X152498670Y-64930292D01*
X152498666Y-64930292D01*
X152495173Y-64929900D01*
X152491646Y-64929900D01*
X152490661Y-64929845D01*
X152484981Y-64929398D01*
X152455575Y-64926411D01*
X152448063Y-64925648D01*
X152448061Y-64925648D01*
X152441938Y-64925026D01*
X152399659Y-64929023D01*
X152396291Y-64929341D01*
X152384433Y-64929900D01*
X132273443Y-64929900D01*
X132259836Y-64929163D01*
X132228338Y-64925741D01*
X132228333Y-64925741D01*
X132222212Y-64925076D01*
X132195962Y-64927373D01*
X132172212Y-64929450D01*
X132167386Y-64929779D01*
X132164914Y-64929900D01*
X132161831Y-64929900D01*
X132149862Y-64931074D01*
X132119094Y-64934090D01*
X132117781Y-64934212D01*
X132073516Y-64938085D01*
X132025187Y-64942313D01*
X132020068Y-64943800D01*
X132014767Y-64944320D01*
X131925766Y-64971191D01*
X131924633Y-64971526D01*
X131841186Y-64995770D01*
X131841182Y-64995772D01*
X131835264Y-64997491D01*
X131830532Y-64999944D01*
X131825431Y-65001484D01*
X131819988Y-65004378D01*
X131743340Y-65045131D01*
X131742174Y-65045743D01*
X131665147Y-65085671D01*
X131659674Y-65088508D01*
X131655511Y-65091831D01*
X131650804Y-65094334D01*
X131578682Y-65153155D01*
X131577826Y-65153846D01*
X131538627Y-65185138D01*
X131536123Y-65187642D01*
X131535405Y-65188284D01*
X131531072Y-65191985D01*
X131497538Y-65219335D01*
X131493611Y-65224082D01*
X131493609Y-65224084D01*
X131468313Y-65254662D01*
X131460323Y-65263442D01*
X129001368Y-67722398D01*
X128939056Y-67756423D01*
X128892019Y-67757664D01*
X128854841Y-67751609D01*
X128803693Y-67743279D01*
X128689942Y-67741790D01*
X128547022Y-67739919D01*
X128547019Y-67739919D01*
X128542345Y-67739858D01*
X128283362Y-67775104D01*
X128032433Y-67848243D01*
X127795072Y-67957668D01*
X127791163Y-67960231D01*
X127580404Y-68098410D01*
X127580399Y-68098414D01*
X127576491Y-68100976D01*
X127460531Y-68204475D01*
X127397179Y-68261019D01*
X127381494Y-68275018D01*
X127214363Y-68475970D01*
X127211934Y-68479973D01*
X127086953Y-68685936D01*
X127078771Y-68699419D01*
X126977697Y-68940455D01*
X126913359Y-69193783D01*
X126912891Y-69198434D01*
X126912890Y-69198438D01*
X126908771Y-69239348D01*
X126887173Y-69453839D01*
X126887397Y-69458505D01*
X126887397Y-69458511D01*
X126889239Y-69496851D01*
X126899713Y-69714908D01*
X126950704Y-69971256D01*
X127039026Y-70217252D01*
X127051448Y-70240370D01*
X127130275Y-70387075D01*
X127162737Y-70447491D01*
X127165532Y-70451234D01*
X127165534Y-70451237D01*
X127316330Y-70653177D01*
X127316335Y-70653183D01*
X127319122Y-70656915D01*
X127322431Y-70660195D01*
X127322436Y-70660201D01*
X127486030Y-70822373D01*
X127504743Y-70840923D01*
X127508505Y-70843681D01*
X127508508Y-70843684D01*
X127676476Y-70966843D01*
X127715524Y-70995474D01*
X127719667Y-70997654D01*
X127719669Y-70997655D01*
X127942684Y-71114989D01*
X127942689Y-71114991D01*
X127946834Y-71117172D01*
X128085254Y-71165511D01*
X128162650Y-71192539D01*
X128193590Y-71203344D01*
X128198183Y-71204216D01*
X128445785Y-71251224D01*
X128445788Y-71251224D01*
X128450374Y-71252095D01*
X128580959Y-71257226D01*
X128706875Y-71262174D01*
X128706881Y-71262174D01*
X128711543Y-71262357D01*
X128790977Y-71253657D01*
X128966707Y-71234412D01*
X128966712Y-71234411D01*
X128971360Y-71233902D01*
X129084116Y-71204216D01*
X129219594Y-71168548D01*
X129219596Y-71168547D01*
X129224117Y-71167357D01*
X129267168Y-71148861D01*
X129459972Y-71066025D01*
X129464262Y-71064182D01*
X129481148Y-71053733D01*
X129682547Y-70929104D01*
X129682548Y-70929104D01*
X129686519Y-70926646D01*
X129690082Y-70923629D01*
X129690087Y-70923626D01*
X129882439Y-70760787D01*
X129882440Y-70760786D01*
X129886005Y-70757768D01*
X129957148Y-70676645D01*
X130055257Y-70564774D01*
X130055261Y-70564769D01*
X130058339Y-70561259D01*
X130129508Y-70450615D01*
X130197205Y-70345367D01*
X130199733Y-70341437D01*
X130307083Y-70103129D01*
X130336941Y-69997262D01*
X130376760Y-69856076D01*
X130376761Y-69856073D01*
X130378030Y-69851572D01*
X130394832Y-69719496D01*
X130410616Y-69595421D01*
X130410616Y-69595417D01*
X130411014Y-69592291D01*
X130411940Y-69556952D01*
X130413348Y-69503160D01*
X130413431Y-69500000D01*
X130394386Y-69243723D01*
X130409285Y-69174307D01*
X130430945Y-69145290D01*
X132592429Y-66983805D01*
X132654741Y-66949780D01*
X132681524Y-66946900D01*
X133695500Y-66946900D01*
X133763621Y-66966902D01*
X133810114Y-67020558D01*
X133821500Y-67072900D01*
X133821500Y-69037334D01*
X133828255Y-69099516D01*
X133879385Y-69235905D01*
X133966739Y-69352461D01*
X133973919Y-69357842D01*
X134076113Y-69434433D01*
X134076116Y-69434435D01*
X134083295Y-69439815D01*
X134084203Y-69440155D01*
X134131505Y-69487562D01*
X134146519Y-69556952D01*
X134118215Y-69627800D01*
X134087266Y-69665478D01*
X134084724Y-69669846D01*
X133981404Y-69847367D01*
X133965159Y-69875278D01*
X133963346Y-69880001D01*
X133882767Y-70089919D01*
X133878167Y-70101902D01*
X133877133Y-70106852D01*
X133877132Y-70106855D01*
X133829838Y-70333241D01*
X133828526Y-70339520D01*
X133817514Y-70582017D01*
X133818095Y-70587037D01*
X133818095Y-70587041D01*
X133838199Y-70760787D01*
X133845415Y-70823156D01*
X133846791Y-70828020D01*
X133846792Y-70828023D01*
X133885907Y-70966253D01*
X133911510Y-71056732D01*
X133913644Y-71061308D01*
X133913646Y-71061314D01*
X134007394Y-71262357D01*
X134014099Y-71276736D01*
X134016940Y-71280917D01*
X134016941Y-71280918D01*
X134026498Y-71294980D01*
X134150544Y-71477507D01*
X134317332Y-71653881D01*
X134321358Y-71656959D01*
X134321359Y-71656960D01*
X134375907Y-71698665D01*
X134417875Y-71755930D01*
X134422220Y-71826793D01*
X134382703Y-71893275D01*
X134245142Y-72014550D01*
X134245139Y-72014553D01*
X134241345Y-72017898D01*
X134087266Y-72205478D01*
X133965159Y-72415278D01*
X133963346Y-72420001D01*
X133908513Y-72562848D01*
X133878167Y-72641902D01*
X133877133Y-72646852D01*
X133877132Y-72646855D01*
X133845663Y-72797491D01*
X133828526Y-72879520D01*
X133817514Y-73122017D01*
X133818095Y-73127037D01*
X133818095Y-73127041D01*
X133839481Y-73311868D01*
X133845415Y-73363156D01*
X133846791Y-73368020D01*
X133846792Y-73368023D01*
X133887973Y-73513552D01*
X133911510Y-73596732D01*
X133913644Y-73601308D01*
X133913646Y-73601314D01*
X133999005Y-73784367D01*
X134014099Y-73816736D01*
X134150544Y-74017507D01*
X134317332Y-74193881D01*
X134321358Y-74196959D01*
X134321359Y-74196960D01*
X134375907Y-74238665D01*
X134417875Y-74295930D01*
X134422220Y-74366793D01*
X134382703Y-74433275D01*
X134245142Y-74554550D01*
X134245139Y-74554553D01*
X134241345Y-74557898D01*
X134238135Y-74561806D01*
X134238134Y-74561807D01*
X134181944Y-74630215D01*
X134087266Y-74745478D01*
X133965159Y-74955278D01*
X133963346Y-74960001D01*
X133918819Y-75076000D01*
X133878167Y-75181902D01*
X133877133Y-75186852D01*
X133877132Y-75186855D01*
X133830994Y-75407708D01*
X133828526Y-75419520D01*
X133817514Y-75662017D01*
X133818095Y-75667037D01*
X133818095Y-75667041D01*
X133841715Y-75871174D01*
X133845415Y-75903156D01*
X133846791Y-75908020D01*
X133846792Y-75908023D01*
X133892476Y-76069466D01*
X133911510Y-76136732D01*
X133913644Y-76141308D01*
X133913646Y-76141314D01*
X133990867Y-76306915D01*
X134014099Y-76356736D01*
X134150544Y-76557507D01*
X134317332Y-76733881D01*
X134321358Y-76736959D01*
X134321359Y-76736960D01*
X134375907Y-76778665D01*
X134417875Y-76835930D01*
X134422220Y-76906793D01*
X134382703Y-76973275D01*
X134245142Y-77094550D01*
X134245139Y-77094553D01*
X134241345Y-77097898D01*
X134238135Y-77101806D01*
X134238134Y-77101807D01*
X134213338Y-77131995D01*
X134087266Y-77285478D01*
X133965159Y-77495278D01*
X133878167Y-77721902D01*
X133877133Y-77726852D01*
X133877132Y-77726855D01*
X133829662Y-77954084D01*
X133828526Y-77959520D01*
X133817514Y-78202017D01*
X133818095Y-78207037D01*
X133818095Y-78207041D01*
X133838343Y-78382032D01*
X133845415Y-78443156D01*
X133846791Y-78448020D01*
X133846792Y-78448023D01*
X133892476Y-78609466D01*
X133911510Y-78676732D01*
X133913644Y-78681308D01*
X133913646Y-78681314D01*
X133970446Y-78803122D01*
X134014099Y-78896736D01*
X134150544Y-79097507D01*
X134317332Y-79273881D01*
X134321358Y-79276959D01*
X134321359Y-79276960D01*
X134375907Y-79318665D01*
X134417875Y-79375930D01*
X134422220Y-79446793D01*
X134382703Y-79513275D01*
X134245142Y-79634550D01*
X134245139Y-79634553D01*
X134241345Y-79637898D01*
X134238135Y-79641806D01*
X134238134Y-79641807D01*
X134096775Y-79813902D01*
X134087266Y-79825478D01*
X134084724Y-79829846D01*
X133986030Y-79999419D01*
X133965159Y-80035278D01*
X133963346Y-80040001D01*
X133884663Y-80244980D01*
X133878167Y-80261902D01*
X133877133Y-80266852D01*
X133877132Y-80266855D01*
X133829725Y-80493783D01*
X133828526Y-80499520D01*
X133817514Y-80742017D01*
X133818095Y-80747037D01*
X133818095Y-80747041D01*
X133835264Y-80895421D01*
X133845415Y-80983156D01*
X133846791Y-80988020D01*
X133846792Y-80988023D01*
X133885270Y-81124000D01*
X133911510Y-81216732D01*
X133913644Y-81221308D01*
X133913646Y-81221314D01*
X134000416Y-81407393D01*
X134014099Y-81436736D01*
X134150544Y-81637507D01*
X134317332Y-81813881D01*
X134321358Y-81816959D01*
X134321359Y-81816960D01*
X134375907Y-81858665D01*
X134417875Y-81915930D01*
X134422220Y-81986793D01*
X134382703Y-82053275D01*
X134245142Y-82174550D01*
X134245139Y-82174553D01*
X134241345Y-82177898D01*
X134238135Y-82181806D01*
X134238134Y-82181807D01*
X134144768Y-82295474D01*
X134087266Y-82365478D01*
X134084724Y-82369846D01*
X133989241Y-82533902D01*
X133965159Y-82575278D01*
X133878167Y-82801902D01*
X133828526Y-83039520D01*
X133817514Y-83282017D01*
X133818095Y-83287037D01*
X133818095Y-83287041D01*
X133833923Y-83423831D01*
X133845415Y-83523156D01*
X133846791Y-83528020D01*
X133846792Y-83528023D01*
X133892476Y-83689466D01*
X133911510Y-83756732D01*
X133913644Y-83761308D01*
X133913646Y-83761314D01*
X134011962Y-83972154D01*
X134014099Y-83976736D01*
X134150544Y-84177507D01*
X134317332Y-84353881D01*
X134321358Y-84356959D01*
X134321359Y-84356960D01*
X134375907Y-84398665D01*
X134417875Y-84455930D01*
X134422220Y-84526793D01*
X134382703Y-84593275D01*
X134245142Y-84714550D01*
X134245139Y-84714553D01*
X134241345Y-84717898D01*
X134087266Y-84905478D01*
X133965159Y-85115278D01*
X133878167Y-85341902D01*
X133828526Y-85579520D01*
X133817514Y-85822017D01*
X133818095Y-85827037D01*
X133818095Y-85827041D01*
X133833923Y-85963831D01*
X133845415Y-86063156D01*
X133846791Y-86068020D01*
X133846792Y-86068023D01*
X133892476Y-86229466D01*
X133911510Y-86296732D01*
X133913644Y-86301308D01*
X133913646Y-86301314D01*
X133970446Y-86423122D01*
X134014099Y-86516736D01*
X134150544Y-86717507D01*
X134317332Y-86893881D01*
X134321358Y-86896959D01*
X134321359Y-86896960D01*
X134375907Y-86938665D01*
X134417875Y-86995930D01*
X134422220Y-87066793D01*
X134382703Y-87133275D01*
X134245142Y-87254550D01*
X134245139Y-87254553D01*
X134241345Y-87257898D01*
X134087266Y-87445478D01*
X133965159Y-87655278D01*
X133878167Y-87881902D01*
X133877133Y-87886852D01*
X133877132Y-87886855D01*
X133839490Y-88067040D01*
X133828526Y-88119520D01*
X133817514Y-88362017D01*
X133818095Y-88367037D01*
X133818095Y-88367041D01*
X133834904Y-88512311D01*
X133845415Y-88603156D01*
X133846791Y-88608020D01*
X133846792Y-88608023D01*
X133892476Y-88769466D01*
X133911510Y-88836732D01*
X133913644Y-88841308D01*
X133913646Y-88841314D01*
X133970446Y-88963122D01*
X134014099Y-89056736D01*
X134150544Y-89257507D01*
X134317332Y-89433881D01*
X134321358Y-89436959D01*
X134321359Y-89436960D01*
X134375907Y-89478665D01*
X134417875Y-89535930D01*
X134422220Y-89606793D01*
X134382703Y-89673275D01*
X134245142Y-89794550D01*
X134245139Y-89794553D01*
X134241345Y-89797898D01*
X134238135Y-89801806D01*
X134238134Y-89801807D01*
X134124710Y-89939893D01*
X134087266Y-89985478D01*
X133965159Y-90195278D01*
X133963346Y-90200001D01*
X133909074Y-90341387D01*
X133878167Y-90421902D01*
X133877133Y-90426852D01*
X133877132Y-90426855D01*
X133853868Y-90538217D01*
X133828526Y-90659520D01*
X133817514Y-90902017D01*
X133818095Y-90907037D01*
X133818095Y-90907041D01*
X133843505Y-91126646D01*
X133845415Y-91143156D01*
X133846791Y-91148020D01*
X133846792Y-91148023D01*
X133892476Y-91309466D01*
X133911510Y-91376732D01*
X133913644Y-91381308D01*
X133913646Y-91381314D01*
X133970446Y-91503122D01*
X134014099Y-91596736D01*
X134150544Y-91797507D01*
X134317332Y-91973881D01*
X134321358Y-91976959D01*
X134321359Y-91976960D01*
X134375907Y-92018665D01*
X134417875Y-92075930D01*
X134422220Y-92146793D01*
X134382703Y-92213275D01*
X134245142Y-92334550D01*
X134245139Y-92334553D01*
X134241345Y-92337898D01*
X134238135Y-92341806D01*
X134238134Y-92341807D01*
X134093390Y-92518023D01*
X134087266Y-92525478D01*
X134069964Y-92555206D01*
X133974570Y-92719109D01*
X133965159Y-92735278D01*
X133963346Y-92740001D01*
X133884094Y-92946462D01*
X133878167Y-92961902D01*
X133877133Y-92966852D01*
X133877132Y-92966855D01*
X133832027Y-93182763D01*
X133828526Y-93199520D01*
X133817514Y-93442017D01*
X133818095Y-93447037D01*
X133818095Y-93447041D01*
X133842901Y-93661426D01*
X133845415Y-93683156D01*
X133846791Y-93688020D01*
X133846792Y-93688023D01*
X133892476Y-93849466D01*
X133911510Y-93916732D01*
X133913644Y-93921308D01*
X133913646Y-93921314D01*
X133970446Y-94043122D01*
X134014099Y-94136736D01*
X134150544Y-94337507D01*
X134317332Y-94513881D01*
X134321358Y-94516959D01*
X134321359Y-94516960D01*
X134375907Y-94558665D01*
X134417875Y-94615930D01*
X134422220Y-94686793D01*
X134382703Y-94753275D01*
X134245142Y-94874550D01*
X134245139Y-94874553D01*
X134241345Y-94877898D01*
X134238135Y-94881806D01*
X134238134Y-94881807D01*
X134222279Y-94901110D01*
X134087266Y-95065478D01*
X133965159Y-95275278D01*
X133963346Y-95280001D01*
X133880606Y-95495549D01*
X133878167Y-95501902D01*
X133877133Y-95506852D01*
X133877132Y-95506855D01*
X133830817Y-95728555D01*
X133828526Y-95739520D01*
X133817514Y-95982017D01*
X133818095Y-95987037D01*
X133818095Y-95987041D01*
X133843961Y-96210586D01*
X133845415Y-96223156D01*
X133846791Y-96228020D01*
X133846792Y-96228023D01*
X133892476Y-96389466D01*
X133911510Y-96456732D01*
X133913644Y-96461308D01*
X133913646Y-96461314D01*
X134011962Y-96672154D01*
X134014099Y-96676736D01*
X134150544Y-96877507D01*
X134317332Y-97053881D01*
X134321358Y-97056959D01*
X134321359Y-97056960D01*
X134375907Y-97098665D01*
X134417875Y-97155930D01*
X134422220Y-97226793D01*
X134382703Y-97293275D01*
X134245142Y-97414550D01*
X134245139Y-97414553D01*
X134241345Y-97417898D01*
X134238135Y-97421806D01*
X134238134Y-97421807D01*
X134207331Y-97459308D01*
X134087266Y-97605478D01*
X134084724Y-97609846D01*
X133999251Y-97756703D01*
X133965159Y-97815278D01*
X133963346Y-97820001D01*
X133882068Y-98031740D01*
X133878167Y-98041902D01*
X133877133Y-98046852D01*
X133877132Y-98046855D01*
X133858349Y-98136767D01*
X133828526Y-98279520D01*
X133817514Y-98522017D01*
X133818095Y-98527037D01*
X133818095Y-98527041D01*
X133833923Y-98663831D01*
X133845415Y-98763156D01*
X133846791Y-98768020D01*
X133846792Y-98768023D01*
X133885032Y-98903160D01*
X133911510Y-98996732D01*
X133913644Y-99001308D01*
X133913646Y-99001314D01*
X133968755Y-99119496D01*
X134014099Y-99216736D01*
X134150544Y-99417507D01*
X134317332Y-99593881D01*
X134321358Y-99596959D01*
X134321359Y-99596960D01*
X134375907Y-99638665D01*
X134417875Y-99695930D01*
X134422220Y-99766793D01*
X134382703Y-99833275D01*
X134245142Y-99954550D01*
X134245139Y-99954553D01*
X134241345Y-99957898D01*
X134238135Y-99961806D01*
X134238134Y-99961807D01*
X134149173Y-100070111D01*
X134087266Y-100145478D01*
X134078356Y-100160787D01*
X133980393Y-100329104D01*
X133965159Y-100355278D01*
X133963346Y-100360001D01*
X133880090Y-100576893D01*
X133878167Y-100581902D01*
X133855429Y-100690746D01*
X133853236Y-100701241D01*
X133819727Y-100763832D01*
X133757698Y-100798370D01*
X133686842Y-100793890D01*
X133640804Y-100764570D01*
X133545405Y-100669171D01*
X133511379Y-100606859D01*
X133508500Y-100580076D01*
X133508500Y-98561850D01*
X133509237Y-98548242D01*
X133512659Y-98516739D01*
X133513325Y-98510612D01*
X133508947Y-98460570D01*
X133508621Y-98455788D01*
X133508500Y-98453310D01*
X133508500Y-98450231D01*
X133508201Y-98447177D01*
X133508200Y-98447166D01*
X133504313Y-98407529D01*
X133504191Y-98406215D01*
X133498833Y-98344980D01*
X133496087Y-98313587D01*
X133494600Y-98308468D01*
X133494080Y-98303167D01*
X133467209Y-98214166D01*
X133466874Y-98213033D01*
X133442630Y-98129586D01*
X133442628Y-98129582D01*
X133440909Y-98123664D01*
X133438456Y-98118932D01*
X133436916Y-98113831D01*
X133393269Y-98031740D01*
X133392657Y-98030574D01*
X133352729Y-97953547D01*
X133349892Y-97948074D01*
X133346569Y-97943911D01*
X133344066Y-97939204D01*
X133285261Y-97867102D01*
X133284433Y-97866075D01*
X133255469Y-97829792D01*
X133255464Y-97829787D01*
X133253262Y-97827028D01*
X133250761Y-97824527D01*
X133250119Y-97823809D01*
X133246406Y-97819461D01*
X133238642Y-97809941D01*
X133219065Y-97785938D01*
X133214323Y-97782015D01*
X133214321Y-97782013D01*
X133183727Y-97756703D01*
X133174947Y-97748713D01*
X130327344Y-94901110D01*
X130293318Y-94838798D01*
X130291446Y-94796115D01*
X130296896Y-94753275D01*
X130311014Y-94642291D01*
X130311705Y-94615930D01*
X130313348Y-94553160D01*
X130313431Y-94550000D01*
X130294061Y-94289348D01*
X130286703Y-94256828D01*
X130237408Y-94038980D01*
X130236377Y-94034423D01*
X130188719Y-93911869D01*
X130143340Y-93795176D01*
X130143339Y-93795173D01*
X130141647Y-93790823D01*
X130011951Y-93563902D01*
X129850138Y-93358643D01*
X129659763Y-93179557D01*
X129445009Y-93030576D01*
X129440816Y-93028508D01*
X129214781Y-92917040D01*
X129214778Y-92917039D01*
X129210593Y-92914975D01*
X129193449Y-92909487D01*
X128966123Y-92836720D01*
X128961665Y-92835293D01*
X128703693Y-92793279D01*
X128589942Y-92791790D01*
X128447022Y-92789919D01*
X128447019Y-92789919D01*
X128442345Y-92789858D01*
X128183362Y-92825104D01*
X128115874Y-92844775D01*
X128044878Y-92844634D01*
X127985228Y-92806132D01*
X127955863Y-92741493D01*
X127966106Y-92671240D01*
X127991521Y-92634714D01*
X129147157Y-91479077D01*
X129209469Y-91445052D01*
X129259753Y-91444383D01*
X129276409Y-91447545D01*
X129295785Y-91451224D01*
X129295788Y-91451224D01*
X129300374Y-91452095D01*
X129430959Y-91457226D01*
X129556875Y-91462174D01*
X129556881Y-91462174D01*
X129561543Y-91462357D01*
X129640977Y-91453657D01*
X129816707Y-91434412D01*
X129816712Y-91434411D01*
X129821360Y-91433902D01*
X129828763Y-91431953D01*
X130069594Y-91368548D01*
X130069596Y-91368547D01*
X130074117Y-91367357D01*
X130314262Y-91264182D01*
X130536519Y-91126646D01*
X130540082Y-91123629D01*
X130540087Y-91123626D01*
X130732439Y-90960787D01*
X130732440Y-90960786D01*
X130736005Y-90957768D01*
X130778720Y-90909061D01*
X130905257Y-90764774D01*
X130905261Y-90764769D01*
X130908339Y-90761259D01*
X131049733Y-90541437D01*
X131157083Y-90303129D01*
X131186168Y-90200001D01*
X131226760Y-90056076D01*
X131226761Y-90056073D01*
X131228030Y-90051572D01*
X131233817Y-90006081D01*
X131260616Y-89795421D01*
X131260616Y-89795417D01*
X131261014Y-89792291D01*
X131261852Y-89760316D01*
X131262789Y-89724519D01*
X131263431Y-89700000D01*
X131258777Y-89637367D01*
X131244407Y-89444000D01*
X131244406Y-89443996D01*
X131244061Y-89439348D01*
X131241992Y-89430201D01*
X131187408Y-89188980D01*
X131186377Y-89184423D01*
X131184684Y-89180069D01*
X131093340Y-88945176D01*
X131093339Y-88945173D01*
X131091647Y-88940823D01*
X131072822Y-88907885D01*
X131029375Y-88831869D01*
X130961951Y-88713902D01*
X130800138Y-88508643D01*
X130609763Y-88329557D01*
X130395009Y-88180576D01*
X130390816Y-88178508D01*
X130164781Y-88067040D01*
X130164778Y-88067039D01*
X130160593Y-88064975D01*
X130114449Y-88050204D01*
X129916123Y-87986720D01*
X129911665Y-87985293D01*
X129653693Y-87943279D01*
X129539942Y-87941790D01*
X129397022Y-87939919D01*
X129397019Y-87939919D01*
X129392345Y-87939858D01*
X129133362Y-87975104D01*
X128882433Y-88048243D01*
X128878180Y-88050203D01*
X128878179Y-88050204D01*
X128841659Y-88067040D01*
X128645072Y-88157668D01*
X128606067Y-88183241D01*
X128430404Y-88298410D01*
X128430399Y-88298414D01*
X128426491Y-88300976D01*
X128231494Y-88475018D01*
X128064363Y-88675970D01*
X127928771Y-88899419D01*
X127827697Y-89140455D01*
X127763359Y-89393783D01*
X127737173Y-89653839D01*
X127737397Y-89658505D01*
X127737397Y-89658511D01*
X127739390Y-89700000D01*
X127749713Y-89914908D01*
X127750624Y-89919490D01*
X127750626Y-89919503D01*
X127754682Y-89939893D01*
X127748353Y-90010607D01*
X127720198Y-90053567D01*
X125580621Y-92193145D01*
X125570478Y-92202247D01*
X125540975Y-92225968D01*
X125537008Y-92230696D01*
X125508709Y-92264421D01*
X125505528Y-92268069D01*
X125503885Y-92269881D01*
X125501691Y-92272075D01*
X125474358Y-92305349D01*
X125473696Y-92306147D01*
X125413846Y-92377474D01*
X125411278Y-92382144D01*
X125407897Y-92386261D01*
X125380575Y-92437216D01*
X125364023Y-92468086D01*
X125363394Y-92469245D01*
X125321538Y-92545381D01*
X125321535Y-92545389D01*
X125318567Y-92550787D01*
X125316955Y-92555869D01*
X125314438Y-92560563D01*
X125287238Y-92649531D01*
X125286918Y-92650559D01*
X125258765Y-92739306D01*
X125258171Y-92744602D01*
X125256613Y-92749698D01*
X125247995Y-92834540D01*
X125247218Y-92842187D01*
X125247089Y-92843393D01*
X125241500Y-92893227D01*
X125241500Y-92896754D01*
X125241445Y-92897739D01*
X125240998Y-92903419D01*
X125236626Y-92946462D01*
X125240623Y-92988741D01*
X125240941Y-92992109D01*
X125241500Y-93003967D01*
X125241500Y-100159477D01*
X125240763Y-100173084D01*
X125236676Y-100210708D01*
X125237213Y-100216843D01*
X125241050Y-100260708D01*
X125241379Y-100265534D01*
X125241500Y-100268006D01*
X125241500Y-100271089D01*
X125241801Y-100274157D01*
X125245690Y-100313826D01*
X125245812Y-100315139D01*
X125253913Y-100407733D01*
X125255400Y-100412852D01*
X125255920Y-100418153D01*
X125282791Y-100507154D01*
X125283126Y-100508287D01*
X125306148Y-100587525D01*
X125309091Y-100597656D01*
X125311544Y-100602388D01*
X125313084Y-100607489D01*
X125315978Y-100612932D01*
X125356731Y-100689580D01*
X125357343Y-100690746D01*
X125393534Y-100760563D01*
X125400108Y-100773246D01*
X125403431Y-100777409D01*
X125405934Y-100782116D01*
X125464755Y-100854238D01*
X125465446Y-100855094D01*
X125496738Y-100894293D01*
X125499242Y-100896797D01*
X125499884Y-100897515D01*
X125503585Y-100901848D01*
X125530935Y-100935382D01*
X125535682Y-100939309D01*
X125535684Y-100939311D01*
X125566262Y-100964607D01*
X125575042Y-100972597D01*
X132284595Y-107682149D01*
X132318621Y-107744461D01*
X132321500Y-107771244D01*
X132321500Y-117015784D01*
X132320763Y-117029391D01*
X132319103Y-117044677D01*
X132316676Y-117067015D01*
X132318973Y-117093265D01*
X132321050Y-117117015D01*
X132321379Y-117121841D01*
X132321500Y-117124313D01*
X132321500Y-117127396D01*
X132321801Y-117130464D01*
X132325690Y-117170133D01*
X132325812Y-117171446D01*
X132333913Y-117264040D01*
X132335400Y-117269159D01*
X132335920Y-117274460D01*
X132362791Y-117363461D01*
X132363126Y-117364594D01*
X132384957Y-117439733D01*
X132389091Y-117453963D01*
X132391544Y-117458695D01*
X132393084Y-117463796D01*
X132395978Y-117469239D01*
X132436731Y-117545887D01*
X132437343Y-117547053D01*
X132454560Y-117580267D01*
X132480108Y-117629553D01*
X132483431Y-117633716D01*
X132485934Y-117638423D01*
X132544755Y-117710545D01*
X132545446Y-117711401D01*
X132576738Y-117750600D01*
X132579242Y-117753104D01*
X132579884Y-117753822D01*
X132583585Y-117758155D01*
X132610935Y-117791689D01*
X132615682Y-117795616D01*
X132615684Y-117795618D01*
X132646262Y-117820914D01*
X132655042Y-117828904D01*
X133745518Y-118919379D01*
X133754620Y-118929522D01*
X133778341Y-118959025D01*
X133783069Y-118962992D01*
X133816794Y-118991291D01*
X133820442Y-118994472D01*
X133822254Y-118996115D01*
X133824448Y-118998309D01*
X133857722Y-119025642D01*
X133858520Y-119026304D01*
X133929847Y-119086154D01*
X133934517Y-119088722D01*
X133938634Y-119092103D01*
X134020493Y-119135995D01*
X134021623Y-119136608D01*
X134032627Y-119142657D01*
X134097762Y-119178466D01*
X134097767Y-119178468D01*
X134103160Y-119181433D01*
X134108238Y-119183044D01*
X134112936Y-119185563D01*
X134201871Y-119212753D01*
X134203075Y-119213128D01*
X134291679Y-119241235D01*
X134296970Y-119241828D01*
X134300660Y-119242956D01*
X134300772Y-119243017D01*
X134301339Y-119243164D01*
X134302071Y-119243388D01*
X134302073Y-119243388D01*
X134302079Y-119243390D01*
X134301992Y-119243676D01*
X134361826Y-119275968D01*
X134396157Y-119338112D01*
X134391441Y-119408952D01*
X134349174Y-119465996D01*
X134282776Y-119491133D01*
X134273170Y-119491500D01*
X121981914Y-119491500D01*
X121913793Y-119471498D01*
X121867300Y-119417842D01*
X121857196Y-119347568D01*
X121886690Y-119282988D01*
X121922760Y-119254249D01*
X121988056Y-119219530D01*
X121991942Y-119217464D01*
X121997899Y-119213136D01*
X122215629Y-119054947D01*
X122215632Y-119054944D01*
X122219192Y-119052358D01*
X122236861Y-119035296D01*
X122346763Y-118929164D01*
X122421252Y-118857231D01*
X122594188Y-118635882D01*
X122596384Y-118632078D01*
X122596389Y-118632071D01*
X122732435Y-118396431D01*
X122734636Y-118392619D01*
X122839862Y-118132176D01*
X122873544Y-117997087D01*
X122906753Y-117863893D01*
X122906754Y-117863888D01*
X122907817Y-117859624D01*
X122914545Y-117795618D01*
X122936719Y-117584636D01*
X122936719Y-117584633D01*
X122937178Y-117580267D01*
X122937025Y-117575873D01*
X122927529Y-117303939D01*
X122927528Y-117303933D01*
X122927375Y-117299542D01*
X122922953Y-117274460D01*
X122883748Y-117052120D01*
X122878598Y-117022913D01*
X122791797Y-116755765D01*
X122787842Y-116747655D01*
X122719883Y-116608321D01*
X122668660Y-116503298D01*
X122666205Y-116499659D01*
X122666202Y-116499653D01*
X122539128Y-116311259D01*
X122511585Y-116270424D01*
X122323629Y-116061678D01*
X122108450Y-115881121D01*
X121870236Y-115732269D01*
X121613625Y-115618018D01*
X121343610Y-115540593D01*
X121339260Y-115539982D01*
X121339257Y-115539981D01*
X121236310Y-115525513D01*
X121065448Y-115501500D01*
X121009500Y-115501500D01*
X120941379Y-115481498D01*
X120894886Y-115427842D01*
X120883500Y-115375500D01*
X120883500Y-114326522D01*
X121542273Y-114326522D01*
X121589764Y-114503761D01*
X121593510Y-114514053D01*
X121685586Y-114711511D01*
X121691069Y-114721007D01*
X121816028Y-114899467D01*
X121823084Y-114907875D01*
X121977125Y-115061916D01*
X121985533Y-115068972D01*
X122163993Y-115193931D01*
X122173489Y-115199414D01*
X122370947Y-115291490D01*
X122381239Y-115295236D01*
X122591688Y-115351625D01*
X122602481Y-115353528D01*
X122765170Y-115367762D01*
X122770635Y-115368000D01*
X123252885Y-115368000D01*
X123268124Y-115363525D01*
X123269329Y-115362135D01*
X123271000Y-115354452D01*
X123271000Y-114332115D01*
X123266525Y-114316876D01*
X123265135Y-114315671D01*
X123257452Y-114314000D01*
X121557033Y-114314000D01*
X121543502Y-114317973D01*
X121542273Y-114326522D01*
X120883500Y-114326522D01*
X120883500Y-112969443D01*
X120903502Y-112901322D01*
X120939042Y-112864984D01*
X121023232Y-112808197D01*
X121114576Y-112746585D01*
X121323322Y-112558629D01*
X121326141Y-112555269D01*
X121326152Y-112555258D01*
X121412846Y-112451940D01*
X121471955Y-112412613D01*
X121542943Y-112411487D01*
X121603270Y-112448918D01*
X121623562Y-112479682D01*
X121685149Y-112611758D01*
X121685153Y-112611764D01*
X121687477Y-112616749D01*
X121760902Y-112721611D01*
X121776327Y-112743639D01*
X121818802Y-112804300D01*
X121935761Y-112921259D01*
X121969787Y-112983571D01*
X121964722Y-113054386D01*
X121935761Y-113099450D01*
X121823079Y-113212131D01*
X121816028Y-113220533D01*
X121691069Y-113398993D01*
X121685586Y-113408489D01*
X121593510Y-113605947D01*
X121589764Y-113616239D01*
X121543606Y-113788503D01*
X121543942Y-113802599D01*
X121551884Y-113806000D01*
X123653000Y-113806000D01*
X123721121Y-113826002D01*
X123767614Y-113879658D01*
X123779000Y-113932000D01*
X123779000Y-115349885D01*
X123783475Y-115365124D01*
X123784865Y-115366329D01*
X123792548Y-115368000D01*
X124279365Y-115368000D01*
X124284830Y-115367762D01*
X124447519Y-115353528D01*
X124458312Y-115351625D01*
X124668761Y-115295236D01*
X124679053Y-115291490D01*
X124876511Y-115199414D01*
X124886006Y-115193931D01*
X124911940Y-115175772D01*
X124979214Y-115153084D01*
X125048074Y-115170369D01*
X125098406Y-115225735D01*
X125185151Y-115411762D01*
X125185154Y-115411767D01*
X125187477Y-115416749D01*
X125246935Y-115501664D01*
X125312485Y-115595278D01*
X125318802Y-115604300D01*
X125480700Y-115766198D01*
X125485208Y-115769355D01*
X125485211Y-115769357D01*
X125494517Y-115775873D01*
X125668251Y-115897523D01*
X125673233Y-115899846D01*
X125673238Y-115899849D01*
X125870775Y-115991961D01*
X125875757Y-115994284D01*
X125881065Y-115995706D01*
X125881067Y-115995707D01*
X126091598Y-116052119D01*
X126091600Y-116052119D01*
X126096913Y-116053543D01*
X126325000Y-116073498D01*
X126553087Y-116053543D01*
X126558400Y-116052119D01*
X126558402Y-116052119D01*
X126768933Y-115995707D01*
X126768935Y-115995706D01*
X126774243Y-115994284D01*
X126779225Y-115991961D01*
X126976762Y-115899849D01*
X126976767Y-115899846D01*
X126981749Y-115897523D01*
X127155483Y-115775873D01*
X127164789Y-115769357D01*
X127164792Y-115769355D01*
X127169300Y-115766198D01*
X127331198Y-115604300D01*
X127337516Y-115595278D01*
X127403065Y-115501664D01*
X127462523Y-115416749D01*
X127464846Y-115411767D01*
X127464849Y-115411762D01*
X127556961Y-115214225D01*
X127556961Y-115214224D01*
X127559284Y-115209243D01*
X127561277Y-115201807D01*
X127617119Y-114993402D01*
X127617119Y-114993400D01*
X127618543Y-114988087D01*
X127633500Y-114817127D01*
X127633500Y-113302873D01*
X127631666Y-113281902D01*
X127623775Y-113191714D01*
X127618543Y-113131913D01*
X127574219Y-112966495D01*
X127560707Y-112916067D01*
X127560706Y-112916065D01*
X127559284Y-112910757D01*
X127555409Y-112902447D01*
X127464849Y-112708238D01*
X127464846Y-112708233D01*
X127462523Y-112703251D01*
X127382225Y-112588574D01*
X127334357Y-112520211D01*
X127334355Y-112520208D01*
X127331198Y-112515700D01*
X127169300Y-112353802D01*
X127164792Y-112350645D01*
X127164789Y-112350643D01*
X126993211Y-112230503D01*
X126981749Y-112222477D01*
X126976767Y-112220154D01*
X126976762Y-112220151D01*
X126779225Y-112128039D01*
X126779224Y-112128039D01*
X126774243Y-112125716D01*
X126768935Y-112124294D01*
X126768933Y-112124293D01*
X126558402Y-112067881D01*
X126558400Y-112067881D01*
X126553087Y-112066457D01*
X126325000Y-112046502D01*
X126096913Y-112066457D01*
X126091600Y-112067881D01*
X126091598Y-112067881D01*
X125881067Y-112124293D01*
X125881065Y-112124294D01*
X125875757Y-112125716D01*
X125870776Y-112128039D01*
X125870775Y-112128039D01*
X125706831Y-112204487D01*
X125636639Y-112215148D01*
X125571826Y-112186168D01*
X125532970Y-112126748D01*
X125528060Y-112079311D01*
X125538019Y-111965476D01*
X125538019Y-111965475D01*
X125538498Y-111960000D01*
X125518543Y-111731913D01*
X125512852Y-111710674D01*
X125460707Y-111516067D01*
X125460706Y-111516065D01*
X125459284Y-111510757D01*
X125439357Y-111468023D01*
X125364849Y-111308238D01*
X125364846Y-111308233D01*
X125362523Y-111303251D01*
X125231198Y-111115700D01*
X125069300Y-110953802D01*
X125064792Y-110950645D01*
X125064789Y-110950643D01*
X124902010Y-110836664D01*
X124881749Y-110822477D01*
X124778207Y-110774195D01*
X124724922Y-110727278D01*
X124705461Y-110659001D01*
X124726003Y-110591041D01*
X124778207Y-110545805D01*
X124833544Y-110520001D01*
X124881749Y-110497523D01*
X124998941Y-110415464D01*
X125064789Y-110369357D01*
X125064792Y-110369355D01*
X125069300Y-110366198D01*
X125231198Y-110204300D01*
X125362523Y-110016749D01*
X125364846Y-110011767D01*
X125364849Y-110011762D01*
X125456961Y-109814225D01*
X125456961Y-109814224D01*
X125459284Y-109809243D01*
X125462119Y-109798665D01*
X125517119Y-109593402D01*
X125517119Y-109593400D01*
X125518543Y-109588087D01*
X125538498Y-109360000D01*
X125529226Y-109254022D01*
X125528060Y-109240689D01*
X125542049Y-109171085D01*
X125591449Y-109120092D01*
X125660575Y-109103902D01*
X125706831Y-109115513D01*
X125875757Y-109194284D01*
X125881065Y-109195706D01*
X125881067Y-109195707D01*
X126091598Y-109252119D01*
X126091600Y-109252119D01*
X126096913Y-109253543D01*
X126325000Y-109273498D01*
X126553087Y-109253543D01*
X126558400Y-109252119D01*
X126558402Y-109252119D01*
X126768933Y-109195707D01*
X126768935Y-109195706D01*
X126774243Y-109194284D01*
X126823994Y-109171085D01*
X126976762Y-109099849D01*
X126976767Y-109099846D01*
X126981749Y-109097523D01*
X127159329Y-108973180D01*
X127164789Y-108969357D01*
X127164792Y-108969355D01*
X127169300Y-108966198D01*
X127331198Y-108804300D01*
X127358903Y-108764734D01*
X127416822Y-108682017D01*
X127462523Y-108616749D01*
X127464846Y-108611767D01*
X127464849Y-108611762D01*
X127556961Y-108414225D01*
X127556961Y-108414224D01*
X127559284Y-108409243D01*
X127574140Y-108353802D01*
X127617119Y-108193402D01*
X127617119Y-108193400D01*
X127618543Y-108188087D01*
X127633500Y-108017127D01*
X127633500Y-106502873D01*
X127632842Y-106495343D01*
X127623783Y-106391806D01*
X127618543Y-106331913D01*
X127610834Y-106303142D01*
X127560707Y-106116067D01*
X127560706Y-106116065D01*
X127559284Y-106110757D01*
X127526960Y-106041437D01*
X127464849Y-105908238D01*
X127464846Y-105908233D01*
X127462523Y-105903251D01*
X127383488Y-105790377D01*
X127334357Y-105720211D01*
X127334355Y-105720208D01*
X127331198Y-105715700D01*
X127169300Y-105553802D01*
X127164792Y-105550645D01*
X127164789Y-105550643D01*
X127086611Y-105495902D01*
X126981749Y-105422477D01*
X126976767Y-105420154D01*
X126976762Y-105420151D01*
X126779225Y-105328039D01*
X126779224Y-105328039D01*
X126774243Y-105325716D01*
X126768935Y-105324294D01*
X126768933Y-105324293D01*
X126558402Y-105267881D01*
X126558400Y-105267881D01*
X126553087Y-105266457D01*
X126325000Y-105246502D01*
X126096913Y-105266457D01*
X126091600Y-105267881D01*
X126091598Y-105267881D01*
X125881067Y-105324293D01*
X125881065Y-105324294D01*
X125875757Y-105325716D01*
X125870776Y-105328039D01*
X125870775Y-105328039D01*
X125673238Y-105420151D01*
X125673233Y-105420154D01*
X125668251Y-105422477D01*
X125563389Y-105495902D01*
X125485211Y-105550643D01*
X125485208Y-105550645D01*
X125480700Y-105553802D01*
X125318802Y-105715700D01*
X125315645Y-105720208D01*
X125315643Y-105720211D01*
X125266512Y-105790377D01*
X125187477Y-105903251D01*
X125121756Y-106044191D01*
X125098621Y-106093805D01*
X125051704Y-106147090D01*
X124983427Y-106166551D01*
X124912154Y-106143767D01*
X124886259Y-106125635D01*
X124886260Y-106125635D01*
X124881749Y-106122477D01*
X124876767Y-106120154D01*
X124876762Y-106120151D01*
X124679225Y-106028039D01*
X124679224Y-106028039D01*
X124674243Y-106025716D01*
X124668935Y-106024294D01*
X124668933Y-106024293D01*
X124458402Y-105967881D01*
X124458400Y-105967881D01*
X124453087Y-105966457D01*
X124352834Y-105957686D01*
X124284851Y-105951738D01*
X124284844Y-105951738D01*
X124282127Y-105951500D01*
X122767873Y-105951500D01*
X122765156Y-105951738D01*
X122765149Y-105951738D01*
X122697166Y-105957686D01*
X122596913Y-105966457D01*
X122591600Y-105967881D01*
X122591598Y-105967881D01*
X122381067Y-106024293D01*
X122381065Y-106024294D01*
X122375757Y-106025716D01*
X122370776Y-106028039D01*
X122370775Y-106028039D01*
X122173238Y-106120151D01*
X122173233Y-106120154D01*
X122168251Y-106122477D01*
X122105307Y-106166551D01*
X121985211Y-106250643D01*
X121985208Y-106250645D01*
X121980700Y-106253802D01*
X121898595Y-106335907D01*
X121836283Y-106369933D01*
X121765468Y-106364868D01*
X121708632Y-106322321D01*
X121683821Y-106255801D01*
X121683500Y-106246812D01*
X121683500Y-105757174D01*
X121703502Y-105689053D01*
X121750347Y-105645923D01*
X121988050Y-105519534D01*
X121988056Y-105519530D01*
X121991942Y-105517464D01*
X122096896Y-105441211D01*
X122215629Y-105354947D01*
X122215632Y-105354944D01*
X122219192Y-105352358D01*
X122421252Y-105157231D01*
X122582663Y-104950634D01*
X122591481Y-104939347D01*
X122591482Y-104939346D01*
X122594188Y-104935882D01*
X122596384Y-104932078D01*
X122596389Y-104932071D01*
X122732435Y-104696431D01*
X122734636Y-104692619D01*
X122839862Y-104432176D01*
X122843689Y-104416828D01*
X122906753Y-104163893D01*
X122906754Y-104163888D01*
X122907817Y-104159624D01*
X122910820Y-104131060D01*
X122936719Y-103884636D01*
X122936719Y-103884633D01*
X122937178Y-103880267D01*
X122936052Y-103848023D01*
X122927529Y-103603939D01*
X122927528Y-103603933D01*
X122927375Y-103599542D01*
X122910077Y-103501437D01*
X122879360Y-103327236D01*
X122878598Y-103322913D01*
X122791797Y-103055765D01*
X122785113Y-103042059D01*
X122711391Y-102890910D01*
X122668660Y-102803298D01*
X122666205Y-102799659D01*
X122666202Y-102799653D01*
X122534961Y-102605081D01*
X122511585Y-102570424D01*
X122323629Y-102361678D01*
X122108450Y-102181121D01*
X121870236Y-102032269D01*
X121613625Y-101918018D01*
X121411158Y-101859962D01*
X121347837Y-101841805D01*
X121347836Y-101841805D01*
X121343610Y-101840593D01*
X121339260Y-101839982D01*
X121339257Y-101839981D01*
X121236310Y-101825513D01*
X121065448Y-101801500D01*
X120354854Y-101801500D01*
X120352668Y-101801653D01*
X120352664Y-101801653D01*
X120149173Y-101815882D01*
X120149168Y-101815883D01*
X120144788Y-101816189D01*
X119870030Y-101874591D01*
X119865901Y-101876094D01*
X119865897Y-101876095D01*
X119610219Y-101969154D01*
X119610215Y-101969156D01*
X119606074Y-101970663D01*
X119358058Y-102102536D01*
X119354499Y-102105122D01*
X119354497Y-102105123D01*
X119249895Y-102181121D01*
X119130808Y-102267642D01*
X119127644Y-102270698D01*
X119127641Y-102270700D01*
X119090266Y-102306793D01*
X118928748Y-102462769D01*
X118755812Y-102684118D01*
X118753616Y-102687922D01*
X118753611Y-102687929D01*
X118639794Y-102885067D01*
X118615364Y-102927381D01*
X118510138Y-103187824D01*
X118509073Y-103192097D01*
X118509072Y-103192099D01*
X118468564Y-103354569D01*
X118442183Y-103460376D01*
X118441724Y-103464744D01*
X118441723Y-103464749D01*
X118437867Y-103501437D01*
X118412822Y-103739733D01*
X118412975Y-103744121D01*
X118412975Y-103744127D01*
X118421962Y-104001467D01*
X118422625Y-104020458D01*
X118423387Y-104024781D01*
X118423388Y-104024788D01*
X118447164Y-104159624D01*
X118471402Y-104297087D01*
X118558203Y-104564235D01*
X118560131Y-104568188D01*
X118560133Y-104568193D01*
X118586755Y-104622776D01*
X118681340Y-104816702D01*
X118683795Y-104820341D01*
X118683798Y-104820347D01*
X118746479Y-104913275D01*
X118838415Y-105049576D01*
X118841360Y-105052847D01*
X118841361Y-105052848D01*
X118920637Y-105140893D01*
X119026371Y-105258322D01*
X119241550Y-105438879D01*
X119479764Y-105587731D01*
X119591750Y-105637591D01*
X119645845Y-105683570D01*
X119666500Y-105752697D01*
X119666500Y-108051553D01*
X119646498Y-108119674D01*
X119592842Y-108166167D01*
X119562381Y-108175639D01*
X119387913Y-108206402D01*
X119120765Y-108293203D01*
X119116812Y-108295131D01*
X119116807Y-108295133D01*
X119024262Y-108340271D01*
X118868298Y-108416340D01*
X118864659Y-108418795D01*
X118864653Y-108418798D01*
X118756290Y-108491890D01*
X118635424Y-108573415D01*
X118426678Y-108761371D01*
X118246121Y-108976550D01*
X118097269Y-109214764D01*
X117983018Y-109471375D01*
X117905593Y-109741390D01*
X117904982Y-109745740D01*
X117904981Y-109745743D01*
X117896803Y-109803933D01*
X117866500Y-110019552D01*
X117866500Y-111230146D01*
X117866653Y-111232332D01*
X117866653Y-111232336D01*
X117871961Y-111308238D01*
X117881189Y-111440212D01*
X117939591Y-111714970D01*
X117941094Y-111719099D01*
X117941095Y-111719103D01*
X118030768Y-111965476D01*
X118035663Y-111978926D01*
X118167536Y-112226942D01*
X118170122Y-112230501D01*
X118170123Y-112230503D01*
X118299985Y-112409243D01*
X118332642Y-112454192D01*
X118335698Y-112457356D01*
X118335700Y-112457359D01*
X118415250Y-112539735D01*
X118527769Y-112656252D01*
X118749118Y-112829188D01*
X118803501Y-112860586D01*
X118852494Y-112911969D01*
X118866500Y-112969705D01*
X118866500Y-116199057D01*
X118846498Y-116267178D01*
X118839790Y-116276630D01*
X118761217Y-116377200D01*
X118755812Y-116384118D01*
X118753616Y-116387922D01*
X118753611Y-116387929D01*
X118676820Y-116520936D01*
X118615364Y-116627381D01*
X118510138Y-116887824D01*
X118509073Y-116892097D01*
X118509072Y-116892099D01*
X118443653Y-117154482D01*
X118442183Y-117160376D01*
X118441724Y-117164744D01*
X118441723Y-117164749D01*
X118420719Y-117364594D01*
X118412822Y-117439733D01*
X118412975Y-117444121D01*
X118412975Y-117444127D01*
X118422313Y-117711511D01*
X118422625Y-117720458D01*
X118423387Y-117724781D01*
X118423388Y-117724788D01*
X118447164Y-117859624D01*
X118471402Y-117997087D01*
X118558203Y-118264235D01*
X118681340Y-118516702D01*
X118683795Y-118520341D01*
X118683798Y-118520347D01*
X118756890Y-118628710D01*
X118838415Y-118749576D01*
X119026371Y-118958322D01*
X119241550Y-119138879D01*
X119255247Y-119147438D01*
X119433218Y-119258646D01*
X119480388Y-119311707D01*
X119491383Y-119381847D01*
X119462712Y-119446797D01*
X119403478Y-119485936D01*
X119366448Y-119491500D01*
X113134500Y-119491500D01*
X113066379Y-119471498D01*
X113019886Y-119417842D01*
X113008500Y-119365500D01*
X113008500Y-98853839D01*
X114037173Y-98853839D01*
X114049713Y-99114908D01*
X114100704Y-99371256D01*
X114189026Y-99617252D01*
X114191242Y-99621376D01*
X114308570Y-99839735D01*
X114312737Y-99847491D01*
X114315532Y-99851234D01*
X114315534Y-99851237D01*
X114466330Y-100053177D01*
X114466335Y-100053183D01*
X114469122Y-100056915D01*
X114472431Y-100060195D01*
X114472436Y-100060201D01*
X114618083Y-100204582D01*
X114654743Y-100240923D01*
X114658505Y-100243681D01*
X114658508Y-100243684D01*
X114817145Y-100360001D01*
X114865524Y-100395474D01*
X114869667Y-100397654D01*
X114869669Y-100397655D01*
X115092684Y-100514989D01*
X115092689Y-100514991D01*
X115096834Y-100517172D01*
X115235254Y-100565511D01*
X115339043Y-100601756D01*
X115343590Y-100603344D01*
X115348183Y-100604216D01*
X115595785Y-100651224D01*
X115595788Y-100651224D01*
X115600374Y-100652095D01*
X115730959Y-100657226D01*
X115856875Y-100662174D01*
X115856881Y-100662174D01*
X115861543Y-100662357D01*
X115940977Y-100653657D01*
X116116707Y-100634412D01*
X116116712Y-100634411D01*
X116121360Y-100633902D01*
X116201010Y-100612932D01*
X116369594Y-100568548D01*
X116369596Y-100568547D01*
X116374117Y-100567357D01*
X116614262Y-100464182D01*
X116676016Y-100425968D01*
X116832547Y-100329104D01*
X116832548Y-100329104D01*
X116836519Y-100326646D01*
X116840082Y-100323629D01*
X116840087Y-100323626D01*
X117032439Y-100160787D01*
X117032440Y-100160786D01*
X117036005Y-100157768D01*
X117112878Y-100070111D01*
X117205257Y-99964774D01*
X117205261Y-99964769D01*
X117208339Y-99961259D01*
X117212655Y-99954550D01*
X117323340Y-99782470D01*
X117349733Y-99741437D01*
X117457083Y-99503129D01*
X117458353Y-99498626D01*
X117526760Y-99256076D01*
X117526761Y-99256073D01*
X117528030Y-99251572D01*
X117532462Y-99216736D01*
X117560616Y-98995421D01*
X117560616Y-98995417D01*
X117561014Y-98992291D01*
X117563431Y-98900000D01*
X117552888Y-98758129D01*
X117544407Y-98644000D01*
X117544406Y-98643996D01*
X117544061Y-98639348D01*
X117532725Y-98589248D01*
X117487408Y-98388980D01*
X117486377Y-98384423D01*
X117454779Y-98303167D01*
X117393340Y-98145176D01*
X117393339Y-98145173D01*
X117391647Y-98140823D01*
X117381889Y-98123749D01*
X117328976Y-98031171D01*
X117261951Y-97913902D01*
X117100138Y-97708643D01*
X116909763Y-97529557D01*
X116862680Y-97496894D01*
X116818110Y-97441631D01*
X116808500Y-97393367D01*
X116808500Y-96095128D01*
X116828502Y-96027007D01*
X116868199Y-95987983D01*
X116882539Y-95979110D01*
X116882550Y-95979102D01*
X116886519Y-95976646D01*
X116890082Y-95973629D01*
X116890087Y-95973626D01*
X117082439Y-95810787D01*
X117082440Y-95810786D01*
X117086005Y-95807768D01*
X117151756Y-95732794D01*
X117255257Y-95614774D01*
X117255261Y-95614769D01*
X117258339Y-95611259D01*
X117399733Y-95391437D01*
X117507083Y-95153129D01*
X117508353Y-95148626D01*
X117576760Y-94906076D01*
X117576761Y-94906073D01*
X117578030Y-94901572D01*
X117581468Y-94874550D01*
X117610616Y-94645421D01*
X117610616Y-94645417D01*
X117611014Y-94642291D01*
X117611705Y-94615930D01*
X117613348Y-94553160D01*
X117613431Y-94550000D01*
X117594061Y-94289348D01*
X117586703Y-94256828D01*
X117537408Y-94038980D01*
X117536377Y-94034423D01*
X117488719Y-93911869D01*
X117443340Y-93795176D01*
X117443339Y-93795173D01*
X117441647Y-93790823D01*
X117311951Y-93563902D01*
X117150138Y-93358643D01*
X116959763Y-93179557D01*
X116926360Y-93156384D01*
X116912680Y-93146894D01*
X116868110Y-93091631D01*
X116858500Y-93043367D01*
X116858500Y-89698134D01*
X120541500Y-89698134D01*
X120548255Y-89760316D01*
X120599385Y-89896705D01*
X120686739Y-90013261D01*
X120803295Y-90100615D01*
X120939684Y-90151745D01*
X121001866Y-90158500D01*
X123598134Y-90158500D01*
X123660316Y-90151745D01*
X123796705Y-90100615D01*
X123913261Y-90013261D01*
X124000615Y-89896705D01*
X124051745Y-89760316D01*
X124058500Y-89698134D01*
X124058500Y-87101866D01*
X124051745Y-87039684D01*
X124000615Y-86903295D01*
X123913261Y-86786739D01*
X123796705Y-86699385D01*
X123660316Y-86648255D01*
X123598134Y-86641500D01*
X121001866Y-86641500D01*
X120939684Y-86648255D01*
X120803295Y-86699385D01*
X120686739Y-86786739D01*
X120599385Y-86903295D01*
X120548255Y-87039684D01*
X120541500Y-87101866D01*
X120541500Y-89698134D01*
X116858500Y-89698134D01*
X116858500Y-80753839D01*
X120537173Y-80753839D01*
X120549713Y-81014908D01*
X120600704Y-81271256D01*
X120689026Y-81517252D01*
X120691242Y-81521376D01*
X120808982Y-81740502D01*
X120812737Y-81747491D01*
X120815532Y-81751234D01*
X120815534Y-81751237D01*
X120966330Y-81953177D01*
X120966335Y-81953183D01*
X120969122Y-81956915D01*
X120972431Y-81960195D01*
X120972436Y-81960201D01*
X121114914Y-82101440D01*
X121154743Y-82140923D01*
X121158505Y-82143681D01*
X121158508Y-82143684D01*
X121361750Y-82292707D01*
X121365524Y-82295474D01*
X121369667Y-82297654D01*
X121369669Y-82297655D01*
X121592684Y-82414989D01*
X121592689Y-82414991D01*
X121596834Y-82417172D01*
X121843590Y-82503344D01*
X121848183Y-82504216D01*
X122095785Y-82551224D01*
X122095788Y-82551224D01*
X122100374Y-82552095D01*
X122230958Y-82557226D01*
X122356875Y-82562174D01*
X122356881Y-82562174D01*
X122361543Y-82562357D01*
X122440977Y-82553657D01*
X122616707Y-82534412D01*
X122616712Y-82534411D01*
X122621360Y-82533902D01*
X122734116Y-82504216D01*
X122869594Y-82468548D01*
X122869596Y-82468547D01*
X122874117Y-82467357D01*
X122884217Y-82463018D01*
X122997204Y-82414474D01*
X123114262Y-82364182D01*
X123146723Y-82344095D01*
X123332547Y-82229104D01*
X123332548Y-82229104D01*
X123336519Y-82226646D01*
X123340082Y-82223629D01*
X123340087Y-82223626D01*
X123532439Y-82060787D01*
X123532440Y-82060786D01*
X123536005Y-82057768D01*
X123584500Y-82002470D01*
X123705257Y-81864774D01*
X123705261Y-81864769D01*
X123708339Y-81861259D01*
X123723299Y-81838002D01*
X123847205Y-81645367D01*
X123849733Y-81641437D01*
X123957083Y-81403129D01*
X124009653Y-81216732D01*
X124026760Y-81156076D01*
X124026761Y-81156073D01*
X124028030Y-81151572D01*
X124044832Y-81019496D01*
X124060616Y-80895421D01*
X124060616Y-80895417D01*
X124061014Y-80892291D01*
X124063431Y-80800000D01*
X124059122Y-80742017D01*
X124044407Y-80544000D01*
X124044406Y-80543996D01*
X124044061Y-80539348D01*
X124036193Y-80504573D01*
X123987408Y-80288980D01*
X123986377Y-80284423D01*
X123891647Y-80040823D01*
X123761951Y-79813902D01*
X123600138Y-79608643D01*
X123409763Y-79429557D01*
X123195009Y-79280576D01*
X123190816Y-79278508D01*
X122964781Y-79167040D01*
X122964778Y-79167039D01*
X122960593Y-79164975D01*
X122919766Y-79151906D01*
X122716123Y-79086720D01*
X122711665Y-79085293D01*
X122453693Y-79043279D01*
X122339942Y-79041790D01*
X122197022Y-79039919D01*
X122197019Y-79039919D01*
X122192345Y-79039858D01*
X121933362Y-79075104D01*
X121682433Y-79148243D01*
X121678180Y-79150203D01*
X121678179Y-79150204D01*
X121641659Y-79167040D01*
X121445072Y-79257668D01*
X121406067Y-79283241D01*
X121230404Y-79398410D01*
X121230399Y-79398414D01*
X121226491Y-79400976D01*
X121031494Y-79575018D01*
X120864363Y-79775970D01*
X120861934Y-79779973D01*
X120763818Y-79941664D01*
X120728771Y-79999419D01*
X120627697Y-80240455D01*
X120563359Y-80493783D01*
X120562891Y-80498434D01*
X120562890Y-80498438D01*
X120559229Y-80534794D01*
X120537173Y-80753839D01*
X116858500Y-80753839D01*
X116858500Y-79151906D01*
X116878502Y-79083785D01*
X116895405Y-79062811D01*
X120534755Y-75423460D01*
X127161870Y-75423460D01*
X127200274Y-75616535D01*
X127202768Y-75625528D01*
X127287900Y-75862639D01*
X127291700Y-75871174D01*
X127410946Y-76093101D01*
X127415957Y-76100968D01*
X127566707Y-76302846D01*
X127572812Y-76309870D01*
X127751753Y-76487255D01*
X127758837Y-76493305D01*
X127962018Y-76642284D01*
X127969928Y-76647227D01*
X128192890Y-76764533D01*
X128201453Y-76768256D01*
X128439304Y-76851318D01*
X128448313Y-76853732D01*
X128628201Y-76887885D01*
X128641261Y-76886601D01*
X128645696Y-76872662D01*
X129154000Y-76872662D01*
X129158171Y-76886867D01*
X129170934Y-76888922D01*
X129216615Y-76883920D01*
X129225792Y-76882219D01*
X129469431Y-76818074D01*
X129478251Y-76815037D01*
X129709736Y-76715583D01*
X129718008Y-76711276D01*
X129932249Y-76578700D01*
X129939789Y-76573222D01*
X130132087Y-76410431D01*
X130138737Y-76403895D01*
X130304857Y-76214471D01*
X130310465Y-76207030D01*
X130446765Y-75995127D01*
X130451212Y-75986936D01*
X130554691Y-75757222D01*
X130557882Y-75748455D01*
X130626269Y-75505976D01*
X130628129Y-75496834D01*
X130637653Y-75421970D01*
X130635365Y-75407708D01*
X130622345Y-75404000D01*
X129172115Y-75404000D01*
X129156876Y-75408475D01*
X129155671Y-75409865D01*
X129154000Y-75417548D01*
X129154000Y-76872662D01*
X128645696Y-76872662D01*
X128646000Y-76871705D01*
X128646000Y-75422115D01*
X128641525Y-75406876D01*
X128640135Y-75405671D01*
X128632452Y-75404000D01*
X127176114Y-75404000D01*
X127163713Y-75407641D01*
X127161870Y-75423460D01*
X120534755Y-75423460D01*
X121080240Y-74877975D01*
X127160419Y-74877975D01*
X127163179Y-74892703D01*
X127175357Y-74896000D01*
X128627885Y-74896000D01*
X128643124Y-74891525D01*
X128644329Y-74890135D01*
X128646000Y-74882452D01*
X128646000Y-74877885D01*
X129154000Y-74877885D01*
X129158475Y-74893124D01*
X129159865Y-74894329D01*
X129167548Y-74896000D01*
X130625940Y-74896000D01*
X130640817Y-74891632D01*
X130642252Y-74883613D01*
X130586929Y-74639126D01*
X130584205Y-74630215D01*
X130492888Y-74395392D01*
X130488877Y-74386983D01*
X130363854Y-74168240D01*
X130358643Y-74160514D01*
X130202659Y-73962650D01*
X130196366Y-73955782D01*
X130012856Y-73783152D01*
X130005602Y-73777278D01*
X129798597Y-73633673D01*
X129790562Y-73628940D01*
X129564593Y-73517505D01*
X129555960Y-73514017D01*
X129316006Y-73437207D01*
X129306924Y-73435027D01*
X129171880Y-73413033D01*
X129158286Y-73414729D01*
X129154000Y-73428839D01*
X129154000Y-74877885D01*
X128646000Y-74877885D01*
X128646000Y-73428394D01*
X128641982Y-73414710D01*
X128628290Y-73412689D01*
X128538096Y-73424964D01*
X128528978Y-73426902D01*
X128287098Y-73497404D01*
X128278367Y-73500667D01*
X128049558Y-73606151D01*
X128041406Y-73610670D01*
X127830709Y-73748808D01*
X127823304Y-73754491D01*
X127635346Y-73922249D01*
X127628861Y-73928965D01*
X127467761Y-74122666D01*
X127462346Y-74130258D01*
X127331646Y-74345646D01*
X127327408Y-74353963D01*
X127229981Y-74586299D01*
X127227020Y-74595149D01*
X127165005Y-74839333D01*
X127163384Y-74848527D01*
X127160419Y-74877975D01*
X121080240Y-74877975D01*
X124534379Y-71423836D01*
X124544522Y-71414734D01*
X124569218Y-71394878D01*
X124574025Y-71391013D01*
X124606292Y-71352559D01*
X124609472Y-71348912D01*
X124611115Y-71347100D01*
X124613309Y-71344906D01*
X124640642Y-71311632D01*
X124641348Y-71310781D01*
X124662020Y-71286146D01*
X124701154Y-71239507D01*
X124703722Y-71234837D01*
X124707103Y-71230720D01*
X124751015Y-71148823D01*
X124751624Y-71147701D01*
X124793466Y-71071592D01*
X124793468Y-71071587D01*
X124796433Y-71066194D01*
X124798044Y-71061116D01*
X124800563Y-71056418D01*
X124827753Y-70967483D01*
X124828136Y-70966253D01*
X124829776Y-70961085D01*
X124856235Y-70877675D01*
X124856828Y-70872384D01*
X124858388Y-70867283D01*
X124867795Y-70774670D01*
X124867915Y-70773550D01*
X124873500Y-70723754D01*
X124873500Y-70720225D01*
X124873555Y-70719242D01*
X124874004Y-70713537D01*
X124877752Y-70676645D01*
X124877752Y-70676642D01*
X124878374Y-70670518D01*
X124874059Y-70624869D01*
X124873500Y-70613012D01*
X124873500Y-70176799D01*
X124893502Y-70108678D01*
X124912927Y-70085251D01*
X124985999Y-70016150D01*
X124986000Y-70016149D01*
X124989681Y-70012668D01*
X125001594Y-69997086D01*
X125134047Y-69823846D01*
X125134050Y-69823842D01*
X125137120Y-69819826D01*
X125148416Y-69798760D01*
X125249439Y-69610352D01*
X125251831Y-69605891D01*
X125330862Y-69376369D01*
X125350980Y-69259897D01*
X125371504Y-69141074D01*
X125371505Y-69141068D01*
X125372179Y-69137164D01*
X125373500Y-69108075D01*
X125373500Y-68438999D01*
X125371616Y-68415583D01*
X125359346Y-68263076D01*
X125359345Y-68263071D01*
X125358940Y-68258035D01*
X125341187Y-68185755D01*
X125302244Y-68027208D01*
X125301037Y-68022294D01*
X125297857Y-68014801D01*
X125226600Y-67846932D01*
X125206188Y-67798844D01*
X125111364Y-67648267D01*
X125079528Y-67597712D01*
X125079526Y-67597709D01*
X125076833Y-67593433D01*
X125000084Y-67506378D01*
X124919650Y-67415142D01*
X124919647Y-67415139D01*
X124916302Y-67411345D01*
X124907506Y-67404120D01*
X124732628Y-67260474D01*
X124732625Y-67260472D01*
X124728722Y-67257266D01*
X124599337Y-67181962D01*
X124523290Y-67137701D01*
X124523288Y-67137700D01*
X124518922Y-67135159D01*
X124509020Y-67131358D01*
X124297022Y-67049980D01*
X124297018Y-67049979D01*
X124292298Y-67048167D01*
X124287348Y-67047133D01*
X124287345Y-67047132D01*
X124059631Y-66999560D01*
X124059627Y-66999560D01*
X124054680Y-66998526D01*
X123812183Y-66987514D01*
X123807163Y-66988095D01*
X123807159Y-66988095D01*
X123576071Y-67014833D01*
X123576067Y-67014834D01*
X123571044Y-67015415D01*
X123566180Y-67016791D01*
X123566177Y-67016792D01*
X123462135Y-67046233D01*
X123337468Y-67081510D01*
X123332892Y-67083644D01*
X123332886Y-67083646D01*
X123122046Y-67181962D01*
X123122042Y-67181964D01*
X123117464Y-67184099D01*
X122962813Y-67289201D01*
X122954377Y-67294934D01*
X122886793Y-67316680D01*
X122818181Y-67298436D01*
X122776006Y-67254339D01*
X122775615Y-67253295D01*
X122770230Y-67246109D01*
X122693642Y-67143919D01*
X122688261Y-67136739D01*
X122571705Y-67049385D01*
X122435316Y-66998255D01*
X122373134Y-66991500D01*
X120276866Y-66991500D01*
X120214684Y-66998255D01*
X120078295Y-67049385D01*
X119961739Y-67136739D01*
X119874385Y-67253295D01*
X119823255Y-67389684D01*
X119816500Y-67451866D01*
X119816500Y-70048134D01*
X119823255Y-70110316D01*
X119874385Y-70246705D01*
X119961739Y-70363261D01*
X120078295Y-70450615D01*
X120214684Y-70501745D01*
X120276866Y-70508500D01*
X122293057Y-70508500D01*
X122361178Y-70528502D01*
X122407671Y-70582158D01*
X122417775Y-70652432D01*
X122388281Y-70717012D01*
X122382152Y-70723595D01*
X118155876Y-74949871D01*
X118093564Y-74983897D01*
X118022749Y-74978832D01*
X117965913Y-74936285D01*
X117943888Y-74888584D01*
X117942763Y-74883613D01*
X117886377Y-74634423D01*
X117867603Y-74586146D01*
X117793340Y-74395176D01*
X117793339Y-74395173D01*
X117791647Y-74390823D01*
X117775171Y-74361995D01*
X117708374Y-74245125D01*
X117661951Y-74163902D01*
X117500138Y-73958643D01*
X117309763Y-73779557D01*
X117139584Y-73661499D01*
X117098851Y-73633241D01*
X117098848Y-73633239D01*
X117095009Y-73630576D01*
X117090816Y-73628508D01*
X116864781Y-73517040D01*
X116864778Y-73517039D01*
X116860593Y-73514975D01*
X116817629Y-73501222D01*
X116616123Y-73436720D01*
X116611665Y-73435293D01*
X116353693Y-73393279D01*
X116239942Y-73391790D01*
X116097022Y-73389919D01*
X116097019Y-73389919D01*
X116092345Y-73389858D01*
X115833362Y-73425104D01*
X115828876Y-73426412D01*
X115828874Y-73426412D01*
X115798405Y-73435293D01*
X115582433Y-73498243D01*
X115578180Y-73500203D01*
X115578179Y-73500204D01*
X115538388Y-73518548D01*
X115345072Y-73607668D01*
X115306067Y-73633241D01*
X115130404Y-73748410D01*
X115130399Y-73748414D01*
X115126491Y-73750976D01*
X114973775Y-73887281D01*
X114940721Y-73916783D01*
X114931494Y-73925018D01*
X114764363Y-74125970D01*
X114761934Y-74129973D01*
X114633289Y-74341974D01*
X114628771Y-74349419D01*
X114527697Y-74590455D01*
X114463359Y-74843783D01*
X114462891Y-74848434D01*
X114462890Y-74848438D01*
X114458552Y-74891525D01*
X114437173Y-75103839D01*
X114437397Y-75108505D01*
X114437397Y-75108511D01*
X114443443Y-75234374D01*
X114449713Y-75364908D01*
X114500704Y-75621256D01*
X114589026Y-75867252D01*
X114591242Y-75871376D01*
X114679965Y-76036498D01*
X114712737Y-76097491D01*
X114715532Y-76101234D01*
X114715534Y-76101237D01*
X114866330Y-76303177D01*
X114866335Y-76303183D01*
X114869122Y-76306915D01*
X114872431Y-76310195D01*
X114872436Y-76310201D01*
X114923598Y-76360918D01*
X115054743Y-76490923D01*
X115058505Y-76493681D01*
X115058508Y-76493684D01*
X115215857Y-76609057D01*
X115265524Y-76645474D01*
X115269667Y-76647654D01*
X115269669Y-76647655D01*
X115492684Y-76764989D01*
X115492689Y-76764991D01*
X115496834Y-76767172D01*
X115602564Y-76804095D01*
X115693725Y-76835930D01*
X115743590Y-76853344D01*
X115748177Y-76854215D01*
X115748185Y-76854217D01*
X115895682Y-76882219D01*
X115937173Y-76890096D01*
X116000368Y-76922453D01*
X116036037Y-76983839D01*
X116032856Y-77054764D01*
X116002767Y-77102980D01*
X115180621Y-77925126D01*
X115170478Y-77934228D01*
X115140975Y-77957949D01*
X115137008Y-77962677D01*
X115108709Y-77996402D01*
X115105528Y-78000050D01*
X115103885Y-78001862D01*
X115101691Y-78004056D01*
X115074358Y-78037330D01*
X115073696Y-78038128D01*
X115013846Y-78109455D01*
X115011278Y-78114125D01*
X115007897Y-78118242D01*
X114976860Y-78176126D01*
X114964023Y-78200067D01*
X114963394Y-78201226D01*
X114921538Y-78277362D01*
X114921535Y-78277370D01*
X114918567Y-78282768D01*
X114916955Y-78287850D01*
X114914438Y-78292544D01*
X114887238Y-78381512D01*
X114886918Y-78382540D01*
X114858765Y-78471287D01*
X114858171Y-78476583D01*
X114856613Y-78481679D01*
X114855990Y-78487815D01*
X114847218Y-78574168D01*
X114847089Y-78575374D01*
X114841500Y-78625208D01*
X114841500Y-78628735D01*
X114841445Y-78629720D01*
X114840998Y-78635400D01*
X114836626Y-78678443D01*
X114837206Y-78684574D01*
X114840941Y-78724090D01*
X114841500Y-78735948D01*
X114841500Y-93040297D01*
X114821498Y-93108418D01*
X114784588Y-93145667D01*
X114782717Y-93146894D01*
X114776491Y-93150976D01*
X114723027Y-93198695D01*
X114615214Y-93294922D01*
X114581494Y-93325018D01*
X114414363Y-93525970D01*
X114411934Y-93529973D01*
X114301781Y-93711500D01*
X114278771Y-93749419D01*
X114177697Y-93990455D01*
X114113359Y-94243783D01*
X114112891Y-94248434D01*
X114112890Y-94248438D01*
X114112439Y-94252922D01*
X114087173Y-94503839D01*
X114087397Y-94508505D01*
X114087397Y-94508511D01*
X114092557Y-94615930D01*
X114099713Y-94764908D01*
X114150704Y-95021256D01*
X114239026Y-95267252D01*
X114245876Y-95280001D01*
X114344999Y-95464478D01*
X114362737Y-95497491D01*
X114365532Y-95501234D01*
X114365534Y-95501237D01*
X114516330Y-95703177D01*
X114516335Y-95703183D01*
X114519122Y-95706915D01*
X114522431Y-95710195D01*
X114522436Y-95710201D01*
X114701426Y-95887635D01*
X114704743Y-95890923D01*
X114708505Y-95893681D01*
X114708508Y-95893684D01*
X114740005Y-95916778D01*
X114783113Y-95973189D01*
X114791500Y-96018390D01*
X114791500Y-97390297D01*
X114771498Y-97458418D01*
X114734588Y-97495667D01*
X114732717Y-97496894D01*
X114726491Y-97500976D01*
X114531494Y-97675018D01*
X114364363Y-97875970D01*
X114361934Y-97879973D01*
X114260668Y-98046855D01*
X114228771Y-98099419D01*
X114127697Y-98340455D01*
X114063359Y-98593783D01*
X114037173Y-98853839D01*
X113008500Y-98853839D01*
X113008500Y-64334500D01*
X113028502Y-64266379D01*
X113082158Y-64219886D01*
X113134500Y-64208500D01*
X161065500Y-64208500D01*
X161133621Y-64228502D01*
G37*
%TD.AperFunction*%
%TA.AperFunction,Conductor*%
G36*
X149250634Y-66966902D02*
G01*
X149297127Y-67020558D01*
X149307231Y-67090832D01*
X149291412Y-67136281D01*
X149219130Y-67260474D01*
X149205159Y-67284478D01*
X149203346Y-67289201D01*
X149139049Y-67456703D01*
X149118167Y-67511102D01*
X149117133Y-67516052D01*
X149117132Y-67516055D01*
X149069663Y-67743279D01*
X149068526Y-67748720D01*
X149057514Y-67991217D01*
X149058095Y-67996237D01*
X149058095Y-67996241D01*
X149083608Y-68216736D01*
X149085415Y-68232356D01*
X149086791Y-68237220D01*
X149086792Y-68237223D01*
X149132476Y-68398666D01*
X149151510Y-68465932D01*
X149153644Y-68470508D01*
X149153646Y-68470514D01*
X149222296Y-68617734D01*
X149254099Y-68685936D01*
X149390544Y-68886707D01*
X149557332Y-69063081D01*
X149561358Y-69066159D01*
X149561359Y-69066160D01*
X149647172Y-69131769D01*
X149689140Y-69189034D01*
X149693485Y-69259897D01*
X149653968Y-69326379D01*
X149485500Y-69474903D01*
X149478496Y-69482156D01*
X149330890Y-69661854D01*
X149325134Y-69670136D01*
X149208159Y-69871119D01*
X149203797Y-69880224D01*
X149120463Y-70097315D01*
X149117612Y-70107004D01*
X149086179Y-70257464D01*
X149087302Y-70271525D01*
X149097410Y-70275200D01*
X153040590Y-70275200D01*
X153054676Y-70271064D01*
X153056725Y-70258086D01*
X153054675Y-70240370D01*
X153052715Y-70230473D01*
X152989396Y-70006706D01*
X152985884Y-69997262D01*
X152887601Y-69786495D01*
X152882622Y-69777729D01*
X152751913Y-69585398D01*
X152745581Y-69577523D01*
X152585814Y-69408574D01*
X152578311Y-69401818D01*
X152492850Y-69336478D01*
X152450883Y-69279213D01*
X152446538Y-69208349D01*
X152486055Y-69141868D01*
X152654858Y-68993050D01*
X152654861Y-68993047D01*
X152658655Y-68989702D01*
X152812734Y-68802122D01*
X152920051Y-68617734D01*
X152932299Y-68596690D01*
X152932300Y-68596688D01*
X152934841Y-68592322D01*
X152964508Y-68515037D01*
X153020020Y-68370422D01*
X153020021Y-68370418D01*
X153021833Y-68365698D01*
X153046349Y-68248346D01*
X153079858Y-68185755D01*
X153141888Y-68151217D01*
X153212743Y-68155697D01*
X153258781Y-68185016D01*
X153654595Y-68580829D01*
X153688620Y-68643142D01*
X153691500Y-68669925D01*
X153691500Y-92460657D01*
X153690763Y-92474264D01*
X153686676Y-92511888D01*
X153687213Y-92518023D01*
X153691050Y-92561888D01*
X153691379Y-92566714D01*
X153691500Y-92569186D01*
X153691500Y-92572269D01*
X153691801Y-92575337D01*
X153695690Y-92615006D01*
X153695812Y-92616319D01*
X153698705Y-92649380D01*
X153703913Y-92708913D01*
X153705400Y-92714032D01*
X153705920Y-92719333D01*
X153732791Y-92808334D01*
X153733126Y-92809467D01*
X153743014Y-92843499D01*
X153759091Y-92898836D01*
X153761544Y-92903568D01*
X153763084Y-92908669D01*
X153765978Y-92914112D01*
X153806731Y-92990760D01*
X153807343Y-92991926D01*
X153850108Y-93074426D01*
X153853431Y-93078589D01*
X153855934Y-93083296D01*
X153914755Y-93155418D01*
X153915446Y-93156274D01*
X153946738Y-93195473D01*
X153949242Y-93197977D01*
X153949884Y-93198695D01*
X153953585Y-93203028D01*
X153980935Y-93236562D01*
X153985682Y-93240489D01*
X153985684Y-93240491D01*
X154016262Y-93265787D01*
X154025042Y-93273777D01*
X156140645Y-95389379D01*
X156149747Y-95399522D01*
X156173468Y-95429025D01*
X156211956Y-95461320D01*
X156215575Y-95464478D01*
X156217390Y-95466124D01*
X156219575Y-95468309D01*
X156221955Y-95470264D01*
X156221965Y-95470273D01*
X156252736Y-95495549D01*
X156253751Y-95496391D01*
X156260319Y-95501902D01*
X156324974Y-95556154D01*
X156329648Y-95558723D01*
X156333761Y-95562102D01*
X156339198Y-95565017D01*
X156339199Y-95565018D01*
X156415547Y-95605955D01*
X156416677Y-95606568D01*
X156498287Y-95651433D01*
X156503369Y-95653045D01*
X156508063Y-95655562D01*
X156597031Y-95682762D01*
X156598059Y-95683082D01*
X156686806Y-95711235D01*
X156692102Y-95711829D01*
X156697198Y-95713387D01*
X156789757Y-95722790D01*
X156790893Y-95722911D01*
X156824508Y-95726681D01*
X156837230Y-95728108D01*
X156837234Y-95728108D01*
X156840727Y-95728500D01*
X156844254Y-95728500D01*
X156845239Y-95728555D01*
X156850919Y-95729002D01*
X156880325Y-95731989D01*
X156887837Y-95732752D01*
X156887839Y-95732752D01*
X156893962Y-95733374D01*
X156939608Y-95729059D01*
X156951467Y-95728500D01*
X157298999Y-95728500D01*
X157367120Y-95748502D01*
X157413613Y-95802158D01*
X157416981Y-95810270D01*
X157446885Y-95890038D01*
X157534239Y-96006594D01*
X157541419Y-96011975D01*
X157545349Y-96015905D01*
X157579375Y-96078217D01*
X157574310Y-96149032D01*
X157545349Y-96194095D01*
X157541419Y-96198025D01*
X157534239Y-96203406D01*
X157446885Y-96319962D01*
X157395755Y-96456351D01*
X157389000Y-96518533D01*
X157389000Y-96553648D01*
X157368998Y-96621769D01*
X157342635Y-96651291D01*
X157277101Y-96704739D01*
X157276075Y-96705567D01*
X157239792Y-96734531D01*
X157239787Y-96734536D01*
X157237028Y-96736738D01*
X157234527Y-96739239D01*
X157233809Y-96739881D01*
X157229461Y-96743594D01*
X157195938Y-96770935D01*
X157192015Y-96775677D01*
X157192013Y-96775679D01*
X157166703Y-96806273D01*
X157158713Y-96815053D01*
X153580621Y-100393145D01*
X153570478Y-100402247D01*
X153540975Y-100425968D01*
X153537008Y-100430696D01*
X153508709Y-100464421D01*
X153505528Y-100468069D01*
X153503885Y-100469881D01*
X153501691Y-100472075D01*
X153474358Y-100505349D01*
X153473696Y-100506147D01*
X153413846Y-100577474D01*
X153411278Y-100582144D01*
X153407897Y-100586261D01*
X153383230Y-100632266D01*
X153364023Y-100668086D01*
X153363394Y-100669245D01*
X153321538Y-100745381D01*
X153321535Y-100745389D01*
X153318567Y-100750787D01*
X153316955Y-100755869D01*
X153314438Y-100760563D01*
X153309462Y-100776838D01*
X153306068Y-100787940D01*
X153267023Y-100847236D01*
X153202118Y-100876009D01*
X153131961Y-100865125D01*
X153078825Y-100818038D01*
X153060409Y-100765581D01*
X153059829Y-100760563D01*
X153054585Y-100715244D01*
X153041423Y-100668728D01*
X152995432Y-100506200D01*
X152988490Y-100481668D01*
X152986356Y-100477092D01*
X152986354Y-100477086D01*
X152888038Y-100266246D01*
X152888036Y-100266242D01*
X152885901Y-100261664D01*
X152749456Y-100060893D01*
X152582668Y-99884519D01*
X152524093Y-99839735D01*
X152482125Y-99782470D01*
X152477780Y-99711607D01*
X152517297Y-99645125D01*
X152654858Y-99523850D01*
X152654861Y-99523847D01*
X152658655Y-99520502D01*
X152746696Y-99413319D01*
X152809526Y-99336828D01*
X152809528Y-99336825D01*
X152812734Y-99332922D01*
X152934841Y-99123122D01*
X152983357Y-98996732D01*
X153020020Y-98901222D01*
X153020021Y-98901218D01*
X153021833Y-98896498D01*
X153022868Y-98891545D01*
X153070440Y-98663831D01*
X153070440Y-98663827D01*
X153071474Y-98658880D01*
X153082486Y-98416383D01*
X153081310Y-98406215D01*
X153055167Y-98180271D01*
X153055166Y-98180267D01*
X153054585Y-98175244D01*
X153040351Y-98124940D01*
X152989866Y-97946531D01*
X152988490Y-97941668D01*
X152986356Y-97937092D01*
X152986354Y-97937086D01*
X152888038Y-97726246D01*
X152888036Y-97726242D01*
X152885901Y-97721664D01*
X152749456Y-97520893D01*
X152582668Y-97344519D01*
X152524093Y-97299735D01*
X152482125Y-97242470D01*
X152477780Y-97171607D01*
X152517297Y-97105125D01*
X152654858Y-96983850D01*
X152654861Y-96983847D01*
X152658655Y-96980502D01*
X152794556Y-96815053D01*
X152809526Y-96796828D01*
X152809528Y-96796825D01*
X152812734Y-96792922D01*
X152895166Y-96651291D01*
X152932299Y-96587490D01*
X152932300Y-96587488D01*
X152934841Y-96583122D01*
X152983357Y-96456732D01*
X153020020Y-96361222D01*
X153020021Y-96361218D01*
X153021833Y-96356498D01*
X153022868Y-96351545D01*
X153070440Y-96123831D01*
X153070440Y-96123827D01*
X153071474Y-96118880D01*
X153082486Y-95876383D01*
X153081905Y-95871359D01*
X153055167Y-95640271D01*
X153055166Y-95640267D01*
X153054585Y-95635244D01*
X153015517Y-95497178D01*
X152989866Y-95406531D01*
X152988490Y-95401668D01*
X152986356Y-95397092D01*
X152986354Y-95397086D01*
X152888038Y-95186246D01*
X152888036Y-95186242D01*
X152885901Y-95181664D01*
X152866509Y-95153129D01*
X152752302Y-94985081D01*
X152749456Y-94980893D01*
X152582668Y-94804519D01*
X152524093Y-94759735D01*
X152482125Y-94702470D01*
X152477780Y-94631607D01*
X152517297Y-94565125D01*
X152654858Y-94443850D01*
X152654861Y-94443847D01*
X152658655Y-94440502D01*
X152746696Y-94333319D01*
X152809526Y-94256828D01*
X152809528Y-94256825D01*
X152812734Y-94252922D01*
X152934841Y-94043122D01*
X153021833Y-93816498D01*
X153022868Y-93811545D01*
X153070440Y-93583831D01*
X153070440Y-93583827D01*
X153071474Y-93578880D01*
X153082486Y-93336383D01*
X153081171Y-93325018D01*
X153055167Y-93100271D01*
X153055166Y-93100267D01*
X153054585Y-93095244D01*
X153051375Y-93083898D01*
X152989866Y-92866531D01*
X152988490Y-92861668D01*
X152986356Y-92857092D01*
X152986354Y-92857086D01*
X152888038Y-92646246D01*
X152888036Y-92646242D01*
X152885901Y-92641664D01*
X152749456Y-92440893D01*
X152582668Y-92264519D01*
X152524093Y-92219735D01*
X152482125Y-92162470D01*
X152477780Y-92091607D01*
X152517297Y-92025125D01*
X152654858Y-91903850D01*
X152654861Y-91903847D01*
X152658655Y-91900502D01*
X152812734Y-91712922D01*
X152934841Y-91503122D01*
X152950559Y-91462174D01*
X153020020Y-91281222D01*
X153020021Y-91281218D01*
X153021833Y-91276498D01*
X153050740Y-91138129D01*
X153070440Y-91043831D01*
X153070440Y-91043827D01*
X153071474Y-91038880D01*
X153082486Y-90796383D01*
X153067235Y-90664573D01*
X153055167Y-90560271D01*
X153055166Y-90560267D01*
X153054585Y-90555244D01*
X153032135Y-90475905D01*
X152989866Y-90326531D01*
X152988490Y-90321668D01*
X152986356Y-90317092D01*
X152986354Y-90317086D01*
X152888038Y-90106246D01*
X152888036Y-90106242D01*
X152885901Y-90101664D01*
X152749456Y-89900893D01*
X152582668Y-89724519D01*
X152524093Y-89679735D01*
X152482125Y-89622470D01*
X152477780Y-89551607D01*
X152517297Y-89485125D01*
X152654858Y-89363850D01*
X152654861Y-89363847D01*
X152658655Y-89360502D01*
X152803287Y-89184423D01*
X152809526Y-89176828D01*
X152809528Y-89176825D01*
X152812734Y-89172922D01*
X152934841Y-88963122D01*
X152950195Y-88923124D01*
X153020020Y-88741222D01*
X153020021Y-88741218D01*
X153021833Y-88736498D01*
X153034478Y-88675970D01*
X153070440Y-88503831D01*
X153070440Y-88503827D01*
X153071474Y-88498880D01*
X153082486Y-88256383D01*
X153073715Y-88180576D01*
X153055167Y-88020271D01*
X153055166Y-88020267D01*
X153054585Y-88015244D01*
X153051126Y-88003018D01*
X152989866Y-87786531D01*
X152988490Y-87781668D01*
X152986356Y-87777092D01*
X152986354Y-87777086D01*
X152888038Y-87566246D01*
X152888036Y-87566242D01*
X152885901Y-87561664D01*
X152749456Y-87360893D01*
X152582668Y-87184519D01*
X152524093Y-87139735D01*
X152482125Y-87082470D01*
X152477780Y-87011607D01*
X152517297Y-86945125D01*
X152654858Y-86823850D01*
X152654861Y-86823847D01*
X152658655Y-86820502D01*
X152661866Y-86816593D01*
X152809526Y-86636828D01*
X152809528Y-86636825D01*
X152812734Y-86632922D01*
X152934841Y-86423122D01*
X153021833Y-86196498D01*
X153022868Y-86191545D01*
X153070440Y-85963831D01*
X153070440Y-85963827D01*
X153071474Y-85958880D01*
X153082486Y-85716383D01*
X153067235Y-85584573D01*
X153055167Y-85480271D01*
X153055166Y-85480267D01*
X153054585Y-85475244D01*
X153043249Y-85435181D01*
X152989866Y-85246531D01*
X152988490Y-85241668D01*
X152986356Y-85237092D01*
X152986354Y-85237086D01*
X152888038Y-85026246D01*
X152888036Y-85026242D01*
X152885901Y-85021664D01*
X152749456Y-84820893D01*
X152582668Y-84644519D01*
X152524093Y-84599735D01*
X152482125Y-84542470D01*
X152477780Y-84471607D01*
X152517297Y-84405125D01*
X152654858Y-84283850D01*
X152654861Y-84283847D01*
X152658655Y-84280502D01*
X152812734Y-84092922D01*
X152920625Y-83907548D01*
X152932299Y-83887490D01*
X152932300Y-83887488D01*
X152934841Y-83883122D01*
X153021833Y-83656498D01*
X153071474Y-83418880D01*
X153082486Y-83176383D01*
X153067235Y-83044573D01*
X153055167Y-82940271D01*
X153055166Y-82940267D01*
X153054585Y-82935244D01*
X153015517Y-82797178D01*
X152989866Y-82706531D01*
X152988490Y-82701668D01*
X152986356Y-82697092D01*
X152986354Y-82697086D01*
X152888038Y-82486246D01*
X152888036Y-82486242D01*
X152885901Y-82481664D01*
X152749456Y-82280893D01*
X152582668Y-82104519D01*
X152524093Y-82059735D01*
X152482125Y-82002470D01*
X152477780Y-81931607D01*
X152517297Y-81865125D01*
X152654858Y-81743850D01*
X152654861Y-81743847D01*
X152658655Y-81740502D01*
X152661866Y-81736593D01*
X152809526Y-81556828D01*
X152809528Y-81556825D01*
X152812734Y-81552922D01*
X152934841Y-81343122D01*
X152936654Y-81338399D01*
X153020020Y-81121222D01*
X153020021Y-81121218D01*
X153021833Y-81116498D01*
X153042098Y-81019496D01*
X153070440Y-80883831D01*
X153070440Y-80883827D01*
X153071474Y-80878880D01*
X153082486Y-80636383D01*
X153080128Y-80616000D01*
X153055167Y-80400271D01*
X153055166Y-80400267D01*
X153054585Y-80395244D01*
X153024516Y-80288980D01*
X152989866Y-80166531D01*
X152988490Y-80161668D01*
X152986356Y-80157092D01*
X152986354Y-80157086D01*
X152888038Y-79946246D01*
X152888036Y-79946242D01*
X152885901Y-79941664D01*
X152749456Y-79740893D01*
X152582668Y-79564519D01*
X152524093Y-79519735D01*
X152482125Y-79462470D01*
X152477780Y-79391607D01*
X152517297Y-79325125D01*
X152654858Y-79203850D01*
X152654861Y-79203847D01*
X152658655Y-79200502D01*
X152760583Y-79076412D01*
X152809526Y-79016828D01*
X152809528Y-79016825D01*
X152812734Y-79012922D01*
X152934841Y-78803122D01*
X152936654Y-78798399D01*
X153020020Y-78581222D01*
X153020021Y-78581218D01*
X153021833Y-78576498D01*
X153042575Y-78477212D01*
X153070440Y-78343831D01*
X153070440Y-78343827D01*
X153071474Y-78338880D01*
X153082486Y-78096383D01*
X153075699Y-78037724D01*
X153055167Y-77860271D01*
X153055166Y-77860267D01*
X153054585Y-77855244D01*
X153051497Y-77844329D01*
X152989866Y-77626531D01*
X152988490Y-77621668D01*
X152986356Y-77617092D01*
X152986354Y-77617086D01*
X152888038Y-77406246D01*
X152888036Y-77406242D01*
X152885901Y-77401664D01*
X152749456Y-77200893D01*
X152582668Y-77024519D01*
X152524093Y-76979735D01*
X152482125Y-76922470D01*
X152477780Y-76851607D01*
X152517297Y-76785125D01*
X152654858Y-76663850D01*
X152654861Y-76663847D01*
X152658655Y-76660502D01*
X152795680Y-76493684D01*
X152809526Y-76476828D01*
X152809528Y-76476825D01*
X152812734Y-76472922D01*
X152910570Y-76304823D01*
X152932299Y-76267490D01*
X152932300Y-76267488D01*
X152934841Y-76263122D01*
X152985224Y-76131869D01*
X153020020Y-76041222D01*
X153020021Y-76041218D01*
X153021833Y-76036498D01*
X153056371Y-75871174D01*
X153070440Y-75803831D01*
X153070440Y-75803827D01*
X153071474Y-75798880D01*
X153082486Y-75556383D01*
X153066934Y-75421970D01*
X153055167Y-75320271D01*
X153055166Y-75320267D01*
X153054585Y-75315244D01*
X153015517Y-75177178D01*
X152989866Y-75086531D01*
X152988490Y-75081668D01*
X152986356Y-75077092D01*
X152986354Y-75077086D01*
X152888038Y-74866246D01*
X152888036Y-74866242D01*
X152885901Y-74861664D01*
X152749456Y-74660893D01*
X152582668Y-74484519D01*
X152524093Y-74439735D01*
X152482125Y-74382470D01*
X152477780Y-74311607D01*
X152517297Y-74245125D01*
X152654858Y-74123850D01*
X152654861Y-74123847D01*
X152658655Y-74120502D01*
X152746696Y-74013319D01*
X152809526Y-73936828D01*
X152809528Y-73936825D01*
X152812734Y-73932922D01*
X152883429Y-73811456D01*
X152932299Y-73727490D01*
X152932300Y-73727488D01*
X152934841Y-73723122D01*
X152978007Y-73610670D01*
X153020020Y-73501222D01*
X153020021Y-73501218D01*
X153021833Y-73496498D01*
X153024966Y-73481502D01*
X153070440Y-73263831D01*
X153070440Y-73263827D01*
X153071474Y-73258880D01*
X153082486Y-73016383D01*
X153081391Y-73006915D01*
X153055167Y-72780271D01*
X153055166Y-72780267D01*
X153054585Y-72775244D01*
X153029665Y-72687176D01*
X152996896Y-72571376D01*
X152988490Y-72541668D01*
X152986356Y-72537092D01*
X152986354Y-72537086D01*
X152888038Y-72326246D01*
X152888036Y-72326242D01*
X152885901Y-72321664D01*
X152749456Y-72120893D01*
X152582668Y-71944519D01*
X152523685Y-71899423D01*
X152481719Y-71842161D01*
X152477374Y-71771297D01*
X152516891Y-71704815D01*
X152654500Y-71583497D01*
X152661504Y-71576244D01*
X152809110Y-71396546D01*
X152814869Y-71388260D01*
X152931841Y-71187281D01*
X152936203Y-71178176D01*
X153019537Y-70961085D01*
X153022388Y-70951396D01*
X153053821Y-70800936D01*
X153052698Y-70786875D01*
X153042590Y-70783200D01*
X149099410Y-70783200D01*
X149085324Y-70787336D01*
X149083275Y-70800314D01*
X149085325Y-70818030D01*
X149087285Y-70827927D01*
X149150604Y-71051694D01*
X149154116Y-71061138D01*
X149252399Y-71271905D01*
X149257378Y-71280671D01*
X149388087Y-71473002D01*
X149394419Y-71480877D01*
X149554186Y-71649826D01*
X149561695Y-71656587D01*
X149616290Y-71698328D01*
X149658258Y-71755593D01*
X149662603Y-71826456D01*
X149623087Y-71892937D01*
X149615376Y-71899735D01*
X149485142Y-72014550D01*
X149485139Y-72014553D01*
X149481345Y-72017898D01*
X149327266Y-72205478D01*
X149205159Y-72415278D01*
X149203346Y-72420001D01*
X149148513Y-72562848D01*
X149118167Y-72641902D01*
X149117133Y-72646852D01*
X149117132Y-72646855D01*
X149085663Y-72797491D01*
X149068526Y-72879520D01*
X149057514Y-73122017D01*
X149058095Y-73127037D01*
X149058095Y-73127041D01*
X149079481Y-73311868D01*
X149085415Y-73363156D01*
X149086791Y-73368020D01*
X149086792Y-73368023D01*
X149127973Y-73513552D01*
X149151510Y-73596732D01*
X149153644Y-73601308D01*
X149153646Y-73601314D01*
X149239005Y-73784367D01*
X149254099Y-73816736D01*
X149390544Y-74017507D01*
X149557332Y-74193881D01*
X149561358Y-74196959D01*
X149561359Y-74196960D01*
X149615907Y-74238665D01*
X149657875Y-74295930D01*
X149662220Y-74366793D01*
X149622703Y-74433275D01*
X149485142Y-74554550D01*
X149485139Y-74554553D01*
X149481345Y-74557898D01*
X149478135Y-74561806D01*
X149478134Y-74561807D01*
X149421944Y-74630215D01*
X149327266Y-74745478D01*
X149205159Y-74955278D01*
X149203346Y-74960001D01*
X149158819Y-75076000D01*
X149118167Y-75181902D01*
X149117133Y-75186852D01*
X149117132Y-75186855D01*
X149070994Y-75407708D01*
X149068526Y-75419520D01*
X149057514Y-75662017D01*
X149058095Y-75667037D01*
X149058095Y-75667041D01*
X149081715Y-75871174D01*
X149085415Y-75903156D01*
X149086791Y-75908020D01*
X149086792Y-75908023D01*
X149132476Y-76069466D01*
X149151510Y-76136732D01*
X149153644Y-76141308D01*
X149153646Y-76141314D01*
X149230867Y-76306915D01*
X149254099Y-76356736D01*
X149390544Y-76557507D01*
X149557332Y-76733881D01*
X149561358Y-76736959D01*
X149561359Y-76736960D01*
X149615907Y-76778665D01*
X149657875Y-76835930D01*
X149662220Y-76906793D01*
X149622703Y-76973275D01*
X149485142Y-77094550D01*
X149485139Y-77094553D01*
X149481345Y-77097898D01*
X149478135Y-77101806D01*
X149478134Y-77101807D01*
X149453338Y-77131995D01*
X149327266Y-77285478D01*
X149205159Y-77495278D01*
X149118167Y-77721902D01*
X149117133Y-77726852D01*
X149117132Y-77726855D01*
X149069662Y-77954084D01*
X149068526Y-77959520D01*
X149057514Y-78202017D01*
X149058095Y-78207037D01*
X149058095Y-78207041D01*
X149078343Y-78382032D01*
X149085415Y-78443156D01*
X149086791Y-78448020D01*
X149086792Y-78448023D01*
X149132476Y-78609466D01*
X149151510Y-78676732D01*
X149153644Y-78681308D01*
X149153646Y-78681314D01*
X149210446Y-78803122D01*
X149254099Y-78896736D01*
X149390544Y-79097507D01*
X149557332Y-79273881D01*
X149561358Y-79276959D01*
X149561359Y-79276960D01*
X149615907Y-79318665D01*
X149657875Y-79375930D01*
X149662220Y-79446793D01*
X149622703Y-79513275D01*
X149485142Y-79634550D01*
X149485139Y-79634553D01*
X149481345Y-79637898D01*
X149478135Y-79641806D01*
X149478134Y-79641807D01*
X149336775Y-79813902D01*
X149327266Y-79825478D01*
X149324724Y-79829846D01*
X149226030Y-79999419D01*
X149205159Y-80035278D01*
X149203346Y-80040001D01*
X149124663Y-80244980D01*
X149118167Y-80261902D01*
X149117133Y-80266852D01*
X149117132Y-80266855D01*
X149069725Y-80493783D01*
X149068526Y-80499520D01*
X149057514Y-80742017D01*
X149058095Y-80747037D01*
X149058095Y-80747041D01*
X149075264Y-80895421D01*
X149085415Y-80983156D01*
X149086791Y-80988020D01*
X149086792Y-80988023D01*
X149125270Y-81124000D01*
X149151510Y-81216732D01*
X149153644Y-81221308D01*
X149153646Y-81221314D01*
X149240416Y-81407393D01*
X149254099Y-81436736D01*
X149390544Y-81637507D01*
X149557332Y-81813881D01*
X149561358Y-81816959D01*
X149561359Y-81816960D01*
X149615907Y-81858665D01*
X149657875Y-81915930D01*
X149662220Y-81986793D01*
X149622703Y-82053275D01*
X149485142Y-82174550D01*
X149485139Y-82174553D01*
X149481345Y-82177898D01*
X149478135Y-82181806D01*
X149478134Y-82181807D01*
X149384768Y-82295474D01*
X149327266Y-82365478D01*
X149324724Y-82369846D01*
X149229241Y-82533902D01*
X149205159Y-82575278D01*
X149118167Y-82801902D01*
X149068526Y-83039520D01*
X149057514Y-83282017D01*
X149058095Y-83287037D01*
X149058095Y-83287041D01*
X149073923Y-83423831D01*
X149085415Y-83523156D01*
X149086791Y-83528020D01*
X149086792Y-83528023D01*
X149132476Y-83689466D01*
X149151510Y-83756732D01*
X149153644Y-83761308D01*
X149153646Y-83761314D01*
X149251962Y-83972154D01*
X149254099Y-83976736D01*
X149390544Y-84177507D01*
X149557332Y-84353881D01*
X149561358Y-84356959D01*
X149561359Y-84356960D01*
X149615907Y-84398665D01*
X149657875Y-84455930D01*
X149662220Y-84526793D01*
X149622703Y-84593275D01*
X149485142Y-84714550D01*
X149485139Y-84714553D01*
X149481345Y-84717898D01*
X149327266Y-84905478D01*
X149205159Y-85115278D01*
X149118167Y-85341902D01*
X149068526Y-85579520D01*
X149057514Y-85822017D01*
X149058095Y-85827037D01*
X149058095Y-85827041D01*
X149073923Y-85963831D01*
X149085415Y-86063156D01*
X149086791Y-86068020D01*
X149086792Y-86068023D01*
X149132476Y-86229466D01*
X149151510Y-86296732D01*
X149153644Y-86301308D01*
X149153646Y-86301314D01*
X149210446Y-86423122D01*
X149254099Y-86516736D01*
X149390544Y-86717507D01*
X149557332Y-86893881D01*
X149561358Y-86896959D01*
X149561359Y-86896960D01*
X149615907Y-86938665D01*
X149657875Y-86995930D01*
X149662220Y-87066793D01*
X149622703Y-87133275D01*
X149485142Y-87254550D01*
X149485139Y-87254553D01*
X149481345Y-87257898D01*
X149327266Y-87445478D01*
X149205159Y-87655278D01*
X149118167Y-87881902D01*
X149117133Y-87886852D01*
X149117132Y-87886855D01*
X149079490Y-88067040D01*
X149068526Y-88119520D01*
X149057514Y-88362017D01*
X149058095Y-88367037D01*
X149058095Y-88367041D01*
X149074904Y-88512311D01*
X149085415Y-88603156D01*
X149086791Y-88608020D01*
X149086792Y-88608023D01*
X149132476Y-88769466D01*
X149151510Y-88836732D01*
X149153644Y-88841308D01*
X149153646Y-88841314D01*
X149210446Y-88963122D01*
X149254099Y-89056736D01*
X149390544Y-89257507D01*
X149557332Y-89433881D01*
X149561358Y-89436959D01*
X149561359Y-89436960D01*
X149615907Y-89478665D01*
X149657875Y-89535930D01*
X149662220Y-89606793D01*
X149622703Y-89673275D01*
X149485142Y-89794550D01*
X149485139Y-89794553D01*
X149481345Y-89797898D01*
X149478135Y-89801806D01*
X149478134Y-89801807D01*
X149364710Y-89939893D01*
X149327266Y-89985478D01*
X149205159Y-90195278D01*
X149203346Y-90200001D01*
X149149074Y-90341387D01*
X149118167Y-90421902D01*
X149117133Y-90426852D01*
X149117132Y-90426855D01*
X149093868Y-90538217D01*
X149068526Y-90659520D01*
X149057514Y-90902017D01*
X149058095Y-90907037D01*
X149058095Y-90907041D01*
X149083505Y-91126646D01*
X149085415Y-91143156D01*
X149086791Y-91148020D01*
X149086792Y-91148023D01*
X149132476Y-91309466D01*
X149151510Y-91376732D01*
X149153644Y-91381308D01*
X149153646Y-91381314D01*
X149210446Y-91503122D01*
X149254099Y-91596736D01*
X149390544Y-91797507D01*
X149557332Y-91973881D01*
X149561358Y-91976959D01*
X149561359Y-91976960D01*
X149615907Y-92018665D01*
X149657875Y-92075930D01*
X149662220Y-92146793D01*
X149622703Y-92213275D01*
X149485142Y-92334550D01*
X149485139Y-92334553D01*
X149481345Y-92337898D01*
X149478135Y-92341806D01*
X149478134Y-92341807D01*
X149333390Y-92518023D01*
X149327266Y-92525478D01*
X149309964Y-92555206D01*
X149214570Y-92719109D01*
X149205159Y-92735278D01*
X149203346Y-92740001D01*
X149124094Y-92946462D01*
X149118167Y-92961902D01*
X149117133Y-92966852D01*
X149117132Y-92966855D01*
X149072027Y-93182763D01*
X149068526Y-93199520D01*
X149057514Y-93442017D01*
X149058095Y-93447037D01*
X149058095Y-93447041D01*
X149082901Y-93661426D01*
X149085415Y-93683156D01*
X149086791Y-93688020D01*
X149086792Y-93688023D01*
X149132476Y-93849466D01*
X149151510Y-93916732D01*
X149153644Y-93921308D01*
X149153646Y-93921314D01*
X149210446Y-94043122D01*
X149254099Y-94136736D01*
X149390544Y-94337507D01*
X149557332Y-94513881D01*
X149561358Y-94516959D01*
X149561359Y-94516960D01*
X149615907Y-94558665D01*
X149657875Y-94615930D01*
X149662220Y-94686793D01*
X149622703Y-94753275D01*
X149485142Y-94874550D01*
X149485139Y-94874553D01*
X149481345Y-94877898D01*
X149478135Y-94881806D01*
X149478134Y-94881807D01*
X149462279Y-94901110D01*
X149327266Y-95065478D01*
X149205159Y-95275278D01*
X149203346Y-95280001D01*
X149120606Y-95495549D01*
X149118167Y-95501902D01*
X149117133Y-95506852D01*
X149117132Y-95506855D01*
X149070817Y-95728555D01*
X149068526Y-95739520D01*
X149057514Y-95982017D01*
X149058095Y-95987037D01*
X149058095Y-95987041D01*
X149083961Y-96210586D01*
X149085415Y-96223156D01*
X149086791Y-96228020D01*
X149086792Y-96228023D01*
X149132476Y-96389466D01*
X149151510Y-96456732D01*
X149153644Y-96461308D01*
X149153646Y-96461314D01*
X149251962Y-96672154D01*
X149254099Y-96676736D01*
X149390544Y-96877507D01*
X149557332Y-97053881D01*
X149561358Y-97056959D01*
X149561359Y-97056960D01*
X149615907Y-97098665D01*
X149657875Y-97155930D01*
X149662220Y-97226793D01*
X149622703Y-97293275D01*
X149485142Y-97414550D01*
X149485139Y-97414553D01*
X149481345Y-97417898D01*
X149478135Y-97421806D01*
X149478134Y-97421807D01*
X149447331Y-97459308D01*
X149327266Y-97605478D01*
X149324724Y-97609846D01*
X149239251Y-97756703D01*
X149205159Y-97815278D01*
X149203346Y-97820001D01*
X149122068Y-98031740D01*
X149118167Y-98041902D01*
X149117133Y-98046852D01*
X149117132Y-98046855D01*
X149098349Y-98136767D01*
X149068526Y-98279520D01*
X149057514Y-98522017D01*
X149058095Y-98527037D01*
X149058095Y-98527041D01*
X149073923Y-98663831D01*
X149085415Y-98763156D01*
X149086791Y-98768020D01*
X149086792Y-98768023D01*
X149125032Y-98903160D01*
X149151510Y-98996732D01*
X149153644Y-99001308D01*
X149153646Y-99001314D01*
X149208755Y-99119496D01*
X149254099Y-99216736D01*
X149390544Y-99417507D01*
X149557332Y-99593881D01*
X149561358Y-99596959D01*
X149561359Y-99596960D01*
X149615907Y-99638665D01*
X149657875Y-99695930D01*
X149662220Y-99766793D01*
X149622703Y-99833275D01*
X149485142Y-99954550D01*
X149485139Y-99954553D01*
X149481345Y-99957898D01*
X149478135Y-99961806D01*
X149478134Y-99961807D01*
X149389173Y-100070111D01*
X149327266Y-100145478D01*
X149318356Y-100160787D01*
X149220393Y-100329104D01*
X149205159Y-100355278D01*
X149203346Y-100360001D01*
X149120090Y-100576893D01*
X149118167Y-100581902D01*
X149117133Y-100586852D01*
X149117132Y-100586855D01*
X149077210Y-100777953D01*
X149068526Y-100819520D01*
X149057514Y-101062017D01*
X149058095Y-101067037D01*
X149058095Y-101067041D01*
X149078285Y-101241532D01*
X149085415Y-101303156D01*
X149086791Y-101308020D01*
X149086792Y-101308023D01*
X149124594Y-101441612D01*
X149151510Y-101536732D01*
X149153644Y-101541308D01*
X149153646Y-101541314D01*
X149240088Y-101726690D01*
X149254099Y-101756736D01*
X149390544Y-101957507D01*
X149557332Y-102133881D01*
X149561358Y-102136959D01*
X149561359Y-102136960D01*
X149615907Y-102178665D01*
X149657875Y-102235930D01*
X149662220Y-102306793D01*
X149622703Y-102373275D01*
X149485142Y-102494550D01*
X149485139Y-102494553D01*
X149481345Y-102497898D01*
X149327266Y-102685478D01*
X149205159Y-102895278D01*
X149203346Y-102900001D01*
X149135836Y-103075873D01*
X149118167Y-103121902D01*
X149117133Y-103126852D01*
X149117132Y-103126855D01*
X149076174Y-103322913D01*
X149068526Y-103359520D01*
X149057514Y-103602017D01*
X149058095Y-103607037D01*
X149058095Y-103607041D01*
X149073923Y-103743831D01*
X149085415Y-103843156D01*
X149086791Y-103848020D01*
X149086792Y-103848023D01*
X149124845Y-103982499D01*
X149151510Y-104076732D01*
X149153644Y-104081308D01*
X149153646Y-104081314D01*
X149209008Y-104200038D01*
X149254099Y-104296736D01*
X149390544Y-104497507D01*
X149557332Y-104673881D01*
X149561358Y-104676959D01*
X149561359Y-104676960D01*
X149615907Y-104718665D01*
X149657875Y-104775930D01*
X149662220Y-104846793D01*
X149622703Y-104913275D01*
X149485142Y-105034550D01*
X149485139Y-105034553D01*
X149481345Y-105037898D01*
X149478135Y-105041806D01*
X149478134Y-105041807D01*
X149409756Y-105125053D01*
X149327266Y-105225478D01*
X149205159Y-105435278D01*
X149203346Y-105440001D01*
X149124301Y-105645923D01*
X149118167Y-105661902D01*
X149117133Y-105666852D01*
X149117132Y-105666855D01*
X149077880Y-105854747D01*
X149068526Y-105899520D01*
X149057514Y-106142017D01*
X149058095Y-106147037D01*
X149058095Y-106147041D01*
X149076089Y-106302551D01*
X149085415Y-106383156D01*
X149086791Y-106388020D01*
X149086792Y-106388023D01*
X149124845Y-106522499D01*
X149151510Y-106616732D01*
X149153644Y-106621308D01*
X149153646Y-106621314D01*
X149210446Y-106743122D01*
X149254099Y-106836736D01*
X149390544Y-107037507D01*
X149557332Y-107213881D01*
X149561358Y-107216959D01*
X149561359Y-107216960D01*
X149615907Y-107258665D01*
X149657875Y-107315930D01*
X149662220Y-107386793D01*
X149622703Y-107453275D01*
X149485142Y-107574550D01*
X149485139Y-107574553D01*
X149481345Y-107577898D01*
X149327266Y-107765478D01*
X149205159Y-107975278D01*
X149203346Y-107980001D01*
X149121430Y-108193402D01*
X149118167Y-108201902D01*
X149117133Y-108206852D01*
X149117132Y-108206855D01*
X149073369Y-108416340D01*
X149068526Y-108439520D01*
X149057514Y-108682017D01*
X149058095Y-108687037D01*
X149058095Y-108687041D01*
X149073923Y-108823831D01*
X149085415Y-108923156D01*
X149086791Y-108928020D01*
X149086792Y-108928023D01*
X149124845Y-109062499D01*
X149151510Y-109156732D01*
X149153644Y-109161308D01*
X149153646Y-109161314D01*
X149210446Y-109283122D01*
X149254099Y-109376736D01*
X149390544Y-109577507D01*
X149557332Y-109753881D01*
X149561358Y-109756959D01*
X149561359Y-109756960D01*
X149615907Y-109798665D01*
X149657875Y-109855930D01*
X149662220Y-109926793D01*
X149622703Y-109993275D01*
X149485142Y-110114550D01*
X149485139Y-110114553D01*
X149481345Y-110117898D01*
X149478135Y-110121806D01*
X149478134Y-110121807D01*
X149357231Y-110268998D01*
X149327266Y-110305478D01*
X149324724Y-110309846D01*
X149214140Y-110499848D01*
X149205159Y-110515278D01*
X149203346Y-110520001D01*
X149123781Y-110727278D01*
X149118167Y-110741902D01*
X149117133Y-110746852D01*
X149117132Y-110746855D01*
X149073085Y-110957699D01*
X149068526Y-110979520D01*
X149057514Y-111222017D01*
X149058095Y-111227037D01*
X149058095Y-111227041D01*
X149073923Y-111363831D01*
X149085415Y-111463156D01*
X149086791Y-111468020D01*
X149086792Y-111468023D01*
X149124845Y-111602499D01*
X149151510Y-111696732D01*
X149153644Y-111701308D01*
X149153646Y-111701314D01*
X149210446Y-111823122D01*
X149254099Y-111916736D01*
X149390544Y-112117507D01*
X149557332Y-112293881D01*
X149561358Y-112296959D01*
X149561359Y-112296960D01*
X149615907Y-112338665D01*
X149657875Y-112395930D01*
X149662220Y-112466793D01*
X149622703Y-112533275D01*
X149485142Y-112654550D01*
X149485139Y-112654553D01*
X149481345Y-112657898D01*
X149478135Y-112661806D01*
X149478134Y-112661807D01*
X149340647Y-112829188D01*
X149327266Y-112845478D01*
X149205159Y-113055278D01*
X149203346Y-113060001D01*
X149135836Y-113235873D01*
X149118167Y-113281902D01*
X149117133Y-113286852D01*
X149117132Y-113286855D01*
X149069872Y-113513079D01*
X149068526Y-113519520D01*
X149057514Y-113762017D01*
X149058095Y-113767037D01*
X149058095Y-113767041D01*
X149081310Y-113967675D01*
X149085415Y-114003156D01*
X149086791Y-114008020D01*
X149086792Y-114008023D01*
X149121703Y-114131396D01*
X149151510Y-114236732D01*
X149153644Y-114241308D01*
X149153646Y-114241314D01*
X149212483Y-114367490D01*
X149254099Y-114456736D01*
X149390544Y-114657507D01*
X149557332Y-114833881D01*
X149561358Y-114836959D01*
X149561359Y-114836960D01*
X149615907Y-114878665D01*
X149657875Y-114935930D01*
X149662220Y-115006793D01*
X149622703Y-115073275D01*
X149485142Y-115194550D01*
X149485139Y-115194553D01*
X149481345Y-115197898D01*
X149478135Y-115201806D01*
X149478134Y-115201807D01*
X149341623Y-115368000D01*
X149327266Y-115385478D01*
X149278366Y-115469496D01*
X149236987Y-115540593D01*
X149205159Y-115595278D01*
X149203346Y-115600001D01*
X149135836Y-115775873D01*
X149118167Y-115821902D01*
X149117133Y-115826852D01*
X149117132Y-115826855D01*
X149069675Y-116054022D01*
X149068526Y-116059520D01*
X149057514Y-116302017D01*
X149058095Y-116307037D01*
X149058095Y-116307041D01*
X149081670Y-116510787D01*
X149085415Y-116543156D01*
X149086791Y-116548020D01*
X149086792Y-116548023D01*
X149102178Y-116602396D01*
X149151510Y-116776732D01*
X149153644Y-116781308D01*
X149153646Y-116781314D01*
X149241703Y-116970153D01*
X149254099Y-116996736D01*
X149256940Y-117000917D01*
X149256941Y-117000918D01*
X149286680Y-117044677D01*
X149308426Y-117112261D01*
X149290182Y-117180873D01*
X149237739Y-117228730D01*
X149182468Y-117241500D01*
X137716442Y-117241500D01*
X137648321Y-117221498D01*
X137601828Y-117167842D01*
X137591724Y-117097568D01*
X137607543Y-117052120D01*
X137691841Y-116907281D01*
X137696203Y-116898176D01*
X137779537Y-116681085D01*
X137782388Y-116671396D01*
X137813821Y-116520936D01*
X137812698Y-116506875D01*
X137802590Y-116503200D01*
X135702000Y-116503200D01*
X135633879Y-116483198D01*
X135587386Y-116429542D01*
X135576000Y-116377200D01*
X135576000Y-115977085D01*
X136084000Y-115977085D01*
X136088475Y-115992324D01*
X136089865Y-115993529D01*
X136097548Y-115995200D01*
X137800590Y-115995200D01*
X137814676Y-115991064D01*
X137816725Y-115978086D01*
X137814675Y-115960370D01*
X137812715Y-115950473D01*
X137749396Y-115726706D01*
X137745884Y-115717262D01*
X137647601Y-115506495D01*
X137642622Y-115497729D01*
X137511913Y-115305398D01*
X137505581Y-115297523D01*
X137345814Y-115128574D01*
X137338311Y-115121818D01*
X137283304Y-115079762D01*
X137241337Y-115022497D01*
X137236992Y-114951633D01*
X137276509Y-114885152D01*
X137414500Y-114763497D01*
X137421504Y-114756244D01*
X137569110Y-114576546D01*
X137574866Y-114568264D01*
X137691841Y-114367281D01*
X137696203Y-114358176D01*
X137779537Y-114141085D01*
X137782388Y-114131396D01*
X137813821Y-113980936D01*
X137812698Y-113966875D01*
X137802590Y-113963200D01*
X136102115Y-113963200D01*
X136086876Y-113967675D01*
X136085671Y-113969065D01*
X136084000Y-113976748D01*
X136084000Y-115977085D01*
X135576000Y-115977085D01*
X135576000Y-113581200D01*
X135596002Y-113513079D01*
X135649658Y-113466586D01*
X135702000Y-113455200D01*
X137800590Y-113455200D01*
X137814676Y-113451064D01*
X137816725Y-113438086D01*
X137814675Y-113420370D01*
X137812715Y-113410473D01*
X137749396Y-113186706D01*
X137745884Y-113177262D01*
X137647601Y-112966495D01*
X137642622Y-112957729D01*
X137511913Y-112765398D01*
X137505581Y-112757523D01*
X137345814Y-112588574D01*
X137338305Y-112581813D01*
X137283710Y-112540072D01*
X137241742Y-112482807D01*
X137237397Y-112411944D01*
X137276913Y-112345463D01*
X137367122Y-112265934D01*
X137414858Y-112223850D01*
X137414861Y-112223847D01*
X137418655Y-112220502D01*
X137446857Y-112186168D01*
X137569526Y-112036828D01*
X137569528Y-112036825D01*
X137572734Y-112032922D01*
X137694841Y-111823122D01*
X137736356Y-111714970D01*
X137780020Y-111601222D01*
X137780021Y-111601218D01*
X137781833Y-111596498D01*
X137798636Y-111516067D01*
X137830440Y-111363831D01*
X137830440Y-111363827D01*
X137831474Y-111358880D01*
X137842486Y-111116383D01*
X137827235Y-110984573D01*
X137815167Y-110880271D01*
X137815166Y-110880267D01*
X137814585Y-110875244D01*
X137775517Y-110737178D01*
X137763828Y-110695873D01*
X137748490Y-110641668D01*
X137746356Y-110637092D01*
X137746354Y-110637086D01*
X137648038Y-110426246D01*
X137648036Y-110426242D01*
X137645901Y-110421664D01*
X137641688Y-110415464D01*
X137512302Y-110225081D01*
X137509456Y-110220893D01*
X137342668Y-110044519D01*
X137284093Y-109999735D01*
X137242125Y-109942470D01*
X137237780Y-109871607D01*
X137277297Y-109805125D01*
X137414858Y-109683850D01*
X137414861Y-109683847D01*
X137418655Y-109680502D01*
X137421866Y-109676593D01*
X137569526Y-109496828D01*
X137569528Y-109496825D01*
X137572734Y-109492922D01*
X137694841Y-109283122D01*
X137721081Y-109214764D01*
X137780020Y-109061222D01*
X137780021Y-109061218D01*
X137781833Y-109056498D01*
X137785630Y-109038322D01*
X137830440Y-108823831D01*
X137830440Y-108823827D01*
X137831474Y-108818880D01*
X137842486Y-108576383D01*
X137827235Y-108444573D01*
X137815167Y-108340271D01*
X137815166Y-108340267D01*
X137814585Y-108335244D01*
X137775517Y-108197178D01*
X137749866Y-108106531D01*
X137748490Y-108101668D01*
X137746356Y-108097092D01*
X137746354Y-108097086D01*
X137648038Y-107886246D01*
X137648036Y-107886242D01*
X137645901Y-107881664D01*
X137509456Y-107680893D01*
X137342668Y-107504519D01*
X137284093Y-107459735D01*
X137242125Y-107402470D01*
X137237780Y-107331607D01*
X137277297Y-107265125D01*
X137414858Y-107143850D01*
X137414861Y-107143847D01*
X137418655Y-107140502D01*
X137572734Y-106952922D01*
X137694841Y-106743122D01*
X137696654Y-106738399D01*
X137780020Y-106521222D01*
X137780021Y-106521218D01*
X137781833Y-106516498D01*
X137784107Y-106505613D01*
X137830440Y-106283831D01*
X137830440Y-106283827D01*
X137831474Y-106278880D01*
X137842486Y-106036383D01*
X137841793Y-106030393D01*
X137815167Y-105800271D01*
X137815166Y-105800267D01*
X137814585Y-105795244D01*
X137803813Y-105757174D01*
X137749866Y-105566531D01*
X137748490Y-105561668D01*
X137746356Y-105557092D01*
X137746354Y-105557086D01*
X137648038Y-105346246D01*
X137648036Y-105346242D01*
X137645901Y-105341664D01*
X137509456Y-105140893D01*
X137342668Y-104964519D01*
X137327792Y-104953145D01*
X137284093Y-104919735D01*
X137242125Y-104862470D01*
X137237780Y-104791607D01*
X137277297Y-104725125D01*
X137414858Y-104603850D01*
X137414861Y-104603847D01*
X137418655Y-104600502D01*
X137451886Y-104560046D01*
X137569526Y-104416828D01*
X137569528Y-104416825D01*
X137572734Y-104412922D01*
X137694841Y-104203122D01*
X137699252Y-104191630D01*
X137780020Y-103981222D01*
X137780021Y-103981218D01*
X137781833Y-103976498D01*
X137808673Y-103848023D01*
X137830440Y-103743831D01*
X137830440Y-103743827D01*
X137831474Y-103738880D01*
X137842486Y-103496383D01*
X137827235Y-103364573D01*
X137815167Y-103260271D01*
X137815166Y-103260267D01*
X137814585Y-103255244D01*
X137775517Y-103117178D01*
X137749866Y-103026531D01*
X137748490Y-103021668D01*
X137746356Y-103017092D01*
X137746354Y-103017086D01*
X137648038Y-102806246D01*
X137648036Y-102806242D01*
X137645901Y-102801664D01*
X137509456Y-102600893D01*
X137342668Y-102424519D01*
X137284093Y-102379735D01*
X137242125Y-102322470D01*
X137237780Y-102251607D01*
X137277297Y-102185125D01*
X137414858Y-102063850D01*
X137414861Y-102063847D01*
X137418655Y-102060502D01*
X137471349Y-101996351D01*
X137569526Y-101876828D01*
X137569528Y-101876825D01*
X137572734Y-101872922D01*
X137657843Y-101726690D01*
X137692299Y-101667490D01*
X137692300Y-101667488D01*
X137694841Y-101663122D01*
X137731456Y-101567735D01*
X137780020Y-101441222D01*
X137780021Y-101441218D01*
X137781833Y-101436498D01*
X137782868Y-101431545D01*
X137830440Y-101203831D01*
X137830440Y-101203827D01*
X137831474Y-101198880D01*
X137842486Y-100956383D01*
X137841713Y-100949698D01*
X137815167Y-100720271D01*
X137815166Y-100720267D01*
X137814585Y-100715244D01*
X137801423Y-100668728D01*
X137755432Y-100506200D01*
X137748490Y-100481668D01*
X137746356Y-100477092D01*
X137746354Y-100477086D01*
X137648038Y-100266246D01*
X137648036Y-100266242D01*
X137645901Y-100261664D01*
X137509456Y-100060893D01*
X137342668Y-99884519D01*
X137284093Y-99839735D01*
X137242125Y-99782470D01*
X137237780Y-99711607D01*
X137277297Y-99645125D01*
X137414858Y-99523850D01*
X137414861Y-99523847D01*
X137418655Y-99520502D01*
X137506696Y-99413319D01*
X137569526Y-99336828D01*
X137569528Y-99336825D01*
X137572734Y-99332922D01*
X137694841Y-99123122D01*
X137743357Y-98996732D01*
X137780020Y-98901222D01*
X137780021Y-98901218D01*
X137781833Y-98896498D01*
X137782868Y-98891545D01*
X137830440Y-98663831D01*
X137830440Y-98663827D01*
X137831474Y-98658880D01*
X137842486Y-98416383D01*
X137841310Y-98406215D01*
X137815167Y-98180271D01*
X137815166Y-98180267D01*
X137814585Y-98175244D01*
X137800351Y-98124940D01*
X137749866Y-97946531D01*
X137748490Y-97941668D01*
X137746356Y-97937092D01*
X137746354Y-97937086D01*
X137648038Y-97726246D01*
X137648036Y-97726242D01*
X137645901Y-97721664D01*
X137509456Y-97520893D01*
X137342668Y-97344519D01*
X137284093Y-97299735D01*
X137242125Y-97242470D01*
X137237780Y-97171607D01*
X137277297Y-97105125D01*
X137414858Y-96983850D01*
X137414861Y-96983847D01*
X137418655Y-96980502D01*
X137554556Y-96815053D01*
X137569526Y-96796828D01*
X137569528Y-96796825D01*
X137572734Y-96792922D01*
X137655166Y-96651291D01*
X137692299Y-96587490D01*
X137692300Y-96587488D01*
X137694841Y-96583122D01*
X137743357Y-96456732D01*
X137780020Y-96361222D01*
X137780021Y-96361218D01*
X137781833Y-96356498D01*
X137782868Y-96351545D01*
X137830440Y-96123831D01*
X137830440Y-96123827D01*
X137831474Y-96118880D01*
X137842486Y-95876383D01*
X137841905Y-95871359D01*
X137815167Y-95640271D01*
X137815166Y-95640267D01*
X137814585Y-95635244D01*
X137775517Y-95497178D01*
X137749866Y-95406531D01*
X137748490Y-95401668D01*
X137746356Y-95397092D01*
X137746354Y-95397086D01*
X137648038Y-95186246D01*
X137648036Y-95186242D01*
X137645901Y-95181664D01*
X137626509Y-95153129D01*
X137512302Y-94985081D01*
X137509456Y-94980893D01*
X137342668Y-94804519D01*
X137284093Y-94759735D01*
X137242125Y-94702470D01*
X137237780Y-94631607D01*
X137277297Y-94565125D01*
X137414858Y-94443850D01*
X137414861Y-94443847D01*
X137418655Y-94440502D01*
X137506696Y-94333319D01*
X137569526Y-94256828D01*
X137569528Y-94256825D01*
X137572734Y-94252922D01*
X137694841Y-94043122D01*
X137781833Y-93816498D01*
X137782868Y-93811545D01*
X137830440Y-93583831D01*
X137830440Y-93583827D01*
X137831474Y-93578880D01*
X137842486Y-93336383D01*
X137841171Y-93325018D01*
X137815167Y-93100271D01*
X137815166Y-93100267D01*
X137814585Y-93095244D01*
X137811375Y-93083898D01*
X137749866Y-92866531D01*
X137748490Y-92861668D01*
X137746356Y-92857092D01*
X137746354Y-92857086D01*
X137648038Y-92646246D01*
X137648036Y-92646242D01*
X137645901Y-92641664D01*
X137509456Y-92440893D01*
X137342668Y-92264519D01*
X137284093Y-92219735D01*
X137242125Y-92162470D01*
X137237780Y-92091607D01*
X137277297Y-92025125D01*
X137414858Y-91903850D01*
X137414861Y-91903847D01*
X137418655Y-91900502D01*
X137572734Y-91712922D01*
X137694841Y-91503122D01*
X137710559Y-91462174D01*
X137780020Y-91281222D01*
X137780021Y-91281218D01*
X137781833Y-91276498D01*
X137810740Y-91138129D01*
X137830440Y-91043831D01*
X137830440Y-91043827D01*
X137831474Y-91038880D01*
X137842486Y-90796383D01*
X137827235Y-90664573D01*
X137815167Y-90560271D01*
X137815166Y-90560267D01*
X137814585Y-90555244D01*
X137792135Y-90475905D01*
X137749866Y-90326531D01*
X137748490Y-90321668D01*
X137746356Y-90317092D01*
X137746354Y-90317086D01*
X137648038Y-90106246D01*
X137648036Y-90106242D01*
X137645901Y-90101664D01*
X137509456Y-89900893D01*
X137342668Y-89724519D01*
X137284093Y-89679735D01*
X137242125Y-89622470D01*
X137237780Y-89551607D01*
X137277297Y-89485125D01*
X137414858Y-89363850D01*
X137414861Y-89363847D01*
X137418655Y-89360502D01*
X137563287Y-89184423D01*
X137569526Y-89176828D01*
X137569528Y-89176825D01*
X137572734Y-89172922D01*
X137694841Y-88963122D01*
X137710195Y-88923124D01*
X137780020Y-88741222D01*
X137780021Y-88741218D01*
X137781833Y-88736498D01*
X137794478Y-88675970D01*
X137830440Y-88503831D01*
X137830440Y-88503827D01*
X137831474Y-88498880D01*
X137842486Y-88256383D01*
X137833715Y-88180576D01*
X137815167Y-88020271D01*
X137815166Y-88020267D01*
X137814585Y-88015244D01*
X137811126Y-88003018D01*
X137749866Y-87786531D01*
X137748490Y-87781668D01*
X137746356Y-87777092D01*
X137746354Y-87777086D01*
X137648038Y-87566246D01*
X137648036Y-87566242D01*
X137645901Y-87561664D01*
X137509456Y-87360893D01*
X137342668Y-87184519D01*
X137284093Y-87139735D01*
X137242125Y-87082470D01*
X137237780Y-87011607D01*
X137277297Y-86945125D01*
X137414858Y-86823850D01*
X137414861Y-86823847D01*
X137418655Y-86820502D01*
X137421866Y-86816593D01*
X137569526Y-86636828D01*
X137569528Y-86636825D01*
X137572734Y-86632922D01*
X137694841Y-86423122D01*
X137781833Y-86196498D01*
X137782868Y-86191545D01*
X137830440Y-85963831D01*
X137830440Y-85963827D01*
X137831474Y-85958880D01*
X137842486Y-85716383D01*
X137827235Y-85584573D01*
X137815167Y-85480271D01*
X137815166Y-85480267D01*
X137814585Y-85475244D01*
X137803249Y-85435181D01*
X137749866Y-85246531D01*
X137748490Y-85241668D01*
X137746356Y-85237092D01*
X137746354Y-85237086D01*
X137648038Y-85026246D01*
X137648036Y-85026242D01*
X137645901Y-85021664D01*
X137509456Y-84820893D01*
X137342668Y-84644519D01*
X137284093Y-84599735D01*
X137242125Y-84542470D01*
X137237780Y-84471607D01*
X137277297Y-84405125D01*
X137414858Y-84283850D01*
X137414861Y-84283847D01*
X137418655Y-84280502D01*
X137572734Y-84092922D01*
X137680625Y-83907548D01*
X137692299Y-83887490D01*
X137692300Y-83887488D01*
X137694841Y-83883122D01*
X137781833Y-83656498D01*
X137831474Y-83418880D01*
X137842486Y-83176383D01*
X137827235Y-83044573D01*
X137815167Y-82940271D01*
X137815166Y-82940267D01*
X137814585Y-82935244D01*
X137775517Y-82797178D01*
X137749866Y-82706531D01*
X137748490Y-82701668D01*
X137746356Y-82697092D01*
X137746354Y-82697086D01*
X137648038Y-82486246D01*
X137648036Y-82486242D01*
X137645901Y-82481664D01*
X137509456Y-82280893D01*
X137342668Y-82104519D01*
X137284093Y-82059735D01*
X137242125Y-82002470D01*
X137237780Y-81931607D01*
X137277297Y-81865125D01*
X137414858Y-81743850D01*
X137414861Y-81743847D01*
X137418655Y-81740502D01*
X137421866Y-81736593D01*
X137569526Y-81556828D01*
X137569528Y-81556825D01*
X137572734Y-81552922D01*
X137694841Y-81343122D01*
X137696654Y-81338399D01*
X137780020Y-81121222D01*
X137780021Y-81121218D01*
X137781833Y-81116498D01*
X137802098Y-81019496D01*
X137830440Y-80883831D01*
X137830440Y-80883827D01*
X137831474Y-80878880D01*
X137842486Y-80636383D01*
X137840128Y-80616000D01*
X137815167Y-80400271D01*
X137815166Y-80400267D01*
X137814585Y-80395244D01*
X137784516Y-80288980D01*
X137749866Y-80166531D01*
X137748490Y-80161668D01*
X137746356Y-80157092D01*
X137746354Y-80157086D01*
X137648038Y-79946246D01*
X137648036Y-79946242D01*
X137645901Y-79941664D01*
X137509456Y-79740893D01*
X137342668Y-79564519D01*
X137284093Y-79519735D01*
X137242125Y-79462470D01*
X137237780Y-79391607D01*
X137277297Y-79325125D01*
X137414858Y-79203850D01*
X137414861Y-79203847D01*
X137418655Y-79200502D01*
X137520583Y-79076412D01*
X137569526Y-79016828D01*
X137569528Y-79016825D01*
X137572734Y-79012922D01*
X137694841Y-78803122D01*
X137696654Y-78798399D01*
X137780020Y-78581222D01*
X137780021Y-78581218D01*
X137781833Y-78576498D01*
X137802575Y-78477212D01*
X137830440Y-78343831D01*
X137830440Y-78343827D01*
X137831474Y-78338880D01*
X137842486Y-78096383D01*
X137835699Y-78037724D01*
X137815167Y-77860271D01*
X137815166Y-77860267D01*
X137814585Y-77855244D01*
X137811497Y-77844329D01*
X137749866Y-77626531D01*
X137748490Y-77621668D01*
X137746356Y-77617092D01*
X137746354Y-77617086D01*
X137648038Y-77406246D01*
X137648036Y-77406242D01*
X137645901Y-77401664D01*
X137509456Y-77200893D01*
X137342668Y-77024519D01*
X137284093Y-76979735D01*
X137242125Y-76922470D01*
X137237780Y-76851607D01*
X137277297Y-76785125D01*
X137414858Y-76663850D01*
X137414861Y-76663847D01*
X137418655Y-76660502D01*
X137555680Y-76493684D01*
X137569526Y-76476828D01*
X137569528Y-76476825D01*
X137572734Y-76472922D01*
X137670570Y-76304823D01*
X137692299Y-76267490D01*
X137692300Y-76267488D01*
X137694841Y-76263122D01*
X137745224Y-76131869D01*
X137780020Y-76041222D01*
X137780021Y-76041218D01*
X137781833Y-76036498D01*
X137816371Y-75871174D01*
X137830440Y-75803831D01*
X137830440Y-75803827D01*
X137831474Y-75798880D01*
X137842486Y-75556383D01*
X137826934Y-75421970D01*
X137815167Y-75320271D01*
X137815166Y-75320267D01*
X137814585Y-75315244D01*
X137775517Y-75177178D01*
X137749866Y-75086531D01*
X137748490Y-75081668D01*
X137746356Y-75077092D01*
X137746354Y-75077086D01*
X137648038Y-74866246D01*
X137648036Y-74866242D01*
X137645901Y-74861664D01*
X137509456Y-74660893D01*
X137342668Y-74484519D01*
X137284093Y-74439735D01*
X137242125Y-74382470D01*
X137237780Y-74311607D01*
X137277297Y-74245125D01*
X137414858Y-74123850D01*
X137414861Y-74123847D01*
X137418655Y-74120502D01*
X137506696Y-74013319D01*
X137569526Y-73936828D01*
X137569528Y-73936825D01*
X137572734Y-73932922D01*
X137643429Y-73811456D01*
X137692299Y-73727490D01*
X137692300Y-73727488D01*
X137694841Y-73723122D01*
X137738007Y-73610670D01*
X137780020Y-73501222D01*
X137780021Y-73501218D01*
X137781833Y-73496498D01*
X137784966Y-73481502D01*
X137830440Y-73263831D01*
X137830440Y-73263827D01*
X137831474Y-73258880D01*
X137842486Y-73016383D01*
X137841391Y-73006915D01*
X137815167Y-72780271D01*
X137815166Y-72780267D01*
X137814585Y-72775244D01*
X137789665Y-72687176D01*
X137756896Y-72571376D01*
X137748490Y-72541668D01*
X137746356Y-72537092D01*
X137746354Y-72537086D01*
X137663871Y-72360201D01*
X140681500Y-72360201D01*
X140681702Y-72362709D01*
X140681702Y-72362714D01*
X140688977Y-72453129D01*
X140696060Y-72541165D01*
X140697266Y-72546073D01*
X140697266Y-72546076D01*
X140703480Y-72571376D01*
X140753963Y-72776906D01*
X140755938Y-72781558D01*
X140755939Y-72781562D01*
X140797520Y-72879520D01*
X140848812Y-73000356D01*
X140896981Y-73076846D01*
X140966749Y-73187635D01*
X140978167Y-73205767D01*
X140981512Y-73209561D01*
X141135350Y-73384058D01*
X141135353Y-73384061D01*
X141138698Y-73387855D01*
X141142606Y-73391065D01*
X141142607Y-73391066D01*
X141294110Y-73515511D01*
X141326278Y-73541934D01*
X141347381Y-73554216D01*
X141483159Y-73633241D01*
X141536078Y-73664041D01*
X141540801Y-73665854D01*
X141757978Y-73749220D01*
X141757982Y-73749221D01*
X141762702Y-73751033D01*
X141767652Y-73752067D01*
X141767655Y-73752068D01*
X141995369Y-73799640D01*
X141995373Y-73799640D01*
X142000320Y-73800674D01*
X142242817Y-73811686D01*
X142247837Y-73811105D01*
X142247841Y-73811105D01*
X142478929Y-73784367D01*
X142478933Y-73784366D01*
X142483956Y-73783785D01*
X142488820Y-73782409D01*
X142488823Y-73782408D01*
X142682899Y-73727490D01*
X142717532Y-73717690D01*
X142722108Y-73715556D01*
X142722114Y-73715554D01*
X142932954Y-73617238D01*
X142932958Y-73617236D01*
X142937536Y-73615101D01*
X142950706Y-73606151D01*
X143086275Y-73514017D01*
X143138307Y-73478656D01*
X143314681Y-73311868D01*
X143359465Y-73253293D01*
X143416730Y-73211325D01*
X143487593Y-73206980D01*
X143554075Y-73246497D01*
X143675350Y-73384058D01*
X143675353Y-73384061D01*
X143678698Y-73387855D01*
X143682606Y-73391065D01*
X143682607Y-73391066D01*
X143834110Y-73515511D01*
X143866278Y-73541934D01*
X143887381Y-73554216D01*
X144023159Y-73633241D01*
X144076078Y-73664041D01*
X144080801Y-73665854D01*
X144297978Y-73749220D01*
X144297982Y-73749221D01*
X144302702Y-73751033D01*
X144307652Y-73752067D01*
X144307655Y-73752068D01*
X144535369Y-73799640D01*
X144535373Y-73799640D01*
X144540320Y-73800674D01*
X144782817Y-73811686D01*
X144787837Y-73811105D01*
X144787841Y-73811105D01*
X145018929Y-73784367D01*
X145018933Y-73784366D01*
X145023956Y-73783785D01*
X145028820Y-73782409D01*
X145028823Y-73782408D01*
X145222899Y-73727490D01*
X145257532Y-73717690D01*
X145262108Y-73715556D01*
X145262114Y-73715554D01*
X145472954Y-73617238D01*
X145472958Y-73617236D01*
X145477536Y-73615101D01*
X145490706Y-73606151D01*
X145626275Y-73514017D01*
X145678307Y-73478656D01*
X145854681Y-73311868D01*
X145891408Y-73263831D01*
X145999047Y-73123046D01*
X145999050Y-73123042D01*
X146002120Y-73119026D01*
X146008157Y-73107768D01*
X146114439Y-72909552D01*
X146116831Y-72905091D01*
X146195862Y-72675569D01*
X146233547Y-72457393D01*
X146236504Y-72440274D01*
X146236505Y-72440268D01*
X146237179Y-72436364D01*
X146238500Y-72407275D01*
X146238500Y-71238199D01*
X146238298Y-71235686D01*
X146224346Y-71062276D01*
X146224345Y-71062271D01*
X146223940Y-71057235D01*
X146221039Y-71045422D01*
X146167244Y-70826408D01*
X146166037Y-70821494D01*
X146145917Y-70774093D01*
X146082638Y-70625018D01*
X146071188Y-70598044D01*
X145980537Y-70454093D01*
X145944528Y-70396912D01*
X145944526Y-70396909D01*
X145941833Y-70392633D01*
X145900163Y-70345367D01*
X145784650Y-70214342D01*
X145784647Y-70214339D01*
X145781302Y-70210545D01*
X145740219Y-70176799D01*
X145597628Y-70059674D01*
X145597625Y-70059672D01*
X145593722Y-70056466D01*
X145464337Y-69981162D01*
X145388290Y-69936901D01*
X145388288Y-69936900D01*
X145383922Y-69934359D01*
X145249725Y-69882846D01*
X145162022Y-69849180D01*
X145162018Y-69849179D01*
X145157298Y-69847367D01*
X145152348Y-69846333D01*
X145152345Y-69846332D01*
X144924631Y-69798760D01*
X144924627Y-69798760D01*
X144919680Y-69797726D01*
X144677183Y-69786714D01*
X144672163Y-69787295D01*
X144672159Y-69787295D01*
X144441071Y-69814033D01*
X144441067Y-69814034D01*
X144436044Y-69814615D01*
X144431180Y-69815991D01*
X144431177Y-69815992D01*
X144403422Y-69823846D01*
X144202468Y-69880710D01*
X144197892Y-69882844D01*
X144197886Y-69882846D01*
X143987046Y-69981162D01*
X143987042Y-69981164D01*
X143982464Y-69983299D01*
X143781693Y-70119744D01*
X143605319Y-70286532D01*
X143602241Y-70290558D01*
X143602240Y-70290559D01*
X143560535Y-70345107D01*
X143503270Y-70387075D01*
X143432407Y-70391420D01*
X143365925Y-70351903D01*
X143244650Y-70214342D01*
X143244647Y-70214339D01*
X143241302Y-70210545D01*
X143200219Y-70176799D01*
X143057628Y-70059674D01*
X143057625Y-70059672D01*
X143053722Y-70056466D01*
X142924337Y-69981162D01*
X142848290Y-69936901D01*
X142848288Y-69936900D01*
X142843922Y-69934359D01*
X142709725Y-69882846D01*
X142622022Y-69849180D01*
X142622018Y-69849179D01*
X142617298Y-69847367D01*
X142612348Y-69846333D01*
X142612345Y-69846332D01*
X142384631Y-69798760D01*
X142384627Y-69798760D01*
X142379680Y-69797726D01*
X142137183Y-69786714D01*
X142132163Y-69787295D01*
X142132159Y-69787295D01*
X141901071Y-69814033D01*
X141901067Y-69814034D01*
X141896044Y-69814615D01*
X141891180Y-69815991D01*
X141891177Y-69815992D01*
X141863422Y-69823846D01*
X141662468Y-69880710D01*
X141657892Y-69882844D01*
X141657886Y-69882846D01*
X141447046Y-69981162D01*
X141447042Y-69981164D01*
X141442464Y-69983299D01*
X141241693Y-70119744D01*
X141065319Y-70286532D01*
X141062241Y-70290558D01*
X141062240Y-70290559D01*
X140920953Y-70475354D01*
X140920950Y-70475358D01*
X140917880Y-70479374D01*
X140803169Y-70693309D01*
X140724138Y-70922831D01*
X140718323Y-70956498D01*
X140685097Y-71148861D01*
X140682821Y-71162036D01*
X140682641Y-71165997D01*
X140682641Y-71165998D01*
X140681675Y-71187281D01*
X140681500Y-71191125D01*
X140681500Y-72360201D01*
X137663871Y-72360201D01*
X137648038Y-72326246D01*
X137648036Y-72326242D01*
X137645901Y-72321664D01*
X137509456Y-72120893D01*
X137342668Y-71944519D01*
X137284093Y-71899735D01*
X137242125Y-71842470D01*
X137237780Y-71771607D01*
X137277297Y-71705125D01*
X137414858Y-71583850D01*
X137414861Y-71583847D01*
X137418655Y-71580502D01*
X137422961Y-71575260D01*
X137569526Y-71396828D01*
X137569528Y-71396825D01*
X137572734Y-71392922D01*
X137648725Y-71262357D01*
X137692299Y-71187490D01*
X137692300Y-71187488D01*
X137694841Y-71183122D01*
X137704436Y-71158126D01*
X137780020Y-70961222D01*
X137780021Y-70961218D01*
X137781833Y-70956498D01*
X137787824Y-70927823D01*
X137830440Y-70723831D01*
X137830440Y-70723827D01*
X137831474Y-70718880D01*
X137842486Y-70476383D01*
X137839907Y-70454093D01*
X137815167Y-70240271D01*
X137815166Y-70240267D01*
X137814585Y-70235244D01*
X137808850Y-70214975D01*
X137749866Y-70006531D01*
X137748490Y-70001668D01*
X137746356Y-69997092D01*
X137746354Y-69997086D01*
X137648038Y-69786246D01*
X137648036Y-69786242D01*
X137645901Y-69781664D01*
X137535066Y-69618576D01*
X137513320Y-69550993D01*
X137531564Y-69482381D01*
X137575661Y-69440206D01*
X137576705Y-69439815D01*
X137693261Y-69352461D01*
X137780615Y-69235905D01*
X137831745Y-69099516D01*
X137838500Y-69037334D01*
X137838500Y-67072900D01*
X137858502Y-67004779D01*
X137912158Y-66958286D01*
X137964500Y-66946900D01*
X149182513Y-66946900D01*
X149250634Y-66966902D01*
G37*
%TD.AperFunction*%
%TD*%
M02*
