M48
; DRILL file {KiCad 6.0.11-2627ca5db0~126~ubuntu22.04.1} date jue 25 jun 2026 09:29:59
; FORMAT={-:-/ absolute / metric / decimal}
; #@! TF.CreationDate,2026-06-25T09:29:59-03:00
; #@! TF.GenerationSoftware,Kicad,Pcbnew,6.0.11-2627ca5db0~126~ubuntu22.04.1
; #@! TF.FileFunction,MixedPlating,1,2
FMAT,2
METRIC
; #@! TA.AperFunction,Plated,PTH,ComponentDrill
T1C0.800
; #@! TA.AperFunction,Plated,PTH,ComponentDrill
T2C0.900
; #@! TA.AperFunction,Plated,PTH,ComponentDrill
T3C1.000
; #@! TA.AperFunction,Plated,PTH,ComponentDrill
T4C1.016
%
G90
G05
T1
X115.8Y-98.9
X115.85Y-94.55
X116.2Y-75.15
X123.525Y-107.26
X123.525Y-109.36
X123.525Y-111.96
X123.525Y-114.06
X126.325Y-107.26
X126.325Y-114.06
X128.5Y-98.9
X128.55Y-94.55
X128.9Y-75.15
X158.85Y-66.85
X158.85Y-71.85
X159.0Y-115.25
T2
X121.325Y-68.75
X123.865Y-68.75
T3
X122.3Y-80.8
X122.3Y-88.4
X128.65Y-69.5
X129.5Y-89.7
T4
X135.83Y-67.989
X135.83Y-70.529
X135.83Y-73.069
X135.83Y-75.609
X135.83Y-78.149
X135.83Y-80.689
X135.83Y-83.229
X135.83Y-85.769
X135.83Y-88.309
X135.83Y-90.849
X135.83Y-93.389
X135.83Y-95.929
X135.83Y-98.469
X135.83Y-101.009
X135.83Y-103.549
X135.83Y-106.089
X135.83Y-108.629
X135.83Y-111.169
X135.83Y-113.709
X135.83Y-116.249
X142.19Y-71.799
X144.73Y-71.799
X151.07Y-67.938
X151.07Y-70.529
X151.07Y-73.069
X151.07Y-75.609
X151.07Y-78.149
X151.07Y-80.689
X151.07Y-83.229
X151.07Y-85.769
X151.07Y-88.309
X151.07Y-90.849
X151.07Y-93.389
X151.07Y-95.929
X151.07Y-98.469
X151.07Y-101.009
X151.07Y-103.549
X151.07Y-106.089
X151.07Y-108.629
X151.07Y-111.169
X151.07Y-113.709
X151.07Y-116.249
T3
G00X119.875Y-109.66
M15
G01X119.875Y-111.66
M16
G05
G00X121.425Y-103.81
M15
G01X119.925Y-103.81
M16
G05
G00X121.425Y-117.51
M15
G01X119.925Y-117.51
M16
G05
T0
M30
