%TF.GenerationSoftware,KiCad,Pcbnew,6.0.11-2627ca5db0~126~ubuntu22.04.1*%
%TF.CreationDate,2026-06-25T09:29:56-03:00*%
%TF.ProjectId,Adaptador_teclado_ms101,41646170-7461-4646-9f72-5f7465636c61,rev?*%
%TF.SameCoordinates,Original*%
%TF.FileFunction,Copper,L2,Bot*%
%TF.FilePolarity,Positive*%
%FSLAX46Y46*%
G04 Gerber Fmt 4.6, Leading zero omitted, Abs format (unit mm)*
G04 Created by KiCad (PCBNEW 6.0.11-2627ca5db0~126~ubuntu22.04.1) date 2026-06-25 09:29:56*
%MOMM*%
%LPD*%
G01*
G04 APERTURE LIST*
%TA.AperFunction,Profile*%
%ADD10C,0.100000*%
%TD*%
%ADD11C,0.600000*%
%TA.AperFunction,NonConductor*%
%ADD12C,0.600000*%
%TD*%
%TA.AperFunction,ComponentPad*%
%ADD13C,2.500000*%
%TD*%
%TA.AperFunction,ComponentPad*%
%ADD14O,2.500000X2.500000*%
%TD*%
%TA.AperFunction,ComponentPad*%
%ADD15R,3.000000X2.000000*%
%TD*%
%TA.AperFunction,ComponentPad*%
%ADD16O,3.000000X2.000000*%
%TD*%
%TA.AperFunction,ComponentPad*%
%ADD17O,2.000000X3.000000*%
%TD*%
%TA.AperFunction,ComponentPad*%
%ADD18O,3.000000X1.600000*%
%TD*%
%TA.AperFunction,ComponentPad*%
%ADD19O,1.600000X3.000000*%
%TD*%
%TA.AperFunction,ComponentPad*%
%ADD20O,3.000000X4.000000*%
%TD*%
%TA.AperFunction,ComponentPad*%
%ADD21O,3.500000X3.000000*%
%TD*%
%TA.AperFunction,SMDPad,CuDef*%
%ADD22R,3.480000X1.846667*%
%TD*%
%TA.AperFunction,ComponentPad*%
%ADD23R,2.500000X2.500000*%
%TD*%
%TA.AperFunction,ComponentPad*%
%ADD24R,2.000000X2.500000*%
%TD*%
%TA.AperFunction,ComponentPad*%
%ADD25O,2.000000X2.500000*%
%TD*%
%TA.AperFunction,Conductor*%
%ADD26C,1.000000*%
%TD*%
G04 APERTURE END LIST*
D10*
X161700000Y-63700000D02*
X112500000Y-63700000D01*
X112500000Y-63700000D02*
X112500000Y-120000000D01*
X112500000Y-120000000D02*
X161700000Y-120000000D01*
X161700000Y-120000000D02*
X161700000Y-63700000D01*
D11*
D12*
X142153714Y-88728571D02*
X142153714Y-87585714D01*
X139753714Y-87585714D01*
X141468000Y-89414285D02*
X141468000Y-90557142D01*
X142153714Y-89185714D02*
X139753714Y-89985714D01*
X142153714Y-90785714D01*
X141925142Y-92957142D02*
X142039428Y-92842857D01*
X142153714Y-92500000D01*
X142153714Y-92271428D01*
X142039428Y-91928571D01*
X141810857Y-91700000D01*
X141582285Y-91585714D01*
X141125142Y-91471428D01*
X140782285Y-91471428D01*
X140325142Y-91585714D01*
X140096571Y-91700000D01*
X139868000Y-91928571D01*
X139753714Y-92271428D01*
X139753714Y-92500000D01*
X139868000Y-92842857D01*
X139982285Y-92957142D01*
X139982285Y-95700000D02*
X139868000Y-95814285D01*
X139753714Y-96042857D01*
X139753714Y-96614285D01*
X139868000Y-96842857D01*
X139982285Y-96957142D01*
X140210857Y-97071428D01*
X140439428Y-97071428D01*
X140782285Y-96957142D01*
X142153714Y-95585714D01*
X142153714Y-97071428D01*
X139753714Y-98557142D02*
X139753714Y-98785714D01*
X139868000Y-99014285D01*
X139982285Y-99128571D01*
X140210857Y-99242857D01*
X140668000Y-99357142D01*
X141239428Y-99357142D01*
X141696571Y-99242857D01*
X141925142Y-99128571D01*
X142039428Y-99014285D01*
X142153714Y-98785714D01*
X142153714Y-98557142D01*
X142039428Y-98328571D01*
X141925142Y-98214285D01*
X141696571Y-98100000D01*
X141239428Y-97985714D01*
X140668000Y-97985714D01*
X140210857Y-98100000D01*
X139982285Y-98214285D01*
X139868000Y-98328571D01*
X139753714Y-98557142D01*
X139982285Y-100271428D02*
X139868000Y-100385714D01*
X139753714Y-100614285D01*
X139753714Y-101185714D01*
X139868000Y-101414285D01*
X139982285Y-101528571D01*
X140210857Y-101642857D01*
X140439428Y-101642857D01*
X140782285Y-101528571D01*
X142153714Y-100157142D01*
X142153714Y-101642857D01*
X139753714Y-103700000D02*
X139753714Y-103242857D01*
X139868000Y-103014285D01*
X139982285Y-102900000D01*
X140325142Y-102671428D01*
X140782285Y-102557142D01*
X141696571Y-102557142D01*
X141925142Y-102671428D01*
X142039428Y-102785714D01*
X142153714Y-103014285D01*
X142153714Y-103471428D01*
X142039428Y-103700000D01*
X141925142Y-103814285D01*
X141696571Y-103928571D01*
X141125142Y-103928571D01*
X140896571Y-103814285D01*
X140782285Y-103700000D01*
X140668000Y-103471428D01*
X140668000Y-103014285D01*
X140782285Y-102785714D01*
X140896571Y-102671428D01*
X141125142Y-102557142D01*
X146017714Y-76042857D02*
X143617714Y-76042857D01*
X143617714Y-76957142D01*
X143732000Y-77185714D01*
X143846285Y-77300000D01*
X144074857Y-77414285D01*
X144417714Y-77414285D01*
X144646285Y-77300000D01*
X144760571Y-77185714D01*
X144874857Y-76957142D01*
X144874857Y-76042857D01*
X145903428Y-78328571D02*
X146017714Y-78671428D01*
X146017714Y-79242857D01*
X145903428Y-79471428D01*
X145789142Y-79585714D01*
X145560571Y-79700000D01*
X145332000Y-79700000D01*
X145103428Y-79585714D01*
X144989142Y-79471428D01*
X144874857Y-79242857D01*
X144760571Y-78785714D01*
X144646285Y-78557142D01*
X144532000Y-78442857D01*
X144303428Y-78328571D01*
X144074857Y-78328571D01*
X143846285Y-78442857D01*
X143732000Y-78557142D01*
X143617714Y-78785714D01*
X143617714Y-79357142D01*
X143732000Y-79700000D01*
X143503428Y-82442857D02*
X146589142Y-80385714D01*
X143846285Y-83128571D02*
X143732000Y-83242857D01*
X143617714Y-83471428D01*
X143617714Y-84042857D01*
X143732000Y-84271428D01*
X143846285Y-84385714D01*
X144074857Y-84500000D01*
X144303428Y-84500000D01*
X144646285Y-84385714D01*
X146017714Y-83014285D01*
X146017714Y-84500000D01*
X145103428Y-85528571D02*
X145103428Y-87357142D01*
X146017714Y-88500000D02*
X143617714Y-88500000D01*
X145332000Y-89300000D01*
X143617714Y-90100000D01*
X146017714Y-90100000D01*
X146017714Y-91242857D02*
X143617714Y-91242857D01*
X145789142Y-93757142D02*
X145903428Y-93642857D01*
X146017714Y-93300000D01*
X146017714Y-93071428D01*
X145903428Y-92728571D01*
X145674857Y-92500000D01*
X145446285Y-92385714D01*
X144989142Y-92271428D01*
X144646285Y-92271428D01*
X144189142Y-92385714D01*
X143960571Y-92500000D01*
X143732000Y-92728571D01*
X143617714Y-93071428D01*
X143617714Y-93300000D01*
X143732000Y-93642857D01*
X143846285Y-93757142D01*
X146017714Y-96157142D02*
X144874857Y-95357142D01*
X146017714Y-94785714D02*
X143617714Y-94785714D01*
X143617714Y-95700000D01*
X143732000Y-95928571D01*
X143846285Y-96042857D01*
X144074857Y-96157142D01*
X144417714Y-96157142D01*
X144646285Y-96042857D01*
X144760571Y-95928571D01*
X144874857Y-95700000D01*
X144874857Y-94785714D01*
X143617714Y-97642857D02*
X143617714Y-98100000D01*
X143732000Y-98328571D01*
X143960571Y-98557142D01*
X144417714Y-98671428D01*
X145217714Y-98671428D01*
X145674857Y-98557142D01*
X145903428Y-98328571D01*
X146017714Y-98100000D01*
X146017714Y-97642857D01*
X145903428Y-97414285D01*
X145674857Y-97185714D01*
X145217714Y-97071428D01*
X144417714Y-97071428D01*
X143960571Y-97185714D01*
X143732000Y-97414285D01*
X143617714Y-97642857D01*
X145903428Y-99585714D02*
X146017714Y-99928571D01*
X146017714Y-100500000D01*
X145903428Y-100728571D01*
X145789142Y-100842857D01*
X145560571Y-100957142D01*
X145332000Y-100957142D01*
X145103428Y-100842857D01*
X144989142Y-100728571D01*
X144874857Y-100500000D01*
X144760571Y-100042857D01*
X144646285Y-99814285D01*
X144532000Y-99700000D01*
X144303428Y-99585714D01*
X144074857Y-99585714D01*
X143846285Y-99700000D01*
X143732000Y-99814285D01*
X143617714Y-100042857D01*
X143617714Y-100614285D01*
X143732000Y-100957142D01*
X146017714Y-101985714D02*
X143617714Y-101985714D01*
X145903428Y-103014285D02*
X146017714Y-103357142D01*
X146017714Y-103928571D01*
X145903428Y-104157142D01*
X145789142Y-104271428D01*
X145560571Y-104385714D01*
X145332000Y-104385714D01*
X145103428Y-104271428D01*
X144989142Y-104157142D01*
X144874857Y-103928571D01*
X144760571Y-103471428D01*
X144646285Y-103242857D01*
X144532000Y-103128571D01*
X144303428Y-103014285D01*
X144074857Y-103014285D01*
X143846285Y-103128571D01*
X143732000Y-103242857D01*
X143617714Y-103471428D01*
X143617714Y-104042857D01*
X143732000Y-104385714D01*
X143617714Y-105071428D02*
X143617714Y-106442857D01*
X146017714Y-105757142D02*
X143617714Y-105757142D01*
X144760571Y-107242857D02*
X144760571Y-108042857D01*
X146017714Y-108385714D02*
X146017714Y-107242857D01*
X143617714Y-107242857D01*
X143617714Y-108385714D01*
X146017714Y-109414285D02*
X143617714Y-109414285D01*
X145332000Y-110214285D01*
X143617714Y-111014285D01*
X146017714Y-111014285D01*
X145332000Y-112042857D02*
X145332000Y-113185714D01*
X146017714Y-111814285D02*
X143617714Y-112614285D01*
X146017714Y-113414285D01*
X145903428Y-114100000D02*
X146017714Y-114442857D01*
X146017714Y-115014285D01*
X145903428Y-115242857D01*
X145789142Y-115357142D01*
X145560571Y-115471428D01*
X145332000Y-115471428D01*
X145103428Y-115357142D01*
X144989142Y-115242857D01*
X144874857Y-115014285D01*
X144760571Y-114557142D01*
X144646285Y-114328571D01*
X144532000Y-114214285D01*
X144303428Y-114100000D01*
X144074857Y-114100000D01*
X143846285Y-114214285D01*
X143732000Y-114328571D01*
X143617714Y-114557142D01*
X143617714Y-115128571D01*
X143732000Y-115471428D01*
D13*
%TO.P,C1,1*%
%TO.N,+5V*%
X158850000Y-71850000D03*
%TO.P,C1,2*%
%TO.N,GND*%
X158850000Y-66850000D03*
%TD*%
%TO.P,R3,1*%
%TO.N,Net-(R3-Pad1)*%
X116200000Y-75150000D03*
D14*
%TO.P,R3,2*%
%TO.N,GND*%
X128900000Y-75150000D03*
%TD*%
D15*
%TO.P,U1,1,VBAT*%
%TO.N,unconnected-(U1-Pad1)*%
X135830000Y-67989200D03*
D16*
%TO.P,U1,2,PC13_LED*%
%TO.N,unconnected-(U1-Pad2)*%
X135830000Y-70529200D03*
%TO.P,U1,3,PC14*%
%TO.N,unconnected-(U1-Pad3)*%
X135830000Y-73069200D03*
%TO.P,U1,4,PC15*%
%TO.N,unconnected-(U1-Pad4)*%
X135830000Y-75609200D03*
%TO.P,U1,5,PA0*%
%TO.N,unconnected-(U1-Pad5)*%
X135830000Y-78149200D03*
%TO.P,U1,6,PA1*%
%TO.N,unconnected-(U1-Pad6)*%
X135830000Y-80689200D03*
%TO.P,U1,7,PA2_TX2*%
%TO.N,unconnected-(U1-Pad7)*%
X135830000Y-83229200D03*
%TO.P,U1,8,PA3_RX2*%
%TO.N,unconnected-(U1-Pad8)*%
X135830000Y-85769200D03*
%TO.P,U1,9,PA4*%
%TO.N,unconnected-(U1-Pad9)*%
X135830000Y-88309200D03*
%TO.P,U1,10,PA5_SCK1*%
%TO.N,unconnected-(U1-Pad10)*%
X135830000Y-90849200D03*
%TO.P,U1,11,PA6_MISO1*%
%TO.N,unconnected-(U1-Pad11)*%
X135830000Y-93389200D03*
%TO.P,U1,12,PA7_MOSI1*%
%TO.N,unconnected-(U1-Pad12)*%
X135830000Y-95929200D03*
%TO.P,U1,13,PB0*%
%TO.N,unconnected-(U1-Pad13)*%
X135830000Y-98469200D03*
%TO.P,U1,14,PB1*%
%TO.N,unconnected-(U1-Pad14)*%
X135830000Y-101009200D03*
%TO.P,U1,15,PB10_SCL2*%
%TO.N,/PS{slash}2_CLK*%
X135830000Y-103549200D03*
%TO.P,U1,16,PB11_SDA2*%
%TO.N,/PS{slash}2_DATA*%
X135830000Y-106089200D03*
%TO.P,U1,17,NRST*%
%TO.N,unconnected-(U1-Pad17)*%
X135830000Y-108629200D03*
%TO.P,U1,18,VCC3V3*%
%TO.N,unconnected-(U1-Pad18)*%
X135830000Y-111169200D03*
%TO.P,U1,19,GND*%
%TO.N,GND*%
X135830000Y-113709200D03*
%TO.P,U1,20,GND*%
X135830000Y-116249200D03*
%TO.P,U1,21,PB12*%
%TO.N,unconnected-(U1-Pad21)*%
X151070000Y-116249200D03*
%TO.P,U1,22,PB13_SCK2*%
%TO.N,unconnected-(U1-Pad22)*%
X151070000Y-113709200D03*
%TO.P,U1,23,PB14_MISO2*%
%TO.N,unconnected-(U1-Pad23)*%
X151070000Y-111169200D03*
%TO.P,U1,24,PB15_MOSI2*%
%TO.N,unconnected-(U1-Pad24)*%
X151070000Y-108629200D03*
%TO.P,U1,25,PA8*%
%TO.N,unconnected-(U1-Pad25)*%
X151070000Y-106089200D03*
%TO.P,U1,26,PA9_TX1*%
%TO.N,unconnected-(U1-Pad26)*%
X151070000Y-103549200D03*
%TO.P,U1,27,PA10_RX1*%
%TO.N,unconnected-(U1-Pad27)*%
X151070000Y-101009200D03*
%TO.P,U1,28,PA11_USB_D-*%
%TO.N,/CNT_STB*%
X151070000Y-98469200D03*
%TO.P,U1,29,PA12_USBD+*%
%TO.N,/F9*%
X151070000Y-95929200D03*
%TO.P,U1,30,PA15*%
%TO.N,/F8*%
X151070000Y-93389200D03*
%TO.P,U1,31,PB3*%
%TO.N,/B5*%
X151070000Y-90849200D03*
%TO.P,U1,32,PB4*%
%TO.N,/B4*%
X151070000Y-88309200D03*
%TO.P,U1,33,PB5*%
%TO.N,unconnected-(U1-Pad33)*%
X151070000Y-85769200D03*
%TO.P,U1,34,PB6_SCL1*%
%TO.N,/B3*%
X151070000Y-83229200D03*
%TO.P,U1,35,PB7_SDA1*%
%TO.N,/B2*%
X151070000Y-80689200D03*
%TO.P,U1,36,PB8*%
%TO.N,/B1*%
X151070000Y-78149200D03*
%TO.P,U1,37,PB9*%
%TO.N,/B0*%
X151070000Y-75609200D03*
%TO.P,U1,38,5V_USB*%
%TO.N,+5V*%
X151070000Y-73069200D03*
%TO.P,U1,39,GND*%
%TO.N,GND*%
X151070000Y-70529200D03*
%TO.P,U1,40,VCC3V3*%
%TO.N,unconnected-(U1-Pad40)*%
X151070000Y-67938400D03*
D17*
%TO.P,U1,41,PA14_SWCLK*%
%TO.N,unconnected-(U1-Pad41)*%
X144730000Y-71799200D03*
%TO.P,U1,42,PA13_SWDIO*%
%TO.N,unconnected-(U1-Pad42)*%
X142190000Y-71799200D03*
%TD*%
D18*
%TO.P,J1,1,Pin_1*%
%TO.N,/PS{slash}2_DATA*%
X123525000Y-111960000D03*
%TO.P,J1,2,Pin_2*%
%TO.N,unconnected-(J1-Pad2)*%
X123525000Y-109360000D03*
%TO.P,J1,3,Pin_3*%
%TO.N,GND*%
X123525000Y-114060000D03*
%TO.P,J1,4,Pin_4*%
%TO.N,+5V*%
X123525000Y-107260000D03*
D19*
%TO.P,J1,5,Pin_5*%
%TO.N,/PS{slash}2_CLK*%
X126325000Y-114060000D03*
%TO.P,J1,6,Pin_6*%
%TO.N,unconnected-(J1-Pad6)*%
X126325000Y-107260000D03*
D20*
%TO.P,J1,7,Pin_7*%
%TO.N,unconnected-(J1-Pad7)*%
X119875000Y-110660000D03*
D21*
X120675000Y-103810000D03*
X120675000Y-117510000D03*
%TD*%
D13*
%TO.P,,1*%
%TO.N,+5V*%
X159000000Y-115250000D03*
%TD*%
%TO.P,R1,1*%
%TO.N,+5V*%
X115800000Y-98900000D03*
D14*
%TO.P,R1,2*%
%TO.N,/PS{slash}2_DATA*%
X128500000Y-98900000D03*
%TD*%
D13*
%TO.P,,1,-*%
%TO.N,/Parlante+*%
X129500000Y-89700000D03*
%TD*%
%TO.P,R2,1*%
%TO.N,+5V*%
X115850000Y-94550000D03*
D14*
%TO.P,R2,2*%
%TO.N,/PS{slash}2_CLK*%
X128550000Y-94550000D03*
%TD*%
D22*
%TO.P,J2,14,P14*%
%TO.N,/B0*%
X159637500Y-76715000D03*
%TO.P,J2,15,P15*%
%TO.N,/B1*%
X159637500Y-79485000D03*
%TO.P,J2,16,P16*%
%TO.N,/B2*%
X159637500Y-82255000D03*
%TO.P,J2,17,P17*%
%TO.N,/B3*%
X159637500Y-85025000D03*
%TO.P,J2,18,P18*%
%TO.N,/B4*%
X159637500Y-87795000D03*
%TO.P,J2,19,P19*%
%TO.N,/B5*%
X159637500Y-90565000D03*
%TO.P,J2,20,P20*%
%TO.N,/F8*%
X159637500Y-93335000D03*
%TO.P,J2,21,P21*%
%TO.N,/F9*%
X159637500Y-96105000D03*
%TO.P,J2,22,P22*%
%TO.N,/F10*%
X159637500Y-98875000D03*
%TO.P,J2,23,P23*%
%TO.N,/F11*%
X159637500Y-101645000D03*
%TO.P,J2,24,P24*%
%TO.N,/CNT_STB*%
X159637500Y-104415000D03*
%TO.P,J2,25,P25*%
%TO.N,+5V*%
X159637500Y-107185000D03*
%TD*%
D23*
%TO.P,BZ1,1,-*%
%TO.N,/Parlante+*%
X122300000Y-88400000D03*
D13*
%TO.P,BZ1,2,+*%
%TO.N,/Parlante-*%
X122300000Y-80800000D03*
%TD*%
D24*
%TO.P,D1,1,K*%
%TO.N,Net-(R3-Pad1)*%
X121325000Y-68750000D03*
D25*
%TO.P,D1,2,A*%
%TO.N,+5V*%
X123865000Y-68750000D03*
%TD*%
D13*
%TO.P,,2,+*%
%TO.N,/Parlante-*%
X128650000Y-69500000D03*
%TD*%
D26*
%TO.N,/Parlante+*%
X122300000Y-88400000D02*
X128200000Y-88400000D01*
X128200000Y-88400000D02*
X129500000Y-89700000D01*
%TO.N,/Parlante-*%
X122300000Y-80800000D02*
X126431981Y-80800000D01*
X126431981Y-80800000D02*
X131150000Y-76081981D01*
X131150000Y-76081981D02*
X131150000Y-72000000D01*
X131150000Y-72000000D02*
X128650000Y-69500000D01*
%TO.N,+5V*%
X159637500Y-111010127D02*
X152398427Y-118249200D01*
X150281573Y-73069200D02*
X151070000Y-73069200D01*
X158850000Y-71850000D02*
X157630800Y-73069200D01*
X148570000Y-74709200D02*
X150210000Y-73069200D01*
X150210000Y-73069200D02*
X151070000Y-73069200D01*
X115800000Y-102720534D02*
X115800000Y-98900000D01*
X159637500Y-114612500D02*
X159000000Y-115250000D01*
X123525000Y-107260000D02*
X120339466Y-107260000D01*
X115850000Y-98850000D02*
X115800000Y-98900000D01*
X143162373Y-65950000D02*
X150281573Y-73069200D01*
X159637500Y-107185000D02*
X159637500Y-111010127D01*
X159637500Y-111010127D02*
X159637500Y-114612500D01*
X126665000Y-65950000D02*
X143162373Y-65950000D01*
X148570000Y-117470000D02*
X148570000Y-74709200D01*
X152398427Y-118249200D02*
X149349200Y-118249200D01*
X123865000Y-68750000D02*
X126665000Y-65950000D01*
X120339466Y-107260000D02*
X115800000Y-102720534D01*
X157630800Y-73069200D02*
X151070000Y-73069200D01*
X149349200Y-118249200D02*
X148570000Y-117470000D01*
%TO.N,GND*%
X113550000Y-86150000D02*
X124550000Y-75150000D01*
X123525000Y-114060000D02*
X118360000Y-114060000D01*
X150332373Y-70529200D02*
X151070000Y-70529200D01*
X121375000Y-64450000D02*
X113550000Y-72275000D01*
X158850000Y-66850000D02*
X155170800Y-70529200D01*
X113550000Y-109250000D02*
X113550000Y-86150000D01*
X156450000Y-64450000D02*
X121375000Y-64450000D01*
X124550000Y-75150000D02*
X128900000Y-75150000D01*
X113550000Y-72275000D02*
X113550000Y-86150000D01*
X155170800Y-70529200D02*
X151070000Y-70529200D01*
X118360000Y-114060000D02*
X113550000Y-109250000D01*
X158850000Y-66850000D02*
X156450000Y-64450000D01*
%TO.N,/PS{slash}2_DATA*%
X124870584Y-111960000D02*
X130741384Y-106089200D01*
X130741384Y-106089200D02*
X135830000Y-106089200D01*
X123525000Y-111960000D02*
X124870584Y-111960000D01*
%TO.N,/PS{slash}2_CLK*%
X136857627Y-118550000D02*
X133300000Y-118550000D01*
X135830000Y-103549200D02*
X136949200Y-103549200D01*
X128810000Y-114060000D02*
X126325000Y-114060000D01*
X138950000Y-116457627D02*
X136857627Y-118550000D01*
X138950000Y-105550000D02*
X138950000Y-116457627D01*
X136949200Y-103549200D02*
X138950000Y-105550000D01*
X133300000Y-118550000D02*
X128810000Y-114060000D01*
%TO.N,/CNT_STB*%
X159637500Y-104415000D02*
X157744167Y-104415000D01*
X157744167Y-104415000D02*
X156500000Y-103170833D01*
X156500000Y-99750000D02*
X155219200Y-98469200D01*
X156500000Y-103170833D02*
X156500000Y-99750000D01*
X155219200Y-98469200D02*
X151070000Y-98469200D01*
%TO.N,/F9*%
X151245800Y-96105000D02*
X151070000Y-95929200D01*
X159637500Y-96105000D02*
X151245800Y-96105000D01*
%TO.N,/F8*%
X159637500Y-93335000D02*
X151124200Y-93335000D01*
X151124200Y-93335000D02*
X151070000Y-93389200D01*
%TO.N,/B5*%
X151354200Y-90565000D02*
X151070000Y-90849200D01*
X159637500Y-90565000D02*
X151354200Y-90565000D01*
%TO.N,/B4*%
X151584200Y-87795000D02*
X151070000Y-88309200D01*
X159637500Y-87795000D02*
X151584200Y-87795000D01*
%TO.N,/B3*%
X159637500Y-85025000D02*
X156875000Y-85025000D01*
X156875000Y-85025000D02*
X155079200Y-83229200D01*
X155079200Y-83229200D02*
X151070000Y-83229200D01*
%TO.N,/B2*%
X157455000Y-82255000D02*
X155889200Y-80689200D01*
X159637500Y-82255000D02*
X157455000Y-82255000D01*
X155889200Y-80689200D02*
X151070000Y-80689200D01*
%TO.N,/B1*%
X157235000Y-79485000D02*
X155899200Y-78149200D01*
X159637500Y-79485000D02*
X157235000Y-79485000D01*
X155899200Y-78149200D02*
X151070000Y-78149200D01*
%TO.N,/B0*%
X158531700Y-75609200D02*
X151070000Y-75609200D01*
X159637500Y-76715000D02*
X158531700Y-75609200D01*
%TO.N,Net-(R3-Pad1)*%
X116200000Y-73875000D02*
X121325000Y-68750000D01*
X116200000Y-75150000D02*
X116200000Y-73875000D01*
%TD*%
%TA.AperFunction,Conductor*%
%TO.N,GND*%
G36*
X161133621Y-64228502D02*
G01*
X161180114Y-64282158D01*
X161191500Y-64334500D01*
X161191500Y-75157167D01*
X161171498Y-75225288D01*
X161117842Y-75271781D01*
X161065500Y-75283167D01*
X159684091Y-75283167D01*
X159615970Y-75263165D01*
X159594996Y-75246262D01*
X159288555Y-74939821D01*
X159279453Y-74929678D01*
X159259597Y-74904982D01*
X159255732Y-74900175D01*
X159217278Y-74867908D01*
X159213631Y-74864728D01*
X159211819Y-74863085D01*
X159209625Y-74860891D01*
X159176351Y-74833558D01*
X159175553Y-74832896D01*
X159104226Y-74773046D01*
X159099556Y-74770478D01*
X159095439Y-74767097D01*
X159013614Y-74723223D01*
X159012455Y-74722594D01*
X158936319Y-74680738D01*
X158936311Y-74680735D01*
X158930913Y-74677767D01*
X158925831Y-74676155D01*
X158921137Y-74673638D01*
X158832169Y-74646438D01*
X158831141Y-74646118D01*
X158742394Y-74617965D01*
X158737098Y-74617371D01*
X158732002Y-74615813D01*
X158639443Y-74606410D01*
X158638307Y-74606289D01*
X158604692Y-74602519D01*
X158591970Y-74601092D01*
X158591966Y-74601092D01*
X158588473Y-74600700D01*
X158584946Y-74600700D01*
X158583961Y-74600645D01*
X158578281Y-74600198D01*
X158548875Y-74597211D01*
X158541363Y-74596448D01*
X158541361Y-74596448D01*
X158535238Y-74595826D01*
X158492959Y-74599823D01*
X158489591Y-74600141D01*
X158477733Y-74600700D01*
X152746799Y-74600700D01*
X152678678Y-74580698D01*
X152655251Y-74561273D01*
X152586150Y-74488201D01*
X152586148Y-74488199D01*
X152582668Y-74484519D01*
X152524093Y-74439735D01*
X152482125Y-74382470D01*
X152477780Y-74311607D01*
X152517297Y-74245125D01*
X152609427Y-74163902D01*
X152658655Y-74120502D01*
X152661869Y-74116590D01*
X152662272Y-74116172D01*
X152723982Y-74081065D01*
X152752908Y-74077700D01*
X157568957Y-74077700D01*
X157582564Y-74078437D01*
X157614062Y-74081859D01*
X157614067Y-74081859D01*
X157620188Y-74082524D01*
X157646438Y-74080227D01*
X157670188Y-74078150D01*
X157675014Y-74077821D01*
X157677486Y-74077700D01*
X157680569Y-74077700D01*
X157692538Y-74076526D01*
X157723306Y-74073510D01*
X157724619Y-74073388D01*
X157768884Y-74069515D01*
X157817213Y-74065287D01*
X157822332Y-74063800D01*
X157827633Y-74063280D01*
X157916634Y-74036409D01*
X157917767Y-74036074D01*
X158001214Y-74011830D01*
X158001218Y-74011828D01*
X158007136Y-74010109D01*
X158011868Y-74007656D01*
X158016969Y-74006116D01*
X158047475Y-73989896D01*
X158099060Y-73962469D01*
X158100226Y-73961857D01*
X158177253Y-73921929D01*
X158182726Y-73919092D01*
X158186889Y-73915769D01*
X158191596Y-73913266D01*
X158263718Y-73854445D01*
X158264574Y-73853754D01*
X158303773Y-73822462D01*
X158306277Y-73819958D01*
X158306995Y-73819316D01*
X158311328Y-73815615D01*
X158344862Y-73788265D01*
X158349708Y-73782408D01*
X158374087Y-73752938D01*
X158382077Y-73744158D01*
X158497158Y-73629077D01*
X158559470Y-73595051D01*
X158609754Y-73594383D01*
X158650374Y-73602095D01*
X158780958Y-73607226D01*
X158906875Y-73612174D01*
X158906881Y-73612174D01*
X158911543Y-73612357D01*
X158990977Y-73603657D01*
X159166707Y-73584412D01*
X159166712Y-73584411D01*
X159171360Y-73583902D01*
X159204979Y-73575051D01*
X159419594Y-73518548D01*
X159419596Y-73518547D01*
X159424117Y-73517357D01*
X159472668Y-73496498D01*
X159631183Y-73428394D01*
X159664262Y-73414182D01*
X159697316Y-73393728D01*
X159882547Y-73279104D01*
X159882548Y-73279104D01*
X159886519Y-73276646D01*
X159890082Y-73273629D01*
X159890087Y-73273626D01*
X160082439Y-73110787D01*
X160082440Y-73110786D01*
X160086005Y-73107768D01*
X160151213Y-73033413D01*
X160255257Y-72914774D01*
X160255261Y-72914769D01*
X160258339Y-72911259D01*
X160262307Y-72905091D01*
X160397205Y-72695367D01*
X160399733Y-72691437D01*
X160507083Y-72453129D01*
X160545340Y-72317482D01*
X160576760Y-72206076D01*
X160576761Y-72206073D01*
X160578030Y-72201572D01*
X160595951Y-72060700D01*
X160610616Y-71945421D01*
X160610616Y-71945417D01*
X160611014Y-71942291D01*
X160612129Y-71899735D01*
X160613348Y-71853160D01*
X160613431Y-71850000D01*
X160605333Y-71741033D01*
X160594407Y-71594000D01*
X160594406Y-71593996D01*
X160594061Y-71589348D01*
X160592738Y-71583497D01*
X160548559Y-71388260D01*
X160536377Y-71334423D01*
X160532248Y-71323805D01*
X160443340Y-71095176D01*
X160443339Y-71095173D01*
X160441647Y-71090823D01*
X160422163Y-71056732D01*
X160348485Y-70927823D01*
X160311951Y-70863902D01*
X160150138Y-70658643D01*
X159959763Y-70479557D01*
X159775752Y-70351903D01*
X159748851Y-70333241D01*
X159748848Y-70333239D01*
X159745009Y-70330576D01*
X159740816Y-70328508D01*
X159514781Y-70217040D01*
X159514778Y-70217039D01*
X159510593Y-70214975D01*
X159503949Y-70212848D01*
X159266123Y-70136720D01*
X159261665Y-70135293D01*
X159003693Y-70093279D01*
X158889942Y-70091790D01*
X158747022Y-70089919D01*
X158747019Y-70089919D01*
X158742345Y-70089858D01*
X158483362Y-70125104D01*
X158232433Y-70198243D01*
X158228180Y-70200203D01*
X158228179Y-70200204D01*
X158191659Y-70217040D01*
X157995072Y-70307668D01*
X157956314Y-70333079D01*
X157780404Y-70448410D01*
X157780399Y-70448414D01*
X157776491Y-70450976D01*
X157581494Y-70625018D01*
X157414363Y-70825970D01*
X157411934Y-70829973D01*
X157311506Y-70995474D01*
X157278771Y-71049419D01*
X157177697Y-71290455D01*
X157113359Y-71543783D01*
X157112891Y-71548434D01*
X157112890Y-71548438D01*
X157109229Y-71584794D01*
X157087173Y-71803839D01*
X157087397Y-71808505D01*
X157087397Y-71808511D01*
X157093168Y-71928655D01*
X157076457Y-71997657D01*
X157025094Y-72046671D01*
X156967313Y-72060700D01*
X152746799Y-72060700D01*
X152678678Y-72040698D01*
X152655251Y-72021273D01*
X152586150Y-71948201D01*
X152586148Y-71948199D01*
X152582668Y-71944519D01*
X152523685Y-71899423D01*
X152481719Y-71842161D01*
X152477374Y-71771297D01*
X152516891Y-71704815D01*
X152654500Y-71583497D01*
X152661504Y-71576244D01*
X152809110Y-71396546D01*
X152814869Y-71388260D01*
X152931841Y-71187281D01*
X152936203Y-71178176D01*
X153019537Y-70961085D01*
X153022388Y-70951396D01*
X153053821Y-70800936D01*
X153052698Y-70786875D01*
X153042590Y-70783200D01*
X150942000Y-70783200D01*
X150873879Y-70763198D01*
X150827386Y-70709542D01*
X150816000Y-70657200D01*
X150816000Y-70401200D01*
X150836002Y-70333079D01*
X150889658Y-70286586D01*
X150942000Y-70275200D01*
X153040590Y-70275200D01*
X153054676Y-70271064D01*
X153056725Y-70258086D01*
X153054675Y-70240370D01*
X153052715Y-70230473D01*
X152989396Y-70006706D01*
X152985884Y-69997262D01*
X152887601Y-69786495D01*
X152882622Y-69777729D01*
X152751913Y-69585398D01*
X152745581Y-69577523D01*
X152585814Y-69408574D01*
X152578311Y-69401818D01*
X152492850Y-69336478D01*
X152450883Y-69279213D01*
X152446538Y-69208349D01*
X152486055Y-69141868D01*
X152654858Y-68993050D01*
X152654861Y-68993047D01*
X152658655Y-68989702D01*
X152812734Y-68802122D01*
X152912429Y-68630830D01*
X152932299Y-68596690D01*
X152932300Y-68596688D01*
X152934841Y-68592322D01*
X152966351Y-68510234D01*
X153020020Y-68370422D01*
X153020021Y-68370418D01*
X153021833Y-68365698D01*
X153025692Y-68347227D01*
X153044096Y-68259133D01*
X157805612Y-68259133D01*
X157814325Y-68270653D01*
X157912018Y-68342284D01*
X157919928Y-68347227D01*
X158142890Y-68464533D01*
X158151453Y-68468256D01*
X158389304Y-68551318D01*
X158398313Y-68553732D01*
X158645842Y-68600727D01*
X158655098Y-68601781D01*
X158906857Y-68611673D01*
X158916171Y-68611347D01*
X159166615Y-68583920D01*
X159175792Y-68582219D01*
X159419431Y-68518074D01*
X159428251Y-68515037D01*
X159659736Y-68415583D01*
X159668008Y-68411276D01*
X159882249Y-68278700D01*
X159889188Y-68273658D01*
X159897518Y-68261019D01*
X159891456Y-68250666D01*
X158862812Y-67222022D01*
X158848868Y-67214408D01*
X158847035Y-67214539D01*
X158840420Y-67218790D01*
X157812270Y-68246940D01*
X157805612Y-68259133D01*
X153044096Y-68259133D01*
X153070440Y-68133031D01*
X153070440Y-68133027D01*
X153071474Y-68128080D01*
X153082486Y-67885583D01*
X153081905Y-67880559D01*
X153055167Y-67649471D01*
X153055166Y-67649467D01*
X153054585Y-67644444D01*
X153015517Y-67506378D01*
X152989866Y-67415731D01*
X152988490Y-67410868D01*
X152986356Y-67406292D01*
X152986354Y-67406286D01*
X152888038Y-67195446D01*
X152888036Y-67195442D01*
X152885901Y-67190864D01*
X152881304Y-67184099D01*
X152797084Y-67060175D01*
X152749456Y-66990093D01*
X152582668Y-66813719D01*
X152575872Y-66808523D01*
X157087898Y-66808523D01*
X157099987Y-67060175D01*
X157101124Y-67069435D01*
X157150274Y-67316535D01*
X157152768Y-67325528D01*
X157237900Y-67562639D01*
X157241700Y-67571174D01*
X157360946Y-67793101D01*
X157365957Y-67800968D01*
X157429446Y-67885990D01*
X157440704Y-67894439D01*
X157453123Y-67887667D01*
X158477978Y-66862812D01*
X158484356Y-66851132D01*
X159214408Y-66851132D01*
X159214539Y-66852965D01*
X159218790Y-66859580D01*
X160249913Y-67890703D01*
X160262293Y-67897463D01*
X160270634Y-67891219D01*
X160396765Y-67695127D01*
X160401212Y-67686936D01*
X160504691Y-67457222D01*
X160507882Y-67448455D01*
X160576269Y-67205976D01*
X160578129Y-67196834D01*
X160610116Y-66945396D01*
X160610597Y-66939108D01*
X160612847Y-66853160D01*
X160612696Y-66846851D01*
X160593912Y-66594074D01*
X160592536Y-66584868D01*
X160536929Y-66339126D01*
X160534205Y-66330215D01*
X160442888Y-66095392D01*
X160438877Y-66086983D01*
X160313854Y-65868240D01*
X160308643Y-65860514D01*
X160271391Y-65813261D01*
X160259466Y-65804790D01*
X160247934Y-65811276D01*
X159222022Y-66837188D01*
X159214408Y-66851132D01*
X158484356Y-66851132D01*
X158485592Y-66848868D01*
X158485461Y-66847035D01*
X158481210Y-66840420D01*
X157451321Y-65810531D01*
X157438013Y-65803264D01*
X157427974Y-65810386D01*
X157417761Y-65822666D01*
X157412346Y-65830258D01*
X157281646Y-66045646D01*
X157277408Y-66053963D01*
X157179981Y-66286299D01*
X157177020Y-66295149D01*
X157115006Y-66539331D01*
X157113384Y-66548528D01*
X157088143Y-66799198D01*
X157087898Y-66808523D01*
X152575872Y-66808523D01*
X152393846Y-66669353D01*
X152393842Y-66669350D01*
X152389826Y-66666280D01*
X152175891Y-66551569D01*
X151946369Y-66472538D01*
X151847022Y-66455378D01*
X151711074Y-66431896D01*
X151711068Y-66431895D01*
X151707164Y-66431221D01*
X151703203Y-66431041D01*
X151703202Y-66431041D01*
X151679494Y-66429964D01*
X151679475Y-66429964D01*
X151678075Y-66429900D01*
X150508999Y-66429900D01*
X150506491Y-66430102D01*
X150506486Y-66430102D01*
X150333076Y-66444054D01*
X150333071Y-66444055D01*
X150328035Y-66444460D01*
X150323127Y-66445666D01*
X150323124Y-66445666D01*
X150178414Y-66481210D01*
X150092294Y-66502363D01*
X150087642Y-66504338D01*
X150087638Y-66504339D01*
X150005203Y-66539331D01*
X149868844Y-66597212D01*
X149864560Y-66599910D01*
X149667712Y-66723872D01*
X149667709Y-66723874D01*
X149663433Y-66726567D01*
X149659639Y-66729912D01*
X149485142Y-66883750D01*
X149485139Y-66883753D01*
X149481345Y-66887098D01*
X149478135Y-66891006D01*
X149478134Y-66891007D01*
X149331573Y-67069435D01*
X149327266Y-67074678D01*
X149205159Y-67284478D01*
X149203346Y-67289201D01*
X149139594Y-67455283D01*
X149118167Y-67511102D01*
X149117133Y-67516052D01*
X149117132Y-67516055D01*
X149069663Y-67743279D01*
X149068526Y-67748720D01*
X149057514Y-67991217D01*
X149058095Y-67996237D01*
X149058095Y-67996241D01*
X149073923Y-68133031D01*
X149085415Y-68232356D01*
X149086791Y-68237220D01*
X149086792Y-68237223D01*
X149132476Y-68398666D01*
X149151510Y-68465932D01*
X149153644Y-68470508D01*
X149153646Y-68470514D01*
X149251962Y-68681354D01*
X149254099Y-68685936D01*
X149390544Y-68886707D01*
X149557332Y-69063081D01*
X149561358Y-69066159D01*
X149561359Y-69066160D01*
X149647172Y-69131769D01*
X149689140Y-69189034D01*
X149693485Y-69259897D01*
X149653968Y-69326379D01*
X149485500Y-69474903D01*
X149478496Y-69482156D01*
X149330890Y-69661854D01*
X149325134Y-69670136D01*
X149208159Y-69871119D01*
X149203797Y-69880224D01*
X149120463Y-70097315D01*
X149117612Y-70107004D01*
X149100981Y-70186613D01*
X149067472Y-70249204D01*
X149005443Y-70283742D01*
X148934588Y-70279262D01*
X148888551Y-70249943D01*
X144077410Y-65438803D01*
X157803216Y-65438803D01*
X157807789Y-65448579D01*
X158837188Y-66477978D01*
X158851132Y-66485592D01*
X158852965Y-66485461D01*
X158859580Y-66481210D01*
X159888419Y-65452371D01*
X159894803Y-65440681D01*
X159885391Y-65428570D01*
X159748593Y-65333670D01*
X159740565Y-65328942D01*
X159514593Y-65217505D01*
X159505960Y-65214017D01*
X159265998Y-65137205D01*
X159256938Y-65135029D01*
X159008260Y-65094529D01*
X158998973Y-65093717D01*
X158747053Y-65090419D01*
X158737742Y-65090989D01*
X158488097Y-65124964D01*
X158478978Y-65126902D01*
X158237098Y-65197404D01*
X158228367Y-65200667D01*
X157999558Y-65306151D01*
X157991406Y-65310670D01*
X157812353Y-65428062D01*
X157803216Y-65438803D01*
X144077410Y-65438803D01*
X143919228Y-65280621D01*
X143910126Y-65270478D01*
X143890270Y-65245782D01*
X143886405Y-65240975D01*
X143847951Y-65208708D01*
X143844304Y-65205528D01*
X143842492Y-65203885D01*
X143840298Y-65201691D01*
X143807024Y-65174358D01*
X143806226Y-65173696D01*
X143734899Y-65113846D01*
X143730229Y-65111278D01*
X143726112Y-65107897D01*
X143644287Y-65064023D01*
X143643128Y-65063394D01*
X143566992Y-65021538D01*
X143566984Y-65021535D01*
X143561586Y-65018567D01*
X143556504Y-65016955D01*
X143551810Y-65014438D01*
X143462842Y-64987238D01*
X143461814Y-64986918D01*
X143373067Y-64958765D01*
X143367771Y-64958171D01*
X143362675Y-64956613D01*
X143270116Y-64947210D01*
X143268980Y-64947089D01*
X143235365Y-64943319D01*
X143222643Y-64941892D01*
X143222639Y-64941892D01*
X143219146Y-64941500D01*
X143215619Y-64941500D01*
X143214634Y-64941445D01*
X143208954Y-64940998D01*
X143179548Y-64938011D01*
X143172036Y-64937248D01*
X143172034Y-64937248D01*
X143165911Y-64936626D01*
X143123632Y-64940623D01*
X143120264Y-64940941D01*
X143108406Y-64941500D01*
X126726843Y-64941500D01*
X126713236Y-64940763D01*
X126681738Y-64937341D01*
X126681733Y-64937341D01*
X126675612Y-64936676D01*
X126649362Y-64938973D01*
X126625612Y-64941050D01*
X126620786Y-64941379D01*
X126618314Y-64941500D01*
X126615231Y-64941500D01*
X126603262Y-64942674D01*
X126572494Y-64945690D01*
X126571181Y-64945812D01*
X126526916Y-64949685D01*
X126478587Y-64953913D01*
X126473468Y-64955400D01*
X126468167Y-64955920D01*
X126379166Y-64982791D01*
X126378033Y-64983126D01*
X126294586Y-65007370D01*
X126294582Y-65007372D01*
X126288664Y-65009091D01*
X126283932Y-65011544D01*
X126278831Y-65013084D01*
X126273388Y-65015978D01*
X126196740Y-65056731D01*
X126195574Y-65057343D01*
X126131766Y-65090419D01*
X126113074Y-65100108D01*
X126108911Y-65103431D01*
X126104204Y-65105934D01*
X126032082Y-65164755D01*
X126031226Y-65165446D01*
X125992027Y-65196738D01*
X125989523Y-65199242D01*
X125988805Y-65199884D01*
X125984472Y-65203585D01*
X125950938Y-65230935D01*
X125947011Y-65235682D01*
X125947009Y-65235684D01*
X125921713Y-65266262D01*
X125913723Y-65275042D01*
X124214988Y-66973778D01*
X124152676Y-67007803D01*
X124100127Y-67008020D01*
X124059634Y-66999561D01*
X124059635Y-66999561D01*
X124054680Y-66998526D01*
X124049631Y-66998297D01*
X124049625Y-66998296D01*
X123939035Y-66993274D01*
X123812183Y-66987514D01*
X123807163Y-66988095D01*
X123807159Y-66988095D01*
X123576071Y-67014833D01*
X123576067Y-67014834D01*
X123571044Y-67015415D01*
X123566180Y-67016791D01*
X123566177Y-67016792D01*
X123511875Y-67032158D01*
X123337468Y-67081510D01*
X123332892Y-67083644D01*
X123332886Y-67083646D01*
X123122046Y-67181962D01*
X123122042Y-67181964D01*
X123117464Y-67184099D01*
X123113283Y-67186940D01*
X123113282Y-67186941D01*
X123098725Y-67196834D01*
X122962813Y-67289201D01*
X122954377Y-67294934D01*
X122886793Y-67316680D01*
X122818181Y-67298436D01*
X122776006Y-67254339D01*
X122775615Y-67253295D01*
X122770230Y-67246109D01*
X122693642Y-67143919D01*
X122688261Y-67136739D01*
X122571705Y-67049385D01*
X122435316Y-66998255D01*
X122373134Y-66991500D01*
X120276866Y-66991500D01*
X120214684Y-66998255D01*
X120078295Y-67049385D01*
X119961739Y-67136739D01*
X119874385Y-67253295D01*
X119823255Y-67389684D01*
X119816500Y-67451866D01*
X119816500Y-68780076D01*
X119796498Y-68848197D01*
X119779595Y-68869171D01*
X115530621Y-73118145D01*
X115520478Y-73127247D01*
X115490975Y-73150968D01*
X115487008Y-73155696D01*
X115458709Y-73189421D01*
X115455528Y-73193069D01*
X115453885Y-73194881D01*
X115451691Y-73197075D01*
X115424358Y-73230349D01*
X115423696Y-73231147D01*
X115363846Y-73302474D01*
X115361278Y-73307144D01*
X115357897Y-73311261D01*
X115332767Y-73358129D01*
X115314023Y-73393086D01*
X115313394Y-73394245D01*
X115271538Y-73470381D01*
X115271535Y-73470389D01*
X115268567Y-73475787D01*
X115266955Y-73480869D01*
X115264438Y-73485563D01*
X115237238Y-73574531D01*
X115236918Y-73575559D01*
X115209204Y-73662923D01*
X115169540Y-73721806D01*
X115158187Y-73730195D01*
X115130404Y-73748410D01*
X115130399Y-73748414D01*
X115126491Y-73750976D01*
X115049923Y-73819316D01*
X114938134Y-73919092D01*
X114931494Y-73925018D01*
X114764363Y-74125970D01*
X114761934Y-74129973D01*
X114633289Y-74341974D01*
X114628771Y-74349419D01*
X114527697Y-74590455D01*
X114463359Y-74843783D01*
X114462891Y-74848434D01*
X114462890Y-74848438D01*
X114458552Y-74891525D01*
X114437173Y-75103839D01*
X114437397Y-75108505D01*
X114437397Y-75108511D01*
X114443007Y-75225288D01*
X114449713Y-75364908D01*
X114500704Y-75621256D01*
X114589026Y-75867252D01*
X114591242Y-75871376D01*
X114679965Y-76036498D01*
X114712737Y-76097491D01*
X114715532Y-76101234D01*
X114715534Y-76101237D01*
X114866330Y-76303177D01*
X114866335Y-76303183D01*
X114869122Y-76306915D01*
X114872431Y-76310195D01*
X114872436Y-76310201D01*
X115050377Y-76486595D01*
X115054743Y-76490923D01*
X115058505Y-76493681D01*
X115058508Y-76493684D01*
X115227645Y-76617700D01*
X115265524Y-76645474D01*
X115269667Y-76647654D01*
X115269669Y-76647655D01*
X115492684Y-76764989D01*
X115492689Y-76764991D01*
X115496834Y-76767172D01*
X115619124Y-76809878D01*
X115693725Y-76835930D01*
X115743590Y-76853344D01*
X115748183Y-76854216D01*
X115995785Y-76901224D01*
X115995788Y-76901224D01*
X116000374Y-76902095D01*
X116130958Y-76907226D01*
X116256875Y-76912174D01*
X116256881Y-76912174D01*
X116261543Y-76912357D01*
X116340977Y-76903657D01*
X116516707Y-76884412D01*
X116516712Y-76884411D01*
X116521360Y-76883902D01*
X116634116Y-76854216D01*
X116769594Y-76818548D01*
X116769596Y-76818547D01*
X116774117Y-76817357D01*
X117014262Y-76714182D01*
X117051146Y-76691358D01*
X117232547Y-76579104D01*
X117232548Y-76579104D01*
X117236519Y-76576646D01*
X117240082Y-76573629D01*
X117240087Y-76573626D01*
X117432439Y-76410787D01*
X117432440Y-76410786D01*
X117436005Y-76407768D01*
X117521569Y-76310201D01*
X117605257Y-76214774D01*
X117605261Y-76214769D01*
X117608339Y-76211259D01*
X117622540Y-76189182D01*
X117747205Y-75995367D01*
X117749733Y-75991437D01*
X117857083Y-75753129D01*
X117882151Y-75664247D01*
X117926760Y-75506076D01*
X117926761Y-75506073D01*
X117928030Y-75501572D01*
X117939979Y-75407641D01*
X117960616Y-75245421D01*
X117960616Y-75245417D01*
X117961014Y-75242291D01*
X117961460Y-75225288D01*
X117962466Y-75186855D01*
X117963431Y-75150000D01*
X117958353Y-75081668D01*
X117944407Y-74894000D01*
X117944406Y-74893996D01*
X117944061Y-74889348D01*
X117941488Y-74877975D01*
X127160419Y-74877975D01*
X127163179Y-74892703D01*
X127175357Y-74896000D01*
X128627885Y-74896000D01*
X128643124Y-74891525D01*
X128644329Y-74890135D01*
X128646000Y-74882452D01*
X128646000Y-73428394D01*
X128641982Y-73414710D01*
X128628290Y-73412689D01*
X128538096Y-73424964D01*
X128528978Y-73426902D01*
X128287098Y-73497404D01*
X128278367Y-73500667D01*
X128049558Y-73606151D01*
X128041406Y-73610670D01*
X127830709Y-73748808D01*
X127823304Y-73754491D01*
X127635346Y-73922249D01*
X127628861Y-73928965D01*
X127467761Y-74122666D01*
X127462346Y-74130258D01*
X127331646Y-74345646D01*
X127327408Y-74353963D01*
X127229981Y-74586299D01*
X127227020Y-74595149D01*
X127165005Y-74839333D01*
X127163384Y-74848527D01*
X127160419Y-74877975D01*
X117941488Y-74877975D01*
X117938460Y-74864592D01*
X117895277Y-74673756D01*
X117886377Y-74634423D01*
X117880297Y-74618787D01*
X117793340Y-74395176D01*
X117793339Y-74395173D01*
X117791647Y-74390823D01*
X117661951Y-74163902D01*
X117588170Y-74070310D01*
X117561705Y-74004431D01*
X117575058Y-73934702D01*
X117598025Y-73903210D01*
X120955830Y-70545405D01*
X121018142Y-70511379D01*
X121044925Y-70508500D01*
X122373134Y-70508500D01*
X122435316Y-70501745D01*
X122571705Y-70450615D01*
X122688261Y-70363261D01*
X122706054Y-70339520D01*
X122770233Y-70253887D01*
X122770235Y-70253884D01*
X122775615Y-70246705D01*
X122775955Y-70245797D01*
X122823362Y-70198495D01*
X122892752Y-70183481D01*
X122963600Y-70211785D01*
X123001278Y-70242734D01*
X123049954Y-70271064D01*
X123196027Y-70356081D01*
X123211078Y-70364841D01*
X123215801Y-70366654D01*
X123432978Y-70450020D01*
X123432982Y-70450021D01*
X123437702Y-70451833D01*
X123442652Y-70452867D01*
X123442655Y-70452868D01*
X123670369Y-70500440D01*
X123670373Y-70500440D01*
X123675320Y-70501474D01*
X123917817Y-70512486D01*
X123922837Y-70511905D01*
X123922841Y-70511905D01*
X124153929Y-70485167D01*
X124153933Y-70485166D01*
X124158956Y-70484585D01*
X124163820Y-70483209D01*
X124163823Y-70483208D01*
X124387669Y-70419866D01*
X124387668Y-70419866D01*
X124392532Y-70418490D01*
X124397108Y-70416356D01*
X124397114Y-70416354D01*
X124607954Y-70318038D01*
X124607958Y-70318036D01*
X124612536Y-70315901D01*
X124624651Y-70307668D01*
X124720197Y-70242734D01*
X124813307Y-70179456D01*
X124989681Y-70012668D01*
X125001594Y-69997086D01*
X125134047Y-69823846D01*
X125134050Y-69823842D01*
X125137120Y-69819826D01*
X125148416Y-69798760D01*
X125249439Y-69610352D01*
X125251831Y-69605891D01*
X125330862Y-69376369D01*
X125356576Y-69227497D01*
X125371504Y-69141074D01*
X125371505Y-69141068D01*
X125372179Y-69137164D01*
X125373500Y-69108075D01*
X125373500Y-68719925D01*
X125393502Y-68651804D01*
X125410405Y-68630830D01*
X127045829Y-66995405D01*
X127108141Y-66961380D01*
X127134924Y-66958500D01*
X133695500Y-66958500D01*
X133763621Y-66978502D01*
X133810114Y-67032158D01*
X133821500Y-67084500D01*
X133821500Y-69037334D01*
X133828255Y-69099516D01*
X133879385Y-69235905D01*
X133966739Y-69352461D01*
X133973919Y-69357842D01*
X134076113Y-69434433D01*
X134076116Y-69434435D01*
X134083295Y-69439815D01*
X134084203Y-69440155D01*
X134131505Y-69487562D01*
X134146519Y-69556952D01*
X134118215Y-69627800D01*
X134087266Y-69665478D01*
X134084724Y-69669846D01*
X133981404Y-69847367D01*
X133965159Y-69875278D01*
X133963346Y-69880001D01*
X133882767Y-70089919D01*
X133878167Y-70101902D01*
X133877133Y-70106852D01*
X133877132Y-70106855D01*
X133829838Y-70333241D01*
X133828526Y-70339520D01*
X133817514Y-70582017D01*
X133818095Y-70587037D01*
X133818095Y-70587041D01*
X133838478Y-70763198D01*
X133845415Y-70823156D01*
X133846791Y-70828020D01*
X133846792Y-70828023D01*
X133892476Y-70989466D01*
X133911510Y-71056732D01*
X133913644Y-71061308D01*
X133913646Y-71061314D01*
X134007394Y-71262357D01*
X134014099Y-71276736D01*
X134016940Y-71280917D01*
X134016941Y-71280918D01*
X134023597Y-71290712D01*
X134150544Y-71477507D01*
X134317332Y-71653881D01*
X134321358Y-71656959D01*
X134321359Y-71656960D01*
X134375907Y-71698665D01*
X134417875Y-71755930D01*
X134422220Y-71826793D01*
X134382703Y-71893275D01*
X134245142Y-72014550D01*
X134245139Y-72014553D01*
X134241345Y-72017898D01*
X134238135Y-72021806D01*
X134238134Y-72021807D01*
X134210854Y-72055019D01*
X134087266Y-72205478D01*
X133965159Y-72415278D01*
X133963346Y-72420001D01*
X133944183Y-72469924D01*
X133878167Y-72641902D01*
X133877133Y-72646852D01*
X133877132Y-72646855D01*
X133850990Y-72771992D01*
X133828526Y-72879520D01*
X133817514Y-73122017D01*
X133818095Y-73127037D01*
X133818095Y-73127041D01*
X133840039Y-73316691D01*
X133845415Y-73363156D01*
X133846791Y-73368020D01*
X133846792Y-73368023D01*
X133888104Y-73514017D01*
X133911510Y-73596732D01*
X133913644Y-73601308D01*
X133913646Y-73601314D01*
X134002638Y-73792158D01*
X134014099Y-73816736D01*
X134016940Y-73820917D01*
X134016941Y-73820918D01*
X134039196Y-73853665D01*
X134150544Y-74017507D01*
X134317332Y-74193881D01*
X134321358Y-74196959D01*
X134321359Y-74196960D01*
X134375907Y-74238665D01*
X134417875Y-74295930D01*
X134422220Y-74366793D01*
X134382703Y-74433275D01*
X134245142Y-74554550D01*
X134245139Y-74554553D01*
X134241345Y-74557898D01*
X134238135Y-74561806D01*
X134238134Y-74561807D01*
X134140444Y-74680738D01*
X134087266Y-74745478D01*
X134071221Y-74773046D01*
X133980059Y-74929678D01*
X133965159Y-74955278D01*
X133963346Y-74960001D01*
X133887662Y-75157167D01*
X133878167Y-75181902D01*
X133877133Y-75186852D01*
X133877132Y-75186855D01*
X133831008Y-75407641D01*
X133828526Y-75419520D01*
X133817514Y-75662017D01*
X133818095Y-75667037D01*
X133818095Y-75667041D01*
X133841715Y-75871174D01*
X133845415Y-75903156D01*
X133846791Y-75908020D01*
X133846792Y-75908023D01*
X133892476Y-76069466D01*
X133911510Y-76136732D01*
X133913644Y-76141308D01*
X133913646Y-76141314D01*
X133989124Y-76303177D01*
X134014099Y-76356736D01*
X134016940Y-76360917D01*
X134016941Y-76360918D01*
X134048781Y-76407768D01*
X134150544Y-76557507D01*
X134317332Y-76733881D01*
X134321358Y-76736959D01*
X134321359Y-76736960D01*
X134375907Y-76778665D01*
X134417875Y-76835930D01*
X134422220Y-76906793D01*
X134382703Y-76973275D01*
X134245142Y-77094550D01*
X134245139Y-77094553D01*
X134241345Y-77097898D01*
X134238135Y-77101806D01*
X134238134Y-77101807D01*
X134140444Y-77220738D01*
X134087266Y-77285478D01*
X134071221Y-77313046D01*
X133980059Y-77469678D01*
X133965159Y-77495278D01*
X133963346Y-77500001D01*
X133893081Y-77683050D01*
X133878167Y-77721902D01*
X133877133Y-77726852D01*
X133877132Y-77726855D01*
X133845843Y-77876630D01*
X133828526Y-77959520D01*
X133817514Y-78202017D01*
X133818095Y-78207037D01*
X133818095Y-78207041D01*
X133833923Y-78343831D01*
X133845415Y-78443156D01*
X133846791Y-78448020D01*
X133846792Y-78448023D01*
X133892476Y-78609466D01*
X133911510Y-78676732D01*
X133913644Y-78681308D01*
X133913646Y-78681314D01*
X133970446Y-78803122D01*
X134014099Y-78896736D01*
X134150544Y-79097507D01*
X134317332Y-79273881D01*
X134321358Y-79276959D01*
X134321359Y-79276960D01*
X134375907Y-79318665D01*
X134417875Y-79375930D01*
X134422220Y-79446793D01*
X134382703Y-79513275D01*
X134245142Y-79634550D01*
X134245139Y-79634553D01*
X134241345Y-79637898D01*
X134238135Y-79641806D01*
X134238134Y-79641807D01*
X134115176Y-79791500D01*
X134087266Y-79825478D01*
X134084724Y-79829846D01*
X133986030Y-79999419D01*
X133965159Y-80035278D01*
X133963346Y-80040001D01*
X133884663Y-80244980D01*
X133878167Y-80261902D01*
X133877133Y-80266852D01*
X133877132Y-80266855D01*
X133829725Y-80493783D01*
X133828526Y-80499520D01*
X133817514Y-80742017D01*
X133818095Y-80747037D01*
X133818095Y-80747041D01*
X133833923Y-80883831D01*
X133845415Y-80983156D01*
X133846791Y-80988020D01*
X133846792Y-80988023D01*
X133892476Y-81149466D01*
X133911510Y-81216732D01*
X133913644Y-81221308D01*
X133913646Y-81221314D01*
X133970446Y-81343122D01*
X134014099Y-81436736D01*
X134150544Y-81637507D01*
X134317332Y-81813881D01*
X134321358Y-81816959D01*
X134321359Y-81816960D01*
X134375907Y-81858665D01*
X134417875Y-81915930D01*
X134422220Y-81986793D01*
X134382703Y-82053275D01*
X134245142Y-82174550D01*
X134245139Y-82174553D01*
X134241345Y-82177898D01*
X134238135Y-82181806D01*
X134238134Y-82181807D01*
X134140444Y-82300738D01*
X134087266Y-82365478D01*
X134071221Y-82393046D01*
X133980059Y-82549678D01*
X133965159Y-82575278D01*
X133878167Y-82801902D01*
X133877133Y-82806852D01*
X133877132Y-82806855D01*
X133830316Y-83030953D01*
X133828526Y-83039520D01*
X133817514Y-83282017D01*
X133818095Y-83287037D01*
X133818095Y-83287041D01*
X133834894Y-83432224D01*
X133845415Y-83523156D01*
X133846791Y-83528020D01*
X133846792Y-83528023D01*
X133890938Y-83684032D01*
X133911510Y-83756732D01*
X133913644Y-83761308D01*
X133913646Y-83761314D01*
X133999856Y-83946192D01*
X134014099Y-83976736D01*
X134150544Y-84177507D01*
X134317332Y-84353881D01*
X134321358Y-84356959D01*
X134321359Y-84356960D01*
X134375907Y-84398665D01*
X134417875Y-84455930D01*
X134422220Y-84526793D01*
X134382703Y-84593275D01*
X134245142Y-84714550D01*
X134245139Y-84714553D01*
X134241345Y-84717898D01*
X134087266Y-84905478D01*
X133965159Y-85115278D01*
X133878167Y-85341902D01*
X133828526Y-85579520D01*
X133817514Y-85822017D01*
X133818095Y-85827037D01*
X133818095Y-85827041D01*
X133842548Y-86038374D01*
X133845415Y-86063156D01*
X133846791Y-86068020D01*
X133846792Y-86068023D01*
X133884767Y-86202224D01*
X133911510Y-86296732D01*
X133913644Y-86301308D01*
X133913646Y-86301314D01*
X134011962Y-86512154D01*
X134014099Y-86516736D01*
X134150544Y-86717507D01*
X134317332Y-86893881D01*
X134321358Y-86896959D01*
X134321359Y-86896960D01*
X134375907Y-86938665D01*
X134417875Y-86995930D01*
X134422220Y-87066793D01*
X134382703Y-87133275D01*
X134245142Y-87254550D01*
X134245139Y-87254553D01*
X134241345Y-87257898D01*
X134238135Y-87261806D01*
X134238134Y-87261807D01*
X134093996Y-87437285D01*
X134087266Y-87445478D01*
X134072099Y-87471538D01*
X134019869Y-87561278D01*
X133965159Y-87655278D01*
X133878167Y-87881902D01*
X133877133Y-87886852D01*
X133877132Y-87886855D01*
X133839490Y-88067040D01*
X133828526Y-88119520D01*
X133817514Y-88362017D01*
X133818095Y-88367037D01*
X133818095Y-88367041D01*
X133834904Y-88512311D01*
X133845415Y-88603156D01*
X133846791Y-88608020D01*
X133846792Y-88608023D01*
X133892476Y-88769466D01*
X133911510Y-88836732D01*
X133913644Y-88841308D01*
X133913646Y-88841314D01*
X134011962Y-89052154D01*
X134014099Y-89056736D01*
X134150544Y-89257507D01*
X134317332Y-89433881D01*
X134321358Y-89436959D01*
X134321359Y-89436960D01*
X134375907Y-89478665D01*
X134417875Y-89535930D01*
X134422220Y-89606793D01*
X134382703Y-89673275D01*
X134245142Y-89794550D01*
X134245139Y-89794553D01*
X134241345Y-89797898D01*
X134238135Y-89801806D01*
X134238134Y-89801807D01*
X134160185Y-89896705D01*
X134087266Y-89985478D01*
X133965159Y-90195278D01*
X133878167Y-90421902D01*
X133877133Y-90426852D01*
X133877132Y-90426855D01*
X133831900Y-90643371D01*
X133828526Y-90659520D01*
X133817514Y-90902017D01*
X133818095Y-90907037D01*
X133818095Y-90907041D01*
X133843505Y-91126646D01*
X133845415Y-91143156D01*
X133846791Y-91148020D01*
X133846792Y-91148023D01*
X133892476Y-91309466D01*
X133911510Y-91376732D01*
X133913644Y-91381308D01*
X133913646Y-91381314D01*
X134011962Y-91592154D01*
X134014099Y-91596736D01*
X134150544Y-91797507D01*
X134317332Y-91973881D01*
X134321358Y-91976959D01*
X134321359Y-91976960D01*
X134375907Y-92018665D01*
X134417875Y-92075930D01*
X134422220Y-92146793D01*
X134382703Y-92213275D01*
X134245142Y-92334550D01*
X134245139Y-92334553D01*
X134241345Y-92337898D01*
X134087266Y-92525478D01*
X133965159Y-92735278D01*
X133963346Y-92740001D01*
X133895388Y-92917040D01*
X133878167Y-92961902D01*
X133877133Y-92966852D01*
X133877132Y-92966855D01*
X133832027Y-93182763D01*
X133828526Y-93199520D01*
X133817514Y-93442017D01*
X133818095Y-93447037D01*
X133818095Y-93447041D01*
X133833923Y-93583831D01*
X133845415Y-93683156D01*
X133846791Y-93688020D01*
X133846792Y-93688023D01*
X133892476Y-93849466D01*
X133911510Y-93916732D01*
X133913644Y-93921308D01*
X133913646Y-93921314D01*
X133970446Y-94043122D01*
X134014099Y-94136736D01*
X134150544Y-94337507D01*
X134317332Y-94513881D01*
X134321358Y-94516959D01*
X134321359Y-94516960D01*
X134375907Y-94558665D01*
X134417875Y-94615930D01*
X134422220Y-94686793D01*
X134382703Y-94753275D01*
X134245142Y-94874550D01*
X134245139Y-94874553D01*
X134241345Y-94877898D01*
X134238135Y-94881806D01*
X134238134Y-94881807D01*
X134107108Y-95041322D01*
X134087266Y-95065478D01*
X133965159Y-95275278D01*
X133963346Y-95280001D01*
X133881442Y-95493371D01*
X133878167Y-95501902D01*
X133877133Y-95506852D01*
X133877132Y-95506855D01*
X133835338Y-95706915D01*
X133828526Y-95739520D01*
X133817514Y-95982017D01*
X133818095Y-95987037D01*
X133818095Y-95987041D01*
X133838685Y-96164989D01*
X133845415Y-96223156D01*
X133846791Y-96228020D01*
X133846792Y-96228023D01*
X133892476Y-96389466D01*
X133911510Y-96456732D01*
X133913644Y-96461308D01*
X133913646Y-96461314D01*
X133970446Y-96583122D01*
X134014099Y-96676736D01*
X134150544Y-96877507D01*
X134317332Y-97053881D01*
X134321358Y-97056959D01*
X134321359Y-97056960D01*
X134375907Y-97098665D01*
X134417875Y-97155930D01*
X134422220Y-97226793D01*
X134382703Y-97293275D01*
X134245142Y-97414550D01*
X134245139Y-97414553D01*
X134241345Y-97417898D01*
X134238135Y-97421806D01*
X134238134Y-97421807D01*
X134140444Y-97540738D01*
X134087266Y-97605478D01*
X134071221Y-97633046D01*
X133980059Y-97789678D01*
X133965159Y-97815278D01*
X133878167Y-98041902D01*
X133877133Y-98046852D01*
X133877132Y-98046855D01*
X133858349Y-98136767D01*
X133828526Y-98279520D01*
X133817514Y-98522017D01*
X133818095Y-98527037D01*
X133818095Y-98527041D01*
X133833923Y-98663831D01*
X133845415Y-98763156D01*
X133846791Y-98768020D01*
X133846792Y-98768023D01*
X133885032Y-98903160D01*
X133911510Y-98996732D01*
X133913644Y-99001308D01*
X133913646Y-99001314D01*
X134011962Y-99212154D01*
X134014099Y-99216736D01*
X134150544Y-99417507D01*
X134317332Y-99593881D01*
X134321358Y-99596959D01*
X134321359Y-99596960D01*
X134375907Y-99638665D01*
X134417875Y-99695930D01*
X134422220Y-99766793D01*
X134382703Y-99833275D01*
X134245142Y-99954550D01*
X134245139Y-99954553D01*
X134241345Y-99957898D01*
X134238135Y-99961806D01*
X134238134Y-99961807D01*
X134099299Y-100130829D01*
X134087266Y-100145478D01*
X134080113Y-100157768D01*
X133971732Y-100343985D01*
X133965159Y-100355278D01*
X133963346Y-100360001D01*
X133922648Y-100466025D01*
X133878167Y-100581902D01*
X133877133Y-100586852D01*
X133877132Y-100586855D01*
X133863465Y-100652278D01*
X133828526Y-100819520D01*
X133817514Y-101062017D01*
X133818095Y-101067037D01*
X133818095Y-101067041D01*
X133833923Y-101203831D01*
X133845415Y-101303156D01*
X133846791Y-101308020D01*
X133846792Y-101308023D01*
X133892476Y-101469466D01*
X133911510Y-101536732D01*
X133913644Y-101541308D01*
X133913646Y-101541314D01*
X133970446Y-101663122D01*
X134014099Y-101756736D01*
X134150544Y-101957507D01*
X134317332Y-102133881D01*
X134321358Y-102136959D01*
X134321359Y-102136960D01*
X134375907Y-102178665D01*
X134417875Y-102235930D01*
X134422220Y-102306793D01*
X134382703Y-102373275D01*
X134245142Y-102494550D01*
X134245139Y-102494553D01*
X134241345Y-102497898D01*
X134238135Y-102501806D01*
X134238134Y-102501807D01*
X134103664Y-102665515D01*
X134087266Y-102685478D01*
X134036111Y-102773371D01*
X133980059Y-102869678D01*
X133965159Y-102895278D01*
X133963346Y-102900001D01*
X133880741Y-103115197D01*
X133878167Y-103121902D01*
X133877133Y-103126852D01*
X133877132Y-103126855D01*
X133829706Y-103353873D01*
X133828526Y-103359520D01*
X133817514Y-103602017D01*
X133818095Y-103607037D01*
X133818095Y-103607041D01*
X133833923Y-103743831D01*
X133845415Y-103843156D01*
X133846791Y-103848020D01*
X133846792Y-103848023D01*
X133892476Y-104009466D01*
X133911510Y-104076732D01*
X133913644Y-104081308D01*
X133913646Y-104081314D01*
X133970446Y-104203122D01*
X134014099Y-104296736D01*
X134150544Y-104497507D01*
X134317332Y-104673881D01*
X134321358Y-104676959D01*
X134321359Y-104676960D01*
X134375907Y-104718665D01*
X134417875Y-104775930D01*
X134422220Y-104846793D01*
X134382703Y-104913275D01*
X134241345Y-105037898D01*
X134238131Y-105041810D01*
X134237728Y-105042228D01*
X134176018Y-105077335D01*
X134147092Y-105080700D01*
X130803227Y-105080700D01*
X130789620Y-105079963D01*
X130758122Y-105076541D01*
X130758117Y-105076541D01*
X130751996Y-105075876D01*
X130725746Y-105078173D01*
X130701996Y-105080250D01*
X130697170Y-105080579D01*
X130694698Y-105080700D01*
X130691615Y-105080700D01*
X130679646Y-105081874D01*
X130648878Y-105084890D01*
X130647565Y-105085012D01*
X130603300Y-105088885D01*
X130554971Y-105093113D01*
X130549852Y-105094600D01*
X130544551Y-105095120D01*
X130455550Y-105121991D01*
X130454417Y-105122326D01*
X130370970Y-105146570D01*
X130370966Y-105146572D01*
X130365048Y-105148291D01*
X130360316Y-105150744D01*
X130355215Y-105152284D01*
X130349772Y-105155178D01*
X130273124Y-105195931D01*
X130271958Y-105196543D01*
X130194931Y-105236471D01*
X130189458Y-105239308D01*
X130185295Y-105242631D01*
X130180588Y-105245134D01*
X130108466Y-105303955D01*
X130107610Y-105304646D01*
X130068411Y-105335938D01*
X130065907Y-105338442D01*
X130065189Y-105339084D01*
X130060856Y-105342785D01*
X130027322Y-105370135D01*
X130023395Y-105374882D01*
X130023393Y-105374884D01*
X129998097Y-105405462D01*
X129990107Y-105414242D01*
X127848595Y-107555754D01*
X127786283Y-107589780D01*
X127715468Y-107584715D01*
X127658632Y-107542168D01*
X127633821Y-107475648D01*
X127633500Y-107466659D01*
X127633500Y-106502873D01*
X127618543Y-106331913D01*
X127617119Y-106326598D01*
X127560707Y-106116067D01*
X127560706Y-106116065D01*
X127559284Y-106110757D01*
X127523303Y-106033595D01*
X127464849Y-105908238D01*
X127464846Y-105908233D01*
X127462523Y-105903251D01*
X127352001Y-105745409D01*
X127334357Y-105720211D01*
X127334355Y-105720208D01*
X127331198Y-105715700D01*
X127169300Y-105553802D01*
X127164792Y-105550645D01*
X127164789Y-105550643D01*
X127019126Y-105448649D01*
X126981749Y-105422477D01*
X126976767Y-105420154D01*
X126976762Y-105420151D01*
X126779225Y-105328039D01*
X126779224Y-105328039D01*
X126774243Y-105325716D01*
X126768935Y-105324294D01*
X126768933Y-105324293D01*
X126558402Y-105267881D01*
X126558400Y-105267881D01*
X126553087Y-105266457D01*
X126325000Y-105246502D01*
X126096913Y-105266457D01*
X126091600Y-105267881D01*
X126091598Y-105267881D01*
X125881067Y-105324293D01*
X125881065Y-105324294D01*
X125875757Y-105325716D01*
X125870776Y-105328039D01*
X125870775Y-105328039D01*
X125673238Y-105420151D01*
X125673233Y-105420154D01*
X125668251Y-105422477D01*
X125630874Y-105448649D01*
X125485211Y-105550643D01*
X125485208Y-105550645D01*
X125480700Y-105553802D01*
X125318802Y-105715700D01*
X125315645Y-105720208D01*
X125315643Y-105720211D01*
X125297999Y-105745409D01*
X125187477Y-105903251D01*
X125098621Y-106093805D01*
X125051704Y-106147090D01*
X124983427Y-106166551D01*
X124912154Y-106143767D01*
X124886259Y-106125635D01*
X124886260Y-106125635D01*
X124881749Y-106122477D01*
X124876767Y-106120154D01*
X124876762Y-106120151D01*
X124679225Y-106028039D01*
X124679224Y-106028039D01*
X124674243Y-106025716D01*
X124668935Y-106024294D01*
X124668933Y-106024293D01*
X124458402Y-105967881D01*
X124458400Y-105967881D01*
X124453087Y-105966457D01*
X124353520Y-105957746D01*
X124284851Y-105951738D01*
X124284844Y-105951738D01*
X124282127Y-105951500D01*
X122767873Y-105951500D01*
X122765156Y-105951738D01*
X122765149Y-105951738D01*
X122696480Y-105957746D01*
X122596913Y-105966457D01*
X122591600Y-105967881D01*
X122591598Y-105967881D01*
X122381067Y-106024293D01*
X122381065Y-106024294D01*
X122375757Y-106025716D01*
X122370776Y-106028039D01*
X122370775Y-106028039D01*
X122173238Y-106120151D01*
X122173233Y-106120154D01*
X122168251Y-106122477D01*
X122105307Y-106166551D01*
X122016531Y-106228713D01*
X121944260Y-106251500D01*
X120809390Y-106251500D01*
X120741269Y-106231498D01*
X120720295Y-106214595D01*
X120539295Y-106033595D01*
X120505269Y-105971283D01*
X120510334Y-105900468D01*
X120552881Y-105843632D01*
X120619401Y-105818821D01*
X120628390Y-105818500D01*
X120995146Y-105818500D01*
X120997332Y-105818347D01*
X120997336Y-105818347D01*
X121200827Y-105804118D01*
X121200832Y-105804117D01*
X121205212Y-105803811D01*
X121479970Y-105745409D01*
X121484099Y-105743906D01*
X121484103Y-105743905D01*
X121739781Y-105650846D01*
X121739785Y-105650844D01*
X121743926Y-105649337D01*
X121991942Y-105517464D01*
X121995503Y-105514877D01*
X122215629Y-105354947D01*
X122215632Y-105354944D01*
X122219192Y-105352358D01*
X122223659Y-105348045D01*
X122326191Y-105249030D01*
X122421252Y-105157231D01*
X122594188Y-104935882D01*
X122596384Y-104932078D01*
X122596389Y-104932071D01*
X122732435Y-104696431D01*
X122734636Y-104692619D01*
X122839862Y-104432176D01*
X122845752Y-104408554D01*
X122906753Y-104163893D01*
X122906754Y-104163888D01*
X122907817Y-104159624D01*
X122917041Y-104071869D01*
X122936719Y-103884636D01*
X122936719Y-103884633D01*
X122937178Y-103880267D01*
X122937025Y-103875873D01*
X122927529Y-103603939D01*
X122927528Y-103603933D01*
X122927375Y-103599542D01*
X122920019Y-103557820D01*
X122890559Y-103390750D01*
X122878598Y-103322913D01*
X122791797Y-103055765D01*
X122787560Y-103047076D01*
X122724186Y-102917143D01*
X122668660Y-102803298D01*
X122666205Y-102799659D01*
X122666202Y-102799653D01*
X122575724Y-102665515D01*
X122511585Y-102570424D01*
X122323629Y-102361678D01*
X122108450Y-102181121D01*
X121870236Y-102032269D01*
X121613625Y-101918018D01*
X121343610Y-101840593D01*
X121339260Y-101839982D01*
X121339257Y-101839981D01*
X121236310Y-101825513D01*
X121065448Y-101801500D01*
X120354854Y-101801500D01*
X120352668Y-101801653D01*
X120352664Y-101801653D01*
X120149173Y-101815882D01*
X120149168Y-101815883D01*
X120144788Y-101816189D01*
X119870030Y-101874591D01*
X119865901Y-101876094D01*
X119865897Y-101876095D01*
X119610219Y-101969154D01*
X119610215Y-101969156D01*
X119606074Y-101970663D01*
X119358058Y-102102536D01*
X119354499Y-102105122D01*
X119354497Y-102105123D01*
X119154251Y-102250610D01*
X119130808Y-102267642D01*
X119127644Y-102270698D01*
X119127641Y-102270700D01*
X119038865Y-102356431D01*
X118928748Y-102462769D01*
X118755812Y-102684118D01*
X118753616Y-102687922D01*
X118753611Y-102687929D01*
X118648679Y-102869678D01*
X118615364Y-102927381D01*
X118510138Y-103187824D01*
X118509073Y-103192097D01*
X118509072Y-103192099D01*
X118448611Y-103434596D01*
X118442183Y-103460376D01*
X118433683Y-103541247D01*
X118424514Y-103628485D01*
X118397501Y-103694141D01*
X118339279Y-103734771D01*
X118268334Y-103737474D01*
X118210109Y-103704409D01*
X116845405Y-102339705D01*
X116811379Y-102277393D01*
X116808500Y-102250610D01*
X116808500Y-100408786D01*
X116828502Y-100340665D01*
X116853088Y-100312619D01*
X116913279Y-100261664D01*
X117036005Y-100157768D01*
X117062768Y-100127251D01*
X117205257Y-99964774D01*
X117205261Y-99964769D01*
X117208339Y-99961259D01*
X117212655Y-99954550D01*
X117323340Y-99782470D01*
X117349733Y-99741437D01*
X117457083Y-99503129D01*
X117528030Y-99251572D01*
X117532462Y-99216736D01*
X117560616Y-98995421D01*
X117560616Y-98995417D01*
X117561014Y-98992291D01*
X117561423Y-98976697D01*
X117563348Y-98903160D01*
X117563431Y-98900000D01*
X117560001Y-98853839D01*
X126737173Y-98853839D01*
X126749713Y-99114908D01*
X126800704Y-99371256D01*
X126889026Y-99617252D01*
X126891242Y-99621376D01*
X127008570Y-99839735D01*
X127012737Y-99847491D01*
X127015532Y-99851234D01*
X127015534Y-99851237D01*
X127166330Y-100053177D01*
X127166335Y-100053183D01*
X127169122Y-100056915D01*
X127172431Y-100060195D01*
X127172436Y-100060201D01*
X127280912Y-100167734D01*
X127354743Y-100240923D01*
X127358505Y-100243681D01*
X127358508Y-100243684D01*
X127517145Y-100360001D01*
X127565524Y-100395474D01*
X127569667Y-100397654D01*
X127569669Y-100397655D01*
X127792684Y-100514989D01*
X127792689Y-100514991D01*
X127796834Y-100517172D01*
X128043590Y-100603344D01*
X128048183Y-100604216D01*
X128295785Y-100651224D01*
X128295788Y-100651224D01*
X128300374Y-100652095D01*
X128430959Y-100657226D01*
X128556875Y-100662174D01*
X128556881Y-100662174D01*
X128561543Y-100662357D01*
X128640977Y-100653657D01*
X128816707Y-100634412D01*
X128816712Y-100634411D01*
X128821360Y-100633902D01*
X128934116Y-100604216D01*
X129069594Y-100568548D01*
X129069596Y-100568547D01*
X129074117Y-100567357D01*
X129314262Y-100464182D01*
X129403782Y-100408786D01*
X129532547Y-100329104D01*
X129532548Y-100329104D01*
X129536519Y-100326646D01*
X129540082Y-100323629D01*
X129540087Y-100323626D01*
X129732439Y-100160787D01*
X129732440Y-100160786D01*
X129736005Y-100157768D01*
X129762768Y-100127251D01*
X129905257Y-99964774D01*
X129905261Y-99964769D01*
X129908339Y-99961259D01*
X129912655Y-99954550D01*
X130023340Y-99782470D01*
X130049733Y-99741437D01*
X130157083Y-99503129D01*
X130228030Y-99251572D01*
X130232462Y-99216736D01*
X130260616Y-98995421D01*
X130260616Y-98995417D01*
X130261014Y-98992291D01*
X130261423Y-98976697D01*
X130263348Y-98903160D01*
X130263431Y-98900000D01*
X130252888Y-98758129D01*
X130244407Y-98644000D01*
X130244406Y-98643996D01*
X130244061Y-98639348D01*
X130232725Y-98589248D01*
X130187408Y-98388980D01*
X130186377Y-98384423D01*
X130143658Y-98274569D01*
X130093340Y-98145176D01*
X130093339Y-98145173D01*
X130091647Y-98140823D01*
X129961951Y-97913902D01*
X129800138Y-97708643D01*
X129609763Y-97529557D01*
X129424313Y-97400905D01*
X129398851Y-97383241D01*
X129398848Y-97383239D01*
X129395009Y-97380576D01*
X129390816Y-97378508D01*
X129164781Y-97267040D01*
X129164778Y-97267039D01*
X129160593Y-97264975D01*
X129136826Y-97257367D01*
X128916123Y-97186720D01*
X128911665Y-97185293D01*
X128653693Y-97143279D01*
X128539942Y-97141790D01*
X128397022Y-97139919D01*
X128397019Y-97139919D01*
X128392345Y-97139858D01*
X128133362Y-97175104D01*
X128128876Y-97176412D01*
X128128874Y-97176412D01*
X128064175Y-97195270D01*
X127882433Y-97248243D01*
X127878180Y-97250203D01*
X127878179Y-97250204D01*
X127841659Y-97267040D01*
X127645072Y-97357668D01*
X127606067Y-97383241D01*
X127430404Y-97498410D01*
X127430399Y-97498414D01*
X127426491Y-97500976D01*
X127231494Y-97675018D01*
X127064363Y-97875970D01*
X127061934Y-97879973D01*
X126960668Y-98046855D01*
X126928771Y-98099419D01*
X126827697Y-98340455D01*
X126763359Y-98593783D01*
X126737173Y-98853839D01*
X117560001Y-98853839D01*
X117552888Y-98758129D01*
X117544407Y-98644000D01*
X117544406Y-98643996D01*
X117544061Y-98639348D01*
X117532725Y-98589248D01*
X117487408Y-98388980D01*
X117486377Y-98384423D01*
X117443658Y-98274569D01*
X117393340Y-98145176D01*
X117393339Y-98145173D01*
X117391647Y-98140823D01*
X117261951Y-97913902D01*
X117100138Y-97708643D01*
X116909763Y-97529557D01*
X116724313Y-97400905D01*
X116698851Y-97383241D01*
X116698848Y-97383239D01*
X116695009Y-97380576D01*
X116690816Y-97378508D01*
X116464781Y-97267040D01*
X116464778Y-97267039D01*
X116460593Y-97264975D01*
X116436826Y-97257367D01*
X116216123Y-97186720D01*
X116211665Y-97185293D01*
X115953693Y-97143279D01*
X115839942Y-97141790D01*
X115697022Y-97139919D01*
X115697019Y-97139919D01*
X115692345Y-97139858D01*
X115433362Y-97175104D01*
X115428876Y-97176412D01*
X115428874Y-97176412D01*
X115364175Y-97195270D01*
X115182433Y-97248243D01*
X115178180Y-97250203D01*
X115178179Y-97250204D01*
X115141659Y-97267040D01*
X114945072Y-97357668D01*
X114906067Y-97383241D01*
X114730404Y-97498410D01*
X114730399Y-97498414D01*
X114726491Y-97500976D01*
X114531494Y-97675018D01*
X114364363Y-97875970D01*
X114361934Y-97879973D01*
X114260668Y-98046855D01*
X114228771Y-98099419D01*
X114127697Y-98340455D01*
X114063359Y-98593783D01*
X114037173Y-98853839D01*
X114049713Y-99114908D01*
X114100704Y-99371256D01*
X114189026Y-99617252D01*
X114191242Y-99621376D01*
X114308570Y-99839735D01*
X114312737Y-99847491D01*
X114315532Y-99851234D01*
X114315534Y-99851237D01*
X114466330Y-100053177D01*
X114466335Y-100053183D01*
X114469122Y-100056915D01*
X114472431Y-100060195D01*
X114472436Y-100060201D01*
X114580912Y-100167734D01*
X114654743Y-100240923D01*
X114658506Y-100243682D01*
X114658514Y-100243689D01*
X114740004Y-100303439D01*
X114783113Y-100359849D01*
X114791500Y-100405051D01*
X114791500Y-102658691D01*
X114790763Y-102672298D01*
X114789756Y-102681572D01*
X114786676Y-102709922D01*
X114787213Y-102716057D01*
X114791050Y-102759922D01*
X114791379Y-102764748D01*
X114791500Y-102767220D01*
X114791500Y-102770303D01*
X114791801Y-102773371D01*
X114795690Y-102813040D01*
X114795812Y-102814353D01*
X114803913Y-102906947D01*
X114805400Y-102912066D01*
X114805920Y-102917367D01*
X114832791Y-103006368D01*
X114833126Y-103007501D01*
X114848366Y-103059954D01*
X114859091Y-103096870D01*
X114861544Y-103101602D01*
X114863084Y-103106703D01*
X114865978Y-103112146D01*
X114906731Y-103188794D01*
X114907343Y-103189960D01*
X114920510Y-103215361D01*
X114950108Y-103272460D01*
X114953431Y-103276623D01*
X114955934Y-103281330D01*
X115014755Y-103353452D01*
X115015446Y-103354308D01*
X115046738Y-103393507D01*
X115049242Y-103396011D01*
X115049884Y-103396729D01*
X115053585Y-103401062D01*
X115080935Y-103434596D01*
X115085682Y-103438523D01*
X115085684Y-103438525D01*
X115116262Y-103463821D01*
X115125042Y-103471811D01*
X119582611Y-107929379D01*
X119591713Y-107939522D01*
X119614406Y-107967746D01*
X119615434Y-107969025D01*
X119615191Y-107969220D01*
X119647042Y-108029025D01*
X119641240Y-108099784D01*
X119598103Y-108156173D01*
X119545529Y-108178610D01*
X119492841Y-108187900D01*
X119387913Y-108206402D01*
X119120765Y-108293203D01*
X119116812Y-108295131D01*
X119116807Y-108295133D01*
X119024262Y-108340271D01*
X118868298Y-108416340D01*
X118864659Y-108418795D01*
X118864653Y-108418798D01*
X118778348Y-108477012D01*
X118635424Y-108573415D01*
X118632153Y-108576360D01*
X118632152Y-108576361D01*
X118594706Y-108610078D01*
X118426678Y-108761371D01*
X118246121Y-108976550D01*
X118097269Y-109214764D01*
X117983018Y-109471375D01*
X117905593Y-109741390D01*
X117904982Y-109745740D01*
X117904981Y-109745743D01*
X117896636Y-109805125D01*
X117866500Y-110019552D01*
X117866500Y-111230146D01*
X117881189Y-111440212D01*
X117939591Y-111714970D01*
X117941094Y-111719099D01*
X117941095Y-111719103D01*
X118013028Y-111916736D01*
X118035663Y-111978926D01*
X118167536Y-112226942D01*
X118170122Y-112230501D01*
X118170123Y-112230503D01*
X118299985Y-112409243D01*
X118332642Y-112454192D01*
X118335698Y-112457356D01*
X118335700Y-112457359D01*
X118396396Y-112520211D01*
X118527769Y-112656252D01*
X118749118Y-112829188D01*
X118752922Y-112831384D01*
X118752929Y-112831389D01*
X118950067Y-112945206D01*
X118992381Y-112969636D01*
X119252824Y-113074862D01*
X119257097Y-113075927D01*
X119257099Y-113075928D01*
X119521107Y-113141753D01*
X119521112Y-113141754D01*
X119525376Y-113142817D01*
X119529744Y-113143276D01*
X119529749Y-113143277D01*
X119800364Y-113171719D01*
X119800367Y-113171719D01*
X119804733Y-113172178D01*
X119809121Y-113172025D01*
X119809127Y-113172025D01*
X120081061Y-113162529D01*
X120081067Y-113162528D01*
X120085458Y-113162375D01*
X120089781Y-113161613D01*
X120089788Y-113161612D01*
X120287169Y-113126808D01*
X120362087Y-113113598D01*
X120629235Y-113026797D01*
X120633188Y-113024869D01*
X120633193Y-113024867D01*
X120746432Y-112969636D01*
X120881702Y-112903660D01*
X120885341Y-112901205D01*
X120885347Y-112901202D01*
X121023232Y-112808197D01*
X121114576Y-112746585D01*
X121323322Y-112558629D01*
X121326141Y-112555269D01*
X121326152Y-112555258D01*
X121412846Y-112451940D01*
X121471955Y-112412613D01*
X121542943Y-112411487D01*
X121603270Y-112448918D01*
X121623562Y-112479682D01*
X121685149Y-112611758D01*
X121685153Y-112611764D01*
X121687477Y-112616749D01*
X121760902Y-112721611D01*
X121776327Y-112743639D01*
X121818802Y-112804300D01*
X121935761Y-112921259D01*
X121969787Y-112983571D01*
X121964722Y-113054386D01*
X121935761Y-113099450D01*
X121823079Y-113212131D01*
X121816028Y-113220533D01*
X121691069Y-113398993D01*
X121685586Y-113408489D01*
X121593510Y-113605947D01*
X121589764Y-113616239D01*
X121543606Y-113788503D01*
X121543942Y-113802599D01*
X121551884Y-113806000D01*
X123653000Y-113806000D01*
X123721121Y-113826002D01*
X123767614Y-113879658D01*
X123779000Y-113932000D01*
X123779000Y-115349885D01*
X123783475Y-115365124D01*
X123784865Y-115366329D01*
X123792548Y-115368000D01*
X124279365Y-115368000D01*
X124284830Y-115367762D01*
X124447519Y-115353528D01*
X124458312Y-115351625D01*
X124668761Y-115295236D01*
X124679053Y-115291490D01*
X124876511Y-115199414D01*
X124886006Y-115193931D01*
X124911940Y-115175772D01*
X124979214Y-115153084D01*
X125048074Y-115170369D01*
X125098406Y-115225735D01*
X125185151Y-115411762D01*
X125185154Y-115411767D01*
X125187477Y-115416749D01*
X125246928Y-115501653D01*
X125309573Y-115591119D01*
X125318802Y-115604300D01*
X125480700Y-115766198D01*
X125485208Y-115769355D01*
X125485211Y-115769357D01*
X125553702Y-115817315D01*
X125668251Y-115897523D01*
X125673233Y-115899846D01*
X125673238Y-115899849D01*
X125869840Y-115991525D01*
X125875757Y-115994284D01*
X125881065Y-115995706D01*
X125881067Y-115995707D01*
X126091598Y-116052119D01*
X126091600Y-116052119D01*
X126096913Y-116053543D01*
X126325000Y-116073498D01*
X126553087Y-116053543D01*
X126558400Y-116052119D01*
X126558402Y-116052119D01*
X126768933Y-115995707D01*
X126768935Y-115995706D01*
X126774243Y-115994284D01*
X126780160Y-115991525D01*
X126976762Y-115899849D01*
X126976767Y-115899846D01*
X126981749Y-115897523D01*
X127096298Y-115817315D01*
X127164789Y-115769357D01*
X127164792Y-115769355D01*
X127169300Y-115766198D01*
X127331198Y-115604300D01*
X127340428Y-115591119D01*
X127403072Y-115501653D01*
X127462523Y-115416749D01*
X127464846Y-115411767D01*
X127464849Y-115411762D01*
X127556961Y-115214225D01*
X127556961Y-115214224D01*
X127559284Y-115209243D01*
X127560706Y-115203938D01*
X127560708Y-115203931D01*
X127571972Y-115161890D01*
X127608923Y-115101267D01*
X127672783Y-115070245D01*
X127693679Y-115068500D01*
X128340075Y-115068500D01*
X128408196Y-115088502D01*
X128429170Y-115105405D01*
X132543145Y-119219379D01*
X132552247Y-119229522D01*
X132571482Y-119253445D01*
X132575968Y-119259025D01*
X132587832Y-119268980D01*
X132627157Y-119328087D01*
X132628285Y-119399074D01*
X132590854Y-119459402D01*
X132526750Y-119489917D01*
X132506840Y-119491500D01*
X121981914Y-119491500D01*
X121913793Y-119471498D01*
X121867300Y-119417842D01*
X121857196Y-119347568D01*
X121886690Y-119282988D01*
X121922760Y-119254249D01*
X121969264Y-119229522D01*
X121991942Y-119217464D01*
X121999580Y-119211915D01*
X122215629Y-119054947D01*
X122215632Y-119054944D01*
X122219192Y-119052358D01*
X122247827Y-119024706D01*
X122347216Y-118928727D01*
X122421252Y-118857231D01*
X122594188Y-118635882D01*
X122596384Y-118632078D01*
X122596389Y-118632071D01*
X122732435Y-118396431D01*
X122734636Y-118392619D01*
X122839862Y-118132176D01*
X122866455Y-118025518D01*
X122906753Y-117863893D01*
X122906754Y-117863888D01*
X122907817Y-117859624D01*
X122908655Y-117851659D01*
X122936719Y-117584636D01*
X122936719Y-117584633D01*
X122937178Y-117580267D01*
X122936558Y-117562506D01*
X122927529Y-117303939D01*
X122927528Y-117303933D01*
X122927375Y-117299542D01*
X122903608Y-117164749D01*
X122892433Y-117101376D01*
X122878598Y-117022913D01*
X122791797Y-116755765D01*
X122787842Y-116747655D01*
X122676959Y-116520314D01*
X122668660Y-116503298D01*
X122666205Y-116499659D01*
X122666202Y-116499653D01*
X122539128Y-116311259D01*
X122511585Y-116270424D01*
X122323629Y-116061678D01*
X122108450Y-115881121D01*
X121870236Y-115732269D01*
X121690376Y-115652190D01*
X121617639Y-115619805D01*
X121617637Y-115619804D01*
X121613625Y-115618018D01*
X121343610Y-115540593D01*
X121339260Y-115539982D01*
X121339257Y-115539981D01*
X121236310Y-115525513D01*
X121065448Y-115501500D01*
X120354854Y-115501500D01*
X120352668Y-115501653D01*
X120352664Y-115501653D01*
X120149173Y-115515882D01*
X120149168Y-115515883D01*
X120144788Y-115516189D01*
X119870030Y-115574591D01*
X119865901Y-115576094D01*
X119865897Y-115576095D01*
X119610219Y-115669154D01*
X119610215Y-115669156D01*
X119606074Y-115670663D01*
X119358058Y-115802536D01*
X119354499Y-115805122D01*
X119354497Y-115805123D01*
X119148623Y-115954699D01*
X119130808Y-115967642D01*
X118928748Y-116162769D01*
X118755812Y-116384118D01*
X118753616Y-116387922D01*
X118753611Y-116387929D01*
X118677179Y-116520314D01*
X118615364Y-116627381D01*
X118510138Y-116887824D01*
X118509073Y-116892097D01*
X118509072Y-116892099D01*
X118446464Y-117143207D01*
X118442183Y-117160376D01*
X118441724Y-117164744D01*
X118441723Y-117164749D01*
X118413281Y-117435364D01*
X118412822Y-117439733D01*
X118412975Y-117444121D01*
X118412975Y-117444127D01*
X118420787Y-117667817D01*
X118422625Y-117720458D01*
X118423387Y-117724781D01*
X118423388Y-117724788D01*
X118446500Y-117855861D01*
X118471402Y-117997087D01*
X118558203Y-118264235D01*
X118681340Y-118516702D01*
X118683795Y-118520341D01*
X118683798Y-118520347D01*
X118756890Y-118628710D01*
X118838415Y-118749576D01*
X119026371Y-118958322D01*
X119029733Y-118961143D01*
X119029734Y-118961144D01*
X119042860Y-118972158D01*
X119241550Y-119138879D01*
X119245282Y-119141211D01*
X119433218Y-119258646D01*
X119480388Y-119311707D01*
X119491383Y-119381847D01*
X119462712Y-119446797D01*
X119403478Y-119485936D01*
X119366448Y-119491500D01*
X113134500Y-119491500D01*
X113066379Y-119471498D01*
X113019886Y-119417842D01*
X113008500Y-119365500D01*
X113008500Y-114326522D01*
X121542273Y-114326522D01*
X121589764Y-114503761D01*
X121593510Y-114514053D01*
X121685586Y-114711511D01*
X121691069Y-114721007D01*
X121816028Y-114899467D01*
X121823084Y-114907875D01*
X121977125Y-115061916D01*
X121985533Y-115068972D01*
X122163993Y-115193931D01*
X122173489Y-115199414D01*
X122370947Y-115291490D01*
X122381239Y-115295236D01*
X122591688Y-115351625D01*
X122602481Y-115353528D01*
X122765170Y-115367762D01*
X122770635Y-115368000D01*
X123252885Y-115368000D01*
X123268124Y-115363525D01*
X123269329Y-115362135D01*
X123271000Y-115354452D01*
X123271000Y-114332115D01*
X123266525Y-114316876D01*
X123265135Y-114315671D01*
X123257452Y-114314000D01*
X121557033Y-114314000D01*
X121543502Y-114317973D01*
X121542273Y-114326522D01*
X113008500Y-114326522D01*
X113008500Y-94503839D01*
X114087173Y-94503839D01*
X114087397Y-94508505D01*
X114087397Y-94508511D01*
X114092484Y-94614414D01*
X114099713Y-94764908D01*
X114150704Y-95021256D01*
X114239026Y-95267252D01*
X114245876Y-95280001D01*
X114305753Y-95391437D01*
X114362737Y-95497491D01*
X114365532Y-95501234D01*
X114365534Y-95501237D01*
X114516330Y-95703177D01*
X114516335Y-95703183D01*
X114519122Y-95706915D01*
X114522431Y-95710195D01*
X114522436Y-95710201D01*
X114695174Y-95881437D01*
X114704743Y-95890923D01*
X114708505Y-95893681D01*
X114708508Y-95893684D01*
X114835831Y-95987041D01*
X114915524Y-96045474D01*
X114919667Y-96047654D01*
X114919669Y-96047655D01*
X115142684Y-96164989D01*
X115142689Y-96164991D01*
X115146834Y-96167172D01*
X115393590Y-96253344D01*
X115398183Y-96254216D01*
X115645785Y-96301224D01*
X115645788Y-96301224D01*
X115650374Y-96302095D01*
X115780958Y-96307226D01*
X115906875Y-96312174D01*
X115906881Y-96312174D01*
X115911543Y-96312357D01*
X115990977Y-96303657D01*
X116166707Y-96284412D01*
X116166712Y-96284411D01*
X116171360Y-96283902D01*
X116284116Y-96254216D01*
X116419594Y-96218548D01*
X116419596Y-96218547D01*
X116424117Y-96217357D01*
X116664262Y-96114182D01*
X116886519Y-95976646D01*
X116890082Y-95973629D01*
X116890087Y-95973626D01*
X117082439Y-95810787D01*
X117082440Y-95810786D01*
X117086005Y-95807768D01*
X117177729Y-95703177D01*
X117255257Y-95614774D01*
X117255261Y-95614769D01*
X117258339Y-95611259D01*
X117399733Y-95391437D01*
X117507083Y-95153129D01*
X117523054Y-95096500D01*
X117576760Y-94906076D01*
X117576761Y-94906073D01*
X117578030Y-94901572D01*
X117594832Y-94769496D01*
X117610616Y-94645421D01*
X117610616Y-94645417D01*
X117611014Y-94642291D01*
X117611705Y-94615930D01*
X117613348Y-94553160D01*
X117613431Y-94550000D01*
X117610001Y-94503839D01*
X126787173Y-94503839D01*
X126787397Y-94508505D01*
X126787397Y-94508511D01*
X126792484Y-94614414D01*
X126799713Y-94764908D01*
X126850704Y-95021256D01*
X126939026Y-95267252D01*
X126945876Y-95280001D01*
X127005753Y-95391437D01*
X127062737Y-95497491D01*
X127065532Y-95501234D01*
X127065534Y-95501237D01*
X127216330Y-95703177D01*
X127216335Y-95703183D01*
X127219122Y-95706915D01*
X127222431Y-95710195D01*
X127222436Y-95710201D01*
X127395174Y-95881437D01*
X127404743Y-95890923D01*
X127408505Y-95893681D01*
X127408508Y-95893684D01*
X127535831Y-95987041D01*
X127615524Y-96045474D01*
X127619667Y-96047654D01*
X127619669Y-96047655D01*
X127842684Y-96164989D01*
X127842689Y-96164991D01*
X127846834Y-96167172D01*
X128093590Y-96253344D01*
X128098183Y-96254216D01*
X128345785Y-96301224D01*
X128345788Y-96301224D01*
X128350374Y-96302095D01*
X128480958Y-96307226D01*
X128606875Y-96312174D01*
X128606881Y-96312174D01*
X128611543Y-96312357D01*
X128690977Y-96303657D01*
X128866707Y-96284412D01*
X128866712Y-96284411D01*
X128871360Y-96283902D01*
X128984116Y-96254216D01*
X129119594Y-96218548D01*
X129119596Y-96218547D01*
X129124117Y-96217357D01*
X129364262Y-96114182D01*
X129586519Y-95976646D01*
X129590082Y-95973629D01*
X129590087Y-95973626D01*
X129782439Y-95810787D01*
X129782440Y-95810786D01*
X129786005Y-95807768D01*
X129877729Y-95703177D01*
X129955257Y-95614774D01*
X129955261Y-95614769D01*
X129958339Y-95611259D01*
X130099733Y-95391437D01*
X130207083Y-95153129D01*
X130223054Y-95096500D01*
X130276760Y-94906076D01*
X130276761Y-94906073D01*
X130278030Y-94901572D01*
X130294832Y-94769496D01*
X130310616Y-94645421D01*
X130310616Y-94645417D01*
X130311014Y-94642291D01*
X130311705Y-94615930D01*
X130313348Y-94553160D01*
X130313431Y-94550000D01*
X130303559Y-94417158D01*
X130294407Y-94294000D01*
X130294406Y-94293996D01*
X130294061Y-94289348D01*
X130286703Y-94256828D01*
X130237408Y-94038980D01*
X130236377Y-94034423D01*
X130188719Y-93911869D01*
X130143340Y-93795176D01*
X130143339Y-93795173D01*
X130141647Y-93790823D01*
X130011951Y-93563902D01*
X129850138Y-93358643D01*
X129659763Y-93179557D01*
X129445009Y-93030576D01*
X129440816Y-93028508D01*
X129214781Y-92917040D01*
X129214778Y-92917039D01*
X129210593Y-92914975D01*
X129164449Y-92900204D01*
X128966123Y-92836720D01*
X128961665Y-92835293D01*
X128703693Y-92793279D01*
X128589942Y-92791790D01*
X128447022Y-92789919D01*
X128447019Y-92789919D01*
X128442345Y-92789858D01*
X128183362Y-92825104D01*
X127932433Y-92898243D01*
X127928180Y-92900203D01*
X127928179Y-92900204D01*
X127891659Y-92917040D01*
X127695072Y-93007668D01*
X127656067Y-93033241D01*
X127480404Y-93148410D01*
X127480399Y-93148414D01*
X127476491Y-93150976D01*
X127281494Y-93325018D01*
X127114363Y-93525970D01*
X126978771Y-93749419D01*
X126877697Y-93990455D01*
X126813359Y-94243783D01*
X126812891Y-94248434D01*
X126812890Y-94248438D01*
X126812439Y-94252922D01*
X126787173Y-94503839D01*
X117610001Y-94503839D01*
X117603559Y-94417158D01*
X117594407Y-94294000D01*
X117594406Y-94293996D01*
X117594061Y-94289348D01*
X117586703Y-94256828D01*
X117537408Y-94038980D01*
X117536377Y-94034423D01*
X117488719Y-93911869D01*
X117443340Y-93795176D01*
X117443339Y-93795173D01*
X117441647Y-93790823D01*
X117311951Y-93563902D01*
X117150138Y-93358643D01*
X116959763Y-93179557D01*
X116745009Y-93030576D01*
X116740816Y-93028508D01*
X116514781Y-92917040D01*
X116514778Y-92917039D01*
X116510593Y-92914975D01*
X116464449Y-92900204D01*
X116266123Y-92836720D01*
X116261665Y-92835293D01*
X116003693Y-92793279D01*
X115889942Y-92791790D01*
X115747022Y-92789919D01*
X115747019Y-92789919D01*
X115742345Y-92789858D01*
X115483362Y-92825104D01*
X115232433Y-92898243D01*
X115228180Y-92900203D01*
X115228179Y-92900204D01*
X115191659Y-92917040D01*
X114995072Y-93007668D01*
X114956067Y-93033241D01*
X114780404Y-93148410D01*
X114780399Y-93148414D01*
X114776491Y-93150976D01*
X114581494Y-93325018D01*
X114414363Y-93525970D01*
X114278771Y-93749419D01*
X114177697Y-93990455D01*
X114113359Y-94243783D01*
X114112891Y-94248434D01*
X114112890Y-94248438D01*
X114112439Y-94252922D01*
X114087173Y-94503839D01*
X113008500Y-94503839D01*
X113008500Y-89698134D01*
X120541500Y-89698134D01*
X120548255Y-89760316D01*
X120599385Y-89896705D01*
X120686739Y-90013261D01*
X120803295Y-90100615D01*
X120939684Y-90151745D01*
X121001866Y-90158500D01*
X123598134Y-90158500D01*
X123660316Y-90151745D01*
X123796705Y-90100615D01*
X123913261Y-90013261D01*
X124000615Y-89896705D01*
X124051745Y-89760316D01*
X124058500Y-89698134D01*
X124058500Y-89534500D01*
X124078502Y-89466379D01*
X124132158Y-89419886D01*
X124184500Y-89408500D01*
X127622552Y-89408500D01*
X127690673Y-89428502D01*
X127737166Y-89482158D01*
X127747918Y-89547123D01*
X127747467Y-89551607D01*
X127737173Y-89653839D01*
X127737397Y-89658505D01*
X127737397Y-89658511D01*
X127739390Y-89700000D01*
X127749713Y-89914908D01*
X127800704Y-90171256D01*
X127889026Y-90417252D01*
X127891242Y-90421376D01*
X127955753Y-90541437D01*
X128012737Y-90647491D01*
X128015532Y-90651234D01*
X128015534Y-90651237D01*
X128166330Y-90853177D01*
X128166335Y-90853183D01*
X128169122Y-90856915D01*
X128172431Y-90860195D01*
X128172436Y-90860201D01*
X128347585Y-91033827D01*
X128354743Y-91040923D01*
X128358505Y-91043681D01*
X128358508Y-91043684D01*
X128487315Y-91138129D01*
X128565524Y-91195474D01*
X128569667Y-91197654D01*
X128569669Y-91197655D01*
X128792684Y-91314989D01*
X128792689Y-91314991D01*
X128796834Y-91317172D01*
X129043590Y-91403344D01*
X129048183Y-91404216D01*
X129295785Y-91451224D01*
X129295788Y-91451224D01*
X129300374Y-91452095D01*
X129430959Y-91457226D01*
X129556875Y-91462174D01*
X129556881Y-91462174D01*
X129561543Y-91462357D01*
X129640977Y-91453657D01*
X129816707Y-91434412D01*
X129816712Y-91434411D01*
X129821360Y-91433902D01*
X129934116Y-91404216D01*
X130069594Y-91368548D01*
X130069596Y-91368547D01*
X130074117Y-91367357D01*
X130314262Y-91264182D01*
X130536519Y-91126646D01*
X130540082Y-91123629D01*
X130540087Y-91123626D01*
X130732439Y-90960787D01*
X130732440Y-90960786D01*
X130736005Y-90957768D01*
X130756736Y-90934128D01*
X130905257Y-90764774D01*
X130905261Y-90764769D01*
X130908339Y-90761259D01*
X131049733Y-90541437D01*
X131157083Y-90303129D01*
X131186168Y-90200001D01*
X131226760Y-90056076D01*
X131226761Y-90056073D01*
X131228030Y-90051572D01*
X131244832Y-89919496D01*
X131260616Y-89795421D01*
X131260616Y-89795417D01*
X131261014Y-89792291D01*
X131261852Y-89760316D01*
X131262789Y-89724519D01*
X131263431Y-89700000D01*
X131258777Y-89637367D01*
X131244407Y-89444000D01*
X131244406Y-89443996D01*
X131244061Y-89439348D01*
X131241992Y-89430201D01*
X131187408Y-89188980D01*
X131186377Y-89184423D01*
X131184657Y-89180000D01*
X131093340Y-88945176D01*
X131093339Y-88945173D01*
X131091647Y-88940823D01*
X131055260Y-88877158D01*
X131027116Y-88827918D01*
X130961951Y-88713902D01*
X130800138Y-88508643D01*
X130609763Y-88329557D01*
X130395009Y-88180576D01*
X130390816Y-88178508D01*
X130164781Y-88067040D01*
X130164778Y-88067039D01*
X130160593Y-88064975D01*
X130005233Y-88015244D01*
X129916123Y-87986720D01*
X129911665Y-87985293D01*
X129653693Y-87943279D01*
X129539942Y-87941790D01*
X129397022Y-87939919D01*
X129397019Y-87939919D01*
X129392345Y-87939858D01*
X129255102Y-87958536D01*
X129184906Y-87947903D01*
X129149016Y-87922782D01*
X128956855Y-87730621D01*
X128947753Y-87720478D01*
X128927897Y-87695782D01*
X128924032Y-87690975D01*
X128885578Y-87658708D01*
X128881931Y-87655528D01*
X128880119Y-87653885D01*
X128877925Y-87651691D01*
X128844651Y-87624358D01*
X128843853Y-87623696D01*
X128772526Y-87563846D01*
X128767856Y-87561278D01*
X128763739Y-87557897D01*
X128681914Y-87514023D01*
X128680755Y-87513394D01*
X128604619Y-87471538D01*
X128604611Y-87471535D01*
X128599213Y-87468567D01*
X128594131Y-87466955D01*
X128589437Y-87464438D01*
X128500469Y-87437238D01*
X128499441Y-87436918D01*
X128410694Y-87408765D01*
X128405398Y-87408171D01*
X128400302Y-87406613D01*
X128307743Y-87397210D01*
X128306607Y-87397089D01*
X128272992Y-87393319D01*
X128260270Y-87391892D01*
X128260266Y-87391892D01*
X128256773Y-87391500D01*
X128253246Y-87391500D01*
X128252261Y-87391445D01*
X128246581Y-87390998D01*
X128217175Y-87388011D01*
X128209663Y-87387248D01*
X128209661Y-87387248D01*
X128203538Y-87386626D01*
X128161259Y-87390623D01*
X128157891Y-87390941D01*
X128146033Y-87391500D01*
X124184500Y-87391500D01*
X124116379Y-87371498D01*
X124069886Y-87317842D01*
X124058500Y-87265500D01*
X124058500Y-87101866D01*
X124051745Y-87039684D01*
X124000615Y-86903295D01*
X123913261Y-86786739D01*
X123796705Y-86699385D01*
X123660316Y-86648255D01*
X123598134Y-86641500D01*
X121001866Y-86641500D01*
X120939684Y-86648255D01*
X120803295Y-86699385D01*
X120686739Y-86786739D01*
X120599385Y-86903295D01*
X120548255Y-87039684D01*
X120541500Y-87101866D01*
X120541500Y-89698134D01*
X113008500Y-89698134D01*
X113008500Y-80753839D01*
X120537173Y-80753839D01*
X120537397Y-80758505D01*
X120537397Y-80758511D01*
X120542222Y-80858948D01*
X120549713Y-81014908D01*
X120600704Y-81271256D01*
X120689026Y-81517252D01*
X120691242Y-81521376D01*
X120808982Y-81740502D01*
X120812737Y-81747491D01*
X120815532Y-81751234D01*
X120815534Y-81751237D01*
X120966330Y-81953177D01*
X120966335Y-81953183D01*
X120969122Y-81956915D01*
X120972431Y-81960195D01*
X120972436Y-81960201D01*
X121105638Y-82092245D01*
X121154743Y-82140923D01*
X121158505Y-82143681D01*
X121158508Y-82143684D01*
X121361750Y-82292707D01*
X121365524Y-82295474D01*
X121369667Y-82297654D01*
X121369669Y-82297655D01*
X121592684Y-82414989D01*
X121592689Y-82414991D01*
X121596834Y-82417172D01*
X121701416Y-82453694D01*
X121790283Y-82484728D01*
X121843590Y-82503344D01*
X121848183Y-82504216D01*
X122095785Y-82551224D01*
X122095788Y-82551224D01*
X122100374Y-82552095D01*
X122230958Y-82557226D01*
X122356875Y-82562174D01*
X122356881Y-82562174D01*
X122361543Y-82562357D01*
X122440977Y-82553657D01*
X122616707Y-82534412D01*
X122616712Y-82534411D01*
X122621360Y-82533902D01*
X122734116Y-82504216D01*
X122869594Y-82468548D01*
X122869596Y-82468547D01*
X122874117Y-82467357D01*
X122905919Y-82453694D01*
X123046207Y-82393421D01*
X123114262Y-82364182D01*
X123148688Y-82342879D01*
X123332547Y-82229104D01*
X123332548Y-82229104D01*
X123336519Y-82226646D01*
X123340082Y-82223629D01*
X123340087Y-82223626D01*
X123532439Y-82060787D01*
X123532440Y-82060786D01*
X123536005Y-82057768D01*
X123708339Y-81861259D01*
X123710141Y-81858458D01*
X123766829Y-81816304D01*
X123810484Y-81808500D01*
X126370138Y-81808500D01*
X126383745Y-81809237D01*
X126415243Y-81812659D01*
X126415248Y-81812659D01*
X126421369Y-81813324D01*
X126447619Y-81811027D01*
X126471369Y-81808950D01*
X126476195Y-81808621D01*
X126478667Y-81808500D01*
X126481750Y-81808500D01*
X126493719Y-81807326D01*
X126524487Y-81804310D01*
X126525800Y-81804188D01*
X126570065Y-81800315D01*
X126618394Y-81796087D01*
X126623513Y-81794600D01*
X126628814Y-81794080D01*
X126717815Y-81767209D01*
X126718948Y-81766874D01*
X126802395Y-81742630D01*
X126802399Y-81742628D01*
X126808317Y-81740909D01*
X126813049Y-81738456D01*
X126818150Y-81736916D01*
X126823593Y-81734022D01*
X126900241Y-81693269D01*
X126901407Y-81692657D01*
X126978434Y-81652729D01*
X126983907Y-81649892D01*
X126988070Y-81646569D01*
X126992777Y-81644066D01*
X127064899Y-81585245D01*
X127065755Y-81584554D01*
X127104954Y-81553262D01*
X127107458Y-81550758D01*
X127108176Y-81550116D01*
X127112509Y-81546415D01*
X127146043Y-81519065D01*
X127175269Y-81483737D01*
X127183258Y-81474958D01*
X131819384Y-76838832D01*
X131829527Y-76829730D01*
X131854218Y-76809878D01*
X131859025Y-76806013D01*
X131891312Y-76767535D01*
X131894467Y-76763919D01*
X131896123Y-76762093D01*
X131898309Y-76759907D01*
X131900264Y-76757527D01*
X131900273Y-76757517D01*
X131925576Y-76726713D01*
X131926418Y-76725698D01*
X131978314Y-76663850D01*
X131986154Y-76654507D01*
X131988723Y-76649833D01*
X131992102Y-76645720D01*
X132035975Y-76563896D01*
X132036584Y-76562774D01*
X132078464Y-76486595D01*
X132078465Y-76486593D01*
X132081433Y-76481194D01*
X132083045Y-76476112D01*
X132085562Y-76471418D01*
X132112762Y-76382450D01*
X132113108Y-76381339D01*
X132119587Y-76360918D01*
X132141235Y-76292675D01*
X132141829Y-76287379D01*
X132143387Y-76282283D01*
X132152785Y-76189759D01*
X132152905Y-76188639D01*
X132158500Y-76138754D01*
X132158500Y-76135227D01*
X132158556Y-76134224D01*
X132159003Y-76128540D01*
X132161585Y-76103124D01*
X132162751Y-76091645D01*
X132162751Y-76091643D01*
X132163373Y-76085519D01*
X132159059Y-76039880D01*
X132158500Y-76028024D01*
X132158500Y-72061843D01*
X132159237Y-72048236D01*
X132162659Y-72016738D01*
X132162659Y-72016733D01*
X132163324Y-72010612D01*
X132158950Y-71960612D01*
X132158621Y-71955786D01*
X132158500Y-71953314D01*
X132158500Y-71950231D01*
X132157326Y-71938262D01*
X132154310Y-71907494D01*
X132154188Y-71906181D01*
X132149549Y-71853160D01*
X132146087Y-71813587D01*
X132144600Y-71808468D01*
X132144080Y-71803167D01*
X132117209Y-71714166D01*
X132116874Y-71713033D01*
X132092630Y-71629586D01*
X132092628Y-71629582D01*
X132090909Y-71623664D01*
X132088456Y-71618932D01*
X132086916Y-71613831D01*
X132081337Y-71603338D01*
X132043269Y-71531740D01*
X132042657Y-71530574D01*
X132002729Y-71453547D01*
X131999892Y-71448074D01*
X131996569Y-71443911D01*
X131994066Y-71439204D01*
X131935245Y-71367082D01*
X131934554Y-71366226D01*
X131903262Y-71327027D01*
X131900758Y-71324523D01*
X131900116Y-71323805D01*
X131896415Y-71319472D01*
X131869065Y-71285938D01*
X131859457Y-71277989D01*
X131833738Y-71256713D01*
X131824958Y-71248723D01*
X130427344Y-69851109D01*
X130393318Y-69788797D01*
X130391446Y-69746113D01*
X130410616Y-69595421D01*
X130410616Y-69595418D01*
X130411014Y-69592291D01*
X130411940Y-69556952D01*
X130413348Y-69503160D01*
X130413431Y-69500000D01*
X130409387Y-69445579D01*
X130394407Y-69244000D01*
X130394406Y-69243996D01*
X130394061Y-69239348D01*
X130391380Y-69227497D01*
X130338329Y-68993050D01*
X130336377Y-68984423D01*
X130296749Y-68882519D01*
X130243340Y-68745176D01*
X130243339Y-68745173D01*
X130241647Y-68740823D01*
X130111951Y-68513902D01*
X129950138Y-68308643D01*
X129759763Y-68129557D01*
X129545009Y-67980576D01*
X129540816Y-67978508D01*
X129314781Y-67867040D01*
X129314778Y-67867039D01*
X129310593Y-67864975D01*
X129264449Y-67850204D01*
X129066123Y-67786720D01*
X129061665Y-67785293D01*
X128803693Y-67743279D01*
X128689942Y-67741790D01*
X128547022Y-67739919D01*
X128547019Y-67739919D01*
X128542345Y-67739858D01*
X128283362Y-67775104D01*
X128032433Y-67848243D01*
X128028180Y-67850203D01*
X128028179Y-67850204D01*
X127991659Y-67867040D01*
X127795072Y-67957668D01*
X127756067Y-67983241D01*
X127580404Y-68098410D01*
X127580399Y-68098414D01*
X127576491Y-68100976D01*
X127572999Y-68104093D01*
X127397179Y-68261019D01*
X127381494Y-68275018D01*
X127214363Y-68475970D01*
X127211934Y-68479973D01*
X127086953Y-68685936D01*
X127078771Y-68699419D01*
X126977697Y-68940455D01*
X126913359Y-69193783D01*
X126912891Y-69198434D01*
X126912890Y-69198438D01*
X126908771Y-69239348D01*
X126887173Y-69453839D01*
X126887397Y-69458505D01*
X126887397Y-69458511D01*
X126889239Y-69496851D01*
X126899713Y-69714908D01*
X126950704Y-69971256D01*
X127039026Y-70217252D01*
X127051448Y-70240370D01*
X127147894Y-70419866D01*
X127162737Y-70447491D01*
X127165532Y-70451234D01*
X127165534Y-70451237D01*
X127316330Y-70653177D01*
X127316335Y-70653183D01*
X127319122Y-70656915D01*
X127322431Y-70660195D01*
X127322436Y-70660201D01*
X127486030Y-70822373D01*
X127504743Y-70840923D01*
X127508505Y-70843681D01*
X127508508Y-70843684D01*
X127655409Y-70951396D01*
X127715524Y-70995474D01*
X127719667Y-70997654D01*
X127719669Y-70997655D01*
X127942684Y-71114989D01*
X127942689Y-71114991D01*
X127946834Y-71117172D01*
X128086649Y-71165998D01*
X128162650Y-71192539D01*
X128193590Y-71203344D01*
X128198183Y-71204216D01*
X128445785Y-71251224D01*
X128445788Y-71251224D01*
X128450374Y-71252095D01*
X128580959Y-71257226D01*
X128706875Y-71262174D01*
X128706881Y-71262174D01*
X128711543Y-71262357D01*
X128898943Y-71241833D01*
X128968835Y-71254300D01*
X129001754Y-71277989D01*
X130104595Y-72380829D01*
X130138620Y-72443141D01*
X130141500Y-72469924D01*
X130141500Y-73630794D01*
X130121498Y-73698915D01*
X130067842Y-73745408D01*
X129997568Y-73755512D01*
X129943680Y-73734321D01*
X129798597Y-73633673D01*
X129790562Y-73628940D01*
X129564593Y-73517505D01*
X129555960Y-73514017D01*
X129316006Y-73437207D01*
X129306924Y-73435027D01*
X129171880Y-73413033D01*
X129158286Y-73414729D01*
X129154000Y-73428839D01*
X129154000Y-75278000D01*
X129133998Y-75346121D01*
X129080342Y-75392614D01*
X129028000Y-75404000D01*
X127176114Y-75404000D01*
X127163713Y-75407641D01*
X127161870Y-75423460D01*
X127200274Y-75616535D01*
X127202768Y-75625528D01*
X127287900Y-75862639D01*
X127291700Y-75871174D01*
X127410946Y-76093101D01*
X127415957Y-76100968D01*
X127566707Y-76302846D01*
X127572812Y-76309870D01*
X127751753Y-76487255D01*
X127758837Y-76493305D01*
X127962018Y-76642284D01*
X127969928Y-76647227D01*
X128192890Y-76764533D01*
X128201453Y-76768256D01*
X128439304Y-76851318D01*
X128448313Y-76853732D01*
X128637601Y-76889669D01*
X128700795Y-76922026D01*
X128736464Y-76983412D01*
X128733283Y-77054338D01*
X128703194Y-77102553D01*
X126051152Y-79754595D01*
X125988840Y-79788621D01*
X125962057Y-79791500D01*
X123805406Y-79791500D01*
X123737285Y-79771498D01*
X123706456Y-79743506D01*
X123603030Y-79612311D01*
X123603027Y-79612308D01*
X123600138Y-79608643D01*
X123409763Y-79429557D01*
X123249914Y-79318665D01*
X123198851Y-79283241D01*
X123198848Y-79283239D01*
X123195009Y-79280576D01*
X123190816Y-79278508D01*
X122964781Y-79167040D01*
X122964778Y-79167039D01*
X122960593Y-79164975D01*
X122948379Y-79161065D01*
X122716123Y-79086720D01*
X122711665Y-79085293D01*
X122453693Y-79043279D01*
X122339942Y-79041790D01*
X122197022Y-79039919D01*
X122197019Y-79039919D01*
X122192345Y-79039858D01*
X121933362Y-79075104D01*
X121682433Y-79148243D01*
X121678180Y-79150203D01*
X121678179Y-79150204D01*
X121641659Y-79167040D01*
X121445072Y-79257668D01*
X121406067Y-79283241D01*
X121230404Y-79398410D01*
X121230399Y-79398414D01*
X121226491Y-79400976D01*
X121031494Y-79575018D01*
X120864363Y-79775970D01*
X120861934Y-79779973D01*
X120763818Y-79941664D01*
X120728771Y-79999419D01*
X120627697Y-80240455D01*
X120563359Y-80493783D01*
X120562891Y-80498434D01*
X120562890Y-80498438D01*
X120560855Y-80518649D01*
X120537173Y-80753839D01*
X113008500Y-80753839D01*
X113008500Y-64334500D01*
X113028502Y-64266379D01*
X113082158Y-64219886D01*
X113134500Y-64208500D01*
X161065500Y-64208500D01*
X161133621Y-64228502D01*
G37*
%TD.AperFunction*%
%TA.AperFunction,Conductor*%
G36*
X134221322Y-107117702D02*
G01*
X134244749Y-107137127D01*
X134317332Y-107213881D01*
X134321358Y-107216959D01*
X134321359Y-107216960D01*
X134375907Y-107258665D01*
X134417875Y-107315930D01*
X134422220Y-107386793D01*
X134382703Y-107453275D01*
X134245142Y-107574550D01*
X134245139Y-107574553D01*
X134241345Y-107577898D01*
X134087266Y-107765478D01*
X134084724Y-107769846D01*
X133971597Y-107964217D01*
X133965159Y-107975278D01*
X133963346Y-107980001D01*
X133894304Y-108159864D01*
X133878167Y-108201902D01*
X133877133Y-108206852D01*
X133877132Y-108206855D01*
X133833369Y-108416340D01*
X133828526Y-108439520D01*
X133817514Y-108682017D01*
X133818095Y-108687037D01*
X133818095Y-108687041D01*
X133841464Y-108889006D01*
X133845415Y-108923156D01*
X133846791Y-108928020D01*
X133846792Y-108928023D01*
X133892476Y-109089466D01*
X133911510Y-109156732D01*
X133913644Y-109161308D01*
X133913646Y-109161314D01*
X134003741Y-109354524D01*
X134014099Y-109376736D01*
X134150544Y-109577507D01*
X134317332Y-109753881D01*
X134321358Y-109756959D01*
X134321359Y-109756960D01*
X134375907Y-109798665D01*
X134417875Y-109855930D01*
X134422220Y-109926793D01*
X134382703Y-109993275D01*
X134245142Y-110114550D01*
X134245139Y-110114553D01*
X134241345Y-110117898D01*
X134238135Y-110121806D01*
X134238134Y-110121807D01*
X134117231Y-110268998D01*
X134087266Y-110305478D01*
X134084724Y-110309846D01*
X133974140Y-110499848D01*
X133965159Y-110515278D01*
X133963346Y-110520001D01*
X133912085Y-110653543D01*
X133878167Y-110741902D01*
X133877133Y-110746852D01*
X133877132Y-110746855D01*
X133833899Y-110953802D01*
X133828526Y-110979520D01*
X133817514Y-111222017D01*
X133818095Y-111227037D01*
X133818095Y-111227041D01*
X133833923Y-111363831D01*
X133845415Y-111463156D01*
X133846791Y-111468020D01*
X133846792Y-111468023D01*
X133892476Y-111629466D01*
X133911510Y-111696732D01*
X133913644Y-111701308D01*
X133913646Y-111701314D01*
X134009359Y-111906572D01*
X134014099Y-111916736D01*
X134150544Y-112117507D01*
X134317332Y-112293881D01*
X134376315Y-112338977D01*
X134418281Y-112396239D01*
X134422626Y-112467103D01*
X134383109Y-112533585D01*
X134245500Y-112654903D01*
X134238496Y-112662156D01*
X134090890Y-112841854D01*
X134085134Y-112850136D01*
X133968159Y-113051119D01*
X133963797Y-113060224D01*
X133880463Y-113277315D01*
X133877612Y-113287004D01*
X133846179Y-113437464D01*
X133847302Y-113451525D01*
X133857410Y-113455200D01*
X135958000Y-113455200D01*
X136026121Y-113475202D01*
X136072614Y-113528858D01*
X136084000Y-113581200D01*
X136084000Y-116377200D01*
X136063998Y-116445321D01*
X136010342Y-116491814D01*
X135958000Y-116503200D01*
X133859410Y-116503200D01*
X133845324Y-116507336D01*
X133843275Y-116520314D01*
X133845325Y-116538030D01*
X133847285Y-116547927D01*
X133910604Y-116771694D01*
X133914116Y-116781138D01*
X134012399Y-116991905D01*
X134017378Y-117000671D01*
X134148087Y-117193002D01*
X134154419Y-117200877D01*
X134275510Y-117328927D01*
X134307782Y-117392165D01*
X134300742Y-117462811D01*
X134256625Y-117518437D01*
X134183962Y-117541500D01*
X133769925Y-117541500D01*
X133701804Y-117521498D01*
X133680830Y-117504595D01*
X130156548Y-113980314D01*
X133843275Y-113980314D01*
X133845325Y-113998030D01*
X133847285Y-114007927D01*
X133910604Y-114231694D01*
X133914116Y-114241138D01*
X134012399Y-114451905D01*
X134017378Y-114460671D01*
X134148087Y-114653002D01*
X134154419Y-114660877D01*
X134314186Y-114829826D01*
X134321689Y-114836582D01*
X134376696Y-114878638D01*
X134418663Y-114935903D01*
X134423008Y-115006767D01*
X134383491Y-115073248D01*
X134245500Y-115194903D01*
X134238496Y-115202156D01*
X134090890Y-115381854D01*
X134085134Y-115390136D01*
X133968159Y-115591119D01*
X133963797Y-115600224D01*
X133880463Y-115817315D01*
X133877612Y-115827004D01*
X133846179Y-115977464D01*
X133847302Y-115991525D01*
X133857410Y-115995200D01*
X135557885Y-115995200D01*
X135573124Y-115990725D01*
X135574329Y-115989335D01*
X135576000Y-115981652D01*
X135576000Y-113981315D01*
X135571525Y-113966076D01*
X135570135Y-113964871D01*
X135562452Y-113963200D01*
X133859410Y-113963200D01*
X133845324Y-113967336D01*
X133843275Y-113980314D01*
X130156548Y-113980314D01*
X129566855Y-113390621D01*
X129557753Y-113380478D01*
X129537897Y-113355782D01*
X129534032Y-113350975D01*
X129495578Y-113318708D01*
X129491931Y-113315528D01*
X129490119Y-113313885D01*
X129487925Y-113311691D01*
X129454651Y-113284358D01*
X129453853Y-113283696D01*
X129382526Y-113223846D01*
X129377856Y-113221278D01*
X129373739Y-113217897D01*
X129291914Y-113174023D01*
X129290755Y-113173394D01*
X129214619Y-113131538D01*
X129214611Y-113131535D01*
X129209213Y-113128567D01*
X129204131Y-113126955D01*
X129199437Y-113124438D01*
X129110469Y-113097238D01*
X129109441Y-113096918D01*
X129020694Y-113068765D01*
X129015398Y-113068171D01*
X129010302Y-113066613D01*
X128917743Y-113057210D01*
X128916607Y-113057089D01*
X128882992Y-113053319D01*
X128870270Y-113051892D01*
X128870266Y-113051892D01*
X128866773Y-113051500D01*
X128863246Y-113051500D01*
X128862261Y-113051445D01*
X128856581Y-113050998D01*
X128827175Y-113048011D01*
X128819663Y-113047248D01*
X128819661Y-113047248D01*
X128813538Y-113046626D01*
X128771259Y-113050623D01*
X128767891Y-113050941D01*
X128756033Y-113051500D01*
X127693679Y-113051500D01*
X127625558Y-113031498D01*
X127579065Y-112977842D01*
X127571972Y-112958110D01*
X127560708Y-112916069D01*
X127560706Y-112916062D01*
X127559284Y-112910757D01*
X127555975Y-112903660D01*
X127464849Y-112708238D01*
X127464846Y-112708233D01*
X127462523Y-112703251D01*
X127382225Y-112588574D01*
X127334357Y-112520211D01*
X127334355Y-112520208D01*
X127331198Y-112515700D01*
X127169300Y-112353802D01*
X127164792Y-112350645D01*
X127164789Y-112350643D01*
X126993211Y-112230503D01*
X126981749Y-112222477D01*
X126976767Y-112220154D01*
X126976762Y-112220151D01*
X126779225Y-112128039D01*
X126779224Y-112128039D01*
X126774243Y-112125716D01*
X126768935Y-112124294D01*
X126768933Y-112124293D01*
X126558402Y-112067881D01*
X126558400Y-112067881D01*
X126553087Y-112066457D01*
X126547611Y-112065978D01*
X126547606Y-112065977D01*
X126506178Y-112062353D01*
X126488721Y-112060826D01*
X126422604Y-112034963D01*
X126380964Y-111977459D01*
X126377023Y-111906572D01*
X126410608Y-111846210D01*
X131122213Y-107134605D01*
X131184525Y-107100579D01*
X131211308Y-107097700D01*
X134153201Y-107097700D01*
X134221322Y-107117702D01*
G37*
%TD.AperFunction*%
%TD*%
M02*
