%TF.GenerationSoftware,KiCad,Pcbnew,6.0.11-2627ca5db0~126~ubuntu22.04.1*%
%TF.CreationDate,2026-06-12T10:04:33-03:00*%
%TF.ProjectId,Adaptador_8p_525p,41646170-7461-4646-9f72-5f38705f3532,rev?*%
%TF.SameCoordinates,Original*%
%TF.FileFunction,Copper,L2,Bot*%
%TF.FilePolarity,Positive*%
%FSLAX46Y46*%
G04 Gerber Fmt 4.6, Leading zero omitted, Abs format (unit mm)*
G04 Created by KiCad (PCBNEW 6.0.11-2627ca5db0~126~ubuntu22.04.1) date 2026-06-12 10:04:33*
%MOMM*%
%LPD*%
G01*
G04 APERTURE LIST*
%TA.AperFunction,Profile*%
%ADD10C,0.100000*%
%TD*%
%TA.AperFunction,ConnectorPad*%
%ADD11R,1.780000X7.620000*%
%TD*%
%TA.AperFunction,ComponentPad*%
%ADD12O,2.500000X2.500000*%
%TD*%
%TA.AperFunction,Conductor*%
%ADD13C,1.000000*%
%TD*%
G04 APERTURE END LIST*
D10*
X177740000Y-128970000D02*
X177740000Y-120120000D01*
X131540000Y-128970000D02*
X177740000Y-128970000D01*
X177740000Y-120120000D02*
X187990000Y-110120000D01*
X121540000Y-90250000D02*
X121540000Y-110320000D01*
X187990000Y-90250000D02*
X121540000Y-90250000D01*
X187990000Y-110120000D02*
X187990000Y-90250000D01*
X121540000Y-110320000D02*
X131540000Y-120320000D01*
X131540000Y-120320000D02*
X131540000Y-128970000D01*
D11*
%TO.P,J2,1,Pin_1*%
%TO.N,GND*%
X134305000Y-124905000D03*
%TO.P,J2,3,Pin_3*%
X136845000Y-124905000D03*
%TO.P,J2,5,Pin_5*%
X139385000Y-124905000D03*
%TO.P,J2,7,Pin_7*%
X141925000Y-124905000D03*
%TO.P,J2,9,Pin_9*%
X144465000Y-124905000D03*
%TO.P,J2,11,Pin_11*%
X147005000Y-124905000D03*
%TO.P,J2,13,Pin_13*%
X149545000Y-124905000D03*
%TO.P,J2,15,Pin_15*%
X152085000Y-124905000D03*
%TO.P,J2,17,Pin_17*%
X154625000Y-124905000D03*
%TO.P,J2,19,Pin_19*%
X157165000Y-124905000D03*
%TO.P,J2,21,Pin_21*%
X159705000Y-124905000D03*
%TO.P,J2,23,Pin_23*%
X162245000Y-124905000D03*
%TO.P,J2,25,Pin_25*%
X164785000Y-124905000D03*
%TO.P,J2,27,Pin_27*%
X167325000Y-124905000D03*
%TO.P,J2,29,Pin_29*%
X169865000Y-124905000D03*
%TO.P,J2,31,Pin_31*%
X172405000Y-124905000D03*
%TO.P,J2,33,Pin_33*%
X174945000Y-124905000D03*
%TD*%
%TO.P,J1,1,Pin_1*%
%TO.N,GND*%
X124280000Y-95620000D03*
%TO.P,J1,3,Pin_3*%
X126820000Y-95620000D03*
%TO.P,J1,5,Pin_5*%
X129360000Y-95620000D03*
%TO.P,J1,7,Pin_7*%
X131900000Y-95620000D03*
%TO.P,J1,9,Pin_9*%
X134440000Y-95620000D03*
%TO.P,J1,11,Pin_11*%
X136980000Y-95620000D03*
%TO.P,J1,13,Pin_13*%
X139520000Y-95620000D03*
%TO.P,J1,15,Pin_15*%
X142060000Y-95620000D03*
%TO.P,J1,17,Pin_17*%
X144600000Y-95620000D03*
%TO.P,J1,19,Pin_19*%
X147140000Y-95620000D03*
%TO.P,J1,21,Pin_21*%
X149680000Y-95620000D03*
%TO.P,J1,23,Pin_23*%
X152220000Y-95620000D03*
%TO.P,J1,25,Pin_25*%
X154760000Y-95620000D03*
%TO.P,J1,27,Pin_27*%
X157300000Y-95620000D03*
%TO.P,J1,29,Pin_29*%
X159840000Y-95620000D03*
%TO.P,J1,31,Pin_31*%
X162380000Y-95620000D03*
%TO.P,J1,33,Pin_33*%
X164920000Y-95620000D03*
%TO.P,J1,35,Pin_35*%
X167460000Y-95620000D03*
%TO.P,J1,37,Pin_37*%
X170000000Y-95620000D03*
%TO.P,J1,39,Pin_39*%
X172540000Y-95620000D03*
%TO.P,J1,41,Pin_41*%
X175080000Y-95620000D03*
%TO.P,J1,43,Pin_43*%
X177620000Y-95620000D03*
%TO.P,J1,45,Pin_45*%
X180160000Y-95620000D03*
%TO.P,J1,47,Pin_47*%
X182700000Y-95620000D03*
%TO.P,J1,49,Pin_49*%
X185240000Y-95620000D03*
%TD*%
D12*
%TO.P,,1*%
%TO.N,/Motor On*%
X153800000Y-109350000D03*
%TD*%
%TO.P,,1*%
%TO.N,GND*%
X182950000Y-104550000D03*
%TD*%
%TO.P,,1*%
%TO.N,/Motor On*%
X144300000Y-109600000D03*
%TD*%
%TO.P,,1*%
%TO.N,/Side1 Select*%
X140550000Y-109600000D03*
%TD*%
%TO.P,,1*%
%TO.N,/Ready*%
X136750000Y-109550000D03*
%TD*%
%TO.P,,1*%
%TO.N,/Side1 Select*%
X174400000Y-115850000D03*
%TD*%
%TO.P,,1*%
%TO.N,/Ready*%
X177650000Y-114400000D03*
%TD*%
%TO.P,,1*%
%TO.N,GND*%
X125150000Y-104450000D03*
%TD*%
D13*
%TO.N,/Motor On*%
X153800000Y-109350000D02*
X144550000Y-109350000D01*
X144550000Y-109350000D02*
X144300000Y-109600000D01*
%TO.N,/Ready*%
X168770000Y-105520000D02*
X141180000Y-105520000D01*
X136750000Y-109550000D02*
X140780000Y-105520000D01*
X140780000Y-105520000D02*
X141180000Y-105520000D01*
%TO.N,/Side1 Select*%
X174400000Y-115850000D02*
X165570000Y-107020000D01*
X143130000Y-107020000D02*
X140550000Y-109600000D01*
X165570000Y-107020000D02*
X143130000Y-107020000D01*
%TO.N,/Ready*%
X177650000Y-114400000D02*
X168770000Y-105520000D01*
%TO.N,GND*%
X157300000Y-99880000D02*
X159040000Y-101620000D01*
X169865000Y-119995000D02*
X168640000Y-118770000D01*
X183890000Y-101620000D02*
X185240000Y-100270000D01*
X185240000Y-110920000D02*
X185240000Y-100270000D01*
X147140000Y-95620000D02*
X147140000Y-99870000D01*
X167325000Y-124905000D02*
X167325000Y-120005000D01*
X146890000Y-101620000D02*
X148890000Y-101620000D01*
X177620000Y-100100000D02*
X179140000Y-101620000D01*
X149545000Y-124905000D02*
X149545000Y-120125000D01*
X129360000Y-99790000D02*
X131190000Y-101620000D01*
X157165000Y-120595000D02*
X155340000Y-118770000D01*
X157165000Y-124905000D02*
X157165000Y-120595000D01*
X162380000Y-95620000D02*
X162380000Y-99860000D01*
X154760000Y-99540000D02*
X156840000Y-101620000D01*
X134440000Y-101620000D02*
X136090000Y-101620000D01*
X135090000Y-118770000D02*
X135440000Y-118770000D01*
X131740000Y-101620000D02*
X133290000Y-101620000D01*
X134440000Y-99970000D02*
X136090000Y-101620000D01*
X185240000Y-100270000D02*
X185240000Y-95620000D01*
X164920000Y-95620000D02*
X164920000Y-99700000D01*
X135440000Y-118770000D02*
X138290000Y-118770000D01*
X140540000Y-118770000D02*
X142990000Y-118770000D01*
X128940000Y-101620000D02*
X131190000Y-101620000D01*
X173690000Y-118770000D02*
X174945000Y-120025000D01*
X164140000Y-101620000D02*
X166840000Y-101620000D01*
X168640000Y-118770000D02*
X170890000Y-118770000D01*
X182700000Y-100930000D02*
X183390000Y-101620000D01*
X153240000Y-118770000D02*
X155340000Y-118770000D01*
X159840000Y-100120000D02*
X161340000Y-101620000D01*
X183390000Y-101620000D02*
X183890000Y-101620000D01*
X150790000Y-118770000D02*
X153240000Y-118770000D01*
X138290000Y-118770000D02*
X140540000Y-118770000D01*
X131190000Y-101620000D02*
X131740000Y-101620000D01*
X182700000Y-95620000D02*
X182700000Y-100930000D01*
X160940000Y-118770000D02*
X163740000Y-118770000D01*
X162245000Y-120075000D02*
X160940000Y-118770000D01*
X159705000Y-120185000D02*
X158290000Y-118770000D01*
X177620000Y-95620000D02*
X177620000Y-100100000D01*
X134440000Y-95620000D02*
X134440000Y-99970000D01*
X125790000Y-101620000D02*
X128940000Y-101620000D01*
X131900000Y-95620000D02*
X131900000Y-100230000D01*
X139385000Y-119865000D02*
X138290000Y-118770000D01*
X147140000Y-99870000D02*
X148890000Y-101620000D01*
X142990000Y-118770000D02*
X145390000Y-118770000D01*
X136845000Y-120175000D02*
X135440000Y-118770000D01*
X154625000Y-124905000D02*
X154625000Y-120155000D01*
X149545000Y-120125000D02*
X148190000Y-118770000D01*
X124280000Y-100110000D02*
X125790000Y-101620000D01*
X139520000Y-95620000D02*
X139520000Y-99700000D01*
X151140000Y-101620000D02*
X154090000Y-101620000D01*
X169865000Y-124905000D02*
X169865000Y-119995000D01*
X180160000Y-100440000D02*
X181340000Y-101620000D01*
X163740000Y-118770000D02*
X166090000Y-118770000D01*
X155340000Y-118770000D02*
X158290000Y-118770000D01*
X170000000Y-99680000D02*
X171940000Y-101620000D01*
X144465000Y-124905000D02*
X144465000Y-120245000D01*
X144600000Y-95620000D02*
X144600000Y-99330000D01*
X170890000Y-118770000D02*
X172890000Y-118770000D01*
X181340000Y-101620000D02*
X183390000Y-101620000D01*
X159840000Y-95620000D02*
X159840000Y-100120000D01*
X154625000Y-120155000D02*
X153240000Y-118770000D01*
X139520000Y-99700000D02*
X141440000Y-101620000D01*
X154760000Y-95620000D02*
X154760000Y-99540000D01*
X167325000Y-120005000D02*
X166090000Y-118770000D01*
X149680000Y-100160000D02*
X151140000Y-101620000D01*
X131900000Y-100230000D02*
X133290000Y-101620000D01*
X154090000Y-101620000D02*
X156840000Y-101620000D01*
X164785000Y-119815000D02*
X163740000Y-118770000D01*
X172890000Y-118770000D02*
X177390000Y-118770000D01*
X166840000Y-101620000D02*
X169490000Y-101620000D01*
X144600000Y-99330000D02*
X146890000Y-101620000D01*
X172405000Y-120285000D02*
X170890000Y-118770000D01*
X162245000Y-124905000D02*
X162245000Y-120075000D01*
X134305000Y-124905000D02*
X134305000Y-119555000D01*
X139385000Y-124905000D02*
X139385000Y-119865000D01*
X162380000Y-99860000D02*
X164140000Y-101620000D01*
X142060000Y-95620000D02*
X142060000Y-99390000D01*
X148890000Y-101620000D02*
X151140000Y-101620000D01*
X159040000Y-101620000D02*
X161340000Y-101620000D01*
X133290000Y-101620000D02*
X134440000Y-101620000D01*
X147005000Y-124905000D02*
X147005000Y-120385000D01*
X136980000Y-95620000D02*
X136980000Y-99810000D01*
X142060000Y-99390000D02*
X144290000Y-101620000D01*
X138790000Y-101620000D02*
X141440000Y-101620000D01*
X158290000Y-118770000D02*
X160940000Y-118770000D01*
X145390000Y-118770000D02*
X148190000Y-118770000D01*
X136845000Y-124905000D02*
X136845000Y-120175000D01*
X166090000Y-118770000D02*
X168640000Y-118770000D01*
X152085000Y-124905000D02*
X152085000Y-120065000D01*
X175080000Y-95620000D02*
X175080000Y-99860000D01*
X129360000Y-95620000D02*
X129360000Y-99790000D01*
X156840000Y-101620000D02*
X159040000Y-101620000D01*
X174490000Y-101620000D02*
X176840000Y-101620000D01*
X136980000Y-99810000D02*
X138790000Y-101620000D01*
X176840000Y-101620000D02*
X179140000Y-101620000D01*
X137740000Y-101620000D02*
X138790000Y-101620000D01*
X141440000Y-101620000D02*
X144290000Y-101620000D01*
X164785000Y-124905000D02*
X164785000Y-119815000D01*
X148190000Y-118770000D02*
X150790000Y-118770000D01*
X134305000Y-119555000D02*
X135090000Y-118770000D01*
X152085000Y-120065000D02*
X150790000Y-118770000D01*
X167460000Y-95620000D02*
X167460000Y-99590000D01*
X164920000Y-99700000D02*
X166840000Y-101620000D01*
X126820000Y-95620000D02*
X126820000Y-99500000D01*
X157300000Y-95620000D02*
X157300000Y-99880000D01*
X144465000Y-120245000D02*
X142990000Y-118770000D01*
X167460000Y-99590000D02*
X169490000Y-101620000D01*
X169490000Y-101620000D02*
X171940000Y-101620000D01*
X170000000Y-95620000D02*
X170000000Y-99680000D01*
X175080000Y-99860000D02*
X176840000Y-101620000D01*
X136090000Y-101620000D02*
X137740000Y-101620000D01*
X161340000Y-101620000D02*
X164140000Y-101620000D01*
X179140000Y-101620000D02*
X181340000Y-101620000D01*
X172540000Y-99670000D02*
X174490000Y-101620000D01*
X177390000Y-118770000D02*
X185240000Y-110920000D01*
X152220000Y-99750000D02*
X154090000Y-101620000D01*
X172540000Y-95620000D02*
X172540000Y-99670000D01*
X180160000Y-95620000D02*
X180160000Y-100440000D01*
X174945000Y-120025000D02*
X174945000Y-124905000D01*
X141925000Y-120155000D02*
X140540000Y-118770000D01*
X171940000Y-101620000D02*
X174490000Y-101620000D01*
X147005000Y-120385000D02*
X145390000Y-118770000D01*
X141925000Y-124905000D02*
X141925000Y-120155000D01*
X149680000Y-95620000D02*
X149680000Y-100160000D01*
X159705000Y-124905000D02*
X159705000Y-120185000D01*
X124280000Y-95620000D02*
X124280000Y-100110000D01*
X144290000Y-101620000D02*
X146890000Y-101620000D01*
X172890000Y-118770000D02*
X173690000Y-118770000D01*
X126820000Y-99500000D02*
X128940000Y-101620000D01*
X172405000Y-124905000D02*
X172405000Y-120285000D01*
X152220000Y-95620000D02*
X152220000Y-99750000D01*
%TD*%
%TA.AperFunction,Conductor*%
%TO.N,GND*%
G36*
X122824122Y-98890002D02*
G01*
X122870615Y-98943658D01*
X122882001Y-98996000D01*
X122882001Y-99474669D01*
X122882371Y-99481490D01*
X122887895Y-99532352D01*
X122891521Y-99547604D01*
X122936676Y-99668054D01*
X122945214Y-99683649D01*
X123021715Y-99785724D01*
X123034276Y-99798285D01*
X123136351Y-99874786D01*
X123151946Y-99883324D01*
X123272394Y-99928478D01*
X123287649Y-99932105D01*
X123338514Y-99937631D01*
X123345328Y-99938000D01*
X124007885Y-99938000D01*
X124023124Y-99933525D01*
X124024329Y-99932135D01*
X124026000Y-99924452D01*
X124026000Y-98870000D01*
X124534000Y-98870000D01*
X124534000Y-99919884D01*
X124538475Y-99935123D01*
X124539865Y-99936328D01*
X124547548Y-99937999D01*
X125214669Y-99937999D01*
X125221490Y-99937629D01*
X125272352Y-99932105D01*
X125287604Y-99928479D01*
X125408054Y-99883324D01*
X125423649Y-99874786D01*
X125474435Y-99836724D01*
X125540942Y-99811876D01*
X125610324Y-99826929D01*
X125625565Y-99836724D01*
X125676351Y-99874786D01*
X125691946Y-99883324D01*
X125812394Y-99928478D01*
X125827649Y-99932105D01*
X125878514Y-99937631D01*
X125885328Y-99938000D01*
X126547885Y-99938000D01*
X126563124Y-99933525D01*
X126564329Y-99932135D01*
X126566000Y-99924452D01*
X126566000Y-98870000D01*
X127074000Y-98870000D01*
X127074000Y-99919884D01*
X127078475Y-99935123D01*
X127079865Y-99936328D01*
X127087548Y-99937999D01*
X127754669Y-99937999D01*
X127761490Y-99937629D01*
X127812352Y-99932105D01*
X127827604Y-99928479D01*
X127948054Y-99883324D01*
X127963649Y-99874786D01*
X128014435Y-99836724D01*
X128080942Y-99811876D01*
X128150324Y-99826929D01*
X128165565Y-99836724D01*
X128216351Y-99874786D01*
X128231946Y-99883324D01*
X128352394Y-99928478D01*
X128367649Y-99932105D01*
X128418514Y-99937631D01*
X128425328Y-99938000D01*
X129087885Y-99938000D01*
X129103124Y-99933525D01*
X129104329Y-99932135D01*
X129106000Y-99924452D01*
X129106000Y-98870000D01*
X129614000Y-98870000D01*
X129614000Y-99919884D01*
X129618475Y-99935123D01*
X129619865Y-99936328D01*
X129627548Y-99937999D01*
X130294669Y-99937999D01*
X130301490Y-99937629D01*
X130352352Y-99932105D01*
X130367604Y-99928479D01*
X130488054Y-99883324D01*
X130503649Y-99874786D01*
X130554435Y-99836724D01*
X130620942Y-99811876D01*
X130690324Y-99826929D01*
X130705565Y-99836724D01*
X130756351Y-99874786D01*
X130771946Y-99883324D01*
X130892394Y-99928478D01*
X130907649Y-99932105D01*
X130958514Y-99937631D01*
X130965328Y-99938000D01*
X131627885Y-99938000D01*
X131643124Y-99933525D01*
X131644329Y-99932135D01*
X131646000Y-99924452D01*
X131646000Y-98870000D01*
X132154000Y-98870000D01*
X132154000Y-99919884D01*
X132158475Y-99935123D01*
X132159865Y-99936328D01*
X132167548Y-99937999D01*
X132834669Y-99937999D01*
X132841490Y-99937629D01*
X132892352Y-99932105D01*
X132907604Y-99928479D01*
X133028054Y-99883324D01*
X133043649Y-99874786D01*
X133094435Y-99836724D01*
X133160942Y-99811876D01*
X133230324Y-99826929D01*
X133245565Y-99836724D01*
X133296351Y-99874786D01*
X133311946Y-99883324D01*
X133432394Y-99928478D01*
X133447649Y-99932105D01*
X133498514Y-99937631D01*
X133505328Y-99938000D01*
X134167885Y-99938000D01*
X134183124Y-99933525D01*
X134184329Y-99932135D01*
X134186000Y-99924452D01*
X134186000Y-98870000D01*
X134694000Y-98870000D01*
X134694000Y-99919884D01*
X134698475Y-99935123D01*
X134699865Y-99936328D01*
X134707548Y-99937999D01*
X135374669Y-99937999D01*
X135381490Y-99937629D01*
X135432352Y-99932105D01*
X135447604Y-99928479D01*
X135568054Y-99883324D01*
X135583649Y-99874786D01*
X135634435Y-99836724D01*
X135700942Y-99811876D01*
X135770324Y-99826929D01*
X135785565Y-99836724D01*
X135836351Y-99874786D01*
X135851946Y-99883324D01*
X135972394Y-99928478D01*
X135987649Y-99932105D01*
X136038514Y-99937631D01*
X136045328Y-99938000D01*
X136707885Y-99938000D01*
X136723124Y-99933525D01*
X136724329Y-99932135D01*
X136726000Y-99924452D01*
X136726000Y-98870000D01*
X137234000Y-98870000D01*
X137234000Y-99919884D01*
X137238475Y-99935123D01*
X137239865Y-99936328D01*
X137247548Y-99937999D01*
X137914669Y-99937999D01*
X137921490Y-99937629D01*
X137972352Y-99932105D01*
X137987604Y-99928479D01*
X138108054Y-99883324D01*
X138123649Y-99874786D01*
X138174435Y-99836724D01*
X138240942Y-99811876D01*
X138310324Y-99826929D01*
X138325565Y-99836724D01*
X138376351Y-99874786D01*
X138391946Y-99883324D01*
X138512394Y-99928478D01*
X138527649Y-99932105D01*
X138578514Y-99937631D01*
X138585328Y-99938000D01*
X139247885Y-99938000D01*
X139263124Y-99933525D01*
X139264329Y-99932135D01*
X139266000Y-99924452D01*
X139266000Y-98870000D01*
X139774000Y-98870000D01*
X139774000Y-99919884D01*
X139778475Y-99935123D01*
X139779865Y-99936328D01*
X139787548Y-99937999D01*
X140454669Y-99937999D01*
X140461490Y-99937629D01*
X140512352Y-99932105D01*
X140527604Y-99928479D01*
X140648054Y-99883324D01*
X140663649Y-99874786D01*
X140714435Y-99836724D01*
X140780942Y-99811876D01*
X140850324Y-99826929D01*
X140865565Y-99836724D01*
X140916351Y-99874786D01*
X140931946Y-99883324D01*
X141052394Y-99928478D01*
X141067649Y-99932105D01*
X141118514Y-99937631D01*
X141125328Y-99938000D01*
X141787885Y-99938000D01*
X141803124Y-99933525D01*
X141804329Y-99932135D01*
X141806000Y-99924452D01*
X141806000Y-98870000D01*
X142314000Y-98870000D01*
X142314000Y-99919884D01*
X142318475Y-99935123D01*
X142319865Y-99936328D01*
X142327548Y-99937999D01*
X142994669Y-99937999D01*
X143001490Y-99937629D01*
X143052352Y-99932105D01*
X143067604Y-99928479D01*
X143188054Y-99883324D01*
X143203649Y-99874786D01*
X143254435Y-99836724D01*
X143320942Y-99811876D01*
X143390324Y-99826929D01*
X143405565Y-99836724D01*
X143456351Y-99874786D01*
X143471946Y-99883324D01*
X143592394Y-99928478D01*
X143607649Y-99932105D01*
X143658514Y-99937631D01*
X143665328Y-99938000D01*
X144327885Y-99938000D01*
X144343124Y-99933525D01*
X144344329Y-99932135D01*
X144346000Y-99924452D01*
X144346000Y-98870000D01*
X144854000Y-98870000D01*
X144854000Y-99919884D01*
X144858475Y-99935123D01*
X144859865Y-99936328D01*
X144867548Y-99937999D01*
X145534669Y-99937999D01*
X145541490Y-99937629D01*
X145592352Y-99932105D01*
X145607604Y-99928479D01*
X145728054Y-99883324D01*
X145743649Y-99874786D01*
X145794435Y-99836724D01*
X145860942Y-99811876D01*
X145930324Y-99826929D01*
X145945565Y-99836724D01*
X145996351Y-99874786D01*
X146011946Y-99883324D01*
X146132394Y-99928478D01*
X146147649Y-99932105D01*
X146198514Y-99937631D01*
X146205328Y-99938000D01*
X146867885Y-99938000D01*
X146883124Y-99933525D01*
X146884329Y-99932135D01*
X146886000Y-99924452D01*
X146886000Y-98870000D01*
X147394000Y-98870000D01*
X147394000Y-99919884D01*
X147398475Y-99935123D01*
X147399865Y-99936328D01*
X147407548Y-99937999D01*
X148074669Y-99937999D01*
X148081490Y-99937629D01*
X148132352Y-99932105D01*
X148147604Y-99928479D01*
X148268054Y-99883324D01*
X148283649Y-99874786D01*
X148334435Y-99836724D01*
X148400942Y-99811876D01*
X148470324Y-99826929D01*
X148485565Y-99836724D01*
X148536351Y-99874786D01*
X148551946Y-99883324D01*
X148672394Y-99928478D01*
X148687649Y-99932105D01*
X148738514Y-99937631D01*
X148745328Y-99938000D01*
X149407885Y-99938000D01*
X149423124Y-99933525D01*
X149424329Y-99932135D01*
X149426000Y-99924452D01*
X149426000Y-98870000D01*
X149934000Y-98870000D01*
X149934000Y-99919884D01*
X149938475Y-99935123D01*
X149939865Y-99936328D01*
X149947548Y-99937999D01*
X150614669Y-99937999D01*
X150621490Y-99937629D01*
X150672352Y-99932105D01*
X150687604Y-99928479D01*
X150808054Y-99883324D01*
X150823649Y-99874786D01*
X150874435Y-99836724D01*
X150940942Y-99811876D01*
X151010324Y-99826929D01*
X151025565Y-99836724D01*
X151076351Y-99874786D01*
X151091946Y-99883324D01*
X151212394Y-99928478D01*
X151227649Y-99932105D01*
X151278514Y-99937631D01*
X151285328Y-99938000D01*
X151947885Y-99938000D01*
X151963124Y-99933525D01*
X151964329Y-99932135D01*
X151966000Y-99924452D01*
X151966000Y-98870000D01*
X152474000Y-98870000D01*
X152474000Y-99919884D01*
X152478475Y-99935123D01*
X152479865Y-99936328D01*
X152487548Y-99937999D01*
X153154669Y-99937999D01*
X153161490Y-99937629D01*
X153212352Y-99932105D01*
X153227604Y-99928479D01*
X153348054Y-99883324D01*
X153363649Y-99874786D01*
X153414435Y-99836724D01*
X153480942Y-99811876D01*
X153550324Y-99826929D01*
X153565565Y-99836724D01*
X153616351Y-99874786D01*
X153631946Y-99883324D01*
X153752394Y-99928478D01*
X153767649Y-99932105D01*
X153818514Y-99937631D01*
X153825328Y-99938000D01*
X154487885Y-99938000D01*
X154503124Y-99933525D01*
X154504329Y-99932135D01*
X154506000Y-99924452D01*
X154506000Y-98870000D01*
X155014000Y-98870000D01*
X155014000Y-99919884D01*
X155018475Y-99935123D01*
X155019865Y-99936328D01*
X155027548Y-99937999D01*
X155694669Y-99937999D01*
X155701490Y-99937629D01*
X155752352Y-99932105D01*
X155767604Y-99928479D01*
X155888054Y-99883324D01*
X155903649Y-99874786D01*
X155954435Y-99836724D01*
X156020942Y-99811876D01*
X156090324Y-99826929D01*
X156105565Y-99836724D01*
X156156351Y-99874786D01*
X156171946Y-99883324D01*
X156292394Y-99928478D01*
X156307649Y-99932105D01*
X156358514Y-99937631D01*
X156365328Y-99938000D01*
X157027885Y-99938000D01*
X157043124Y-99933525D01*
X157044329Y-99932135D01*
X157046000Y-99924452D01*
X157046000Y-98870000D01*
X157554000Y-98870000D01*
X157554000Y-99919884D01*
X157558475Y-99935123D01*
X157559865Y-99936328D01*
X157567548Y-99937999D01*
X158234669Y-99937999D01*
X158241490Y-99937629D01*
X158292352Y-99932105D01*
X158307604Y-99928479D01*
X158428054Y-99883324D01*
X158443649Y-99874786D01*
X158494435Y-99836724D01*
X158560942Y-99811876D01*
X158630324Y-99826929D01*
X158645565Y-99836724D01*
X158696351Y-99874786D01*
X158711946Y-99883324D01*
X158832394Y-99928478D01*
X158847649Y-99932105D01*
X158898514Y-99937631D01*
X158905328Y-99938000D01*
X159567885Y-99938000D01*
X159583124Y-99933525D01*
X159584329Y-99932135D01*
X159586000Y-99924452D01*
X159586000Y-98870000D01*
X160094000Y-98870000D01*
X160094000Y-99919884D01*
X160098475Y-99935123D01*
X160099865Y-99936328D01*
X160107548Y-99937999D01*
X160774669Y-99937999D01*
X160781490Y-99937629D01*
X160832352Y-99932105D01*
X160847604Y-99928479D01*
X160968054Y-99883324D01*
X160983649Y-99874786D01*
X161034435Y-99836724D01*
X161100942Y-99811876D01*
X161170324Y-99826929D01*
X161185565Y-99836724D01*
X161236351Y-99874786D01*
X161251946Y-99883324D01*
X161372394Y-99928478D01*
X161387649Y-99932105D01*
X161438514Y-99937631D01*
X161445328Y-99938000D01*
X162107885Y-99938000D01*
X162123124Y-99933525D01*
X162124329Y-99932135D01*
X162126000Y-99924452D01*
X162126000Y-98870000D01*
X162634000Y-98870000D01*
X162634000Y-99919884D01*
X162638475Y-99935123D01*
X162639865Y-99936328D01*
X162647548Y-99937999D01*
X163314669Y-99937999D01*
X163321490Y-99937629D01*
X163372352Y-99932105D01*
X163387604Y-99928479D01*
X163508054Y-99883324D01*
X163523649Y-99874786D01*
X163574435Y-99836724D01*
X163640942Y-99811876D01*
X163710324Y-99826929D01*
X163725565Y-99836724D01*
X163776351Y-99874786D01*
X163791946Y-99883324D01*
X163912394Y-99928478D01*
X163927649Y-99932105D01*
X163978514Y-99937631D01*
X163985328Y-99938000D01*
X164647885Y-99938000D01*
X164663124Y-99933525D01*
X164664329Y-99932135D01*
X164666000Y-99924452D01*
X164666000Y-98870000D01*
X165174000Y-98870000D01*
X165174000Y-99919884D01*
X165178475Y-99935123D01*
X165179865Y-99936328D01*
X165187548Y-99937999D01*
X165854669Y-99937999D01*
X165861490Y-99937629D01*
X165912352Y-99932105D01*
X165927604Y-99928479D01*
X166048054Y-99883324D01*
X166063649Y-99874786D01*
X166114435Y-99836724D01*
X166180942Y-99811876D01*
X166250324Y-99826929D01*
X166265565Y-99836724D01*
X166316351Y-99874786D01*
X166331946Y-99883324D01*
X166452394Y-99928478D01*
X166467649Y-99932105D01*
X166518514Y-99937631D01*
X166525328Y-99938000D01*
X167187885Y-99938000D01*
X167203124Y-99933525D01*
X167204329Y-99932135D01*
X167206000Y-99924452D01*
X167206000Y-98870000D01*
X167714000Y-98870000D01*
X167714000Y-99919884D01*
X167718475Y-99935123D01*
X167719865Y-99936328D01*
X167727548Y-99937999D01*
X168394669Y-99937999D01*
X168401490Y-99937629D01*
X168452352Y-99932105D01*
X168467604Y-99928479D01*
X168588054Y-99883324D01*
X168603649Y-99874786D01*
X168654435Y-99836724D01*
X168720942Y-99811876D01*
X168790324Y-99826929D01*
X168805565Y-99836724D01*
X168856351Y-99874786D01*
X168871946Y-99883324D01*
X168992394Y-99928478D01*
X169007649Y-99932105D01*
X169058514Y-99937631D01*
X169065328Y-99938000D01*
X169727885Y-99938000D01*
X169743124Y-99933525D01*
X169744329Y-99932135D01*
X169746000Y-99924452D01*
X169746000Y-98870000D01*
X170254000Y-98870000D01*
X170254000Y-99919884D01*
X170258475Y-99935123D01*
X170259865Y-99936328D01*
X170267548Y-99937999D01*
X170934669Y-99937999D01*
X170941490Y-99937629D01*
X170992352Y-99932105D01*
X171007604Y-99928479D01*
X171128054Y-99883324D01*
X171143649Y-99874786D01*
X171194435Y-99836724D01*
X171260942Y-99811876D01*
X171330324Y-99826929D01*
X171345565Y-99836724D01*
X171396351Y-99874786D01*
X171411946Y-99883324D01*
X171532394Y-99928478D01*
X171547649Y-99932105D01*
X171598514Y-99937631D01*
X171605328Y-99938000D01*
X172267885Y-99938000D01*
X172283124Y-99933525D01*
X172284329Y-99932135D01*
X172286000Y-99924452D01*
X172286000Y-98870000D01*
X172794000Y-98870000D01*
X172794000Y-99919884D01*
X172798475Y-99935123D01*
X172799865Y-99936328D01*
X172807548Y-99937999D01*
X173474669Y-99937999D01*
X173481490Y-99937629D01*
X173532352Y-99932105D01*
X173547604Y-99928479D01*
X173668054Y-99883324D01*
X173683649Y-99874786D01*
X173734435Y-99836724D01*
X173800942Y-99811876D01*
X173870324Y-99826929D01*
X173885565Y-99836724D01*
X173936351Y-99874786D01*
X173951946Y-99883324D01*
X174072394Y-99928478D01*
X174087649Y-99932105D01*
X174138514Y-99937631D01*
X174145328Y-99938000D01*
X174807885Y-99938000D01*
X174823124Y-99933525D01*
X174824329Y-99932135D01*
X174826000Y-99924452D01*
X174826000Y-98870000D01*
X175334000Y-98870000D01*
X175334000Y-99919884D01*
X175338475Y-99935123D01*
X175339865Y-99936328D01*
X175347548Y-99937999D01*
X176014669Y-99937999D01*
X176021490Y-99937629D01*
X176072352Y-99932105D01*
X176087604Y-99928479D01*
X176208054Y-99883324D01*
X176223649Y-99874786D01*
X176274435Y-99836724D01*
X176340942Y-99811876D01*
X176410324Y-99826929D01*
X176425565Y-99836724D01*
X176476351Y-99874786D01*
X176491946Y-99883324D01*
X176612394Y-99928478D01*
X176627649Y-99932105D01*
X176678514Y-99937631D01*
X176685328Y-99938000D01*
X177347885Y-99938000D01*
X177363124Y-99933525D01*
X177364329Y-99932135D01*
X177366000Y-99924452D01*
X177366000Y-98870000D01*
X177874000Y-98870000D01*
X177874000Y-99919884D01*
X177878475Y-99935123D01*
X177879865Y-99936328D01*
X177887548Y-99937999D01*
X178554669Y-99937999D01*
X178561490Y-99937629D01*
X178612352Y-99932105D01*
X178627604Y-99928479D01*
X178748054Y-99883324D01*
X178763649Y-99874786D01*
X178814435Y-99836724D01*
X178880942Y-99811876D01*
X178950324Y-99826929D01*
X178965565Y-99836724D01*
X179016351Y-99874786D01*
X179031946Y-99883324D01*
X179152394Y-99928478D01*
X179167649Y-99932105D01*
X179218514Y-99937631D01*
X179225328Y-99938000D01*
X179887885Y-99938000D01*
X179903124Y-99933525D01*
X179904329Y-99932135D01*
X179906000Y-99924452D01*
X179906000Y-98870000D01*
X180414000Y-98870000D01*
X180414000Y-99919884D01*
X180418475Y-99935123D01*
X180419865Y-99936328D01*
X180427548Y-99937999D01*
X181094669Y-99937999D01*
X181101490Y-99937629D01*
X181152352Y-99932105D01*
X181167604Y-99928479D01*
X181288054Y-99883324D01*
X181303649Y-99874786D01*
X181354435Y-99836724D01*
X181420942Y-99811876D01*
X181490324Y-99826929D01*
X181505565Y-99836724D01*
X181556351Y-99874786D01*
X181571946Y-99883324D01*
X181692394Y-99928478D01*
X181707649Y-99932105D01*
X181758514Y-99937631D01*
X181765328Y-99938000D01*
X182427885Y-99938000D01*
X182443124Y-99933525D01*
X182444329Y-99932135D01*
X182446000Y-99924452D01*
X182446000Y-98870000D01*
X182954000Y-98870000D01*
X182954000Y-99919884D01*
X182958475Y-99935123D01*
X182959865Y-99936328D01*
X182967548Y-99937999D01*
X183634669Y-99937999D01*
X183641490Y-99937629D01*
X183692352Y-99932105D01*
X183707604Y-99928479D01*
X183828054Y-99883324D01*
X183843649Y-99874786D01*
X183894435Y-99836724D01*
X183960942Y-99811876D01*
X184030324Y-99826929D01*
X184045565Y-99836724D01*
X184096351Y-99874786D01*
X184111946Y-99883324D01*
X184232394Y-99928478D01*
X184247649Y-99932105D01*
X184298514Y-99937631D01*
X184305328Y-99938000D01*
X184967885Y-99938000D01*
X184983124Y-99933525D01*
X184984329Y-99932135D01*
X184986000Y-99924452D01*
X184986000Y-98870000D01*
X185494000Y-98870000D01*
X185494000Y-99919884D01*
X185498475Y-99935123D01*
X185499865Y-99936328D01*
X185507548Y-99937999D01*
X186174669Y-99937999D01*
X186181490Y-99937629D01*
X186232352Y-99932105D01*
X186247604Y-99928479D01*
X186368054Y-99883324D01*
X186383649Y-99874786D01*
X186485724Y-99798285D01*
X186498285Y-99785724D01*
X186574786Y-99683649D01*
X186583324Y-99668054D01*
X186628478Y-99547606D01*
X186632105Y-99532351D01*
X186637631Y-99481486D01*
X186638000Y-99474672D01*
X186638000Y-98996000D01*
X186658002Y-98927879D01*
X186711658Y-98881386D01*
X186764000Y-98870000D01*
X187088500Y-98870000D01*
X187156621Y-98890002D01*
X187203114Y-98943658D01*
X187214500Y-98996000D01*
X187214500Y-109740050D01*
X187194498Y-109808171D01*
X187176489Y-109830239D01*
X185516121Y-111450110D01*
X177260834Y-119504048D01*
X177260127Y-119504666D01*
X177259533Y-119505031D01*
X177258079Y-119506455D01*
X177258072Y-119506461D01*
X177181553Y-119581394D01*
X177181387Y-119581557D01*
X177167137Y-119595460D01*
X177166947Y-119595692D01*
X177166832Y-119595811D01*
X177135228Y-119626760D01*
X177131413Y-119632680D01*
X177115869Y-119656800D01*
X177107458Y-119668355D01*
X177084809Y-119696019D01*
X177081665Y-119702323D01*
X177068103Y-119729515D01*
X177061259Y-119741537D01*
X177040980Y-119773004D01*
X177028750Y-119806604D01*
X177023109Y-119819731D01*
X177007159Y-119851712D01*
X177005491Y-119858553D01*
X177005490Y-119858554D01*
X176998290Y-119888074D01*
X176994280Y-119901312D01*
X176981475Y-119936493D01*
X176980592Y-119943483D01*
X176976996Y-119971947D01*
X176974401Y-119986012D01*
X176967602Y-120013888D01*
X176965931Y-120020739D01*
X176965820Y-120027784D01*
X176965819Y-120027788D01*
X176965315Y-120059659D01*
X176965082Y-120065583D01*
X176964997Y-120066930D01*
X176964500Y-120070863D01*
X176964500Y-120110113D01*
X176964484Y-120112108D01*
X176963176Y-120194700D01*
X176964170Y-120199418D01*
X176964500Y-120206311D01*
X176964500Y-121148892D01*
X176944498Y-121217013D01*
X176890842Y-121263506D01*
X176838879Y-121274891D01*
X176469378Y-121276002D01*
X176401197Y-121256205D01*
X176354543Y-121202690D01*
X176342999Y-121150003D01*
X176342999Y-121050331D01*
X176342629Y-121043510D01*
X176337105Y-120992648D01*
X176333479Y-120977396D01*
X176288324Y-120856946D01*
X176279786Y-120841351D01*
X176203285Y-120739276D01*
X176190724Y-120726715D01*
X176088649Y-120650214D01*
X176073054Y-120641676D01*
X175952606Y-120596522D01*
X175937351Y-120592895D01*
X175886486Y-120587369D01*
X175879672Y-120587000D01*
X175217115Y-120587000D01*
X175201876Y-120591475D01*
X175200671Y-120592865D01*
X175199000Y-120600548D01*
X175199000Y-121279823D01*
X174691000Y-121281351D01*
X174691000Y-120605116D01*
X174686525Y-120589877D01*
X174685135Y-120588672D01*
X174677452Y-120587001D01*
X174010331Y-120587001D01*
X174003510Y-120587371D01*
X173952648Y-120592895D01*
X173937396Y-120596521D01*
X173816946Y-120641676D01*
X173801351Y-120650214D01*
X173750565Y-120688276D01*
X173684058Y-120713124D01*
X173614676Y-120698071D01*
X173599435Y-120688276D01*
X173548649Y-120650214D01*
X173533054Y-120641676D01*
X173412606Y-120596522D01*
X173397351Y-120592895D01*
X173346486Y-120587369D01*
X173339672Y-120587000D01*
X172677115Y-120587000D01*
X172661876Y-120591475D01*
X172660671Y-120592865D01*
X172659000Y-120600548D01*
X172659000Y-121287462D01*
X172151000Y-121288990D01*
X172151000Y-120605116D01*
X172146525Y-120589877D01*
X172145135Y-120588672D01*
X172137452Y-120587001D01*
X171470331Y-120587001D01*
X171463510Y-120587371D01*
X171412648Y-120592895D01*
X171397396Y-120596521D01*
X171276946Y-120641676D01*
X171261351Y-120650214D01*
X171210565Y-120688276D01*
X171144058Y-120713124D01*
X171074676Y-120698071D01*
X171059435Y-120688276D01*
X171008649Y-120650214D01*
X170993054Y-120641676D01*
X170872606Y-120596522D01*
X170857351Y-120592895D01*
X170806486Y-120587369D01*
X170799672Y-120587000D01*
X170137115Y-120587000D01*
X170121876Y-120591475D01*
X170120671Y-120592865D01*
X170119000Y-120600548D01*
X170119000Y-121295101D01*
X170008572Y-121295433D01*
X169611000Y-121296629D01*
X169611000Y-120605116D01*
X169606525Y-120589877D01*
X169605135Y-120588672D01*
X169597452Y-120587001D01*
X168930331Y-120587001D01*
X168923510Y-120587371D01*
X168872648Y-120592895D01*
X168857396Y-120596521D01*
X168736946Y-120641676D01*
X168721351Y-120650214D01*
X168670565Y-120688276D01*
X168604058Y-120713124D01*
X168534676Y-120698071D01*
X168519435Y-120688276D01*
X168468649Y-120650214D01*
X168453054Y-120641676D01*
X168332606Y-120596522D01*
X168317351Y-120592895D01*
X168266486Y-120587369D01*
X168259672Y-120587000D01*
X167597115Y-120587000D01*
X167581876Y-120591475D01*
X167580671Y-120592865D01*
X167579000Y-120600548D01*
X167579000Y-121302740D01*
X167071000Y-121304268D01*
X167071000Y-120605116D01*
X167066525Y-120589877D01*
X167065135Y-120588672D01*
X167057452Y-120587001D01*
X166390331Y-120587001D01*
X166383510Y-120587371D01*
X166332648Y-120592895D01*
X166317396Y-120596521D01*
X166196946Y-120641676D01*
X166181351Y-120650214D01*
X166130565Y-120688276D01*
X166064058Y-120713124D01*
X165994676Y-120698071D01*
X165979435Y-120688276D01*
X165928649Y-120650214D01*
X165913054Y-120641676D01*
X165792606Y-120596522D01*
X165777351Y-120592895D01*
X165726486Y-120587369D01*
X165719672Y-120587000D01*
X165057115Y-120587000D01*
X165041876Y-120591475D01*
X165040671Y-120592865D01*
X165039000Y-120600548D01*
X165039000Y-121310379D01*
X164531000Y-121311907D01*
X164531000Y-120605116D01*
X164526525Y-120589877D01*
X164525135Y-120588672D01*
X164517452Y-120587001D01*
X163850331Y-120587001D01*
X163843510Y-120587371D01*
X163792648Y-120592895D01*
X163777396Y-120596521D01*
X163656946Y-120641676D01*
X163641351Y-120650214D01*
X163590565Y-120688276D01*
X163524058Y-120713124D01*
X163454676Y-120698071D01*
X163439435Y-120688276D01*
X163388649Y-120650214D01*
X163373054Y-120641676D01*
X163252606Y-120596522D01*
X163237351Y-120592895D01*
X163186486Y-120587369D01*
X163179672Y-120587000D01*
X162517115Y-120587000D01*
X162501876Y-120591475D01*
X162500671Y-120592865D01*
X162499000Y-120600548D01*
X162499000Y-121318018D01*
X161991000Y-121319546D01*
X161991000Y-120605116D01*
X161986525Y-120589877D01*
X161985135Y-120588672D01*
X161977452Y-120587001D01*
X161310331Y-120587001D01*
X161303510Y-120587371D01*
X161252648Y-120592895D01*
X161237396Y-120596521D01*
X161116946Y-120641676D01*
X161101351Y-120650214D01*
X161050565Y-120688276D01*
X160984058Y-120713124D01*
X160914676Y-120698071D01*
X160899435Y-120688276D01*
X160848649Y-120650214D01*
X160833054Y-120641676D01*
X160712606Y-120596522D01*
X160697351Y-120592895D01*
X160646486Y-120587369D01*
X160639672Y-120587000D01*
X159977115Y-120587000D01*
X159961876Y-120591475D01*
X159960671Y-120592865D01*
X159959000Y-120600548D01*
X159959000Y-121325657D01*
X159451000Y-121327185D01*
X159451000Y-120605116D01*
X159446525Y-120589877D01*
X159445135Y-120588672D01*
X159437452Y-120587001D01*
X158770331Y-120587001D01*
X158763510Y-120587371D01*
X158712648Y-120592895D01*
X158697396Y-120596521D01*
X158576946Y-120641676D01*
X158561351Y-120650214D01*
X158510565Y-120688276D01*
X158444058Y-120713124D01*
X158374676Y-120698071D01*
X158359435Y-120688276D01*
X158308649Y-120650214D01*
X158293054Y-120641676D01*
X158172606Y-120596522D01*
X158157351Y-120592895D01*
X158106486Y-120587369D01*
X158099672Y-120587000D01*
X157437115Y-120587000D01*
X157421876Y-120591475D01*
X157420671Y-120592865D01*
X157419000Y-120600548D01*
X157419000Y-121333296D01*
X156911000Y-121334824D01*
X156911000Y-120605116D01*
X156906525Y-120589877D01*
X156905135Y-120588672D01*
X156897452Y-120587001D01*
X156230331Y-120587001D01*
X156223510Y-120587371D01*
X156172648Y-120592895D01*
X156157396Y-120596521D01*
X156036946Y-120641676D01*
X156021351Y-120650214D01*
X155970565Y-120688276D01*
X155904058Y-120713124D01*
X155834676Y-120698071D01*
X155819435Y-120688276D01*
X155768649Y-120650214D01*
X155753054Y-120641676D01*
X155632606Y-120596522D01*
X155617351Y-120592895D01*
X155566486Y-120587369D01*
X155559672Y-120587000D01*
X154897115Y-120587000D01*
X154881876Y-120591475D01*
X154880671Y-120592865D01*
X154879000Y-120600548D01*
X154879000Y-121340935D01*
X154371000Y-121342463D01*
X154371000Y-120605116D01*
X154366525Y-120589877D01*
X154365135Y-120588672D01*
X154357452Y-120587001D01*
X153690331Y-120587001D01*
X153683510Y-120587371D01*
X153632648Y-120592895D01*
X153617396Y-120596521D01*
X153496946Y-120641676D01*
X153481351Y-120650214D01*
X153430565Y-120688276D01*
X153364058Y-120713124D01*
X153294676Y-120698071D01*
X153279435Y-120688276D01*
X153228649Y-120650214D01*
X153213054Y-120641676D01*
X153092606Y-120596522D01*
X153077351Y-120592895D01*
X153026486Y-120587369D01*
X153019672Y-120587000D01*
X152357115Y-120587000D01*
X152341876Y-120591475D01*
X152340671Y-120592865D01*
X152339000Y-120600548D01*
X152339000Y-121348575D01*
X151831000Y-121350102D01*
X151831000Y-120605116D01*
X151826525Y-120589877D01*
X151825135Y-120588672D01*
X151817452Y-120587001D01*
X151150331Y-120587001D01*
X151143510Y-120587371D01*
X151092648Y-120592895D01*
X151077396Y-120596521D01*
X150956946Y-120641676D01*
X150941351Y-120650214D01*
X150890565Y-120688276D01*
X150824058Y-120713124D01*
X150754676Y-120698071D01*
X150739435Y-120688276D01*
X150688649Y-120650214D01*
X150673054Y-120641676D01*
X150552606Y-120596522D01*
X150537351Y-120592895D01*
X150486486Y-120587369D01*
X150479672Y-120587000D01*
X149817115Y-120587000D01*
X149801876Y-120591475D01*
X149800671Y-120592865D01*
X149799000Y-120600548D01*
X149799000Y-121356214D01*
X149291000Y-121357742D01*
X149291000Y-120605116D01*
X149286525Y-120589877D01*
X149285135Y-120588672D01*
X149277452Y-120587001D01*
X148610331Y-120587001D01*
X148603510Y-120587371D01*
X148552648Y-120592895D01*
X148537396Y-120596521D01*
X148416946Y-120641676D01*
X148401351Y-120650214D01*
X148350565Y-120688276D01*
X148284058Y-120713124D01*
X148214676Y-120698071D01*
X148199435Y-120688276D01*
X148148649Y-120650214D01*
X148133054Y-120641676D01*
X148012606Y-120596522D01*
X147997351Y-120592895D01*
X147946486Y-120587369D01*
X147939672Y-120587000D01*
X147277115Y-120587000D01*
X147261876Y-120591475D01*
X147260671Y-120592865D01*
X147259000Y-120600548D01*
X147259000Y-121363853D01*
X146751000Y-121365381D01*
X146751000Y-120605116D01*
X146746525Y-120589877D01*
X146745135Y-120588672D01*
X146737452Y-120587001D01*
X146070331Y-120587001D01*
X146063510Y-120587371D01*
X146012648Y-120592895D01*
X145997396Y-120596521D01*
X145876946Y-120641676D01*
X145861351Y-120650214D01*
X145810565Y-120688276D01*
X145744058Y-120713124D01*
X145674676Y-120698071D01*
X145659435Y-120688276D01*
X145608649Y-120650214D01*
X145593054Y-120641676D01*
X145472606Y-120596522D01*
X145457351Y-120592895D01*
X145406486Y-120587369D01*
X145399672Y-120587000D01*
X144737115Y-120587000D01*
X144721876Y-120591475D01*
X144720671Y-120592865D01*
X144719000Y-120600548D01*
X144719000Y-121371492D01*
X144211000Y-121373020D01*
X144211000Y-120605116D01*
X144206525Y-120589877D01*
X144205135Y-120588672D01*
X144197452Y-120587001D01*
X143530331Y-120587001D01*
X143523510Y-120587371D01*
X143472648Y-120592895D01*
X143457396Y-120596521D01*
X143336946Y-120641676D01*
X143321351Y-120650214D01*
X143270565Y-120688276D01*
X143204058Y-120713124D01*
X143134676Y-120698071D01*
X143119435Y-120688276D01*
X143068649Y-120650214D01*
X143053054Y-120641676D01*
X142932606Y-120596522D01*
X142917351Y-120592895D01*
X142866486Y-120587369D01*
X142859672Y-120587000D01*
X142197115Y-120587000D01*
X142181876Y-120591475D01*
X142180671Y-120592865D01*
X142179000Y-120600548D01*
X142179000Y-121379131D01*
X141671000Y-121380659D01*
X141671000Y-120605116D01*
X141666525Y-120589877D01*
X141665135Y-120588672D01*
X141657452Y-120587001D01*
X140990331Y-120587001D01*
X140983510Y-120587371D01*
X140932648Y-120592895D01*
X140917396Y-120596521D01*
X140796946Y-120641676D01*
X140781351Y-120650214D01*
X140730565Y-120688276D01*
X140664058Y-120713124D01*
X140594676Y-120698071D01*
X140579435Y-120688276D01*
X140528649Y-120650214D01*
X140513054Y-120641676D01*
X140392606Y-120596522D01*
X140377351Y-120592895D01*
X140326486Y-120587369D01*
X140319672Y-120587000D01*
X139657115Y-120587000D01*
X139641876Y-120591475D01*
X139640671Y-120592865D01*
X139639000Y-120600548D01*
X139639000Y-121386770D01*
X139131000Y-121388298D01*
X139131000Y-120605116D01*
X139126525Y-120589877D01*
X139125135Y-120588672D01*
X139117452Y-120587001D01*
X138450331Y-120587001D01*
X138443510Y-120587371D01*
X138392648Y-120592895D01*
X138377396Y-120596521D01*
X138256946Y-120641676D01*
X138241351Y-120650214D01*
X138190565Y-120688276D01*
X138124058Y-120713124D01*
X138054676Y-120698071D01*
X138039435Y-120688276D01*
X137988649Y-120650214D01*
X137973054Y-120641676D01*
X137852606Y-120596522D01*
X137837351Y-120592895D01*
X137786486Y-120587369D01*
X137779672Y-120587000D01*
X137117115Y-120587000D01*
X137101876Y-120591475D01*
X137100671Y-120592865D01*
X137099000Y-120600548D01*
X137099000Y-121394409D01*
X136591000Y-121395937D01*
X136591000Y-120605116D01*
X136586525Y-120589877D01*
X136585135Y-120588672D01*
X136577452Y-120587001D01*
X135910331Y-120587001D01*
X135903510Y-120587371D01*
X135852648Y-120592895D01*
X135837396Y-120596521D01*
X135716946Y-120641676D01*
X135701351Y-120650214D01*
X135650565Y-120688276D01*
X135584058Y-120713124D01*
X135514676Y-120698071D01*
X135499435Y-120688276D01*
X135448649Y-120650214D01*
X135433054Y-120641676D01*
X135312606Y-120596522D01*
X135297351Y-120592895D01*
X135246486Y-120587369D01*
X135239672Y-120587000D01*
X134577115Y-120587000D01*
X134561876Y-120591475D01*
X134560671Y-120592865D01*
X134559000Y-120600548D01*
X134559000Y-121402048D01*
X134051000Y-121403576D01*
X134051000Y-120605116D01*
X134046525Y-120589877D01*
X134045135Y-120588672D01*
X134037452Y-120587001D01*
X133370331Y-120587001D01*
X133363510Y-120587371D01*
X133312648Y-120592895D01*
X133297396Y-120596521D01*
X133176946Y-120641676D01*
X133161351Y-120650214D01*
X133059276Y-120726715D01*
X133046715Y-120739276D01*
X132970214Y-120841351D01*
X132961676Y-120856946D01*
X132916522Y-120977394D01*
X132912895Y-120992649D01*
X132907369Y-121043514D01*
X132907000Y-121050328D01*
X132907000Y-121281396D01*
X132886998Y-121349517D01*
X132833342Y-121396010D01*
X132781381Y-121407395D01*
X132441878Y-121408416D01*
X132373698Y-121388619D01*
X132327044Y-121335104D01*
X132315500Y-121282417D01*
X132315500Y-120328869D01*
X132315507Y-120327549D01*
X132316338Y-120248182D01*
X132316412Y-120241135D01*
X132307680Y-120200748D01*
X132305619Y-120188166D01*
X132301798Y-120154101D01*
X132301013Y-120147102D01*
X132290539Y-120117024D01*
X132286377Y-120102218D01*
X132281133Y-120077966D01*
X132279645Y-120071082D01*
X132262177Y-120033622D01*
X132257385Y-120021818D01*
X132246115Y-119989454D01*
X132246112Y-119989448D01*
X132243796Y-119982797D01*
X132226919Y-119955788D01*
X132219578Y-119942268D01*
X132209093Y-119919783D01*
X132206117Y-119913401D01*
X132180794Y-119880754D01*
X132173500Y-119870299D01*
X132155332Y-119841224D01*
X132155331Y-119841223D01*
X132151600Y-119835252D01*
X132124151Y-119807611D01*
X132123610Y-119807033D01*
X132123107Y-119806384D01*
X132098081Y-119781358D01*
X132029006Y-119711799D01*
X132028007Y-119711165D01*
X132026846Y-119710123D01*
X122352405Y-110035683D01*
X122318379Y-109973371D01*
X122315500Y-109946588D01*
X122315500Y-109488577D01*
X134795483Y-109488577D01*
X134806327Y-109764583D01*
X134855953Y-110036309D01*
X134943370Y-110298331D01*
X134950092Y-110311784D01*
X135028550Y-110468802D01*
X135066834Y-110545421D01*
X135223882Y-110772651D01*
X135411380Y-110975485D01*
X135414834Y-110978297D01*
X135622131Y-111147063D01*
X135622135Y-111147066D01*
X135625588Y-111149877D01*
X135629410Y-111152178D01*
X135794304Y-111251452D01*
X135862230Y-111292347D01*
X135960747Y-111334064D01*
X136112482Y-111398316D01*
X136112487Y-111398318D01*
X136116585Y-111400053D01*
X136120882Y-111401192D01*
X136120887Y-111401194D01*
X136250082Y-111435449D01*
X136383579Y-111470845D01*
X136657884Y-111503311D01*
X136934027Y-111496804D01*
X137019587Y-111482563D01*
X137202108Y-111452183D01*
X137202112Y-111452182D01*
X137206498Y-111451452D01*
X137210739Y-111450111D01*
X137210742Y-111450110D01*
X137465615Y-111369504D01*
X137465617Y-111369503D01*
X137469861Y-111368161D01*
X137473872Y-111366235D01*
X137473877Y-111366233D01*
X137714842Y-111250523D01*
X137714843Y-111250522D01*
X137718861Y-111248593D01*
X137722567Y-111246117D01*
X137944821Y-111097612D01*
X137944825Y-111097609D01*
X137948529Y-111095134D01*
X138113847Y-110947063D01*
X138150965Y-110913817D01*
X138150966Y-110913816D01*
X138154283Y-110910845D01*
X138332018Y-110699403D01*
X138478188Y-110465028D01*
X138479985Y-110460963D01*
X138479992Y-110460950D01*
X138521778Y-110366432D01*
X138567616Y-110312216D01*
X138635489Y-110291388D01*
X138703847Y-110310562D01*
X138749730Y-110361058D01*
X138820559Y-110502811D01*
X138854383Y-110570502D01*
X138866834Y-110595421D01*
X138900603Y-110644281D01*
X139011509Y-110804748D01*
X139023882Y-110822651D01*
X139211380Y-111025485D01*
X139214834Y-111028297D01*
X139422131Y-111197063D01*
X139422135Y-111197066D01*
X139425588Y-111199877D01*
X139429410Y-111202178D01*
X139596523Y-111302788D01*
X139662230Y-111342347D01*
X139723192Y-111368161D01*
X139912482Y-111448316D01*
X139912487Y-111448318D01*
X139916585Y-111450053D01*
X139920882Y-111451192D01*
X139920887Y-111451194D01*
X139996975Y-111471368D01*
X140183579Y-111520845D01*
X140457884Y-111553311D01*
X140734027Y-111546804D01*
X140819587Y-111532563D01*
X141002108Y-111502183D01*
X141002112Y-111502182D01*
X141006498Y-111501452D01*
X141010739Y-111500111D01*
X141010742Y-111500110D01*
X141265615Y-111419504D01*
X141265617Y-111419503D01*
X141269861Y-111418161D01*
X141273872Y-111416235D01*
X141273877Y-111416233D01*
X141514842Y-111300523D01*
X141514843Y-111300522D01*
X141518861Y-111298593D01*
X141531650Y-111290048D01*
X141744821Y-111147612D01*
X141744825Y-111147609D01*
X141748529Y-111145134D01*
X141954283Y-110960845D01*
X142132018Y-110749403D01*
X142278188Y-110515028D01*
X142282936Y-110504290D01*
X142310033Y-110442996D01*
X142355872Y-110388780D01*
X142423745Y-110367952D01*
X142492103Y-110387126D01*
X142537987Y-110437624D01*
X142604383Y-110570502D01*
X142616834Y-110595421D01*
X142650603Y-110644281D01*
X142761509Y-110804748D01*
X142773882Y-110822651D01*
X142961380Y-111025485D01*
X142964834Y-111028297D01*
X143172131Y-111197063D01*
X143172135Y-111197066D01*
X143175588Y-111199877D01*
X143179410Y-111202178D01*
X143346523Y-111302788D01*
X143412230Y-111342347D01*
X143473192Y-111368161D01*
X143662482Y-111448316D01*
X143662487Y-111448318D01*
X143666585Y-111450053D01*
X143670882Y-111451192D01*
X143670887Y-111451194D01*
X143746975Y-111471368D01*
X143933579Y-111520845D01*
X144207884Y-111553311D01*
X144484027Y-111546804D01*
X144569587Y-111532563D01*
X144752108Y-111502183D01*
X144752112Y-111502182D01*
X144756498Y-111501452D01*
X144760739Y-111500111D01*
X144760742Y-111500110D01*
X145015615Y-111419504D01*
X145015617Y-111419503D01*
X145019861Y-111418161D01*
X145023872Y-111416235D01*
X145023877Y-111416233D01*
X145264842Y-111300523D01*
X145264843Y-111300522D01*
X145268861Y-111298593D01*
X145281650Y-111290048D01*
X145494821Y-111147612D01*
X145494825Y-111147609D01*
X145498529Y-111145134D01*
X145704283Y-110960845D01*
X145882018Y-110749403D01*
X145906066Y-110710845D01*
X145969069Y-110609823D01*
X146022089Y-110562607D01*
X146075981Y-110550500D01*
X152198292Y-110550500D01*
X152266413Y-110570502D01*
X152290816Y-110590970D01*
X152310401Y-110612157D01*
X152433779Y-110745626D01*
X152461380Y-110775485D01*
X152464834Y-110778297D01*
X152672131Y-110947063D01*
X152672135Y-110947066D01*
X152675588Y-110949877D01*
X152693806Y-110960845D01*
X152842761Y-111050523D01*
X152912230Y-111092347D01*
X152918812Y-111095134D01*
X153162482Y-111198316D01*
X153162487Y-111198318D01*
X153166585Y-111200053D01*
X153170882Y-111201192D01*
X153170887Y-111201194D01*
X153300082Y-111235449D01*
X153433579Y-111270845D01*
X153707884Y-111303311D01*
X153984027Y-111296804D01*
X154069587Y-111282563D01*
X154252108Y-111252183D01*
X154252112Y-111252182D01*
X154256498Y-111251452D01*
X154260739Y-111250111D01*
X154260742Y-111250110D01*
X154515615Y-111169504D01*
X154515617Y-111169503D01*
X154519861Y-111168161D01*
X154523872Y-111166235D01*
X154523877Y-111166233D01*
X154764842Y-111050523D01*
X154764843Y-111050522D01*
X154768861Y-111048593D01*
X154772567Y-111046117D01*
X154994821Y-110897612D01*
X154994825Y-110897609D01*
X154998529Y-110895134D01*
X155204283Y-110710845D01*
X155382018Y-110499403D01*
X155528188Y-110265028D01*
X155548422Y-110219261D01*
X155638077Y-110016463D01*
X155639875Y-110012396D01*
X155714853Y-109746547D01*
X155749502Y-109488577D01*
X155751196Y-109475968D01*
X155751197Y-109475961D01*
X155751623Y-109472786D01*
X155755482Y-109350000D01*
X155735973Y-109074470D01*
X155707367Y-108941597D01*
X155678773Y-108808785D01*
X155678773Y-108808783D01*
X155677837Y-108804438D01*
X155582233Y-108545291D01*
X155580119Y-108541373D01*
X155507255Y-108406332D01*
X155492511Y-108336883D01*
X155517654Y-108270488D01*
X155574701Y-108228226D01*
X155618143Y-108220500D01*
X165020546Y-108220500D01*
X165088667Y-108240502D01*
X165109641Y-108257405D01*
X172421282Y-115569046D01*
X172455308Y-115631358D01*
X172457531Y-115670983D01*
X172445483Y-115788577D01*
X172445658Y-115793029D01*
X172453290Y-115987272D01*
X172456327Y-116064583D01*
X172505953Y-116336309D01*
X172593370Y-116598331D01*
X172595363Y-116602319D01*
X172678550Y-116768802D01*
X172716834Y-116845421D01*
X172873882Y-117072651D01*
X173061380Y-117275485D01*
X173064834Y-117278297D01*
X173272131Y-117447063D01*
X173272135Y-117447066D01*
X173275588Y-117449877D01*
X173279410Y-117452178D01*
X173442761Y-117550523D01*
X173512230Y-117592347D01*
X173610747Y-117634064D01*
X173762482Y-117698316D01*
X173762487Y-117698318D01*
X173766585Y-117700053D01*
X173770882Y-117701192D01*
X173770887Y-117701194D01*
X173900082Y-117735449D01*
X174033579Y-117770845D01*
X174307884Y-117803311D01*
X174584027Y-117796804D01*
X174669587Y-117782563D01*
X174852108Y-117752183D01*
X174852112Y-117752182D01*
X174856498Y-117751452D01*
X174860739Y-117750111D01*
X174860742Y-117750110D01*
X175115615Y-117669504D01*
X175115617Y-117669503D01*
X175119861Y-117668161D01*
X175123872Y-117666235D01*
X175123877Y-117666233D01*
X175364842Y-117550523D01*
X175364843Y-117550522D01*
X175368861Y-117548593D01*
X175372567Y-117546117D01*
X175594821Y-117397612D01*
X175594825Y-117397609D01*
X175598529Y-117395134D01*
X175804283Y-117210845D01*
X175982018Y-116999403D01*
X176128188Y-116765028D01*
X176239875Y-116512396D01*
X176314853Y-116246547D01*
X176335737Y-116091060D01*
X176364630Y-116026208D01*
X176423997Y-115987272D01*
X176494990Y-115986612D01*
X176525605Y-115999887D01*
X176692761Y-116100523D01*
X176762230Y-116142347D01*
X176860747Y-116184064D01*
X177012482Y-116248316D01*
X177012487Y-116248318D01*
X177016585Y-116250053D01*
X177020882Y-116251192D01*
X177020887Y-116251194D01*
X177150082Y-116285449D01*
X177283579Y-116320845D01*
X177557884Y-116353311D01*
X177834027Y-116346804D01*
X177923395Y-116331929D01*
X178102108Y-116302183D01*
X178102112Y-116302182D01*
X178106498Y-116301452D01*
X178110739Y-116300111D01*
X178110742Y-116300110D01*
X178365615Y-116219504D01*
X178365617Y-116219503D01*
X178369861Y-116218161D01*
X178373872Y-116216235D01*
X178373877Y-116216233D01*
X178614842Y-116100523D01*
X178614843Y-116100522D01*
X178618861Y-116098593D01*
X178669761Y-116064583D01*
X178844821Y-115947612D01*
X178844825Y-115947609D01*
X178848529Y-115945134D01*
X179054283Y-115760845D01*
X179232018Y-115549403D01*
X179378188Y-115315028D01*
X179489875Y-115062396D01*
X179564853Y-114796547D01*
X179601623Y-114522786D01*
X179605482Y-114400000D01*
X179585973Y-114124470D01*
X179577003Y-114082803D01*
X179528773Y-113858785D01*
X179528773Y-113858783D01*
X179527837Y-113854438D01*
X179432233Y-113595291D01*
X179301068Y-113352200D01*
X179136960Y-113130016D01*
X178943183Y-112933171D01*
X178723604Y-112765594D01*
X178482604Y-112630627D01*
X178478459Y-112629023D01*
X178478456Y-112629022D01*
X178229134Y-112532567D01*
X178224991Y-112530964D01*
X178220666Y-112529961D01*
X178220661Y-112529960D01*
X178072567Y-112495634D01*
X177955905Y-112468593D01*
X177680715Y-112444759D01*
X177676280Y-112445003D01*
X177676276Y-112445003D01*
X177463766Y-112456699D01*
X177394649Y-112440470D01*
X177367747Y-112419984D01*
X169771223Y-104823460D01*
X181211870Y-104823460D01*
X181250274Y-105016535D01*
X181252768Y-105025528D01*
X181337900Y-105262639D01*
X181341700Y-105271174D01*
X181460946Y-105493101D01*
X181465957Y-105500968D01*
X181616707Y-105702846D01*
X181622812Y-105709870D01*
X181801753Y-105887255D01*
X181808837Y-105893305D01*
X182012018Y-106042284D01*
X182019928Y-106047227D01*
X182242890Y-106164533D01*
X182251453Y-106168256D01*
X182489304Y-106251318D01*
X182498313Y-106253732D01*
X182678201Y-106287885D01*
X182691261Y-106286601D01*
X182695696Y-106272662D01*
X183204000Y-106272662D01*
X183208171Y-106286867D01*
X183220934Y-106288922D01*
X183266615Y-106283920D01*
X183275792Y-106282219D01*
X183519431Y-106218074D01*
X183528251Y-106215037D01*
X183759736Y-106115583D01*
X183768008Y-106111276D01*
X183982249Y-105978700D01*
X183989789Y-105973222D01*
X184182087Y-105810431D01*
X184188737Y-105803895D01*
X184354857Y-105614471D01*
X184360465Y-105607030D01*
X184496765Y-105395127D01*
X184501212Y-105386936D01*
X184604691Y-105157222D01*
X184607882Y-105148455D01*
X184676269Y-104905976D01*
X184678129Y-104896834D01*
X184687653Y-104821970D01*
X184685365Y-104807708D01*
X184672345Y-104804000D01*
X183222115Y-104804000D01*
X183206876Y-104808475D01*
X183205671Y-104809865D01*
X183204000Y-104817548D01*
X183204000Y-106272662D01*
X182695696Y-106272662D01*
X182696000Y-106271705D01*
X182696000Y-104822115D01*
X182691525Y-104806876D01*
X182690135Y-104805671D01*
X182682452Y-104804000D01*
X181226114Y-104804000D01*
X181213713Y-104807641D01*
X181211870Y-104823460D01*
X169771223Y-104823460D01*
X169650520Y-104702757D01*
X169644883Y-104696739D01*
X169639935Y-104691097D01*
X169599910Y-104645457D01*
X169595379Y-104641885D01*
X169526886Y-104587889D01*
X169524324Y-104585814D01*
X169457325Y-104530092D01*
X169457323Y-104530090D01*
X169452883Y-104526398D01*
X169447839Y-104523573D01*
X169447713Y-104523502D01*
X169431291Y-104512529D01*
X169431176Y-104512438D01*
X169431171Y-104512435D01*
X169426640Y-104508863D01*
X169344383Y-104465585D01*
X169341502Y-104464021D01*
X169260379Y-104418590D01*
X169254780Y-104416690D01*
X169236613Y-104408884D01*
X169236494Y-104408822D01*
X169236492Y-104408821D01*
X169231380Y-104406131D01*
X169142606Y-104378566D01*
X169139480Y-104377550D01*
X169056921Y-104349525D01*
X169056916Y-104349524D01*
X169051452Y-104347669D01*
X169045584Y-104346818D01*
X169026330Y-104342461D01*
X169026183Y-104342415D01*
X169026177Y-104342414D01*
X169020667Y-104340703D01*
X169014939Y-104340025D01*
X169014934Y-104340024D01*
X168941194Y-104331297D01*
X168928344Y-104329776D01*
X168925085Y-104329347D01*
X168902327Y-104326047D01*
X168838811Y-104316837D01*
X168838807Y-104316837D01*
X168833098Y-104316009D01*
X168746714Y-104319403D01*
X168741767Y-104319500D01*
X140824740Y-104319500D01*
X140816499Y-104319230D01*
X140770821Y-104316236D01*
X140748440Y-104314769D01*
X140737964Y-104316009D01*
X140656060Y-104325703D01*
X140652780Y-104326047D01*
X140566043Y-104334017D01*
X140566040Y-104334018D01*
X140560289Y-104334546D01*
X140554728Y-104336115D01*
X140554725Y-104336115D01*
X140554597Y-104336151D01*
X140535218Y-104340006D01*
X140535074Y-104340023D01*
X140535068Y-104340024D01*
X140529333Y-104340703D01*
X140440524Y-104368278D01*
X140437392Y-104369206D01*
X140347936Y-104394435D01*
X140342751Y-104396992D01*
X140342746Y-104396994D01*
X140342624Y-104397054D01*
X140324263Y-104404379D01*
X140324136Y-104404418D01*
X140324130Y-104404421D01*
X140318621Y-104406131D01*
X140313516Y-104408817D01*
X140313506Y-104408821D01*
X140236382Y-104449398D01*
X140233443Y-104450896D01*
X140155236Y-104489463D01*
X140155228Y-104489468D01*
X140150053Y-104492020D01*
X140145311Y-104495561D01*
X140128585Y-104506114D01*
X140123360Y-104508863D01*
X140101117Y-104526398D01*
X140050371Y-104566403D01*
X140047769Y-104568399D01*
X139973267Y-104624033D01*
X139956765Y-104641885D01*
X139914570Y-104687531D01*
X139911140Y-104691097D01*
X137030903Y-107571334D01*
X136968591Y-107605360D01*
X136930936Y-107607769D01*
X136842373Y-107600099D01*
X136780715Y-107594759D01*
X136776280Y-107595003D01*
X136776276Y-107595003D01*
X136509356Y-107609693D01*
X136509349Y-107609694D01*
X136504913Y-107609938D01*
X136329854Y-107644759D01*
X136238364Y-107662957D01*
X136238362Y-107662958D01*
X136234001Y-107663825D01*
X135973384Y-107755347D01*
X135728263Y-107882678D01*
X135724648Y-107885261D01*
X135724642Y-107885265D01*
X135507150Y-108040687D01*
X135507146Y-108040690D01*
X135503529Y-108043275D01*
X135500309Y-108046347D01*
X135309651Y-108228226D01*
X135303665Y-108233936D01*
X135300909Y-108237431D01*
X135300908Y-108237433D01*
X135285164Y-108257405D01*
X135132659Y-108450856D01*
X135067294Y-108563391D01*
X134996161Y-108685853D01*
X134996158Y-108685859D01*
X134993923Y-108689707D01*
X134890226Y-108945723D01*
X134823636Y-109213796D01*
X134795483Y-109488577D01*
X122315500Y-109488577D01*
X122315500Y-104723460D01*
X123411870Y-104723460D01*
X123450274Y-104916535D01*
X123452768Y-104925528D01*
X123537900Y-105162639D01*
X123541700Y-105171174D01*
X123660946Y-105393101D01*
X123665957Y-105400968D01*
X123816707Y-105602846D01*
X123822812Y-105609870D01*
X124001753Y-105787255D01*
X124008837Y-105793305D01*
X124212018Y-105942284D01*
X124219928Y-105947227D01*
X124442890Y-106064533D01*
X124451453Y-106068256D01*
X124689304Y-106151318D01*
X124698313Y-106153732D01*
X124878201Y-106187885D01*
X124891261Y-106186601D01*
X124895696Y-106172662D01*
X125404000Y-106172662D01*
X125408171Y-106186867D01*
X125420934Y-106188922D01*
X125466615Y-106183920D01*
X125475792Y-106182219D01*
X125719431Y-106118074D01*
X125728251Y-106115037D01*
X125959736Y-106015583D01*
X125968008Y-106011276D01*
X126182249Y-105878700D01*
X126189789Y-105873222D01*
X126382087Y-105710431D01*
X126388737Y-105703895D01*
X126554857Y-105514471D01*
X126560465Y-105507030D01*
X126696765Y-105295127D01*
X126701212Y-105286936D01*
X126804691Y-105057222D01*
X126807882Y-105048455D01*
X126876269Y-104805976D01*
X126878129Y-104796834D01*
X126887653Y-104721970D01*
X126885365Y-104707708D01*
X126872345Y-104704000D01*
X125422115Y-104704000D01*
X125406876Y-104708475D01*
X125405671Y-104709865D01*
X125404000Y-104717548D01*
X125404000Y-106172662D01*
X124895696Y-106172662D01*
X124896000Y-106171705D01*
X124896000Y-104722115D01*
X124891525Y-104706876D01*
X124890135Y-104705671D01*
X124882452Y-104704000D01*
X123426114Y-104704000D01*
X123413713Y-104707641D01*
X123411870Y-104723460D01*
X122315500Y-104723460D01*
X122315500Y-104277975D01*
X181210419Y-104277975D01*
X181213179Y-104292703D01*
X181225357Y-104296000D01*
X182677885Y-104296000D01*
X182693124Y-104291525D01*
X182694329Y-104290135D01*
X182696000Y-104282452D01*
X182696000Y-104277885D01*
X183204000Y-104277885D01*
X183208475Y-104293124D01*
X183209865Y-104294329D01*
X183217548Y-104296000D01*
X184675940Y-104296000D01*
X184690817Y-104291632D01*
X184692252Y-104283613D01*
X184636929Y-104039126D01*
X184634205Y-104030215D01*
X184542888Y-103795392D01*
X184538877Y-103786983D01*
X184413854Y-103568240D01*
X184408643Y-103560514D01*
X184252659Y-103362650D01*
X184246366Y-103355782D01*
X184062856Y-103183152D01*
X184055602Y-103177278D01*
X183848597Y-103033673D01*
X183840562Y-103028940D01*
X183614593Y-102917505D01*
X183605960Y-102914017D01*
X183366006Y-102837207D01*
X183356924Y-102835027D01*
X183221880Y-102813033D01*
X183208286Y-102814729D01*
X183204000Y-102828839D01*
X183204000Y-104277885D01*
X182696000Y-104277885D01*
X182696000Y-102828394D01*
X182691982Y-102814710D01*
X182678290Y-102812689D01*
X182588096Y-102824964D01*
X182578978Y-102826902D01*
X182337098Y-102897404D01*
X182328367Y-102900667D01*
X182099558Y-103006151D01*
X182091406Y-103010670D01*
X181880709Y-103148808D01*
X181873304Y-103154491D01*
X181685346Y-103322249D01*
X181678861Y-103328965D01*
X181517761Y-103522666D01*
X181512346Y-103530258D01*
X181381646Y-103745646D01*
X181377408Y-103753963D01*
X181279981Y-103986299D01*
X181277020Y-103995149D01*
X181215005Y-104239333D01*
X181213384Y-104248527D01*
X181210419Y-104277975D01*
X122315500Y-104277975D01*
X122315500Y-104177975D01*
X123410419Y-104177975D01*
X123413179Y-104192703D01*
X123425357Y-104196000D01*
X124877885Y-104196000D01*
X124893124Y-104191525D01*
X124894329Y-104190135D01*
X124896000Y-104182452D01*
X124896000Y-104177885D01*
X125404000Y-104177885D01*
X125408475Y-104193124D01*
X125409865Y-104194329D01*
X125417548Y-104196000D01*
X126875940Y-104196000D01*
X126890817Y-104191632D01*
X126892252Y-104183613D01*
X126836929Y-103939126D01*
X126834205Y-103930215D01*
X126742888Y-103695392D01*
X126738877Y-103686983D01*
X126613854Y-103468240D01*
X126608643Y-103460514D01*
X126452659Y-103262650D01*
X126446366Y-103255782D01*
X126262856Y-103083152D01*
X126255602Y-103077278D01*
X126048597Y-102933673D01*
X126040562Y-102928940D01*
X125814593Y-102817505D01*
X125805960Y-102814017D01*
X125566006Y-102737207D01*
X125556924Y-102735027D01*
X125421880Y-102713033D01*
X125408286Y-102714729D01*
X125404000Y-102728839D01*
X125404000Y-104177885D01*
X124896000Y-104177885D01*
X124896000Y-102728394D01*
X124891982Y-102714710D01*
X124878290Y-102712689D01*
X124788096Y-102724964D01*
X124778978Y-102726902D01*
X124537098Y-102797404D01*
X124528367Y-102800667D01*
X124299558Y-102906151D01*
X124291406Y-102910670D01*
X124080709Y-103048808D01*
X124073304Y-103054491D01*
X123885346Y-103222249D01*
X123878861Y-103228965D01*
X123717761Y-103422666D01*
X123712346Y-103430258D01*
X123581646Y-103645646D01*
X123577408Y-103653963D01*
X123479981Y-103886299D01*
X123477020Y-103895149D01*
X123415005Y-104139333D01*
X123413384Y-104148527D01*
X123410419Y-104177975D01*
X122315500Y-104177975D01*
X122315500Y-98996000D01*
X122335502Y-98927879D01*
X122389158Y-98881386D01*
X122441500Y-98870000D01*
X122756001Y-98870000D01*
X122824122Y-98890002D01*
G37*
%TD.AperFunction*%
%TD*%
M02*
