%TF.GenerationSoftware,KiCad,Pcbnew,6.0.11-2627ca5db0~126~ubuntu22.04.1*%
%TF.CreationDate,2026-06-12T10:04:33-03:00*%
%TF.ProjectId,Adaptador_8p_525p,41646170-7461-4646-9f72-5f38705f3532,rev?*%
%TF.SameCoordinates,Original*%
%TF.FileFunction,Copper,L1,Top*%
%TF.FilePolarity,Positive*%
%FSLAX46Y46*%
G04 Gerber Fmt 4.6, Leading zero omitted, Abs format (unit mm)*
G04 Created by KiCad (PCBNEW 6.0.11-2627ca5db0~126~ubuntu22.04.1) date 2026-06-12 10:04:33*
%MOMM*%
%LPD*%
G01*
G04 APERTURE LIST*
%TA.AperFunction,Profile*%
%ADD10C,0.100000*%
%TD*%
%ADD11C,0.625000*%
%TA.AperFunction,NonConductor*%
%ADD12C,0.625000*%
%TD*%
%TA.AperFunction,ConnectorPad*%
%ADD13R,1.780000X7.620000*%
%TD*%
%TA.AperFunction,ComponentPad*%
%ADD14O,2.500000X2.500000*%
%TD*%
%TA.AperFunction,Conductor*%
%ADD15C,1.000000*%
%TD*%
G04 APERTURE END LIST*
D10*
X177740000Y-128970000D02*
X177740000Y-120120000D01*
X131540000Y-128970000D02*
X177740000Y-128970000D01*
X177740000Y-120120000D02*
X187990000Y-110120000D01*
X121540000Y-90250000D02*
X121540000Y-110320000D01*
X187990000Y-90250000D02*
X121540000Y-90250000D01*
X187990000Y-110120000D02*
X187990000Y-90250000D01*
X121540000Y-110320000D02*
X131540000Y-120320000D01*
X131540000Y-120320000D02*
X131540000Y-128970000D01*
D11*
D12*
X134790000Y-114688452D02*
X133599523Y-114688452D01*
X133599523Y-112188452D01*
X135504285Y-113974166D02*
X136694761Y-113974166D01*
X135266190Y-114688452D02*
X136099523Y-112188452D01*
X136932857Y-114688452D01*
X139194761Y-114450357D02*
X139075714Y-114569404D01*
X138718571Y-114688452D01*
X138480476Y-114688452D01*
X138123333Y-114569404D01*
X137885238Y-114331309D01*
X137766190Y-114093214D01*
X137647142Y-113617023D01*
X137647142Y-113259880D01*
X137766190Y-112783690D01*
X137885238Y-112545595D01*
X138123333Y-112307500D01*
X138480476Y-112188452D01*
X138718571Y-112188452D01*
X139075714Y-112307500D01*
X139194761Y-112426547D01*
X133004285Y-116451547D02*
X133123333Y-116332500D01*
X133361428Y-116213452D01*
X133956666Y-116213452D01*
X134194761Y-116332500D01*
X134313809Y-116451547D01*
X134432857Y-116689642D01*
X134432857Y-116927738D01*
X134313809Y-117284880D01*
X132885238Y-118713452D01*
X134432857Y-118713452D01*
X135980476Y-116213452D02*
X136218571Y-116213452D01*
X136456666Y-116332500D01*
X136575714Y-116451547D01*
X136694761Y-116689642D01*
X136813809Y-117165833D01*
X136813809Y-117761071D01*
X136694761Y-118237261D01*
X136575714Y-118475357D01*
X136456666Y-118594404D01*
X136218571Y-118713452D01*
X135980476Y-118713452D01*
X135742380Y-118594404D01*
X135623333Y-118475357D01*
X135504285Y-118237261D01*
X135385238Y-117761071D01*
X135385238Y-117165833D01*
X135504285Y-116689642D01*
X135623333Y-116451547D01*
X135742380Y-116332500D01*
X135980476Y-116213452D01*
X137766190Y-116451547D02*
X137885238Y-116332500D01*
X138123333Y-116213452D01*
X138718571Y-116213452D01*
X138956666Y-116332500D01*
X139075714Y-116451547D01*
X139194761Y-116689642D01*
X139194761Y-116927738D01*
X139075714Y-117284880D01*
X137647142Y-118713452D01*
X139194761Y-118713452D01*
X141337619Y-116213452D02*
X140861428Y-116213452D01*
X140623333Y-116332500D01*
X140504285Y-116451547D01*
X140266190Y-116808690D01*
X140147142Y-117284880D01*
X140147142Y-118237261D01*
X140266190Y-118475357D01*
X140385238Y-118594404D01*
X140623333Y-118713452D01*
X141099523Y-118713452D01*
X141337619Y-118594404D01*
X141456666Y-118475357D01*
X141575714Y-118237261D01*
X141575714Y-117642023D01*
X141456666Y-117403928D01*
X141337619Y-117284880D01*
X141099523Y-117165833D01*
X140623333Y-117165833D01*
X140385238Y-117284880D01*
X140266190Y-117403928D01*
X140147142Y-117642023D01*
D13*
%TO.P,J2,2,Pin_2*%
%TO.N,unconnected-(J2-Pad2)*%
X134305000Y-124905000D03*
%TO.P,J2,4,Pin_4*%
%TO.N,unconnected-(J2-Pad4)*%
X136845000Y-124905000D03*
%TO.P,J2,6,Pin_6*%
%TO.N,unconnected-(J2-Pad6)*%
X139385000Y-124905000D03*
%TO.P,J2,8,Pin_8*%
%TO.N,/Index*%
X141925000Y-124905000D03*
%TO.P,J2,10,Pin_10*%
%TO.N,unconnected-(J2-Pad10)*%
X144465000Y-124905000D03*
%TO.P,J2,12,Pin_12*%
%TO.N,/DS1*%
X147005000Y-124905000D03*
%TO.P,J2,14,Pin_14*%
%TO.N,unconnected-(J2-Pad14)*%
X149545000Y-124905000D03*
%TO.P,J2,16,Pin_16*%
%TO.N,/Motor On*%
X152085000Y-124905000D03*
%TO.P,J2,18,Pin_18*%
%TO.N,/Direction*%
X154625000Y-124905000D03*
%TO.P,J2,20,Pin_20*%
%TO.N,/Step*%
X157165000Y-124905000D03*
%TO.P,J2,22,Pin_22*%
%TO.N,/Write Data*%
X159705000Y-124905000D03*
%TO.P,J2,24,Pin_24*%
%TO.N,/Write Gate*%
X162245000Y-124905000D03*
%TO.P,J2,26,Pin_26*%
%TO.N,/Track 0 Detect*%
X164785000Y-124905000D03*
%TO.P,J2,28,Pin_28*%
%TO.N,/Write Protect*%
X167325000Y-124905000D03*
%TO.P,J2,30,Pin_30*%
%TO.N,/Read Data*%
X169865000Y-124905000D03*
%TO.P,J2,32,Pin_32*%
%TO.N,/Side1 Select*%
X172405000Y-124905000D03*
%TO.P,J2,34,Pin_34*%
%TO.N,/Ready*%
X174945000Y-124905000D03*
%TD*%
%TO.P,J1,2,Pin_2*%
%TO.N,unconnected-(J1-Pad2)*%
X124280000Y-95620000D03*
%TO.P,J1,4,Pin_4*%
%TO.N,unconnected-(J1-Pad4)*%
X126820000Y-95620000D03*
%TO.P,J1,6,Pin_6*%
%TO.N,unconnected-(J1-Pad6)*%
X129360000Y-95620000D03*
%TO.P,J1,8,Pin_8*%
%TO.N,unconnected-(J1-Pad8)*%
X131900000Y-95620000D03*
%TO.P,J1,10,Pin_10*%
%TO.N,unconnected-(J1-Pad10)*%
X134440000Y-95620000D03*
%TO.P,J1,12,Pin_12*%
%TO.N,/Ready*%
X136980000Y-95620000D03*
%TO.P,J1,14,Pin_14*%
%TO.N,/Side1 Select*%
X139520000Y-95620000D03*
%TO.P,J1,16,Pin_16*%
%TO.N,unconnected-(J1-Pad16)*%
X142060000Y-95620000D03*
%TO.P,J1,18,Pin_18*%
%TO.N,/Motor On*%
X144600000Y-95620000D03*
%TO.P,J1,20,Pin_20*%
%TO.N,/Index*%
X147140000Y-95620000D03*
%TO.P,J1,22,Pin_22*%
%TO.N,unconnected-(J1-Pad22)*%
X149680000Y-95620000D03*
%TO.P,J1,24,Pin_24*%
%TO.N,unconnected-(J1-Pad24)*%
X152220000Y-95620000D03*
%TO.P,J1,26,Pin_26*%
%TO.N,/DS1*%
X154760000Y-95620000D03*
%TO.P,J1,28,Pin_28*%
%TO.N,unconnected-(J1-Pad28)*%
X157300000Y-95620000D03*
%TO.P,J1,30,Pin_30*%
%TO.N,unconnected-(J1-Pad30)*%
X159840000Y-95620000D03*
%TO.P,J1,32,Pin_32*%
%TO.N,unconnected-(J1-Pad32)*%
X162380000Y-95620000D03*
%TO.P,J1,34,Pin_34*%
%TO.N,/Direction*%
X164920000Y-95620000D03*
%TO.P,J1,36,Pin_36*%
%TO.N,/Step*%
X167460000Y-95620000D03*
%TO.P,J1,38,Pin_38*%
%TO.N,/Write Data*%
X170000000Y-95620000D03*
%TO.P,J1,40,Pin_40*%
%TO.N,/Write Gate*%
X172540000Y-95620000D03*
%TO.P,J1,42,Pin_42*%
%TO.N,/Track 0 Detect*%
X175080000Y-95620000D03*
%TO.P,J1,44,Pin_44*%
%TO.N,/Write Protect*%
X177620000Y-95620000D03*
%TO.P,J1,46,Pin_46*%
%TO.N,/Read Data*%
X180160000Y-95620000D03*
%TO.P,J1,48,Pin_48*%
%TO.N,unconnected-(J1-Pad48)*%
X182700000Y-95620000D03*
%TO.P,J1,50,Pin_50*%
%TO.N,unconnected-(J1-Pad50)*%
X185240000Y-95620000D03*
%TD*%
D14*
%TO.P,,1*%
%TO.N,/Motor On*%
X153800000Y-109350000D03*
%TD*%
%TO.P,,1*%
%TO.N,GND*%
X182950000Y-104550000D03*
%TD*%
%TO.P,,1*%
%TO.N,/Motor On*%
X144300000Y-109600000D03*
%TD*%
%TO.P,,1*%
%TO.N,/Side1 Select*%
X140550000Y-109600000D03*
%TD*%
%TO.P,,1*%
%TO.N,/Ready*%
X136750000Y-109550000D03*
%TD*%
%TO.P,,1*%
%TO.N,/Side1 Select*%
X174400000Y-115850000D03*
%TD*%
%TO.P,,1*%
%TO.N,/Ready*%
X177650000Y-114400000D03*
%TD*%
%TO.P,,1*%
%TO.N,GND*%
X125150000Y-104450000D03*
%TD*%
D15*
%TO.N,/Ready*%
X136980000Y-95620000D02*
X136980000Y-109320000D01*
X136980000Y-109320000D02*
X136750000Y-109550000D01*
%TO.N,/Side1 Select*%
X139520000Y-95620000D02*
X139520000Y-108570000D01*
X139520000Y-108570000D02*
X140550000Y-109600000D01*
%TO.N,/Motor On*%
X144600000Y-95620000D02*
X144600000Y-109300000D01*
X144600000Y-109300000D02*
X144300000Y-109600000D01*
%TO.N,/Index*%
X147140000Y-95620000D02*
X147140000Y-115620000D01*
X147140000Y-115620000D02*
X141925000Y-120835000D01*
X141925000Y-120835000D02*
X141925000Y-124905000D01*
%TO.N,/DS1*%
X154760000Y-95620000D02*
X154760000Y-102800000D01*
X149950000Y-107610000D02*
X149950000Y-117800000D01*
X154760000Y-102800000D02*
X149950000Y-107610000D01*
X149950000Y-117800000D02*
X147005000Y-120745000D01*
X147005000Y-120745000D02*
X147005000Y-124905000D01*
%TO.N,/Ready*%
X177650000Y-114400000D02*
X177650000Y-116100000D01*
X177650000Y-116100000D02*
X174945000Y-118805000D01*
X174945000Y-124905000D02*
X174945000Y-118805000D01*
%TO.N,/Side1 Select*%
X172405000Y-117845000D02*
X172405000Y-124905000D01*
X174400000Y-115850000D02*
X172405000Y-117845000D01*
%TO.N,/Motor On*%
X153800000Y-109350000D02*
X152085000Y-111065000D01*
X152085000Y-111065000D02*
X152085000Y-124905000D01*
%TO.N,/Direction*%
X154625000Y-113885000D02*
X154625000Y-124905000D01*
X164920000Y-103590000D02*
X154625000Y-113885000D01*
X164920000Y-95620000D02*
X164920000Y-103590000D01*
%TO.N,/Step*%
X157165000Y-114795000D02*
X157165000Y-124905000D01*
X167460000Y-95620000D02*
X167460000Y-104500000D01*
X167460000Y-104500000D02*
X157165000Y-114795000D01*
%TO.N,/Write Data*%
X170000000Y-95620000D02*
X170000000Y-105310000D01*
X170000000Y-105310000D02*
X159705000Y-115605000D01*
X159705000Y-115605000D02*
X159705000Y-124905000D01*
%TO.N,/Write Gate*%
X172540000Y-95620000D02*
X172540000Y-105820000D01*
X162245000Y-116115000D02*
X162245000Y-124905000D01*
X172540000Y-105820000D02*
X162245000Y-116115000D01*
%TO.N,/Track 0 Detect*%
X164785000Y-116775000D02*
X164785000Y-124905000D01*
X175080000Y-95620000D02*
X175080000Y-106480000D01*
X175080000Y-106480000D02*
X164785000Y-116775000D01*
%TO.N,/Write Protect*%
X177620000Y-106490000D02*
X167325000Y-116785000D01*
X167325000Y-116785000D02*
X167325000Y-124905000D01*
X177620000Y-95620000D02*
X177620000Y-106490000D01*
%TO.N,/Read Data*%
X169865000Y-116995000D02*
X169865000Y-124905000D01*
X180160000Y-106700000D02*
X169865000Y-116995000D01*
X180160000Y-95620000D02*
X180160000Y-106700000D01*
%TD*%
%TA.AperFunction,Conductor*%
%TO.N,GND*%
G36*
X187156621Y-98890002D02*
G01*
X187203114Y-98943658D01*
X187214500Y-98996000D01*
X187214500Y-109740050D01*
X187194498Y-109808171D01*
X187176489Y-109830239D01*
X185417010Y-111546804D01*
X177260834Y-119504048D01*
X177260127Y-119504666D01*
X177259533Y-119505031D01*
X177258079Y-119506455D01*
X177258072Y-119506461D01*
X177181553Y-119581394D01*
X177181387Y-119581557D01*
X177167137Y-119595460D01*
X177166947Y-119595692D01*
X177166832Y-119595811D01*
X177135228Y-119626760D01*
X177131413Y-119632680D01*
X177115869Y-119656800D01*
X177107458Y-119668355D01*
X177084809Y-119696019D01*
X177081665Y-119702323D01*
X177068103Y-119729515D01*
X177061259Y-119741537D01*
X177040980Y-119773004D01*
X177028750Y-119806604D01*
X177023109Y-119819731D01*
X177007159Y-119851712D01*
X177005491Y-119858553D01*
X177005490Y-119858554D01*
X176998290Y-119888074D01*
X176994280Y-119901312D01*
X176981475Y-119936493D01*
X176980592Y-119943483D01*
X176976996Y-119971947D01*
X176974401Y-119986012D01*
X176967602Y-120013888D01*
X176965931Y-120020739D01*
X176965820Y-120027784D01*
X176965819Y-120027788D01*
X176965315Y-120059659D01*
X176965082Y-120065583D01*
X176964997Y-120066930D01*
X176964500Y-120070863D01*
X176964500Y-120110113D01*
X176964484Y-120112108D01*
X176963176Y-120194700D01*
X176964170Y-120199418D01*
X176964500Y-120206311D01*
X176964500Y-121148892D01*
X176944498Y-121217013D01*
X176890842Y-121263506D01*
X176838879Y-121274891D01*
X176815310Y-121274962D01*
X176661876Y-121275423D01*
X176593698Y-121255628D01*
X176547044Y-121202112D01*
X176535499Y-121149425D01*
X176535499Y-121039008D01*
X176535234Y-121036116D01*
X176529440Y-120973060D01*
X176528829Y-120966406D01*
X176478127Y-120804617D01*
X176390297Y-120659592D01*
X176270408Y-120539703D01*
X176206229Y-120500835D01*
X176158322Y-120448438D01*
X176145500Y-120393059D01*
X176145500Y-119354454D01*
X176165502Y-119286333D01*
X176182405Y-119265359D01*
X178467251Y-116980513D01*
X178473269Y-116974876D01*
X178520196Y-116933722D01*
X178524543Y-116929910D01*
X178582100Y-116856899D01*
X178584138Y-116854381D01*
X178643602Y-116782883D01*
X178646498Y-116777713D01*
X178657471Y-116761291D01*
X178657562Y-116761176D01*
X178657565Y-116761171D01*
X178661137Y-116756640D01*
X178704415Y-116674383D01*
X178705989Y-116671483D01*
X178735785Y-116618280D01*
X178751410Y-116590379D01*
X178753266Y-116584912D01*
X178753270Y-116584903D01*
X178753315Y-116584769D01*
X178761116Y-116566613D01*
X178761180Y-116566491D01*
X178763869Y-116561380D01*
X178775373Y-116524333D01*
X178791429Y-116472625D01*
X178792448Y-116469489D01*
X178820475Y-116386923D01*
X178820475Y-116386922D01*
X178822332Y-116381452D01*
X178823182Y-116375590D01*
X178827544Y-116356313D01*
X178829297Y-116350667D01*
X178834428Y-116307319D01*
X178840222Y-116258360D01*
X178840653Y-116255089D01*
X178849875Y-116191483D01*
X178853991Y-116163098D01*
X178850597Y-116076714D01*
X178850500Y-116071767D01*
X178850500Y-115999665D01*
X178870502Y-115931544D01*
X178892435Y-115905809D01*
X179050960Y-115763822D01*
X179050965Y-115763817D01*
X179054283Y-115760845D01*
X179232018Y-115549403D01*
X179378188Y-115315028D01*
X179453967Y-115143620D01*
X179488077Y-115066463D01*
X179489875Y-115062396D01*
X179564853Y-114796547D01*
X179601623Y-114522786D01*
X179605482Y-114400000D01*
X179585973Y-114124470D01*
X179583314Y-114112117D01*
X179528773Y-113858785D01*
X179528773Y-113858783D01*
X179527837Y-113854438D01*
X179432233Y-113595291D01*
X179301068Y-113352200D01*
X179136960Y-113130016D01*
X178943183Y-112933171D01*
X178723604Y-112765594D01*
X178669448Y-112735265D01*
X178486490Y-112632803D01*
X178486487Y-112632802D01*
X178482604Y-112630627D01*
X178478459Y-112629023D01*
X178478456Y-112629022D01*
X178229134Y-112532567D01*
X178224991Y-112530964D01*
X178220666Y-112529961D01*
X178220661Y-112529960D01*
X178072567Y-112495634D01*
X177955905Y-112468593D01*
X177680715Y-112444759D01*
X177676280Y-112445003D01*
X177676276Y-112445003D01*
X177409356Y-112459693D01*
X177409349Y-112459694D01*
X177404913Y-112459938D01*
X177217848Y-112497147D01*
X177138364Y-112512957D01*
X177138362Y-112512958D01*
X177134001Y-112513825D01*
X176873384Y-112605347D01*
X176628263Y-112732678D01*
X176624648Y-112735261D01*
X176624642Y-112735265D01*
X176407150Y-112890687D01*
X176407146Y-112890690D01*
X176403529Y-112893275D01*
X176400309Y-112896347D01*
X176229154Y-113059621D01*
X176203665Y-113083936D01*
X176200909Y-113087431D01*
X176200908Y-113087433D01*
X176110499Y-113202117D01*
X176032659Y-113300856D01*
X175980106Y-113391333D01*
X175896161Y-113535853D01*
X175896158Y-113535859D01*
X175893923Y-113539707D01*
X175790226Y-113795723D01*
X175789155Y-113800036D01*
X175789153Y-113800041D01*
X175724709Y-114059475D01*
X175723636Y-114063796D01*
X175723182Y-114068224D01*
X175723182Y-114068226D01*
X175714010Y-114157747D01*
X175687169Y-114223475D01*
X175629054Y-114264257D01*
X175558116Y-114267145D01*
X175512224Y-114245068D01*
X175473604Y-114215594D01*
X175370311Y-114157747D01*
X175236490Y-114082803D01*
X175236487Y-114082802D01*
X175232604Y-114080627D01*
X175228459Y-114079023D01*
X175228456Y-114079022D01*
X174979134Y-113982567D01*
X174974991Y-113980964D01*
X174872938Y-113957309D01*
X174811094Y-113922443D01*
X174777918Y-113859675D01*
X174783942Y-113788934D01*
X174812295Y-113745469D01*
X180977251Y-107580513D01*
X180983269Y-107574876D01*
X181003201Y-107557396D01*
X181034543Y-107529910D01*
X181092100Y-107456899D01*
X181094138Y-107454381D01*
X181153602Y-107382883D01*
X181156498Y-107377713D01*
X181167471Y-107361291D01*
X181167562Y-107361176D01*
X181167565Y-107361171D01*
X181171137Y-107356640D01*
X181214415Y-107274383D01*
X181215989Y-107271483D01*
X181233330Y-107240520D01*
X181261410Y-107190379D01*
X181263266Y-107184912D01*
X181263270Y-107184903D01*
X181263315Y-107184769D01*
X181271116Y-107166613D01*
X181271180Y-107166491D01*
X181273869Y-107161380D01*
X181301429Y-107072625D01*
X181302448Y-107069489D01*
X181330475Y-106986923D01*
X181330475Y-106986922D01*
X181332332Y-106981452D01*
X181333182Y-106975590D01*
X181337544Y-106956313D01*
X181339297Y-106950667D01*
X181341473Y-106932287D01*
X181350222Y-106858360D01*
X181350653Y-106855089D01*
X181362079Y-106776285D01*
X181363991Y-106763098D01*
X181360597Y-106676714D01*
X181360500Y-106671767D01*
X181360500Y-105739066D01*
X181380502Y-105670945D01*
X181434158Y-105624452D01*
X181504432Y-105614348D01*
X181569012Y-105643842D01*
X181587458Y-105663677D01*
X181616707Y-105702846D01*
X181622812Y-105709870D01*
X181801753Y-105887255D01*
X181808837Y-105893305D01*
X182012018Y-106042284D01*
X182019928Y-106047227D01*
X182242890Y-106164533D01*
X182251453Y-106168256D01*
X182489304Y-106251318D01*
X182498313Y-106253732D01*
X182678201Y-106287885D01*
X182691261Y-106286601D01*
X182695696Y-106272662D01*
X183204000Y-106272662D01*
X183208171Y-106286867D01*
X183220934Y-106288922D01*
X183266615Y-106283920D01*
X183275792Y-106282219D01*
X183519431Y-106218074D01*
X183528251Y-106215037D01*
X183759736Y-106115583D01*
X183768008Y-106111276D01*
X183982249Y-105978700D01*
X183989789Y-105973222D01*
X184182087Y-105810431D01*
X184188737Y-105803895D01*
X184354857Y-105614471D01*
X184360465Y-105607030D01*
X184496765Y-105395127D01*
X184501212Y-105386936D01*
X184604691Y-105157222D01*
X184607882Y-105148455D01*
X184676269Y-104905976D01*
X184678129Y-104896834D01*
X184687653Y-104821970D01*
X184685365Y-104807708D01*
X184672345Y-104804000D01*
X183222115Y-104804000D01*
X183206876Y-104808475D01*
X183205671Y-104809865D01*
X183204000Y-104817548D01*
X183204000Y-106272662D01*
X182695696Y-106272662D01*
X182696000Y-106271705D01*
X182696000Y-104277885D01*
X183204000Y-104277885D01*
X183208475Y-104293124D01*
X183209865Y-104294329D01*
X183217548Y-104296000D01*
X184675940Y-104296000D01*
X184690817Y-104291632D01*
X184692252Y-104283613D01*
X184636929Y-104039126D01*
X184634205Y-104030215D01*
X184542888Y-103795392D01*
X184538877Y-103786983D01*
X184413854Y-103568240D01*
X184408643Y-103560514D01*
X184252659Y-103362650D01*
X184246366Y-103355782D01*
X184062856Y-103183152D01*
X184055602Y-103177278D01*
X183848597Y-103033673D01*
X183840562Y-103028940D01*
X183614593Y-102917505D01*
X183605960Y-102914017D01*
X183366006Y-102837207D01*
X183356924Y-102835027D01*
X183221880Y-102813033D01*
X183208286Y-102814729D01*
X183204000Y-102828839D01*
X183204000Y-104277885D01*
X182696000Y-104277885D01*
X182696000Y-102828394D01*
X182691982Y-102814710D01*
X182678290Y-102812689D01*
X182588096Y-102824964D01*
X182578978Y-102826902D01*
X182337098Y-102897404D01*
X182328367Y-102900667D01*
X182099558Y-103006151D01*
X182091406Y-103010670D01*
X181880709Y-103148808D01*
X181873304Y-103154491D01*
X181685346Y-103322249D01*
X181678861Y-103328965D01*
X181583374Y-103443775D01*
X181524436Y-103483359D01*
X181453454Y-103484795D01*
X181392964Y-103447628D01*
X181362171Y-103383657D01*
X181360500Y-103363206D01*
X181360500Y-100194791D01*
X181380502Y-100126670D01*
X181434158Y-100080177D01*
X181504432Y-100070073D01*
X181524179Y-100074557D01*
X181542113Y-100080177D01*
X181681406Y-100123829D01*
X181754007Y-100130500D01*
X181756905Y-100130500D01*
X182702454Y-100130499D01*
X183645992Y-100130499D01*
X183648850Y-100130236D01*
X183648859Y-100130236D01*
X183687670Y-100126670D01*
X183718594Y-100123829D01*
X183724979Y-100121828D01*
X183873134Y-100075399D01*
X183873136Y-100075398D01*
X183880383Y-100073127D01*
X183904730Y-100058382D01*
X183973360Y-100040204D01*
X184035270Y-100058382D01*
X184059617Y-100073127D01*
X184066864Y-100075398D01*
X184066866Y-100075399D01*
X184082113Y-100080177D01*
X184221406Y-100123829D01*
X184294007Y-100130500D01*
X184296905Y-100130500D01*
X185242454Y-100130499D01*
X186185992Y-100130499D01*
X186188850Y-100130236D01*
X186188859Y-100130236D01*
X186227670Y-100126670D01*
X186258594Y-100123829D01*
X186264979Y-100121828D01*
X186413134Y-100075399D01*
X186413136Y-100075398D01*
X186420383Y-100073127D01*
X186565408Y-99985297D01*
X186685297Y-99865408D01*
X186773127Y-99720383D01*
X186823829Y-99558594D01*
X186830500Y-99485993D01*
X186830500Y-98996000D01*
X186850502Y-98927879D01*
X186904158Y-98881386D01*
X186956500Y-98870000D01*
X187088500Y-98870000D01*
X187156621Y-98890002D01*
G37*
%TD.AperFunction*%
%TA.AperFunction,Conductor*%
G36*
X122631622Y-98890002D02*
G01*
X122678115Y-98943658D01*
X122689501Y-98996000D01*
X122689501Y-99485992D01*
X122689764Y-99488850D01*
X122689764Y-99488859D01*
X122693015Y-99524243D01*
X122696171Y-99558594D01*
X122746873Y-99720383D01*
X122834703Y-99865408D01*
X122954592Y-99985297D01*
X123099617Y-100073127D01*
X123106864Y-100075398D01*
X123106866Y-100075399D01*
X123122113Y-100080177D01*
X123261406Y-100123829D01*
X123334007Y-100130500D01*
X123336905Y-100130500D01*
X124282454Y-100130499D01*
X125225992Y-100130499D01*
X125228850Y-100130236D01*
X125228859Y-100130236D01*
X125267670Y-100126670D01*
X125298594Y-100123829D01*
X125304979Y-100121828D01*
X125453134Y-100075399D01*
X125453136Y-100075398D01*
X125460383Y-100073127D01*
X125484730Y-100058382D01*
X125553360Y-100040204D01*
X125615270Y-100058382D01*
X125639617Y-100073127D01*
X125646864Y-100075398D01*
X125646866Y-100075399D01*
X125662113Y-100080177D01*
X125801406Y-100123829D01*
X125874007Y-100130500D01*
X125876905Y-100130500D01*
X126822454Y-100130499D01*
X127765992Y-100130499D01*
X127768850Y-100130236D01*
X127768859Y-100130236D01*
X127807670Y-100126670D01*
X127838594Y-100123829D01*
X127844979Y-100121828D01*
X127993134Y-100075399D01*
X127993136Y-100075398D01*
X128000383Y-100073127D01*
X128024730Y-100058382D01*
X128093360Y-100040204D01*
X128155270Y-100058382D01*
X128179617Y-100073127D01*
X128186864Y-100075398D01*
X128186866Y-100075399D01*
X128202113Y-100080177D01*
X128341406Y-100123829D01*
X128414007Y-100130500D01*
X128416905Y-100130500D01*
X129362454Y-100130499D01*
X130305992Y-100130499D01*
X130308850Y-100130236D01*
X130308859Y-100130236D01*
X130347670Y-100126670D01*
X130378594Y-100123829D01*
X130384979Y-100121828D01*
X130533134Y-100075399D01*
X130533136Y-100075398D01*
X130540383Y-100073127D01*
X130564730Y-100058382D01*
X130633360Y-100040204D01*
X130695270Y-100058382D01*
X130719617Y-100073127D01*
X130726864Y-100075398D01*
X130726866Y-100075399D01*
X130742113Y-100080177D01*
X130881406Y-100123829D01*
X130954007Y-100130500D01*
X130956905Y-100130500D01*
X131902454Y-100130499D01*
X132845992Y-100130499D01*
X132848850Y-100130236D01*
X132848859Y-100130236D01*
X132887670Y-100126670D01*
X132918594Y-100123829D01*
X132924979Y-100121828D01*
X133073134Y-100075399D01*
X133073136Y-100075398D01*
X133080383Y-100073127D01*
X133104730Y-100058382D01*
X133173360Y-100040204D01*
X133235270Y-100058382D01*
X133259617Y-100073127D01*
X133266864Y-100075398D01*
X133266866Y-100075399D01*
X133282113Y-100080177D01*
X133421406Y-100123829D01*
X133494007Y-100130500D01*
X133496905Y-100130500D01*
X134442454Y-100130499D01*
X135385992Y-100130499D01*
X135388850Y-100130236D01*
X135388859Y-100130236D01*
X135427670Y-100126670D01*
X135458594Y-100123829D01*
X135464979Y-100121828D01*
X135615821Y-100074557D01*
X135686806Y-100073273D01*
X135747216Y-100110570D01*
X135777873Y-100174606D01*
X135779500Y-100194791D01*
X135779500Y-107781238D01*
X135759498Y-107849359D01*
X135726758Y-107883753D01*
X135615281Y-107963416D01*
X135503529Y-108043275D01*
X135303665Y-108233936D01*
X135300909Y-108237431D01*
X135300908Y-108237433D01*
X135227922Y-108330016D01*
X135132659Y-108450856D01*
X135073794Y-108552200D01*
X134996161Y-108685853D01*
X134996158Y-108685859D01*
X134993923Y-108689707D01*
X134890226Y-108945723D01*
X134889155Y-108950036D01*
X134889153Y-108950041D01*
X134873316Y-109013796D01*
X134823636Y-109213796D01*
X134795483Y-109488577D01*
X134806327Y-109764583D01*
X134855953Y-110036309D01*
X134900268Y-110169137D01*
X134913859Y-110209874D01*
X134916443Y-110280823D01*
X134880260Y-110341907D01*
X134816795Y-110373732D01*
X134794335Y-110375750D01*
X131515095Y-110375750D01*
X131515095Y-118894182D01*
X131495093Y-118962303D01*
X131441437Y-119008796D01*
X131371163Y-119018900D01*
X131306583Y-118989406D01*
X131300000Y-118983277D01*
X122352405Y-110035683D01*
X122318379Y-109973371D01*
X122315500Y-109946588D01*
X122315500Y-104723460D01*
X123411870Y-104723460D01*
X123450274Y-104916535D01*
X123452768Y-104925528D01*
X123537900Y-105162639D01*
X123541700Y-105171174D01*
X123660946Y-105393101D01*
X123665957Y-105400968D01*
X123816707Y-105602846D01*
X123822812Y-105609870D01*
X124001753Y-105787255D01*
X124008837Y-105793305D01*
X124212018Y-105942284D01*
X124219928Y-105947227D01*
X124442890Y-106064533D01*
X124451453Y-106068256D01*
X124689304Y-106151318D01*
X124698313Y-106153732D01*
X124878201Y-106187885D01*
X124891261Y-106186601D01*
X124895696Y-106172662D01*
X125404000Y-106172662D01*
X125408171Y-106186867D01*
X125420934Y-106188922D01*
X125466615Y-106183920D01*
X125475792Y-106182219D01*
X125719431Y-106118074D01*
X125728251Y-106115037D01*
X125959736Y-106015583D01*
X125968008Y-106011276D01*
X126182249Y-105878700D01*
X126189789Y-105873222D01*
X126382087Y-105710431D01*
X126388737Y-105703895D01*
X126554857Y-105514471D01*
X126560465Y-105507030D01*
X126696765Y-105295127D01*
X126701212Y-105286936D01*
X126804691Y-105057222D01*
X126807882Y-105048455D01*
X126876269Y-104805976D01*
X126878129Y-104796834D01*
X126887653Y-104721970D01*
X126885365Y-104707708D01*
X126872345Y-104704000D01*
X125422115Y-104704000D01*
X125406876Y-104708475D01*
X125405671Y-104709865D01*
X125404000Y-104717548D01*
X125404000Y-106172662D01*
X124895696Y-106172662D01*
X124896000Y-106171705D01*
X124896000Y-104722115D01*
X124891525Y-104706876D01*
X124890135Y-104705671D01*
X124882452Y-104704000D01*
X123426114Y-104704000D01*
X123413713Y-104707641D01*
X123411870Y-104723460D01*
X122315500Y-104723460D01*
X122315500Y-104177975D01*
X123410419Y-104177975D01*
X123413179Y-104192703D01*
X123425357Y-104196000D01*
X124877885Y-104196000D01*
X124893124Y-104191525D01*
X124894329Y-104190135D01*
X124896000Y-104182452D01*
X124896000Y-104177885D01*
X125404000Y-104177885D01*
X125408475Y-104193124D01*
X125409865Y-104194329D01*
X125417548Y-104196000D01*
X126875940Y-104196000D01*
X126890817Y-104191632D01*
X126892252Y-104183613D01*
X126836929Y-103939126D01*
X126834205Y-103930215D01*
X126742888Y-103695392D01*
X126738877Y-103686983D01*
X126613854Y-103468240D01*
X126608643Y-103460514D01*
X126452659Y-103262650D01*
X126446366Y-103255782D01*
X126262856Y-103083152D01*
X126255602Y-103077278D01*
X126048597Y-102933673D01*
X126040562Y-102928940D01*
X125814593Y-102817505D01*
X125805960Y-102814017D01*
X125566006Y-102737207D01*
X125556924Y-102735027D01*
X125421880Y-102713033D01*
X125408286Y-102714729D01*
X125404000Y-102728839D01*
X125404000Y-104177885D01*
X124896000Y-104177885D01*
X124896000Y-102728394D01*
X124891982Y-102714710D01*
X124878290Y-102712689D01*
X124788096Y-102724964D01*
X124778978Y-102726902D01*
X124537098Y-102797404D01*
X124528367Y-102800667D01*
X124299558Y-102906151D01*
X124291406Y-102910670D01*
X124080709Y-103048808D01*
X124073304Y-103054491D01*
X123885346Y-103222249D01*
X123878861Y-103228965D01*
X123717761Y-103422666D01*
X123712346Y-103430258D01*
X123581646Y-103645646D01*
X123577408Y-103653963D01*
X123479981Y-103886299D01*
X123477020Y-103895149D01*
X123415005Y-104139333D01*
X123413384Y-104148527D01*
X123410419Y-104177975D01*
X122315500Y-104177975D01*
X122315500Y-98996000D01*
X122335502Y-98927879D01*
X122389158Y-98881386D01*
X122441500Y-98870000D01*
X122563501Y-98870000D01*
X122631622Y-98890002D01*
G37*
%TD.AperFunction*%
%TD*%
M02*
